# Blender 4.2.3 LTS
# www.blender.org
mtllib Glass.mtl
o Glass
v 0.000000 0.077582 -0.069880
v 0.049412 0.077582 -0.049412
v 0.069880 0.077582 -0.000000
v 0.049412 0.077582 0.049412
v 0.000000 0.077582 0.069880
v -0.049412 0.077582 0.049412
v -0.069880 0.077582 -0.000000
v -0.049412 0.077582 -0.049412
v 0.000000 0.076535 -0.068098
v 0.048152 0.076535 -0.048152
v 0.068098 0.076535 -0.000000
v 0.048152 0.076535 0.048152
v 0.000000 0.076535 0.068098
v -0.048152 0.076535 0.048152
v -0.068098 0.076535 -0.000000
v -0.048152 0.076535 -0.048152
v 0.032330 -0.077524 -0.032330
v 0.000000 -0.077524 -0.045722
v 0.045722 -0.077524 0.000000
v 0.032330 -0.077524 0.032330
v 0.000000 -0.077524 0.045722
v -0.032330 -0.077524 0.032330
v -0.045722 -0.077524 0.000000
v -0.032330 -0.077524 -0.032330
v 0.026711 0.077582 -0.064486
v 0.064486 0.077582 -0.026711
v 0.064486 0.077582 0.026711
v 0.026711 0.077582 0.064486
v -0.026711 0.077582 0.064486
v -0.064486 0.077582 0.026711
v -0.064486 0.077582 -0.026711
v -0.026711 0.077582 -0.064486
v 0.017477 -0.077524 -0.042193
v 0.042193 -0.077524 -0.017477
v 0.042193 -0.077524 0.017477
v 0.017477 -0.077524 0.042193
v -0.017477 -0.077524 0.042193
v -0.042193 -0.077524 0.017477
v -0.042193 -0.077524 -0.017477
v -0.017477 -0.077524 -0.042193
v 0.026030 0.076535 -0.062842
v 0.062842 0.076535 -0.026030
v 0.062842 0.076535 0.026030
v 0.026030 0.076535 0.062842
v -0.026030 0.076535 0.062842
v -0.062842 0.076535 0.026030
v -0.062842 0.076535 -0.026030
v -0.026030 0.076535 -0.062842
v -0.000000 -0.072034 0.000000
v -0.000000 -0.077524 0.000000
v 0.000000 -0.069768 -0.043628
v 0.017058 -0.069766 -0.040308
v 0.031123 -0.069759 -0.031123
v 0.040308 -0.069766 -0.017058
v 0.043628 -0.069768 0.000000
v 0.040308 -0.069766 0.017058
v 0.031123 -0.069759 0.031123
v 0.017058 -0.069766 0.040308
v 0.000000 -0.069768 0.043628
v -0.017058 -0.069766 0.040308
v -0.031123 -0.069759 0.031123
v -0.040308 -0.069766 0.017058
v -0.043628 -0.069768 0.000000
v -0.040308 -0.069766 -0.017058
v -0.031123 -0.069759 -0.031123
v -0.017058 -0.069766 -0.040308
vn 0.3564 -0.3644 0.8604
vn 0.6584 -0.3648 0.6584
vn 0.7066 -0.0365 0.7066
vn 0.3824 -0.0365 0.9233
vn -0.3734 0.2015 -0.9055
vn -0.3720 0.2350 -0.8980
vn -0.6873 0.2353 -0.6873
vn -0.6933 0.1963 -0.6933
vn -0.3564 -0.3644 -0.8604
vn -0.3824 -0.0365 -0.9233
vn -0.0000 -0.0365 -0.9993
vn -0.0000 -0.3647 -0.9311
vn -0.8604 -0.3644 0.3564
vn -0.6584 -0.3648 0.6584
vn -0.7066 -0.0365 0.7066
vn -0.9233 -0.0365 0.3824
vn 0.8604 -0.3644 0.3564
vn 0.9233 -0.0365 0.3825
vn -0.6584 -0.3648 -0.6584
vn -0.7066 -0.0365 -0.7066
vn -0.3564 -0.3644 0.8604
vn -0.3825 -0.0365 0.9233
vn 0.9311 -0.3647 -0.0000
vn 0.9993 -0.0365 -0.0000
vn -0.8604 -0.3644 -0.3564
vn -0.9233 -0.0365 -0.3825
vn -0.9311 -0.3647 -0.0000
vn -0.9993 -0.0365 -0.0000
vn 0.8604 -0.3644 -0.3564
vn 0.9233 -0.0365 -0.3824
vn 0.6584 -0.3648 -0.6584
vn 0.7066 -0.0365 -0.7066
vn -0.0000 -0.3647 0.9311
vn -0.0000 -0.0365 0.9993
vn 0.3564 -0.3644 -0.8604
vn 0.3825 -0.0365 -0.9233
vn -0.0000 0.2072 0.9783
vn -0.0000 0.2351 0.9720
vn 0.3720 0.2350 0.8980
vn 0.3734 0.2015 0.9055
vn -0.8980 0.2350 -0.3720
vn -0.9055 0.2015 -0.3734
vn 0.6873 0.2353 0.6873
vn 0.6933 0.1963 0.6933
vn 0.6933 0.1963 -0.6933
vn 0.6873 0.2353 -0.6873
vn 0.3720 0.2350 -0.8980
vn 0.3734 0.2015 -0.9055
vn -0.9720 0.2351 -0.0000
vn -0.9783 0.2072 -0.0000
vn 0.8980 0.2350 0.3720
vn 0.9055 0.2015 0.3734
vn -0.0000 0.2351 -0.9720
vn -0.0000 0.2072 -0.9783
vn -0.8980 0.2350 0.3720
vn -0.9055 0.2015 0.3734
vn 0.9720 0.2351 -0.0000
vn 0.9783 0.2072 -0.0000
vn 0.8980 0.2350 -0.3720
vn 0.9055 0.2015 -0.3734
vn -0.6873 0.2353 0.6873
vn -0.6933 0.1963 0.6933
vn -0.3720 0.2350 0.8980
vn -0.3734 0.2015 0.9055
vn -0.0000 0.9675 0.2528
vn -0.0000 0.6754 0.7375
vn -0.2826 0.6743 0.6823
vn -0.0968 0.9675 0.2335
vn -0.2335 0.9675 0.0967
vn -0.6823 0.6743 0.2826
vn -0.7375 0.6754 -0.0000
vn -0.2528 0.9675 -0.0000
vn -0.1789 0.9675 0.1789
vn -0.5215 0.6753 0.5215
vn -0.2335 0.9675 -0.0968
vn -0.6823 0.6743 -0.2826
vn -0.5216 0.6753 -0.5215
vn -0.1789 0.9675 -0.1789
vn -0.0967 0.9675 -0.2335
vn -0.2826 0.6743 -0.6823
vn -0.0000 0.6754 -0.7375
vn -0.0000 0.9675 -0.2528
vn 0.0968 0.9675 -0.2335
vn 0.2826 0.6743 -0.6823
vn 0.5215 0.6753 -0.5216
vn 0.1789 0.9675 -0.1789
vn 0.2335 0.9675 -0.0967
vn 0.6823 0.6743 -0.2826
vn 0.7375 0.6754 -0.0000
vn 0.2528 0.9675 -0.0000
vn 0.2335 0.9675 0.0968
vn 0.6823 0.6743 0.2826
vn 0.5216 0.6753 0.5215
vn 0.1789 0.9675 0.1789
vn 0.0967 0.9675 0.2335
vn 0.2826 0.6744 0.6822
vn 0.2005 -0.9797 -0.0000
vn 0.1855 -0.9796 0.0769
vn -0.1419 -0.9796 0.1420
vn -0.1855 -0.9796 -0.0769
vn -0.1419 -0.9797 -0.1419
vn 0.1419 -0.9797 0.1419
vn -0.1419 -0.9797 0.1419
vn -0.1855 -0.9796 0.0769
vn 0.1419 -0.9797 -0.1419
vn 0.1855 -0.9796 -0.0769
vn -0.2005 -0.9797 -0.0000
vn -0.0000 -0.9797 0.2005
vn -0.0769 -0.9796 0.1855
vn -0.0000 -0.9797 -0.2005
vn 0.0769 -0.9796 -0.1855
vn -0.0769 -0.9796 -0.1855
vn 0.0769 -0.9796 0.1855
vn 0.0299 0.9992 0.0278
vn -0.0346 0.9956 0.0868
vn -0.0000 0.9951 0.0989
vn -0.0626 0.9961 0.0626
vn -0.0868 0.9956 0.0346
vn -0.0989 0.9951 -0.0000
vn -0.0868 0.9956 -0.0346
vn -0.0626 0.9961 -0.0626
vn -0.0346 0.9956 -0.0868
vn -0.0000 0.9951 -0.0989
vn 0.0346 0.9956 -0.0868
vn 0.0626 0.9961 -0.0626
vn 0.0868 0.9956 -0.0346
vn 0.0989 0.9951 -0.0000
vn 0.0868 0.9956 0.0346
vn 0.0626 0.9961 0.0626
vn 0.0346 0.9956 0.0868
vt 0.543107 0.506660
vt 0.543148 0.506660
vt 0.543037 0.506660
vt 0.543001 0.506660
vt 0.543108 0.506660
vt 0.543150 0.506660
vt 0.543035 0.506660
vt 0.542713 0.506660
vt 0.542677 0.506660
vt 0.543081 0.506660
vt 0.542957 0.506660
vt 0.542979 0.506660
vt 0.542893 0.506660
vt 0.542857 0.506660
vt 0.543177 0.506660
vt 0.543073 0.506660
vt 0.542994 0.506660
vt 0.542749 0.506660
vt 0.543016 0.506660
vt 0.542929 0.506660
vt 0.543190 0.506660
vt 0.543109 0.506660
vt 0.542965 0.506660
vt 0.542785 0.506660
vt 0.542952 0.506660
vt 0.542821 0.506660
vt 0.543185 0.506660
vt 0.543145 0.506660
vt 0.543163 0.506660
vt 0.543181 0.506660
vt 0.543061 0.506660
vt 0.543126 0.506660
vt 0.543217 0.506660
vt 0.543082 0.506660
vt 0.543034 0.506660
vt 0.543178 0.506660
vt 0.542992 0.506660
vt 0.542978 0.506660
vt 0.543014 0.506660
vt 0.543192 0.506660
vt 0.542964 0.506660
vt 0.543186 0.506660
vt 0.542950 0.506660
vt 0.542956 0.506660
vt 0.543165 0.506660
vt 0.543128 0.506660
vt 0.543253 0.506660
vt 0.543122 0.506660
vt 0.543155 0.506660
vt 0.543174 0.506660
vt 0.543179 0.506660
vt 0.543167 0.506660
vt 0.543141 0.506660
vt 0.543104 0.506660
vt 0.543062 0.506660
vt 0.543020 0.506660
vt 0.542988 0.506660
vt 0.542968 0.506660
vt 0.542963 0.506660
vt 0.542976 0.506660
vt 0.543001 0.506660
vt 0.543038 0.506660
vt 0.543081 0.506660
s 1
usemtl Material
f 36/1/1 20/2/2 4/3/3 28/4/4
f 58/5/5 44/4/6 12/3/7 57/6/8
f 40/7/9 32/8/10 1/9/11 18/10/12
f 38/11/13 22/12/14 6/13/15 30/14/16
f 20/2/2 35/15/17 27/16/18 4/3/3
f 40/7/9 24/17/19 8/18/20 32/8/10
f 22/12/14 37/19/21 29/20/22 6/13/15
f 35/15/17 19/21/23 3/22/24 27/16/18
f 24/17/19 39/23/25 31/24/26 8/18/20
f 39/23/25 23/25/27 7/26/28 31/24/26
f 19/21/23 34/27/29 26/28/30 3/22/24
f 34/27/29 17/29/31 2/30/32 26/28/30
f 23/25/27 38/11/13 30/14/16 7/26/28
f 37/19/21 21/31/33 5/23/34 29/20/22
f 17/29/31 33/32/35 25/33/36 2/30/32
f 21/31/33 36/1/1 28/4/4 5/23/34
f 51/34/37 9/9/38 48/8/39 66/35/40
f 57/6/8 12/3/7 43/16/41 56/36/42
f 66/35/40 48/8/39 16/18/43 65/37/44
f 61/38/45 14/13/46 45/20/47 60/39/48
f 56/36/42 43/16/41 11/22/49 55/40/50
f 65/37/44 16/18/43 47/24/51 64/41/52
f 60/39/48 45/20/47 13/23/53 59/31/54
f 55/40/50 11/22/49 42/28/55 54/42/56
f 64/41/52 47/24/51 15/26/57 63/43/58
f 63/43/58 15/26/57 46/14/59 62/44/60
f 54/42/56 42/28/55 10/30/61 53/45/62
f 53/45/62 10/30/61 41/33/63 52/46/64
f 62/44/60 46/14/59 14/13/46 61/38/45
f 59/31/54 13/23/53 44/4/6 58/5/5
f 52/46/64 41/33/63 9/47/38 51/34/37
f 1/47/65 9/47/66 41/33/67 25/33/68
f 26/28/69 42/28/70 11/22/71 3/22/72
f 2/30/73 10/30/74 42/28/70 26/28/69
f 27/16/75 43/16/76 12/3/77 4/3/78
f 3/22/72 11/22/71 43/16/76 27/16/75
f 28/4/79 44/4/80 13/23/81 5/23/82
f 4/3/78 12/3/77 44/4/80 28/4/79
f 29/20/83 45/20/84 14/13/85 6/13/86
f 5/23/82 13/23/81 45/20/84 29/20/83
f 30/14/87 46/14/88 15/26/89 7/26/90
f 6/13/86 14/13/85 46/14/88 30/14/87
f 31/24/91 47/24/92 16/18/93 8/18/94
f 7/26/90 15/26/89 47/24/92 31/24/91
f 32/8/95 48/8/96 9/9/66 1/9/65
f 8/18/94 16/18/93 48/8/96 32/8/95
f 19/21/97 35/15/98 50/21/99
f 39/23/100 24/17/101 50/23/99
f 35/15/98 20/2/102 50/15/99
f 22/12/103 38/11/104 50/12/99
f 17/29/105 34/27/106 50/29/99
f 38/11/104 23/25/107 50/11/99
f 34/27/106 19/21/97 50/27/99
f 21/31/108 37/19/109 50/31/99
f 18/10/110 33/32/111 50/10/99
f 37/19/109 22/12/103 50/19/99
f 24/17/101 40/7/112 50/17/99
f 33/32/111 17/29/105 50/32/99
f 20/2/102 36/1/113 50/2/99
f 40/7/112 18/10/110 50/7/99
f 36/1/113 21/31/108 50/1/99
f 23/25/107 39/23/100 50/25/99
f 25/33/68 41/33/67 10/30/74 2/30/73
f 33/32/35 18/10/12 1/47/11 25/33/36
f 49/48/114 52/46/115 51/34/116
f 49/49/114 53/45/117 52/46/115
f 49/50/114 54/42/118 53/45/117
f 49/51/114 55/40/119 54/42/118
f 49/52/114 56/36/120 55/40/119
f 49/53/114 57/6/121 56/36/120
f 49/54/114 58/5/122 57/6/121
f 49/55/114 59/31/123 58/5/122
f 49/56/114 60/39/124 59/31/123
f 49/57/114 61/38/125 60/39/124
f 49/58/114 62/44/126 61/38/125
f 49/59/114 63/43/127 62/44/126
f 49/60/114 64/41/128 63/43/127
f 49/61/114 65/37/129 64/41/128
f 49/62/114 66/35/130 65/37/129
f 49/63/114 51/34/116 66/35/130
