# Blender 4.2.3 LTS
# www.blender.org
mtllib RecogedorObrero.mtl
o Recogedor
v 0.191095 0.010715 -0.144607
v 0.191095 0.001710 -0.144607
v 0.191095 0.010715 0.144607
v 0.191095 0.001710 0.144607
v -0.180934 0.124303 -0.144607
v -0.190467 0.124303 -0.144607
v -0.180934 0.124303 0.144607
v -0.190467 0.124303 0.144607
v -0.180934 0.028617 -0.144607
v -0.164287 0.010715 -0.144607
v -0.173820 0.001710 -0.144607
v -0.190467 0.019612 -0.144607
v -0.180934 0.028617 0.144607
v -0.164287 0.010715 0.144607
v -0.173820 0.001710 0.144607
v -0.190467 0.019612 0.144607
v -0.173867 0.006004 -0.025300
v -0.188623 0.022661 -0.025300
v -0.173867 0.006004 0.025300
v -0.188623 0.022661 0.025300
v -0.315468 0.006004 -0.025300
v -0.315468 0.022661 -0.025300
v -0.315468 0.006004 0.025300
v -0.315468 0.022661 0.025300
vn 1.0000 -0.0000 -0.0000
vn -0.0000 -0.0000 1.0000
vn -0.0000 1.0000 -0.0000
vn 0.3994 0.9168 -0.0000
vn -0.0000 -0.0000 -1.0000
vn -0.9307 -0.3658 -0.0000
vn -1.0000 -0.0000 -0.0000
vn -0.3994 -0.9168 -0.0000
vn -0.0000 -1.0000 -0.0000
vn 0.9307 0.3658 -0.0000
vn 0.7485 0.6631 -0.0000
vn 0.4104 0.9119 -0.0000
vt 0.052278 0.215884
vt 0.042976 0.215884
vt 0.052618 0.580188
vt 0.054374 0.580188
vt 0.054374 0.589518
vt 0.050497 0.589518
vt 0.052278 0.563884
vt 0.042976 0.573218
vt 0.052442 0.589518
vt 0.054563 0.580188
vt 0.044254 0.573264
vt 0.049999 0.587714
vt 0.049999 0.711928
vt 0.044254 0.711928
s 1
usemtl Material
f 1/1/1 3/1/1 4/2/1 2/2/1
f 13/3/2 7/4/2 8/5/2 16/6/2
f 3/1/2 14/7/2 15/8/2 4/2/2
f 3/1/3 1/1/3 10/7/4 14/7/4
f 12/6/5 6/5/5 5/4/5 9/3/5
f 16/6/6 8/5/7 6/5/7 12/6/6
f 7/4/3 5/4/3 6/5/3 8/5/3
f 15/8/8 11/8/8 2/2/9 4/2/9
f 10/7/5 1/1/5 2/2/5 11/8/5
f 16/9/2 15/8/2 14/7/2 13/10/2
f 10/7/4 9/10/10 13/10/10 14/7/4
f 15/8/8 16/9/6 12/9/6 11/8/8
f 11/8/5 12/9/5 9/10/5 10/7/5
f 9/3/10 5/4/1 7/4/1 13/3/10
f 17/11/11 18/12/12 20/12/12 19/11/11
f 19/11/2 20/12/2 24/13/2 23/14/2
f 23/14/7 24/13/7 22/13/7 21/14/7
f 21/14/5 22/13/5 18/12/5 17/11/5
f 19/11/9 23/14/9 21/14/9 17/11/9
f 24/13/3 20/12/12 18/12/12 22/13/3
