# Blender 4.2.3 LTS
# www.blender.org
mtllib Street_Road_Corner.mtl
o RoadCorner
v 0.000000 0.000000 0.000000
v 5.000000 0.000000 0.000000
v 0.000000 0.000000 -5.000000
v 5.000000 0.000000 -5.000000
v 0.306428 0.000000 0.000000
v 0.306428 0.000000 -5.000000
v 4.692980 0.000000 0.000000
v 4.692980 0.000000 -5.000000
v 0.000000 0.000000 -0.307000
v 5.000000 0.000000 -0.307000
v 0.306428 0.000000 -0.307000
v 4.692980 0.000000 -0.307000
v 5.000000 0.000000 -4.692927
v 0.306428 0.000000 -4.692927
v 4.692980 0.000000 -4.692927
v 0.000000 0.000000 -4.692927
vn -0.0000 1.0000 -0.0000
vt 0.772795 0.509511
vt 0.772826 0.509511
vt 0.772826 0.511339
vt 0.772795 0.511339
vt 0.772914 0.506602
vt 0.772873 0.506602
vt 0.772873 0.507315
vt 0.772859 0.507315
vt 0.772740 0.510314
vt 0.772785 0.510314
vt 0.772803 0.510537
vt 0.772740 0.510537
vt 0.694778 0.455180
vt 0.696212 0.455180
vt 0.695823 0.460234
vt 0.694778 0.460234
vt 0.772729 0.508851
vt 0.772765 0.508851
vt 0.772765 0.510690
vt 0.772870 0.510690
vt 0.772795 0.481588
vt 0.772826 0.481588
vt 0.772826 0.483409
vt 0.772795 0.483409
vt 0.695823 0.532675
vt 0.694778 0.532675
vt 0.695534 0.460234
vt 0.695534 0.532675
s 0
usemtl Material
f 16/1/1 14/2/1 6/3/1 3/4/1
f 15/5/1 13/6/1 4/7/1 8/8/1
f 14/9/1 15/10/1 8/11/1 6/12/1
f 5/13/1 7/14/1 12/15/1 11/16/1
f 7/17/1 2/18/1 10/19/1 12/20/1
f 1/21/1 5/22/1 11/23/1 9/24/1
f 11/16/1 12/15/1 15/25/1 14/26/1
f 12/15/1 10/27/1 13/28/1 15/25/1
f 9/24/1 11/23/1 14/2/1 16/1/1
