# Blender 4.2.3 LTS
# www.blender.org
mtllib TreeBox.mtl
o Tree_Box
v -0.370909 0.000000 0.416535
v -0.416535 0.000000 0.370909
v -0.403171 0.000000 0.403171
v -0.416535 0.000000 -0.370909
v -0.370909 0.000000 -0.416535
v -0.403171 0.000000 -0.403171
v 0.370909 0.000000 -0.416535
v 0.416535 0.000000 -0.370909
v 0.403171 0.000000 -0.403171
v 0.416535 0.000000 0.370909
v 0.370909 0.000000 0.416535
v 0.403171 0.000000 0.403171
v -0.339540 0.009022 0.293010
v -0.293010 0.009022 0.339540
v -0.325912 0.009022 0.325912
v -0.293010 0.009022 -0.339540
v -0.339540 0.009022 -0.293010
v -0.325912 0.009022 -0.325912
v 0.339540 0.009022 -0.293010
v 0.293010 0.009022 -0.339540
v 0.325912 0.009022 -0.325912
v 0.293010 0.009022 0.339540
v 0.339540 0.009022 0.293010
v 0.325912 0.009022 0.325912
v -0.416535 0.081146 0.370746
v -0.370746 0.081146 0.416535
v -0.403123 0.081146 0.403123
v -0.403498 0.110982 0.357549
v -0.357549 0.110982 0.403498
v -0.390040 0.110982 0.390040
v -0.331115 0.132824 0.378037
v -0.378037 0.132824 0.331115
v -0.364294 0.132824 0.364294
v -0.370746 0.081146 -0.416535
v -0.416535 0.081146 -0.370746
v -0.403123 0.081146 -0.403123
v -0.378037 0.132824 -0.331115
v -0.331115 0.132824 -0.378037
v -0.364294 0.132824 -0.364294
v -0.357549 0.110982 -0.403498
v -0.403498 0.110982 -0.357549
v -0.390040 0.110982 -0.390040
v 0.416535 0.081146 -0.370746
v 0.370746 0.081146 -0.416535
v 0.403123 0.081146 -0.403123
v 0.331115 0.132824 -0.378037
v 0.378037 0.132824 -0.331115
v 0.364294 0.132824 -0.364294
v 0.403498 0.110982 -0.357549
v 0.357549 0.110982 -0.403498
v 0.390040 0.110982 -0.390040
v 0.370746 0.081146 0.416535
v 0.416535 0.081146 0.370746
v 0.403123 0.081146 0.403123
v 0.378037 0.132824 0.331115
v 0.331115 0.132824 0.378037
v 0.364294 0.132824 0.364294
v 0.357549 0.110982 0.403498
v 0.403498 0.110982 0.357549
v 0.390040 0.110982 0.390040
v -0.292810 0.136450 0.339540
v -0.339540 0.136450 0.292810
v -0.325853 0.136450 0.325853
v -0.344984 0.139688 0.297844
v -0.297844 0.139688 0.344984
v -0.331177 0.139688 0.331177
v 0.292810 0.136450 -0.339540
v 0.339540 0.136450 -0.292810
v 0.325853 0.136450 -0.325853
v 0.344984 0.139688 -0.297844
v 0.297844 0.139688 -0.344984
v 0.331177 0.139688 -0.331177
v -0.297844 0.139688 -0.344984
v -0.344984 0.139688 -0.297844
v -0.331177 0.139688 -0.331177
v -0.339540 0.136450 -0.292810
v -0.292810 0.136450 -0.339540
v -0.325853 0.136450 -0.325853
v 0.297844 0.139688 0.344984
v 0.344984 0.139688 0.297844
v 0.331177 0.139688 0.331177
v 0.339540 0.136450 0.292810
v 0.292810 0.136450 0.339540
v 0.325853 0.136450 0.325853
v -0.368475 0.105627 0.369544
v 0.369586 0.103338 0.369586
v -0.369586 0.092223 -0.369586
v 0.365773 0.096377 -0.373762
v -0.221158 0.103744 0.369563
v -0.073917 0.091922 0.369586
v 0.073917 0.101639 0.369586
v 0.221751 0.098684 0.369586
v 0.216309 0.105038 -0.375547
v 0.070110 0.099177 -0.373756
v -0.074762 0.090174 -0.370511
v -0.221751 0.094384 -0.369586
v -0.368495 0.098216 -0.221793
v -0.365689 0.100385 -0.074064
v -0.364044 0.115001 0.073708
v -0.365644 0.115039 0.221603
v 0.369586 0.094711 0.221751
v 0.368741 0.089475 0.072992
v 0.365771 0.095521 -0.078095
v 0.364135 0.088352 -0.227722
v -0.219019 0.105745 0.221648
v -0.217823 0.107892 0.073769
v -0.219033 0.101950 -0.074020
v -0.221168 0.098889 -0.221773
v -0.073332 0.099550 0.221729
v -0.072825 0.098833 0.073876
v -0.074179 0.094599 -0.074858
v -0.075481 0.087587 -0.223465
v 0.073917 0.091982 0.221751
v 0.073079 0.096109 0.072999
v 0.070113 0.100601 -0.078083
v 0.068457 0.099199 -0.227732
v 0.221751 0.090491 0.221751
v 0.220189 0.090568 0.072205
v 0.216289 0.094218 -0.079900
v 0.214074 0.100557 -0.230161
vn -0.1953 0.0004 -0.9807
vn -0.2045 0.2335 -0.9506
vn 0.2045 0.2335 -0.9506
vn 0.1953 0.0004 -0.9807
vn 0.7552 0.6392 -0.1451
vn 0.7552 0.6392 0.1451
vn 0.9506 0.2335 0.2045
vn 0.9506 0.2335 -0.2045
vn -0.9807 0.0004 0.1953
vn -0.9506 0.2335 0.2045
vn -0.9506 0.2335 -0.2045
vn -0.9807 0.0004 -0.1953
vn 0.9807 0.0004 -0.1953
vn 0.9807 0.0004 0.1953
vn 0.9808 -0.0003 0.1949
vn 0.9808 -0.0003 -0.1949
vn 0.9807 -0.0003 -0.1953
vn 0.9807 -0.0003 0.1953
vn 0.1949 -0.0003 -0.9808
vn -0.1949 -0.0003 -0.9808
vn -0.1953 -0.0003 -0.9807
vn 0.1953 -0.0003 -0.9807
vn -0.0580 0.8807 -0.4701
vn 0.0580 0.8807 -0.4701
vn 0.1100 0.8957 -0.4309
vn -0.1100 0.8957 -0.4309
vn 0.0201 0.9827 0.1839
vn -0.0201 0.9827 0.1839
vn -0.0620 0.9058 0.4192
vn 0.0620 0.9058 0.4192
vn -0.1839 0.9827 0.0201
vn -0.1839 0.9827 -0.0201
vn -0.4192 0.9058 -0.0620
vn -0.4192 0.9058 0.0620
vn -0.1451 0.6392 0.7552
vn 0.1451 0.6392 0.7552
vn -0.9808 -0.0003 -0.1949
vn -0.9808 -0.0003 0.1949
vn -0.9807 -0.0003 0.1953
vn -0.9807 -0.0003 -0.1953
vn -0.0201 0.9827 -0.1839
vn 0.0201 0.9827 -0.1839
vn 0.0620 0.9058 -0.4192
vn -0.0620 0.9058 -0.4192
vn 0.1451 0.6392 -0.7552
vn -0.1451 0.6392 -0.7552
vn -0.2045 0.2335 0.9506
vn 0.2045 0.2335 0.9506
vn 0.1839 0.9827 -0.0201
vn 0.1839 0.9827 0.0201
vn 0.4192 0.9058 0.0620
vn 0.4192 0.9058 -0.0620
vn -0.1949 -0.0003 0.9808
vn 0.1949 -0.0003 0.9808
vn 0.1953 -0.0003 0.9807
vn -0.1953 -0.0003 0.9807
vn -0.7552 0.6392 -0.1451
vn -0.7552 0.6392 0.1451
vn -0.0000 -1.0000 -0.0000
vn 0.4701 0.8807 -0.0580
vn 0.4701 0.8807 0.0580
vn 0.4309 0.8957 0.1100
vn 0.4309 0.8957 -0.1100
vn -0.4701 0.8807 0.0580
vn -0.4701 0.8807 -0.0580
vn -0.4309 0.8957 -0.1100
vn -0.4309 0.8957 0.1100
vn 0.0580 0.8807 0.4701
vn -0.0580 0.8807 0.4701
vn -0.1100 0.8957 0.4309
vn 0.1100 0.8957 0.4309
vn -0.2674 0.9258 0.2674
vn -0.5155 0.6844 0.5155
vn -0.5155 0.6844 -0.5155
vn -0.2674 0.9258 -0.2674
vn -0.6831 0.2583 0.6831
vn -0.6831 0.2583 -0.6831
vn 0.5155 0.6844 -0.5155
vn 0.2674 0.9258 -0.2674
vn 0.6831 0.2583 -0.6831
vn 0.5155 0.6844 0.5155
vn 0.2674 0.9258 0.2674
vn 0.6831 0.2583 0.6831
vn 0.7071 0.0008 0.7071
vn 0.1953 0.0004 0.9807
vn -0.7071 0.0008 0.7071
vn -0.1953 0.0004 0.9807
vn -0.7071 0.0008 -0.7071
vn 0.7071 0.0008 -0.7071
vn -0.2793 0.9187 -0.2793
vn 0.2793 0.9187 -0.2793
vn 0.2793 0.9187 0.2793
vn -0.2793 0.9187 0.2793
vn 0.1025 0.9894 0.1025
vn -0.1025 0.9894 0.1025
vn 0.7071 -0.0006 -0.7071
vn -0.7071 -0.0006 -0.7071
vn -0.1025 0.9894 -0.1025
vn 0.7071 -0.0006 0.7071
vn 0.1025 0.9894 -0.1025
vn -0.7071 -0.0006 0.7071
vn 0.0243 0.9995 0.0180
vn 0.0525 0.9984 0.0200
vn 0.0688 0.9967 0.0437
vn 0.0226 0.9993 0.0295
vn -0.0086 0.9996 -0.0266
vn 0.0248 0.9994 -0.0235
vn 0.0216 0.9995 -0.0210
vn -0.0096 0.9993 -0.0354
vn -0.0037 0.9999 -0.0153
vn -0.0098 1.0000 0.0009
vn -0.0351 0.9994 0.0030
vn -0.0473 0.9988 0.0116
vn 0.0039 0.9994 -0.0336
vn -0.0075 0.9983 -0.0585
vn -0.0004 0.9995 -0.0301
vn 0.0167 0.9998 -0.0105
vn 0.0132 0.9998 0.0138
vn 0.0223 0.9997 0.0131
vn 0.0237 0.9996 0.0176
vn -0.0038 1.0000 0.0038
vn 0.0271 0.9995 0.0131
vn 0.0354 0.9993 0.0107
vn 0.0331 0.9994 -0.0042
vn 0.0119 0.9996 -0.0240
vn 0.0496 0.9981 0.0361
vn 0.0520 0.9984 0.0212
vn 0.0460 0.9987 -0.0229
vn 0.0330 0.9987 -0.0392
vn 0.0380 0.9985 0.0392
vn 0.0469 0.9986 0.0235
vn 0.0375 0.9988 -0.0309
vn 0.0055 0.9990 -0.0433
vn -0.0300 0.9979 -0.0568
vn -0.0203 0.9991 -0.0370
vn -0.0058 1.0000 0.0071
vn 0.0174 0.9997 0.0147
vt 0.854106 0.142047
vt 0.838517 0.142154
vt 0.838517 0.649387
vt 0.854106 0.649498
vt 0.832786 0.671791
vt 0.838517 0.680709
vt 0.854106 0.110832
vt 0.838517 0.110832
vt 0.854106 0.680709
vt 0.850288 0.163505
vt 0.855671 0.163505
vt 0.850288 0.195472
vt 0.850288 0.596073
vt 0.855671 0.596214
vt 0.855671 0.195339
vt 0.846175 0.301195
vt 0.840720 0.301195
vt 0.840674 0.298609
vt 0.846222 0.298609
vt 0.827272 0.599521
vt 0.827272 0.192031
vt 0.828591 0.169269
vt 0.828591 0.622276
vt 0.827272 0.159782
vt 0.828591 0.137168
vt 0.832786 0.151191
vt 0.832786 0.640361
vt 0.850288 0.628036
vt 0.855671 0.628036
vt 0.827272 0.631775
vt 0.828591 0.654373
vt 0.832786 0.119751
vt 0.854106 0.671569
vt 0.854106 0.119972
vt 0.840285 0.323394
vt 0.840285 0.601592
vt 0.840234 0.603984
vt 0.840234 0.321003
vt 0.846611 0.601592
vt 0.846611 0.323394
vt 0.846661 0.321003
vt 0.846661 0.603984
vt 0.840720 0.623791
vt 0.846175 0.623791
vt 0.846222 0.626378
vt 0.840674 0.626378
vt 0.828591 0.146568
vt 0.832786 0.128955
vt 0.838517 0.120006
vt 0.832786 0.662586
vt 0.828591 0.644973
vt 0.838517 0.671535
vt 0.846483 0.307697
vt 0.846533 0.305168
vt 0.840363 0.305168
vt 0.840413 0.307697
vt 0.840413 0.617290
vt 0.840363 0.619818
vt 0.846533 0.619818
vt 0.846483 0.617290
vt 0.827272 0.622318
vt 0.827272 0.169223
vt 0.850288 0.172866
vt 0.855671 0.172828
vt 0.855671 0.618724
vt 0.850288 0.618679
vt 0.036280 0.497723
vt 0.036718 0.497360
vt 0.036723 0.519097
vt 0.036286 0.519363
vt 0.034580 0.496478
vt 0.035010 0.496475
vt 0.035008 0.518475
vt 0.034577 0.518475
vt 0.035435 0.496726
vt 0.035437 0.518613
vt 0.035855 0.497362
vt 0.035860 0.519096
vt 0.035871 0.408456
vt 0.036302 0.408456
vt 0.036302 0.430460
vt 0.035871 0.430460
vt 0.036298 0.452718
vt 0.035868 0.452600
vt 0.036286 0.475358
vt 0.035860 0.475088
vt 0.035439 0.408456
vt 0.035441 0.430463
vt 0.035443 0.452470
vt 0.035439 0.474608
vt 0.035010 0.408459
vt 0.035016 0.430475
vt 0.035019 0.452486
vt 0.035016 0.474483
vt 0.034580 0.408462
vt 0.034588 0.430482
vt 0.034593 0.452495
vt 0.034588 0.474489
vt 0.036734 0.408456
vt 0.036734 0.430460
vt 0.036731 0.452601
vt 0.036723 0.475089
s 1
usemtl Material
f 5/1/1 34/2/2 44/3/3 7/4/4
f 49/5/5 59/5/6 53/6/7 43/6/8
f 2/7/9 25/8/10 35/8/11 4/7/12
f 8/9/13 43/6/8 53/6/7 10/9/14
f 76/10/15 62/10/16 13/11/17 17/11/18
f 61/12/19 83/13/20 22/14/21 14/15/22
f 83/16/23 61/17/24 65/18/25 79/19/26
f 79/20/27 65/21/28 31/22/29 56/23/30
f 64/24/31 74/24/32 37/25/33 32/25/34
f 56/23/30 31/22/29 29/26/35 58/27/36
f 82/28/37 68/28/38 19/29/39 23/29/40
f 73/21/41 71/20/42 46/23/43 38/22/44
f 38/22/44 46/23/43 50/27/45 40/26/46
f 58/27/36 29/26/35 26/2/47 52/3/48
f 70/30/49 80/30/50 55/31/51 47/31/52
f 47/31/52 55/31/51 59/5/6 49/5/5
f 67/13/53 77/12/54 16/15/55 20/14/56
f 32/25/34 37/25/33 41/32/57 28/32/58
f 28/32/58 41/32/57 35/8/11 25/8/10
f 10/9/59 12/33/59 11/4/59 1/1/59 3/34/59 2/7/59 4/7/59 6/34/59 5/1/59 7/4/59 9/33/59 8/9/59
f 62/35/60 76/36/61 74/37/62 64/38/63
f 68/39/64 82/40/65 80/41/66 70/42/67
f 77/43/68 67/44/69 71/45/70 73/46/71
f 40/26/46 50/27/45 44/3/3 34/2/2
f 29/26/35 31/22/29 33/47/72 30/48/73
f 30/48/73 33/47/72 32/25/34 28/32/58
f 38/22/44 40/26/46 42/48/74 39/47/75
f 39/47/75 42/48/74 41/32/57 37/25/33
f 26/2/47 29/26/35 30/48/73 27/49/76
f 27/49/76 30/48/73 28/32/58 25/8/10
f 40/26/46 34/2/2 36/49/77 42/48/74
f 42/48/74 36/49/77 35/8/11 41/32/57
f 47/31/52 49/5/5 51/50/78 48/51/79
f 48/51/79 51/50/78 50/27/45 46/23/43
f 49/5/5 43/6/8 45/52/80 51/50/78
f 51/50/78 45/52/80 44/3/3 50/27/45
f 56/23/30 58/27/36 60/50/81 57/51/82
f 57/51/82 60/50/81 59/5/6 55/31/51
f 58/27/36 52/3/48 54/52/83 60/50/81
f 60/50/81 54/52/83 53/6/7 59/5/6
f 10/9/14 53/6/7 54/52/83 12/33/84
f 12/33/84 54/52/83 52/3/48 11/4/85
f 25/8/10 2/7/9 3/34/86 27/49/76
f 27/49/76 3/34/86 1/1/87 26/2/47
f 34/2/2 5/1/1 6/34/88 36/49/77
f 36/49/77 6/34/88 4/7/12 35/8/11
f 43/6/8 8/9/13 9/33/89 45/52/80
f 45/52/80 9/33/89 7/4/4 44/3/3
f 80/41/66 82/40/65 84/53/90 81/54/90
f 81/54/90 84/53/90 83/16/23 79/19/26
f 62/35/60 64/38/63 66/55/91 63/56/91
f 63/56/91 66/55/91 65/18/25 61/17/24
f 74/37/62 76/36/61 78/57/92 75/58/92
f 75/58/92 78/57/92 77/43/68 73/46/71
f 68/39/64 70/42/67 72/59/93 69/60/93
f 69/60/93 72/59/93 71/45/70 67/44/69
f 55/31/51 80/30/50 81/61/94 57/51/82
f 57/51/82 81/61/94 79/20/27 56/23/30
f 64/24/31 32/25/34 33/47/72 66/62/95
f 66/62/95 33/47/72 31/22/29 65/21/28
f 13/11/17 62/10/16 63/63/96 15/64/96
f 15/64/96 63/63/96 61/12/19 14/15/22
f 82/28/37 23/29/40 24/65/97 84/66/97
f 84/66/97 24/65/97 22/14/21 83/13/20
f 73/21/41 38/22/44 39/47/75 75/62/98
f 75/62/98 39/47/75 37/25/33 74/24/32
f 16/15/55 77/12/54 78/63/99 18/64/99
f 18/64/99 78/63/99 76/10/15 17/11/18
f 46/23/43 71/20/42 72/61/100 48/51/79
f 48/51/79 72/61/100 70/30/49 47/31/52
f 67/13/53 20/14/56 21/65/101 69/66/101
f 69/66/101 21/65/101 19/29/39 68/28/38
f 11/4/85 52/3/48 26/2/47 1/1/87
f 120/67/102 104/68/103 88/69/104 93/70/105
f 97/71/106 108/72/107 96/73/108 87/74/109
f 108/72/107 112/75/110 95/76/111 96/73/108
f 112/75/110 116/77/112 94/78/113 95/76/111
f 116/77/112 120/67/102 93/70/105 94/78/113
f 91/79/114 92/80/115 117/81/116 113/82/117
f 113/82/117 117/81/116 118/83/118 114/84/119
f 114/84/119 118/83/118 119/85/120 115/86/121
f 115/86/121 119/85/120 120/67/102 116/77/112
f 90/87/122 91/79/114 113/82/117 109/88/123
f 109/88/123 113/82/117 114/84/119 110/89/124
f 110/89/124 114/84/119 115/86/121 111/90/125
f 111/90/125 115/86/121 116/77/112 112/75/110
f 89/91/126 90/87/122 109/88/123 105/92/127
f 105/92/127 109/88/123 110/89/124 106/93/128
f 106/93/128 110/89/124 111/90/125 107/94/129
f 107/94/129 111/90/125 112/75/110 108/72/107
f 85/95/130 89/91/126 105/92/127 100/96/131
f 100/96/131 105/92/127 106/93/128 99/97/132
f 99/97/132 106/93/128 107/94/129 98/98/133
f 98/98/133 107/94/129 108/72/107 97/71/106
f 92/80/115 86/99/134 101/100/135 117/81/116
f 117/81/116 101/100/135 102/101/136 118/83/118
f 118/83/118 102/101/136 103/102/137 119/85/120
f 119/85/120 103/102/137 104/68/103 120/67/102
