# Blender 4.3.0
# www.blender.org
mtllib Flecha.mtl
o Cone
v 0.416551 1.554675 0.260370
v 0.382290 1.554675 0.308483
v 0.413343 1.512909 0.345613
v 0.461795 1.512909 0.277571
v 0.308483 1.554674 -0.382291
v 0.345613 1.512909 -0.413343
v 0.277571 1.512909 -0.461796
v 0.260370 1.554674 -0.416552
v -0.382291 1.554674 -0.308483
v -0.413344 1.512909 -0.345613
v -0.461796 1.512909 -0.277571
v -0.416552 1.554674 -0.260370
v -0.308483 1.554674 0.382290
v -0.345613 1.512909 0.413343
v -0.277571 1.512909 0.461796
v -0.260370 1.554674 0.416552
v 0.007414 -0.090500 0.044087
v -0.044087 -0.090500 0.007414
v -0.007413 -0.090500 -0.044087
v 0.044087 -0.090500 -0.007413
v 0.756668 1.512909 0.487549
v 0.708216 1.512909 0.555591
v 0.752118 1.474308 0.574389
v 0.788792 1.474308 0.522888
v 0.555591 1.512909 -0.708216
v 0.574389 1.474308 -0.752118
v 0.522888 1.474308 -0.788792
v 0.487549 1.512909 -0.756668
v -0.708216 1.512909 -0.555591
v -0.752119 1.474308 -0.574389
v -0.788792 1.474308 -0.522889
v -0.756668 1.512909 -0.487549
v -0.555591 1.512909 0.708216
v -0.574389 1.474308 0.752118
v -0.522889 1.474308 0.788792
v -0.487549 1.512909 0.756668
v 0.416552 2.977070 0.260370
v 0.375365 3.018835 0.267296
v 0.382290 2.977070 0.308483
v 0.308483 2.977070 -0.382291
v 0.260370 2.977070 -0.416552
v 0.267296 3.018835 -0.375365
v -0.382291 2.977070 -0.308483
v -0.416552 2.977070 -0.260370
v -0.375365 3.018835 -0.267296
v -0.308483 2.977070 0.382291
v -0.260370 2.977070 0.416552
v -0.267296 3.018835 0.375365
vn -0.1533 -0.3818 -0.9114
vn -0.9114 -0.3818 0.1533
vn 0.1533 -0.3818 0.9114
vn -0.0000 1.0000 -0.0000
vn 0.9114 -0.3818 -0.1533
vn 0.1658 -0.0000 0.9862
vn -0.9862 -0.0000 0.1658
vn -0.1658 -0.0000 -0.9862
vn 0.5422 0.7463 0.3861
vn 0.3861 0.7463 -0.5422
vn -0.5422 0.7463 -0.3861
vn -0.3861 0.7463 0.5422
vn -0.0000 -1.0000 -0.0000
vn 0.5192 0.7706 0.3697
vn 0.3697 0.7705 -0.5192
vn -0.5192 0.7705 -0.3697
vn -0.3697 0.7705 0.5192
vn 0.6651 0.5774 0.4736
vn 0.4736 0.5774 -0.6651
vn -0.6651 0.5773 -0.4736
vn -0.4736 0.5774 0.6651
vn 0.8197 0.5560 -0.1378
vn 0.7033 -0.5045 0.5008
vn 0.5008 -0.5045 -0.7033
vn -0.1378 0.5560 -0.8197
vn -0.7033 -0.5045 -0.5008
vn -0.8197 0.5560 0.1378
vn -0.5008 -0.5045 0.7033
vn 0.1378 0.5560 0.8197
vn 0.6973 0.7071 -0.1173
vn -0.1173 0.7071 -0.6973
vn -0.6973 0.7071 0.1173
vn 0.1173 0.7071 0.6973
vn -0.5801 -0.0000 0.8146
vn -0.8146 -0.0000 -0.5801
vn 0.5801 -0.0000 -0.8146
vn 0.8146 -0.0000 0.5801
vn 0.9862 -0.0000 -0.1658
vt 0.327811 0.309226
vt 0.323279 0.507886
vt 0.327811 0.507886
vt 0.327811 0.521624
vt 0.323279 0.521624
vt 0.327811 0.720273
vt 0.327811 0.720273
vt 0.337313 0.514755
vt 0.337313 0.414616
vt 0.337313 0.514755
vt 0.337313 0.614887
vt 0.327811 0.507886
vt 0.330784 0.621305
vt 0.330784 0.521173
vt 0.337127 0.521173
vt 0.337127 0.621305
vt 0.330269 0.631480
vt 0.330269 0.523831
vt 0.328252 0.523831
vt 0.328252 0.710134
vt 0.330784 0.521173
vt 0.330784 0.621305
vt 0.337127 0.621305
vt 0.337127 0.521173
vt 0.330269 0.398023
vt 0.330269 0.505680
vt 0.328252 0.505680
vt 0.328252 0.319366
vt 0.330269 0.523831
vt 0.328252 0.710134
vt 0.328252 0.523831
vt 0.330784 0.408199
vt 0.330784 0.508338
vt 0.337127 0.508338
vt 0.337127 0.408199
vt 0.330269 0.398023
vt 0.328252 0.319365
vt 0.338625 0.550327
vt 0.338625 0.553585
vt 0.338625 0.554260
vt 0.338625 0.549652
vt 0.338625 0.524904
vt 0.338625 0.522321
vt 0.338625 0.550327
vt 0.338625 0.579005
vt 0.338625 0.581588
vt 0.338625 0.579005
vt 0.338623 0.553700
vt 0.338623 0.550212
vt 0.338624 0.549652
vt 0.338624 0.554260
vt 0.338624 0.553700
vt 0.338624 0.550212
vt 0.338624 0.502353
vt 0.338624 0.499778
vt 0.338624 0.601556
vt 0.338624 0.604130
vt 0.338627 0.550327
vt 0.338627 0.551956
vt 0.338627 0.553585
vt 0.338627 0.524904
vt 0.338627 0.526534
vt 0.338627 0.579005
vt 0.338627 0.577376
vt 0.330784 0.508338
vt 0.330784 0.408199
s 0
usemtl Material
f 27/1/1 19/2/1 30/3/1
f 31/4/2 18/5/2 34/6/2
f 35/7/3 17/5/3 23/4/3
f 38/8/4 42/9/4 45/10/4 48/11/4
f 24/12/5 20/2/5 26/1/5
f 16/13/6 2/14/6 39/15/6 47/16/6
f 14/17/4 11/18/4 32/19/4 33/20/4
f 12/21/7 13/22/7 46/23/7 44/24/7
f 6/25/4 4/26/4 21/27/4 25/28/4
f 3/29/4 15/17/4 36/30/4 22/31/4
f 8/32/8 9/33/8 43/34/8 41/35/8
f 10/26/4 7/36/4 28/37/4 29/27/4
f 1/38/9 2/39/9 3/40/9 4/41/9
f 5/42/10 6/43/10 7/43/10 8/42/10
f 9/44/11 10/41/11 11/40/11 12/39/11
f 13/45/12 14/46/12 15/46/12 16/47/12
f 17/48/13 18/48/13 19/49/13 20/49/13
f 21/50/14 22/51/14 23/52/14 24/53/14
f 25/54/15 26/55/15 27/55/15 28/54/15
f 29/50/16 30/53/16 31/52/16 32/51/16
f 33/56/17 34/57/17 35/57/17 36/56/17
f 37/58/18 38/59/18 39/60/18
f 40/61/19 41/61/19 42/62/19
f 43/58/20 44/60/20 45/59/20
f 46/63/21 47/63/21 48/64/21
f 24/53/22 26/55/22 25/54/22 21/50/22
f 23/52/23 17/48/23 20/49/23 24/53/23
f 19/49/24 27/55/24 26/55/24 20/49/24
f 27/55/25 30/53/25 29/50/25 28/54/25
f 18/48/26 31/52/26 30/53/26 19/49/26
f 31/52/27 34/57/27 33/56/27 32/51/27
f 17/48/28 35/57/28 34/57/28 18/48/28
f 35/57/29 23/52/29 22/51/29 36/56/29
f 4/41/30 6/43/30 5/42/30 1/38/30
f 7/43/31 10/41/31 9/44/31 8/42/31
f 11/40/32 14/46/32 13/45/32 12/39/32
f 15/46/33 3/40/33 2/39/33 16/47/33
f 28/37/4 7/36/4 6/25/4 25/28/4
f 3/29/4 22/31/4 21/27/4 4/26/4
f 32/19/4 11/18/4 10/26/4 29/27/4
f 36/30/4 15/17/4 14/17/4 33/20/4
f 37/58/30 40/61/30 42/62/30 38/59/30
f 41/61/31 43/58/31 45/59/31 42/62/31
f 44/60/32 46/63/32 48/64/32 45/59/32
f 47/63/33 39/60/33 38/59/33 48/64/33
f 16/47/34 47/63/34 46/63/34 13/45/34
f 43/58/35 9/44/35 12/39/35 44/60/35
f 8/42/36 41/61/36 40/61/36 5/42/36
f 39/60/37 2/39/37 1/38/37 37/58/37
f 1/65/38 5/66/38 40/35/38 37/34/38
