# Blender 4.2.3 LTS
# www.blender.org
mtllib Ceiling_Outer_Corner.mtl
o Ceiling_Outer_Corner
v -0.000001 2.832548 0.000000
v 0.256777 2.884968 -0.000000
v 0.305535 2.919527 -0.000000
v 0.309322 2.924703 -0.000000
v 0.240957 2.832548 -0.000000
v 0.247123 2.837822 -0.000000
v 0.309322 2.954759 -0.000000
v 0.336454 3.003591 -0.000000
v 0.332904 2.954759 -0.000000
v 0.336454 2.958309 -0.000000
v 0.256777 2.884968 0.256777
v -0.000001 2.884968 0.256777
v -0.000001 2.924703 0.309322
v -0.000001 2.919527 0.305535
v -0.000001 2.837822 0.247123
v -0.000001 2.832548 0.240957
v -0.000001 2.954759 0.309322
v -0.000001 3.003591 0.336454
v -0.000001 2.958309 0.336454
v -0.000001 2.954759 0.332904
v 0.305535 2.919527 0.305535
v 0.336454 3.003591 0.336454
v 0.240957 2.832548 0.240957
v 0.247123 2.837822 0.247123
v 0.336455 2.958309 0.336454
v 0.309322 2.954759 0.309322
v 0.332904 2.954759 0.332904
v 0.309322 2.924703 0.309322
vn 0.8375 -0.5464 -0.0000
vn 0.7018 -0.7124 -0.0000
vn 0.7473 -0.6645 -0.0000
vn 0.7814 -0.6240 -0.0000
vn 0.9239 -0.3827 -0.0000
vn 1.0000 -0.0000 -0.0000
vn 0.9576 -0.2880 -0.0000
vn 0.3827 -0.9239 -0.0000
vn 0.5526 -0.8334 -0.0000
vn 0.3464 -0.9381 -0.0000
vn 0.8615 -0.5078 -0.0000
vn 0.9111 -0.4122 -0.0000
vn 0.2697 -0.9244 0.2698
vn -0.0000 -1.0000 -0.0000
vn 0.9505 -0.3106 -0.0000
vn 0.9691 -0.2465 -0.0000
vn -0.0000 -0.3106 0.9505
vn -0.0000 -0.7124 0.7018
vn -0.0000 -0.6645 0.7473
vn -0.0000 -0.2465 0.9691
vn -0.0000 -0.5464 0.8375
vn -0.0000 -0.5078 0.8615
vn -0.0000 -0.4122 0.9111
vn -0.0000 -0.6240 0.7814
vn -0.0000 -0.3827 0.9239
vn -0.0000 -0.9239 0.3827
vn -0.0000 -0.8334 0.5527
vn -0.0000 -0.2880 0.9576
vn -0.0000 -0.0000 1.0000
vn -0.0000 -0.9381 0.3465
vt 0.322447 0.440601
vt 0.322447 0.445765
vt 0.322422 0.445765
vt 0.322426 0.440601
vt 0.317197 0.449039
vt 0.317170 0.449039
vt 0.317170 0.449039
vt 0.310187 0.448663
vt 0.310187 0.449039
vt 0.310160 0.449039
vt 0.310160 0.448664
vt 0.310187 0.438926
vt 0.310187 0.439579
vt 0.310167 0.439579
vt 0.310168 0.438926
vt 0.317197 0.446166
vt 0.317197 0.448663
vt 0.317170 0.448663
vt 0.317172 0.446166
vt 0.322447 0.439579
vt 0.322426 0.439579
vt 0.310187 0.445765
vt 0.310187 0.446166
vt 0.310162 0.446166
vt 0.310162 0.445765
vt 0.310162 0.412087
vt 0.310162 0.412087
vt 0.322426 0.412087
vt 0.322426 0.412087
vt 0.310160 0.412087
vt 0.310160 0.412087
vt 0.317170 0.412087
vt 0.317172 0.413408
vt 0.317172 0.412087
vt 0.317170 0.413408
vt 0.317170 0.412087
vt 0.322422 0.412087
vt 0.310167 0.412087
vt 0.310168 0.412087
vt 0.322798 0.412087
vt 0.322817 0.412087
vt 0.322798 0.438926
vt 0.322817 0.438926
s 1
usemtl Material
f 2/1/1 3/2/2 21/3/3 11/4/4
f 10/5/5 8/5/6 22/6/6 25/7/7
f 9/8/8 10/9/5 25/10/7 27/11/9
f 5/12/10 6/13/11 24/14/12 23/15/13
f 7/16/14 9/17/8 27/18/9 26/19/14
f 4/16/15 7/16/6 26/19/6 28/19/16
f 6/20/11 2/1/1 11/4/4 24/21/12
f 3/22/2 4/23/15 28/24/16 21/25/3
f 13/26/17 14/27/18 21/25/19 28/24/20
f 12/28/21 15/29/22 24/21/23 11/4/24
f 19/30/25 20/31/26 27/11/27 25/10/28
f 20/32/26 17/33/14 26/19/14 27/18/27
f 17/33/29 13/34/17 28/19/20 26/19/29
f 18/35/29 19/36/25 25/7/28 22/6/29
f 14/37/18 12/28/21 11/4/24 21/3/19
f 15/38/22 16/39/30 23/15/13 24/14/23
f 16/40/30 1/41/14 23/42/13
f 23/42/13 1/41/14 5/43/10
