# Blender 4.2.3 LTS
# www.blender.org
mtllib Ceiling_Border.mtl
o Ceiling_Border
v 0.000000 3.000000 0.000000
v 2.000000 3.000000 0.000000
v 0.000000 3.000000 -2.000000
v 2.000000 3.000000 -2.000000
v -0.012470 2.832548 0.000000
v -0.012470 2.832548 -2.000000
v 0.256777 2.884968 -2.000000
v 0.256777 2.884968 0.000000
v 0.309322 2.924703 -2.000000
v 0.305535 2.919527 -2.000000
v 0.305535 2.919527 0.000000
v 0.309322 2.924703 0.000000
v 0.240957 2.832548 0.000000
v 0.247123 2.837822 0.000000
v 0.247123 2.837822 -2.000000
v 0.240957 2.832548 -2.000000
v 0.309322 2.954759 -2.000000
v 0.309322 2.954759 0.000000
v 0.336454 3.003591 -2.000000
v 0.336454 3.003591 0.000000
v 0.336454 2.958309 -2.000000
v 0.332904 2.954759 -2.000000
v 0.332904 2.954759 0.000000
v 0.336454 2.958309 0.000000
vn -0.0000 -1.0000 -0.0000
vn 0.8375 -0.5464 -0.0000
vn 0.7018 -0.7124 -0.0000
vn 0.3464 -0.9381 -0.0000
vn 0.9505 -0.3106 -0.0000
vn 0.8615 -0.5078 -0.0000
vn 1.0000 -0.0000 -0.0000
vn 0.3827 -0.9239 -0.0000
vn 0.9239 -0.3827 -0.0000
vt 0.238714 0.521769
vt 0.238714 0.516852
vt 0.238810 0.516852
vt 0.238810 0.521769
vt 0.322426 0.625214
vt 0.322422 0.625214
vt 0.322422 0.413408
vt 0.322426 0.413408
vt 0.322818 0.625214
vt 0.322798 0.625214
vt 0.322798 0.413408
vt 0.322818 0.413408
vt 0.310162 0.625214
vt 0.310162 0.413408
vt 0.310162 0.413408
vt 0.310162 0.625214
vt 0.310168 0.413408
vt 0.310168 0.625214
vt 0.310167 0.625214
vt 0.310167 0.413408
vt 0.322426 0.625214
vt 0.322426 0.413408
vt 0.317172 0.625214
vt 0.317172 0.413408
vt 0.317170 0.625214
vt 0.317170 0.413408
vt 0.310160 0.625214
vt 0.310160 0.413408
vt 0.310160 0.413408
vt 0.310160 0.625214
vt 0.317170 0.625214
vt 0.317170 0.413408
s 0
usemtl Material
f 1/1/1 3/2/1 4/3/1 2/4/1
s 1
f 7/5/2 10/6/3 11/7/3 8/8/2
f 6/9/1 16/10/4 13/11/4 5/12/1
f 9/13/5 12/14/5 11/15/3 10/16/3
f 13/17/4 16/18/4 15/19/6 14/20/6
f 15/21/6 7/5/2 8/8/2 14/22/6
f 9/23/5 17/23/7 18/24/7 12/24/5
f 18/24/1 17/23/1 22/25/8 23/26/8
f 21/27/9 24/28/9 23/29/8 22/30/8
f 21/31/9 19/31/7 20/32/7 24/32/9
