# Blender 4.2.3 LTS
# www.blender.org
mtllib Ceiling_U_Shape.mtl
o Ceiling_U
v 0.000000 3.000000 -2.000000
v 2.000000 3.000000 -2.000000
v 2.000000 2.832548 -2.012470
v 2.000000 2.884968 -1.743223
v 2.000000 2.924703 -1.690678
v 2.000000 2.919527 -1.694465
v 0.000000 2.832548 -2.012470
v 0.240957 2.832548 -2.012470
v 2.000000 2.837822 -1.752877
v 2.000000 2.832548 -1.759043
v 2.000000 2.954759 -1.690678
v 0.000000 2.832548 -1.759043
v 2.000000 3.003591 -1.663546
v 2.000000 2.958309 -1.663546
v 2.000000 2.954759 -1.667096
v 0.000000 2.954759 -1.667096
v 0.000000 2.958309 -1.663546
v 0.336454 2.958309 -2.000000
v 0.332904 2.954759 -2.000000
v 0.305535 2.919527 -1.694465
v 0.309322 2.924703 -1.690678
v 0.247123 2.837822 -1.752877
v 0.336454 2.958309 -1.663546
v 0.332904 2.954759 -1.667096
v 0.256777 2.884968 -1.743223
v 0.240957 2.832548 -1.759043
v 0.309322 2.954759 -1.690678
v 0.336454 3.003591 -1.663546
v 0.000000 3.000000 0.000000
v 2.000000 3.000000 0.000000
v 2.000000 2.832548 0.012470
v 2.000000 2.884968 -0.256777
v 2.000000 2.924703 -0.309322
v 2.000000 2.919527 -0.305535
v 0.000000 2.832548 0.012470
v 0.240957 2.832548 0.012470
v 2.000000 2.837822 -0.247123
v 2.000000 2.832548 -0.240957
v 2.000000 2.954759 -0.309322
v 0.000000 2.832548 -0.240957
v 2.000000 3.003591 -0.336454
v 2.000000 2.958309 -0.336454
v 2.000000 2.954759 -0.332904
v 0.000000 2.954759 -0.332904
v 0.000000 2.958309 -0.336454
v 0.336454 2.958309 0.000000
v 0.332904 2.954759 0.000000
v 0.305535 2.919527 -0.305535
v 0.309322 2.924703 -0.309322
v 0.247123 2.837822 -0.247123
v 0.336454 2.958309 -0.336454
v 0.332904 2.954759 -0.332904
v 0.256777 2.884968 -0.256777
v 0.240957 2.832548 -0.240957
v 0.309322 2.954759 -0.309322
v 0.336454 3.003591 -0.336454
vn 1.0000 -0.0000 -0.0000
vn 0.8959 -0.4443 -0.0000
vn -0.0000 -0.5464 0.8375
vn -0.0000 -0.7124 0.7018
vn -0.0000 -0.7533 0.6577
vn -0.0000 -0.4328 0.9015
vn 0.0970 -0.9905 0.0970
vn -0.0000 -1.0000 -0.0000
vn -0.0000 -0.9381 0.3464
vn -0.0000 -0.3106 0.9505
vn -0.0000 -0.3553 0.9348
vn -0.0000 -0.5078 0.8615
vn -0.0000 -0.5757 0.8177
vn 0.9348 -0.3553 -0.0000
vn -0.0000 -0.0000 1.0000
vn -0.0000 -0.9239 0.3827
vn -0.0000 -0.3827 0.9239
vn -0.0000 -0.4443 0.8959
vn -0.0000 -0.9761 0.2175
vn 0.6577 -0.7533 -0.0000
vn 0.8177 -0.5756 -0.0000
vn 0.0970 -0.9905 -0.0970
vn 0.9015 -0.4328 -0.0000
vn 0.2175 -0.9761 -0.0000
vn -0.0000 -0.5464 -0.8375
vn -0.0000 -0.4328 -0.9015
vn -0.0000 -0.7533 -0.6577
vn -0.0000 -0.7124 -0.7018
vn -0.0000 -0.9381 -0.3464
vn -0.0000 -0.3553 -0.9348
vn -0.0000 -0.3106 -0.9505
vn -0.0000 -0.5757 -0.8177
vn -0.0000 -0.5078 -0.8615
vn -0.0000 -0.0000 -1.0000
vn -0.0000 -0.9239 -0.3827
vn -0.0000 -0.9761 -0.2175
vn -0.0000 -0.4443 -0.8959
vn -0.0000 -0.3827 -0.9239
vt 0.317170 0.449039
vt 0.317170 0.589582
vt 0.322284 0.598020
vt 0.322284 0.592857
vt 0.322422 0.592857
vt 0.322426 0.598020
vt 0.322798 0.599696
vt 0.322798 0.626534
vt 0.322654 0.626534
vt 0.322654 0.599696
vt 0.310024 0.592857
vt 0.310024 0.592456
vt 0.310162 0.592456
vt 0.310162 0.592857
vt 0.310168 0.599696
vt 0.310024 0.599696
vt 0.310024 0.599043
vt 0.310167 0.599043
vt 0.317172 0.592456
vt 0.317172 0.446166
vt 0.322284 0.599043
vt 0.322426 0.599043
vt 0.317034 0.592456
vt 0.310024 0.589958
vt 0.310024 0.589582
vt 0.310160 0.589582
vt 0.310160 0.589958
vt 0.317034 0.589582
vt 0.310162 0.446166
vt 0.310162 0.445765
vt 0.322818 0.599696
vt 0.322818 0.626534
vt 0.310167 0.439579
vt 0.310168 0.438926
vt 0.322426 0.440601
vt 0.322426 0.439579
vt 0.322818 0.438926
vt 0.322798 0.438926
vt 0.317170 0.589958
vt 0.317170 0.448663
vt 0.317034 0.589958
vt 0.322422 0.445765
vt 0.310160 0.449039
vt 0.310160 0.448663
vt 0.322284 0.440601
vt 0.322284 0.445765
vt 0.322654 0.438926
vt 0.322654 0.412087
vt 0.322798 0.412087
vt 0.310024 0.445765
vt 0.310024 0.446166
vt 0.310024 0.439579
vt 0.310024 0.438926
vt 0.322284 0.439579
vt 0.317034 0.446166
vt 0.310024 0.448663
vt 0.310024 0.449039
vt 0.317034 0.449039
vt 0.322818 0.412087
vt 0.317034 0.448663
vt 0.238714 0.516852
vt 0.238810 0.516852
vt 0.238810 0.521769
vt 0.238714 0.521769
s 1
usemtl Material
f 56/1/1 51/1/2 23/2/2 28/2/1
f 4/3/3 6/4/4 20/5/5 25/6/6
f 26/7/7 8/8/8 3/9/8 10/10/9
f 6/11/4 5/12/10 21/13/11 20/14/5
f 26/15/7 10/16/9 9/17/12 22/18/13
f 27/19/1 55/20/1 49/20/14 21/19/14
f 9/21/12 4/3/3 25/6/6 22/22/13
f 27/19/15 21/19/11 5/23/10 11/23/15
f 15/24/16 14/25/17 23/26/18 24/27/19
f 14/28/17 13/28/15 28/2/15 23/2/18
f 49/29/14 48/30/20 20/14/20 21/13/14
f 12/31/8 7/32/8 8/8/8 26/7/7
f 50/33/21 54/34/22 26/15/7 22/18/21
f 53/35/23 50/36/21 22/22/21 25/6/23
f 40/37/8 12/31/8 26/7/7 54/38/22
f 24/39/24 52/40/24 55/20/8 27/19/8
f 11/23/8 15/41/16 24/39/19 27/19/8
f 48/42/20 53/35/23 25/6/23 20/5/20
f 51/43/2 52/44/24 24/27/24 23/26/2
f 32/45/25 53/35/26 48/42/27 34/46/28
f 54/38/22 38/47/29 31/48/8 36/49/8
f 34/50/28 48/30/27 49/29/30 33/51/31
f 54/34/22 50/33/32 37/52/33 38/53/29
f 37/54/33 50/36/32 53/35/26 32/45/25
f 55/20/34 39/55/34 33/55/31 49/20/30
f 43/56/35 52/44/36 51/43/37 42/57/38
f 42/58/38 51/1/37 56/1/34 41/58/34
f 40/37/8 54/38/22 36/49/8 35/59/8
f 39/55/8 55/20/8 52/40/36 43/60/35
s 0
f 1/61/8 2/62/8 30/63/8 29/64/8
l 17 16
l 19 18
l 45 44
l 47 46
