# Blender 4.2.3 LTS
# www.blender.org
mtllib Floor_Default.mtl
o Floor_Main
v 0.000000 0.000000 0.000000
v 0.000000 0.000000 -0.666667
v 0.250000 0.000000 -0.666667
v 2.000000 0.000000 0.000000
v 1.750000 0.000000 0.000000
v 1.750000 0.000000 -0.333333
v 2.000000 0.000000 -0.333333
v 2.000000 0.000000 -1.000000
v 1.500000 0.000000 -0.666667
v 1.750000 0.000000 -0.666667
v 1.750000 0.000000 -1.333333
v 1.750000 0.000000 -1.000000
v 1.500000 0.000000 -1.333333
v 2.000000 0.000000 -2.000000
v 1.750000 0.000000 -2.000000
v 2.000000 0.000000 -1.666667
v 1.750000 0.000000 -1.666667
v 1.500000 0.000000 0.000000
v 1.500000 0.000000 -0.333333
v 1.250000 0.000000 0.000000
v 1.250000 0.000000 -0.666667
v 1.250000 0.000000 -0.333333
v 1.500000 0.000000 -1.000000
v 1.250000 0.000000 -1.000000
v 1.000000 0.000000 -0.666667
v 1.250000 0.000000 -1.333333
v 1.500000 0.000000 -1.666667
v 1.250000 0.000000 -1.666667
v 1.000000 0.000000 -1.333333
v 1.500000 0.000000 -2.000000
v 1.250000 0.000000 -2.000000
v 1.000000 0.000000 0.000000
v 1.000000 0.000000 -0.333333
v 0.750000 0.000000 -0.333333
v 0.750000 0.000000 0.000000
v 0.500000 0.000000 -0.666667
v 1.000000 0.000000 -1.000000
v 0.750000 0.000000 -1.000000
v 0.750000 0.000000 -0.666667
v 0.750000 0.000000 -1.333333
v 1.000000 0.000000 -1.666667
v 0.750000 0.000000 -2.000000
v 0.500000 0.000000 -1.333333
v 1.000000 0.000000 -2.000000
v 0.750000 0.000000 -1.666667
v 0.500000 0.000000 0.000000
v 0.250000 0.000000 0.000000
v 0.250000 0.000000 -0.333333
v 0.500000 0.000000 -0.333333
v 0.250000 0.000000 -1.000000
v 0.250000 0.000000 -1.333333
v 0.500000 0.000000 -1.000000
v 0.250000 0.000000 -1.666667
v 0.250000 0.000000 -2.000000
v 0.000000 0.000000 -2.000000
v 0.000000 0.000000 -1.333333
v 0.500000 0.000000 -2.000000
v 0.500000 0.000000 -1.666667
vn -0.0000 1.0000 -0.0000
vt 0.168257 0.446017
vt 0.168234 0.446017
vt 0.168257 0.442977
vt 0.168234 0.442977
vt 0.168078 0.446017
vt 0.168078 0.444497
vt 0.168100 0.444497
vt 0.168100 0.446017
vt 0.164293 0.130269
vt 0.164301 0.130269
vt 0.164293 0.131366
vt 0.164301 0.131366
vt 0.175469 0.441457
vt 0.175469 0.448838
vt 0.175415 0.448838
vt 0.175415 0.441457
vt 0.168123 0.442977
vt 0.168100 0.442977
vt 0.168123 0.439937
vt 0.168100 0.439937
vt 0.163134 0.716380
vt 0.163142 0.715284
vt 0.163142 0.716380
vt 0.163134 0.715284
vt 0.164280 0.466384
vt 0.164300 0.466384
vt 0.164280 0.469221
vt 0.164300 0.469221
vt 0.168100 0.438417
vt 0.168078 0.438417
vt 0.168078 0.436898
vt 0.168100 0.436898
vt 0.160636 0.824757
vt 0.160636 0.825305
vt 0.160628 0.825305
vt 0.160628 0.824757
vt 0.168167 0.446017
vt 0.168145 0.446017
vt 0.168167 0.442977
vt 0.168145 0.442977
vt 0.175577 0.441457
vt 0.175577 0.448838
vt 0.175523 0.448838
vt 0.175523 0.441457
vt 0.173070 0.107555
vt 0.173078 0.107555
vt 0.173070 0.108651
vt 0.173078 0.108651
vt 0.164259 0.467802
vt 0.164280 0.464965
vt 0.164280 0.467802
vt 0.164259 0.464965
vt 0.168167 0.439937
vt 0.168145 0.439937
vt 0.168167 0.436898
vt 0.168145 0.436898
vt 0.160628 0.827499
vt 0.160636 0.827499
vt 0.160636 0.828047
vt 0.160628 0.828047
vt 0.175632 0.452528
vt 0.175632 0.448838
vt 0.175686 0.448838
vt 0.175686 0.452528
vt 0.172198 0.550931
vt 0.172206 0.550931
vt 0.172198 0.552027
vt 0.172206 0.552027
vt 0.164217 0.464965
vt 0.164217 0.462128
vt 0.164238 0.462128
vt 0.164238 0.464965
vt 0.175740 0.445148
vt 0.175686 0.445148
vt 0.175740 0.437767
vt 0.175686 0.437767
vt 0.171718 0.311053
vt 0.171663 0.318434
vt 0.171663 0.311053
vt 0.171718 0.318434
vt 0.162782 0.636462
vt 0.162790 0.636462
vt 0.162782 0.637559
vt 0.162790 0.637559
vt 0.175686 0.434077
vt 0.175632 0.434077
vt 0.175632 0.430386
vt 0.175686 0.430386
vt 0.175740 0.452528
vt 0.175740 0.448838
vt 0.175795 0.448838
vt 0.175795 0.452528
vt 0.168234 0.441457
vt 0.168234 0.444497
vt 0.168212 0.444497
vt 0.168212 0.441457
vt 0.163855 0.286138
vt 0.163864 0.286138
vt 0.163855 0.287234
vt 0.163864 0.287234
vt 0.164175 0.467802
vt 0.164196 0.464965
vt 0.164196 0.467802
vt 0.164175 0.464965
vt 0.168257 0.439937
vt 0.168234 0.439937
vt 0.168257 0.436898
vt 0.168234 0.436898
vt 0.175795 0.434077
vt 0.175740 0.434077
vt 0.175740 0.430386
vt 0.175795 0.430386
s 0
usemtl Material
f 1/1/1 47/2/1 2/3/1
f 2/3/1 47/2/1 3/4/1
f 4/5/1 7/6/1 6/7/1 5/8/1
f 18/9/1 5/10/1 9/11/1
f 9/11/1 5/10/1 10/12/1
f 12/13/1 6/14/1 7/15/1
f 12/13/1 7/15/1 8/16/1
f 9/17/1 10/18/1 13/19/1
f 13/19/1 10/18/1 11/20/1
f 17/21/1 8/22/1 16/23/1
f 12/24/1 8/22/1 17/21/1
f 13/25/1 11/26/1 30/27/1
f 30/27/1 11/26/1 15/28/1
f 17/29/1 16/30/1 14/31/1 15/32/1
f 18/33/1 19/34/1 22/35/1 20/36/1
f 32/37/1 20/38/1 25/39/1
f 25/39/1 20/38/1 21/40/1
f 24/41/1 22/42/1 19/43/1
f 24/41/1 19/43/1 23/44/1
f 25/45/1 21/46/1 29/47/1
f 29/47/1 21/46/1 26/48/1
f 28/49/1 23/50/1 27/51/1
f 24/52/1 23/50/1 28/49/1
f 29/53/1 26/54/1 44/55/1
f 44/55/1 26/54/1 31/56/1
f 28/57/1 27/58/1 30/59/1 31/60/1
f 32/61/1 33/62/1 34/63/1 35/64/1
f 46/65/1 35/66/1 36/67/1
f 36/67/1 35/66/1 39/68/1
f 38/69/1 34/70/1 33/71/1
f 38/69/1 33/71/1 37/72/1
f 36/73/1 39/74/1 43/75/1
f 43/75/1 39/74/1 40/76/1
f 45/77/1 37/78/1 41/79/1
f 38/80/1 37/78/1 45/77/1
f 43/81/1 40/82/1 57/83/1
f 57/83/1 40/82/1 42/84/1
f 45/85/1 41/86/1 44/87/1 42/88/1
f 46/89/1 49/90/1 48/91/1 47/92/1
f 50/93/1 48/94/1 49/95/1
f 50/93/1 49/95/1 52/96/1
f 2/97/1 3/98/1 56/99/1
f 56/99/1 3/98/1 51/100/1
f 53/101/1 52/102/1 58/103/1
f 50/104/1 52/102/1 53/101/1
f 56/105/1 51/106/1 55/107/1
f 55/107/1 51/106/1 54/108/1
f 53/109/1 58/110/1 57/111/1 54/112/1
