# Blender 4.2.3 LTS
# www.blender.org
mtllib Wall_Door.mtl
o Wall_Door
v -0.000000 3.000000 0.000000
v 0.024997 0.219432 -2.000000
v -0.000000 3.000000 -2.000000
v 0.024997 0.219432 0.000000
v 0.000000 0.238775 0.000000
v 0.000000 0.238775 -2.000000
v 0.037471 0.000000 0.000000
v 0.037471 0.000000 -2.000000
v 0.024997 0.235697 0.000000
v 0.022630 0.238775 0.000000
v 0.022630 0.238775 -2.000000
v 0.024997 0.235697 -2.000000
v 0.037471 0.216354 0.000000
v 0.035104 0.219432 0.000000
v 0.035104 0.219432 -2.000000
v 0.037471 0.216354 -2.000000
v -0.000000 3.000000 -1.666667
v -0.000000 3.000000 -1.333333
v -0.000000 3.000000 -1.000000
v -0.000000 3.000000 -0.666667
v -0.000000 3.000000 -0.333333
v 0.024997 0.219432 -0.333333
v 0.024997 0.219432 -1.666667
v 0.000000 0.238775 -0.333333
v 0.000000 0.238775 -1.666667
v 0.037471 0.000000 -0.333333
v 0.037471 0.000000 -1.666667
v 0.037471 0.216354 -0.333333
v 0.037471 0.216354 -1.666667
v 0.035104 0.219432 -1.666667
v 0.035104 0.219432 -0.333333
v 0.024997 0.235697 -0.333333
v 0.024997 0.235697 -1.666667
v 0.022630 0.238775 -1.666667
v 0.022630 0.238775 -0.333333
v 0.000000 0.632313 -2.000000
v 0.000000 1.025850 -2.000000
v -0.000000 1.419388 -2.000000
v -0.000000 1.812925 -2.000000
v -0.000000 2.176558 -2.000000
v -0.000000 2.176558 0.000000
v -0.000000 1.812925 0.000000
v -0.000000 1.419388 0.000000
v 0.000000 1.025850 0.000000
v 0.000000 0.632313 0.000000
v 0.000000 0.632313 -0.333333
v 0.000000 1.025850 -0.333333
v -0.000000 1.419388 -0.333333
v -0.000000 1.812925 -0.333333
v -0.000000 2.176558 -0.333333
v -0.000000 2.176558 -0.666667
v -0.000000 2.176558 -1.000000
v -0.000000 2.176558 -1.333333
v 0.000000 0.632313 -1.666667
v 0.000000 1.025850 -1.666667
v -0.000000 1.419388 -1.666667
v -0.000000 1.812925 -1.666667
v -0.000000 2.176558 -1.666667
vn 1.0000 -0.0000 -0.0000
vn -0.0000 1.0000 -0.0000
vn 0.7926 0.6097 -0.0000
vt 0.253457 0.534842
vt 0.264705 0.534842
vt 0.264705 0.586448
vt 0.253457 0.586448
vt 0.169258 0.772965
vt 0.169258 0.745242
vt 0.167859 0.772965
vt 0.167859 0.745242
vt 0.169481 0.745027
vt 0.185135 0.745027
vt 0.185135 0.772750
vt 0.169481 0.772750
vt 0.162999 0.745027
vt 0.162999 0.772750
vt 0.162776 0.772750
vt 0.162776 0.745027
vt 0.161599 0.745027
vt 0.161599 0.772750
vt 0.161377 0.772750
vt 0.161377 0.745027
vt 0.168081 0.745027
vt 0.169258 0.745027
vt 0.169258 0.772750
vt 0.168081 0.772750
vt 0.168081 0.745242
vt 0.168081 0.772965
vt 0.161599 0.745242
vt 0.161599 0.772965
vt 0.161377 0.772965
vt 0.161377 0.745242
vt 0.162999 0.745242
vt 0.162999 0.772965
vt 0.162776 0.772965
vt 0.162776 0.745242
vt 0.169481 0.745242
vt 0.185135 0.745242
vt 0.185135 0.772965
vt 0.169481 0.772965
vt 0.167859 0.772750
vt 0.167859 0.745027
vt 0.253457 0.276781
vt 0.264705 0.276781
vt 0.264705 0.328392
vt 0.253457 0.328392
vt 0.255281 0.378827
vt 0.248120 0.378827
vt 0.248120 0.327208
vt 0.255281 0.327208
vt 0.255281 0.430435
vt 0.248120 0.430435
vt 0.255281 0.482051
vt 0.248120 0.482051
vt 0.255281 0.533659
vt 0.248120 0.533659
vt 0.255281 0.585270
vt 0.248120 0.585270
vt 0.248067 0.276781
vt 0.249336 0.276781
vt 0.249336 0.328392
vt 0.248067 0.328392
vt 0.250710 0.276781
vt 0.250710 0.328392
vt 0.252083 0.276781
vt 0.252083 0.328392
vt 0.248120 0.275603
vt 0.255281 0.275603
vt 0.248067 0.534842
vt 0.249336 0.534842
vt 0.249336 0.586448
vt 0.248067 0.586448
vt 0.250710 0.534842
vt 0.250710 0.586448
vt 0.252083 0.534842
vt 0.252083 0.586448
s 1
usemtl Material
f 54/1/1 25/2/1 6/3/1 36/4/1
f 22/5/2 4/6/2 14/6/2 31/5/2
f 24/7/2 5/8/2 10/8/2 35/7/2
f 29/9/1 27/10/1 8/11/1 16/12/1
f 29/13/3 16/14/3 15/15/3 30/16/3
f 33/17/3 12/18/3 11/19/3 34/20/3
f 33/21/1 23/22/1 2/23/1 12/24/1
f 9/25/1 4/6/1 22/5/1 32/26/1
f 9/27/3 32/28/3 35/29/3 10/30/3
f 13/31/3 28/32/3 31/33/3 14/34/3
f 13/35/1 7/36/1 26/37/1 28/38/1
f 6/39/2 25/40/2 34/40/2 11/39/2
f 2/23/2 23/22/2 30/22/2 15/23/2
f 45/41/1 5/42/1 24/43/1 46/44/1
f 18/45/1 53/46/1 58/47/1 17/48/1
f 19/49/1 52/50/1 53/46/1 18/45/1
f 20/51/1 51/52/1 52/50/1 19/49/1
f 21/53/1 50/54/1 51/52/1 20/51/1
f 1/55/1 41/56/1 50/54/1 21/53/1
f 41/57/1 42/58/1 49/59/1 50/60/1
f 42/58/1 43/61/1 48/62/1 49/59/1
f 43/61/1 44/63/1 47/64/1 48/62/1
f 44/63/1 45/41/1 46/44/1 47/64/1
f 17/48/1 58/47/1 40/65/1 3/66/1
f 58/67/1 57/68/1 39/69/1 40/70/1
f 57/68/1 56/71/1 38/72/1 39/69/1
f 56/71/1 55/73/1 37/74/1 38/72/1
f 55/73/1 54/1/1 36/4/1 37/74/1
