# Blender 4.3.1
# www.blender.org
o FocoDia
v 0.000000 0.245376 -1.000000
v 0.500000 0.245376 -0.866025
v 0.866025 0.245376 -0.500000
v 1.000000 0.245376 0.000000
v 0.866025 0.245376 0.500000
v 0.500000 0.245376 0.866025
v 0.000000 0.245376 1.000000
v -0.500000 0.245376 0.866025
v -0.866025 0.245376 0.500000
v -1.000000 0.245376 0.000000
v -0.866025 0.245376 -0.500000
v -0.500000 0.245376 -0.866025
v -0.000000 0.114571 0.000000
v 0.000000 0.114571 -0.888234
v 0.444117 0.114571 -0.769233
v 0.769233 0.114571 -0.444117
v 0.888234 0.114571 0.000000
v 0.769233 0.114571 0.444117
v 0.444117 0.114571 0.769233
v 0.000000 0.114571 0.888234
v -0.444117 0.114571 0.769233
v -0.769233 0.114571 0.444117
v -0.888234 0.114571 0.000000
v -0.769233 0.114571 -0.444117
v -0.444117 0.114571 -0.769233
v 0.000000 0.052770 -0.888234
v 0.000000 0.037375 -0.904172
v 0.452086 0.037375 -0.783036
v 0.444117 0.052770 -0.769233
v 0.783036 0.037375 -0.452086
v 0.769233 0.052770 -0.444117
v 0.904172 0.037375 0.000000
v 0.888234 0.052770 0.000000
v 0.783036 0.037375 0.452086
v 0.769233 0.052770 0.444117
v 0.452086 0.037375 0.783036
v 0.444117 0.052770 0.769233
v 0.000000 0.037375 0.904172
v 0.000000 0.052770 0.888234
v -0.452086 0.037375 0.783036
v -0.444117 0.052770 0.769233
v -0.783036 0.037375 0.452086
v -0.769233 0.052770 0.444117
v -0.904172 0.037375 0.000000
v -0.888234 0.052770 0.000000
v -0.783036 0.037375 -0.452086
v -0.769233 0.052770 -0.444117
v -0.452086 0.037375 -0.783036
v -0.444117 0.052770 -0.769233
v 0.000000 0.037375 -0.984062
v 0.000000 0.052770 -1.000000
v 0.500000 0.052770 -0.866025
v 0.492031 0.037375 -0.852223
v 0.866025 0.052770 -0.500000
v 0.852223 0.037375 -0.492031
v 1.000000 0.052770 0.000000
v 0.984062 0.037375 0.000000
v 0.866025 0.052770 0.500000
v 0.852223 0.037375 0.492031
v 0.500000 0.052770 0.866025
v 0.492031 0.037375 0.852223
v 0.000000 0.052770 1.000000
v 0.000000 0.037375 0.984062
v -0.500000 0.052770 0.866025
v -0.492031 0.037375 0.852223
v -0.866025 0.052770 0.500000
v -0.852223 0.037375 0.492031
v -1.000000 0.052770 0.000000
v -0.984062 0.037375 0.000000
v -0.866025 0.052770 -0.500000
v -0.852223 0.037375 -0.492031
v -0.500000 0.052770 -0.866025
v -0.492031 0.037375 -0.852223
vn -0.5000 -0.0000 -0.8660
vn -0.0000 -0.0000 -1.0000
vn 0.8660 -0.0000 -0.5000
vn 1.0000 -0.0000 -0.0000
vn 0.8660 -0.0000 0.5000
vn 0.5000 -0.0000 0.8660
vn -0.0000 -0.0000 1.0000
vn -0.5000 -0.0000 0.8660
vn -0.8660 -0.0000 0.5000
vn -1.0000 -0.0000 -0.0000
vn -0.8660 -0.0000 -0.5000
vn 0.5000 -0.0000 -0.8660
vn -0.0000 -1.0000 -0.0000
vn -0.0000 -0.7193 -0.6947
vn 0.3474 -0.7193 -0.6017
vn 0.6017 -0.7193 -0.3474
vn 0.6947 -0.7193 -0.0000
vn 0.6017 -0.7193 0.3474
vn 0.3474 -0.7193 0.6017
vn -0.0000 -0.7193 0.6947
vn -0.3474 -0.7193 0.6017
vn -0.6017 -0.7193 0.3474
vn -0.6947 -0.7193 -0.0000
vn -0.6017 -0.7193 -0.3474
vn -0.3474 -0.7193 -0.6017
vt 0.637844 0.474756
vt 0.637879 0.474287
vt 0.637938 0.476037
vt 0.637947 0.477786
vt 0.637938 0.479536
vt 0.637913 0.480817
vt 0.637879 0.481286
vt 0.637844 0.480817
vt 0.637819 0.479536
vt 0.637810 0.477786
vt 0.637819 0.476037
vt 0.637913 0.474756
vt 0.634090 0.479919
vt 0.634059 0.481480
vt 0.633975 0.474093
vt 0.634017 0.473522
vt 0.634090 0.475654
vt 0.634101 0.477786
vt 0.633412 0.480509
vt 0.633426 0.477786
vt 0.633435 0.477786
vt 0.633420 0.480750
vt 0.634017 0.482051
vt 0.633975 0.481480
vt 0.633945 0.479919
vt 0.633934 0.477786
vt 0.633945 0.475654
vt 0.633373 0.473070
vt 0.633319 0.472341
vt 0.633319 0.471860
vt 0.633377 0.472654
vt 0.633266 0.473070
vt 0.633227 0.475064
vt 0.633219 0.474823
vt 0.633261 0.472654
vt 0.633227 0.480509
vt 0.633266 0.482502
vt 0.633261 0.482919
vt 0.633219 0.480750
vt 0.633373 0.482502
vt 0.633377 0.482919
vt 0.634059 0.474093
vt 0.633412 0.475064
vt 0.633420 0.474823
vt 0.633212 0.477786
vt 0.633203 0.477786
vt 0.633319 0.483232
vt 0.633319 0.483713
vt 0.733209 0.477786
vt 0.733209 0.444579
vt 0.733535 0.449028
vt 0.733773 0.461183
vt 0.733860 0.477786
vt 0.733773 0.494390
vt 0.733535 0.506545
vt 0.733209 0.510994
vt 0.732884 0.506545
vt 0.732645 0.494390
vt 0.732558 0.477786
vt 0.732645 0.461183
vt 0.732884 0.449028
vt 0.632600 0.474749
vt 0.632630 0.475156
vt 0.632630 0.475198
vt 0.632600 0.474797
vt 0.632652 0.476268
vt 0.632651 0.476292
vt 0.632660 0.477786
vt 0.632659 0.477786
vt 0.632652 0.479305
vt 0.632651 0.479281
vt 0.632630 0.480417
vt 0.632630 0.480375
vt 0.632600 0.480824
vt 0.632600 0.480775
vt 0.632571 0.480417
vt 0.632571 0.480375
vt 0.632549 0.479305
vt 0.632550 0.479281
vt 0.632541 0.477786
vt 0.632542 0.477786
vt 0.632549 0.476268
vt 0.632550 0.476292
vt 0.632571 0.475156
vt 0.632571 0.475198
vt 0.632600 0.475040
vt 0.632627 0.475408
vt 0.632627 0.475450
vt 0.632600 0.475088
vt 0.632647 0.476413
vt 0.632646 0.476437
vt 0.632654 0.477786
vt 0.632653 0.477786
vt 0.632647 0.479160
vt 0.632646 0.479135
vt 0.632627 0.480165
vt 0.632627 0.480123
vt 0.632600 0.480533
vt 0.632600 0.480484
vt 0.632573 0.480165
vt 0.632574 0.480123
vt 0.632554 0.479160
vt 0.632555 0.479135
vt 0.632547 0.477786
vt 0.632548 0.477786
vt 0.632554 0.476413
vt 0.632555 0.476437
vt 0.632573 0.475408
vt 0.632574 0.475450
s 1
f 72/1/1 12/1/1 1/2/2 51/2/2
f 54/3/3 3/3/3 4/4/4 56/4/4
f 56/4/4 4/4/4 5/5/5 58/5/5
f 58/5/5 5/5/5 6/6/6 60/6/6
f 60/6/6 6/6/6 7/7/7 62/7/7
f 62/7/7 7/7/7 8/8/8 64/8/8
f 64/8/8 8/8/8 9/9/9 66/9/9
f 66/9/9 9/9/9 10/10/10 68/10/10
f 68/10/10 10/10/10 11/11/11 70/11/11
f 70/11/11 11/11/11 12/1/1 72/1/1
f 52/12/12 2/12/12 3/3/3 54/3/3
f 35/13/11 37/14/1 19/14/1 18/13/11
f 49/15/6 26/16/7 14/16/7 25/15/6
f 31/17/9 33/18/10 17/18/10 16/17/9
f 34/19/13 32/20/13 57/21/13 59/22/13
f 33/18/10 35/13/11 18/13/11 17/18/10
f 37/14/1 39/23/2 20/23/2 19/14/1
f 39/23/2 41/24/12 21/24/12 20/23/2
f 41/24/12 43/25/3 22/25/3 21/24/12
f 43/25/3 45/26/4 23/26/4 22/25/3
f 45/26/4 47/27/5 24/27/5 23/26/4
f 47/27/5 49/15/6 25/15/6 24/27/5
f 51/2/2 1/2/2 2/12/12 52/12/12
f 28/28/13 27/29/13 50/30/13 53/31/13
f 48/32/13 46/33/13 71/34/13 73/35/13
f 27/29/13 48/32/13 73/35/13 50/30/13
f 42/36/13 40/37/13 65/38/13 67/39/13
f 36/40/13 34/19/13 59/22/13 61/41/13
f 29/42/8 31/17/9 16/17/9 15/42/8
f 30/43/13 28/28/13 53/31/13 55/44/13
f 44/45/13 42/36/13 67/39/13 69/46/13
f 38/47/13 36/40/13 61/41/13 63/48/13
f 32/20/13 30/43/13 55/44/13 57/21/13
f 46/33/13 44/45/13 69/46/13 71/34/13
f 40/37/13 38/47/13 63/48/13 65/38/13
f 13/49/13 14/50/13 15/51/13
f 13/49/13 15/51/13 16/52/13
f 13/49/13 16/52/13 17/53/13
f 13/49/13 17/53/13 18/54/13
f 13/49/13 18/54/13 19/55/13
f 13/49/13 19/55/13 20/56/13
f 13/49/13 20/56/13 21/57/13
f 13/49/13 21/57/13 22/58/13
f 13/49/13 22/58/13 23/59/13
f 13/49/13 23/59/13 24/60/13
f 13/49/13 24/60/13 25/61/13
f 13/49/13 25/61/13 14/50/13
f 51/62/14 52/63/15 53/64/15 50/65/14
f 52/63/15 54/66/16 55/67/16 53/64/15
f 54/66/16 56/68/17 57/69/17 55/67/16
f 56/68/17 58/70/18 59/71/18 57/69/17
f 58/70/18 60/72/19 61/73/19 59/71/18
f 60/72/19 62/74/20 63/75/20 61/73/19
f 62/74/20 64/76/21 65/77/21 63/75/20
f 64/76/21 66/78/22 67/79/22 65/77/21
f 66/78/22 68/80/23 69/81/23 67/79/22
f 68/80/23 70/82/24 71/83/24 69/81/23
f 70/82/24 72/84/25 73/85/25 71/83/24
f 72/84/25 51/62/14 50/65/14 73/85/25
f 27/86/20 28/87/21 29/88/21 26/89/20
f 28/87/21 30/90/22 31/91/22 29/88/21
f 30/90/22 32/92/23 33/93/23 31/91/22
f 32/92/23 34/94/24 35/95/24 33/93/23
f 34/94/24 36/96/25 37/97/25 35/95/24
f 36/96/25 38/98/14 39/99/14 37/97/25
f 38/98/14 40/100/15 41/101/15 39/99/14
f 40/100/15 42/102/16 43/103/16 41/101/15
f 42/102/16 44/104/17 45/105/17 43/103/16
f 44/104/17 46/106/18 47/107/18 45/105/17
f 46/106/18 48/108/19 49/109/19 47/107/18
f 48/108/19 27/86/20 26/89/20 49/109/19
f 26/16/7 29/42/8 15/42/8 14/16/7
