# Blender 4.2.1 LTS
# www.blender.org
mtllib Bread_DownSide.mtl
o Pan_Abajo
v -0.114659 0.010076 0.049456
v 0.116427 0.010076 0.049456
v -0.114659 0.010076 -0.049456
v 0.116427 0.010076 -0.049456
v -0.142489 0.010076 -0.032971
v -0.151001 0.010076 -0.016485
v -0.153425 0.010076 0.000000
v -0.151001 0.010076 0.016485
v -0.142489 0.010076 0.032971
v 0.142554 0.010076 0.032971
v 0.150544 0.010076 0.016485
v 0.152820 0.010076 0.000000
v 0.150544 0.010076 -0.016485
v 0.142554 0.010076 -0.032971
v -0.040894 0.010076 0.049456
v 0.044007 0.010076 0.049456
v 0.044007 0.010076 -0.049456
v -0.040894 0.010076 -0.049456
v -0.114659 0.002971 0.049456
v 0.116427 0.002971 0.049456
v -0.114659 0.002971 -0.049456
v 0.116427 0.002971 -0.049456
v -0.142489 0.002971 -0.032971
v -0.151001 0.003106 -0.016485
v -0.153425 0.003180 0.000000
v -0.151001 0.003106 0.016485
v -0.142489 0.002971 0.032971
v 0.142554 0.002971 0.032971
v 0.150544 0.003096 0.016485
v 0.152820 0.003183 0.000000
v 0.150544 0.003096 -0.016485
v 0.142554 0.002971 -0.032971
v -0.128520 -0.012589 0.019791
v -0.103411 -0.015347 -0.000000
v 0.104556 -0.015347 0.000000
v 0.128243 -0.012589 -0.020174
v -0.128520 -0.012589 -0.019791
v -0.133186 -0.012574 -0.010753
v -0.134767 -0.012573 -0.000000
v -0.133186 -0.012574 0.010753
v 0.128243 -0.012589 0.020174
v 0.132658 -0.012573 0.011065
v 0.134185 -0.012573 0.000000
v 0.132658 -0.012573 -0.011065
v -0.135485 -0.007929 0.026362
v -0.112123 -0.007603 0.040201
v 0.113751 -0.007574 0.040201
v 0.135378 -0.007904 -0.026554
v 0.113751 -0.007574 -0.040201
v -0.112123 -0.007603 -0.040201
v -0.135485 -0.007929 -0.026362
v -0.142069 -0.008104 -0.013611
v -0.144070 -0.008148 -0.000000
v -0.142069 -0.008104 0.013611
v 0.135378 -0.007904 0.026554
v 0.141576 -0.008102 0.013768
v 0.143477 -0.008152 0.000000
v 0.141576 -0.008102 -0.013768
v -0.120402 -0.014436 0.012132
v -0.109602 -0.012580 0.030997
v 0.111090 -0.012582 0.030997
v 0.119927 -0.014431 -0.012737
v 0.111090 -0.012582 -0.030997
v -0.109602 -0.012580 -0.030997
v -0.120402 -0.014436 -0.012132
v -0.122834 -0.014440 -0.007422
v -0.123925 -0.014448 -0.000000
v -0.122834 -0.014440 0.007422
v 0.119927 -0.014431 0.012737
v 0.122265 -0.014438 0.007915
v 0.123357 -0.014448 0.000000
v 0.122265 -0.014438 -0.007915
v -0.111924 -0.015347 -0.000000
v -0.106663 -0.014367 0.020270
v 0.107989 -0.014374 0.020270
v 0.111371 -0.015347 0.000000
v 0.107989 -0.014374 -0.020270
v -0.106663 -0.014367 -0.020270
v -0.040095 -0.007649 0.040201
v 0.043068 -0.007640 0.040201
v 0.043068 -0.007640 -0.040201
v -0.040095 -0.007649 -0.040201
v 0.041547 -0.015347 -0.000000
v -0.040756 -0.015347 -0.000000
v -0.114659 0.010076 -0.000000
v 0.116427 0.010076 -0.000000
v -0.040894 0.002971 0.049456
v 0.044007 0.002971 0.049456
v 0.044007 0.002971 -0.049456
v -0.040894 0.002971 -0.049456
v -0.039301 -0.012555 0.030997
v 0.042134 -0.012556 0.030997
v 0.042134 -0.012556 -0.030997
v -0.039301 -0.012555 -0.030997
v -0.038376 -0.014363 0.020270
v 0.041046 -0.014365 0.020270
v 0.041046 -0.014365 -0.020270
v -0.038376 -0.014363 -0.020270
v -0.040895 0.010076 -0.000000
v 0.044005 0.010076 -0.000000
vn -0.0000 1.0000 -0.0000
vn -0.1640 -0.7775 0.6071
vn -0.2480 -0.3393 0.9074
vn -0.6847 -0.3358 0.6468
vn -0.4534 -0.7791 0.4330
vn 0.1724 -0.7776 -0.6046
vn 0.2607 -0.3397 -0.9037
vn 0.7015 -0.3362 -0.6284
vn 0.4646 -0.7789 -0.4213
vn 0.2607 -0.3397 0.9037
vn 0.0001 -0.3513 0.9362
vn 0.0002 -0.7822 0.6230
vn 0.1724 -0.7776 0.6046
vn -0.4534 -0.7791 -0.4330
vn -0.6847 -0.3358 -0.6468
vn -0.2480 -0.3393 -0.9074
vn -0.1640 -0.7775 -0.6071
vn -0.5960 -0.7793 -0.1935
vn -0.8982 -0.3312 -0.2889
vn -0.6265 -0.7794 -0.0000
vn -0.9443 -0.3290 -0.0000
vn -0.5960 -0.7793 0.1935
vn -0.8982 -0.3312 0.2889
vn 0.4646 -0.7789 0.4213
vn 0.7015 -0.3362 0.6284
vn 0.5988 -0.7795 0.1836
vn 0.9028 -0.3318 0.2736
vn 0.6261 -0.7798 -0.0000
vn 0.9443 -0.3292 -0.0000
vn 0.5988 -0.7795 -0.1836
vn 0.9028 -0.3318 -0.2736
vn -0.0860 -0.9420 0.3243
vn -0.2346 -0.9449 0.2283
vn -0.0000 -0.3511 -0.9363
vn -0.0001 -0.7824 -0.6228
vn 0.0908 -0.9416 -0.3243
vn 0.2409 -0.9446 -0.2229
vn -0.0000 -0.9462 0.3235
vn 0.0908 -0.9416 0.3243
vn -0.2346 -0.9449 -0.2283
vn -0.0860 -0.9420 -0.3243
vn -0.3019 -0.9481 -0.0996
vn -0.3149 -0.9491 -0.0000
vn -0.3019 -0.9481 0.0996
vn 0.2409 -0.9446 0.2229
vn 0.3033 -0.9482 0.0947
vn 0.3144 -0.9493 -0.0000
vn 0.3033 -0.9482 -0.0947
vn -0.0274 -0.9934 0.1117
vn -0.0838 -0.9930 0.0837
vn -0.0000 -0.9464 -0.3230
vn 0.0290 -0.9934 -0.1112
vn 0.0854 -0.9930 -0.0813
vn -0.0001 -0.9942 0.1073
vn 0.0290 -0.9934 0.1112
vn -0.0838 -0.9930 -0.0837
vn -0.0274 -0.9934 -0.1117
vn -0.1187 -0.9921 -0.0394
vn -0.1268 -0.9919 -0.0000
vn -0.1187 -0.9921 0.0394
vn 0.0854 -0.9930 0.0813
vn 0.1189 -0.9922 0.0375
vn 0.1267 -0.9919 -0.0000
vn 0.1189 -0.9922 -0.0375
vn -0.0072 -1.0000 -0.0000
vn -0.0324 -0.9995 -0.0000
vn -0.0000 -0.9942 -0.1073
vn 0.0077 -1.0000 -0.0000
vn 0.0337 -0.9994 -0.0000
vn -0.0000 -1.0000 -0.0000
vn -0.0001 -0.9942 -0.1073
vn -0.0000 -0.9942 0.1073
vn -0.0000 -0.9462 -0.3235
vn -0.0000 -0.9464 0.3230
vn 0.0002 -0.7822 -0.6230
vn -0.0001 -0.7824 0.6228
vn 0.0001 -0.3513 -0.9363
vn -0.0000 -0.3511 0.9363
vn 0.2777 -0.0000 -0.9607
vn -0.0000 -0.0000 -1.0000
vn 0.9570 -0.0000 -0.2900
vn 1.0000 -0.0000 -0.0000
vn -0.9519 -0.0000 -0.3063
vn -0.7274 -0.0000 -0.6862
vn 0.7454 -0.0000 -0.6666
vn -0.0000 -0.0000 1.0000
vn -0.2642 -0.0000 0.9645
vn -1.0000 -0.0000 -0.0000
vn -0.2642 -0.0000 -0.9645
vn -0.9519 -0.0000 0.3063
vn -0.7274 -0.0000 0.6862
vn 0.2777 -0.0000 0.9607
vn 0.7454 -0.0000 0.6666
vn 0.9570 -0.0000 0.2900
vt 0.811090 0.863434
vt 0.811725 0.796355
vt 0.811725 0.867909
vt 0.793740 0.333171
vt 0.793465 0.328417
vt 0.793833 0.300290
vt 0.794030 0.311026
vt 0.795310 0.669006
vt 0.795581 0.673869
vt 0.795221 0.700182
vt 0.795029 0.689312
vt 0.793452 0.673826
vt 0.793352 0.560418
vt 0.793652 0.559085
vt 0.793726 0.668960
vt 0.795045 0.310963
vt 0.795245 0.300187
vt 0.795616 0.328639
vt 0.795337 0.333329
vt 0.794798 0.304695
vt 0.794895 0.290111
vt 0.794536 0.302903
vt 0.794534 0.287187
vt 0.794275 0.304786
vt 0.794176 0.290402
vt 0.794010 0.689411
vt 0.793815 0.700311
vt 0.794256 0.695394
vt 0.794162 0.709986
vt 0.794521 0.697125
vt 0.794523 0.712836
vt 0.794785 0.695290
vt 0.794881 0.709691
vt 0.793940 0.336558
vt 0.794164 0.318687
vt 0.795706 0.443054
vt 0.795404 0.444129
vt 0.795112 0.665571
vt 0.794897 0.681613
vt 0.793871 0.557911
vt 0.793926 0.665530
vt 0.794910 0.318667
vt 0.795135 0.336688
vt 0.794738 0.314302
vt 0.794536 0.312877
vt 0.794335 0.314333
vt 0.794142 0.681664
vt 0.794313 0.685797
vt 0.794520 0.687176
vt 0.794727 0.685750
vt 0.794147 0.339831
vt 0.794308 0.326719
vt 0.795184 0.445096
vt 0.794906 0.662167
vt 0.794759 0.673489
vt 0.794099 0.556629
vt 0.794133 0.662136
vt 0.794766 0.326726
vt 0.794927 0.339924
vt 0.794676 0.324421
vt 0.794536 0.323400
vt 0.794397 0.324423
vt 0.794280 0.673506
vt 0.794371 0.675700
vt 0.794520 0.676709
vt 0.794668 0.675685
vt 0.794374 0.343258
vt 0.794465 0.335543
vt 0.794955 0.446155
vt 0.794681 0.658592
vt 0.794604 0.664579
vt 0.794349 0.555281
vt 0.794359 0.658578
vt 0.794606 0.335512
vt 0.794699 0.343302
vt 0.794536 0.335021
vt 0.794436 0.664579
vt 0.794520 0.665160
vt 0.794949 0.556670
vt 0.794700 0.555303
vt 0.794705 0.447268
vt 0.794103 0.446010
vt 0.794353 0.447209
vt 0.795177 0.557972
vt 0.793874 0.444872
vt 0.795396 0.559163
vt 0.793654 0.443826
vt 0.795696 0.560491
vt 0.793352 0.442634
vt 0.809819 0.156879
vt 0.811725 0.156879
vt 0.811725 0.370035
vt 0.809819 0.370038
vt 0.811090 0.085425
vt 0.810454 0.102160
vt 0.811725 0.583192
vt 0.813632 0.583196
vt 0.813632 0.796355
vt 0.812997 0.102160
vt 0.812361 0.085425
vt 0.809819 0.796355
vt 0.810454 0.847724
vt 0.811725 0.080659
vt 0.813632 0.156879
vt 0.812361 0.863434
vt 0.812997 0.847724
vt 0.795733 0.676741
vt 0.795850 0.560700
vt 0.794933 0.717666
vt 0.794525 0.720984
vt 0.795856 0.442913
vt 0.794947 0.281925
vt 0.795363 0.293446
vt 0.795328 0.706578
vt 0.793197 0.442439
vt 0.793312 0.325642
vt 0.794532 0.279016
vt 0.795765 0.326172
vt 0.794122 0.282426
vt 0.813632 0.370038
vt 0.793724 0.293952
vt 0.793197 0.560608
vt 0.793306 0.676389
vt 0.793700 0.707111
vt 0.809819 0.583196
vt 0.794112 0.718165
s 1
usemtl Gradient
f 13/1/1 86/2/1 12/3/1
f 46/4/2 19/5/3 27/6/4 45/7/5
f 49/8/6 22/9/7 32/10/8 48/11/9
f 20/12/10 88/13/11 80/14/12 47/15/13
f 51/16/14 23/17/15 21/18/16 50/19/17
f 52/20/18 24/21/19 23/17/15 51/16/14
f 53/22/20 25/23/21 24/21/19 52/20/18
f 54/24/22 26/25/23 25/23/21 53/22/20
f 45/7/5 27/6/4 26/25/23 54/24/22
f 55/26/24 28/27/25 20/12/10 47/15/13
f 56/28/26 29/29/27 28/27/25 55/26/24
f 57/30/28 30/31/29 29/29/27 56/28/26
f 58/32/30 31/33/31 30/31/29 57/30/28
f 48/11/9 32/10/8 31/33/31 58/32/30
f 60/34/32 46/4/2 45/7/5 33/35/33
f 21/18/16 90/36/34 82/37/35 50/19/17
f 63/38/36 49/8/6 48/11/9 36/39/37
f 47/15/13 80/14/12 92/40/38 61/41/39
f 37/42/40 51/16/14 50/19/17 64/43/41
f 38/44/42 52/20/18 51/16/14 37/42/40
f 39/45/43 53/22/20 52/20/18 38/44/42
f 40/46/44 54/24/22 53/22/20 39/45/43
f 33/35/33 45/7/5 54/24/22 40/46/44
f 41/47/45 55/26/24 47/15/13 61/41/39
f 42/48/46 56/28/26 55/26/24 41/47/45
f 43/49/47 57/30/28 56/28/26 42/48/46
f 44/50/48 58/32/30 57/30/28 43/49/47
f 36/39/37 48/11/9 58/32/30 44/50/48
f 74/51/49 60/34/32 33/35/33 59/52/50
f 50/19/17 82/37/35 94/53/51 64/43/41
f 77/54/52 63/38/36 36/39/37 62/55/53
f 61/41/39 92/40/38 96/56/54 75/57/55
f 65/58/56 37/42/40 64/43/41 78/59/57
f 66/60/58 38/44/42 37/42/40 65/58/56
f 67/61/59 39/45/43 38/44/42 66/60/58
f 68/62/60 40/46/44 39/45/43 67/61/59
f 59/52/50 33/35/33 40/46/44 68/62/60
f 69/63/61 41/47/45 61/41/39 75/57/55
f 70/64/62 42/48/46 41/47/45 69/63/61
f 71/65/63 43/49/47 42/48/46 70/64/62
f 72/66/64 44/50/48 43/49/47 71/65/63
f 62/55/53 36/39/37 44/50/48 72/66/64
f 34/67/65 74/51/49 59/52/50 73/68/66
f 64/43/41 94/53/51 98/69/67 78/59/57
f 35/70/68 77/54/52 62/55/53 76/71/69
f 75/57/55 96/56/54 83/72/70 35/73/68
f 73/74/66 65/58/56 78/59/57 34/75/65
f 73/74/66 66/60/58 65/58/56
f 73/76/66 67/61/59 66/60/58
f 73/68/66 68/62/60 67/61/59
f 73/68/66 59/52/50 68/62/60
f 76/77/69 69/63/61 75/57/55 35/73/68
f 76/77/69 70/64/62 69/63/61
f 76/78/69 71/65/63 70/64/62
f 76/71/69 72/66/64 71/65/63
f 76/71/69 62/55/53 72/66/64
f 97/79/71 83/80/70 84/81/70 98/69/67
f 83/80/70 97/79/71 77/54/52 35/70/68
f 95/82/72 84/83/70 83/72/70 96/56/54
f 84/83/70 95/82/72 74/51/49 34/67/65
f 93/84/73 97/79/71 98/69/67 94/53/51
f 97/79/71 93/84/73 63/38/36 77/54/52
f 91/85/74 95/82/72 96/56/54 92/40/38
f 95/82/72 91/85/74 60/34/32 74/51/49
f 81/86/75 93/84/73 94/53/51 82/37/35
f 93/84/73 81/86/75 49/8/6 63/38/36
f 79/87/76 91/85/74 92/40/38 80/14/12
f 91/85/74 79/87/76 46/4/2 60/34/32
f 89/88/77 81/86/75 82/37/35 90/36/34
f 81/86/75 89/88/77 22/9/7 49/8/6
f 87/89/78 79/87/76 80/14/12 88/13/11
f 79/87/76 87/89/78 19/5/3 46/4/2
f 3/90/1 85/91/1 99/92/1 18/93/1
f 6/94/1 85/91/1 5/95/1
f 86/2/1 100/96/1 16/97/1 2/98/1
f 9/99/1 85/91/1 8/100/1
f 4/101/1 86/2/1 14/102/1
f 8/100/1 85/91/1 7/103/1
f 85/91/1 9/99/1 1/104/1
f 5/95/1 85/91/1 3/90/1
f 7/103/1 85/91/1 6/94/1
f 11/105/1 86/2/1 10/106/1
f 10/106/1 86/2/1 2/98/1
f 14/102/1 86/2/1 13/1/1
f 4/107/79 22/9/7 89/88/77 17/108/80
f 12/3/1 86/2/1 11/105/1
f 31/33/31 13/109/81 12/110/82 30/31/29
f 90/36/34 18/111/80 17/108/80 89/88/77
f 24/21/19 6/112/83 5/113/84 23/17/15
f 32/10/8 14/114/85 13/109/81 31/33/31
f 87/89/78 15/115/86 1/116/87 19/5/3
f 25/23/21 7/117/88 6/112/83 24/21/19
f 21/18/16 3/118/89 18/111/80 90/36/34
f 26/25/23 8/119/90 7/117/88 25/23/21
f 15/120/1 99/92/1 85/91/1 1/104/1
f 19/5/3 1/116/87 9/121/91 27/6/4
f 88/13/11 16/122/86 15/115/86 87/89/78
f 27/6/4 9/121/91 8/119/90 26/25/23
f 2/123/92 16/122/86 88/13/11 20/12/10
f 28/27/25 10/124/93 2/123/92 20/12/10
f 17/125/1 100/96/1 86/2/1 4/101/1
f 22/9/7 4/107/79 14/114/85 32/10/8
f 29/29/27 11/126/94 10/124/93 28/27/25
f 16/97/1 100/96/1 99/92/1 15/120/1
f 18/93/1 99/92/1 100/96/1 17/125/1
f 30/31/29 12/110/82 11/126/94 29/29/27
f 23/17/15 5/113/84 3/118/89 21/18/16
f 78/59/57 98/69/67 84/81/70 34/75/65
