# Blender 4.2.1 LTS
# www.blender.org
mtllib CheeseMontado.mtl
o Queso_LOncha
v -0.052503 -0.001376 0.042547
v -0.053132 -0.001376 0.041918
v -0.053132 0.001376 0.041918
v -0.052503 0.001376 0.042547
v -0.053132 -0.001376 -0.041918
v -0.052503 -0.001376 -0.042547
v -0.052503 0.001376 -0.042547
v -0.053132 0.001376 -0.041918
v 0.053132 -0.001376 0.041918
v 0.052503 -0.001376 0.042547
v 0.052503 0.001376 0.042547
v 0.053132 0.001376 0.041918
v 0.052503 -0.001376 -0.042547
v 0.053132 -0.001376 -0.041918
v 0.053132 0.001376 -0.041918
v 0.052503 0.001376 -0.042547
vn -0.0000 -0.0000 1.0000
vn 1.0000 -0.0000 -0.0000
vn -0.0000 1.0000 -0.0000
vn -1.0000 -0.0000 -0.0000
vn -0.0000 -0.0000 -1.0000
vn -0.7071 -0.0000 0.7071
vn -0.7071 -0.0000 -0.7071
vn 0.7071 -0.0000 -0.7071
vn 0.7071 -0.0000 0.7071
vn -0.0000 -1.0000 -0.0000
vt 0.381583 -0.014648
vt 0.381733 -0.014648
vt 0.381733 0.277599
vt 0.381583 0.277599
vt 0.381583 0.810595
vt 0.381733 0.810595
vt 0.381733 1.043921
vt 0.381583 1.043921
vt 0.382971 0.622653
vt 0.377601 0.403674
vt 0.382939 0.403674
vt 0.382971 0.405304
vt 0.381583 0.280074
vt 0.381733 0.280074
vt 0.381733 0.513399
vt 0.381583 0.513399
vt 0.381583 0.515874
vt 0.381733 0.515874
vt 0.381733 0.808120
vt 0.381583 0.808120
vt 0.381733 1.046396
vt 0.381583 1.046396
vt 0.377569 0.405304
vt 0.377569 0.622653
vt 0.377601 0.624283
vt 0.382939 0.624283
s 0
usemtl Gradient
f 10/1/1 11/2/1 4/3/1 1/4/1
f 14/5/2 15/6/2 12/7/2 9/8/2
f 15/9/3 4/10/3 11/11/3 12/12/3
f 2/13/4 3/14/4 8/15/4 5/16/4
f 6/17/5 7/18/5 16/19/5 13/20/5
f 1/4/6 4/3/6 3/14/6 2/13/6
f 7/18/7 6/17/7 5/16/7 8/15/7
f 15/6/8 14/5/8 13/20/8 16/19/8
f 11/21/9 10/22/9 9/8/9 12/7/9
f 5/23/10 6/10/10 13/11/10 2/24/10
f 1/25/10 14/12/10 9/9/10 10/26/10
f 4/10/3 15/9/3 16/26/3 3/23/3
f 2/24/10 13/11/10 14/12/10 1/25/10
f 3/23/3 16/26/3 7/25/3 8/24/3
o Queso_LOncha.001
v -0.052503 0.005135 0.004916
v -0.053132 0.005087 0.004289
v -0.053132 0.007831 0.004078
v -0.052503 0.007879 0.004706
v -0.053132 -0.001331 -0.079301
v -0.052503 -0.001379 -0.079928
v -0.052503 0.001365 -0.080139
v -0.053132 0.001413 -0.079512
v 0.053132 0.005087 0.004289
v 0.052503 0.005135 0.004916
v 0.052503 0.007879 0.004706
v 0.053132 0.007831 0.004078
v 0.052503 -0.001379 -0.079928
v 0.053132 -0.001331 -0.079301
v 0.053132 0.001413 -0.079512
v 0.052503 0.001365 -0.080139
vn -0.0000 0.0766 0.9971
vn 1.0000 -0.0000 -0.0000
vn -0.0000 0.9971 -0.0766
vn -1.0000 -0.0000 -0.0000
vn -0.0000 -0.0766 -0.9971
vn -0.7071 0.0541 0.7050
vn -0.7071 -0.0541 -0.7050
vn 0.7071 -0.0541 -0.7050
vn 0.7071 0.0541 0.7050
vn -0.0000 -0.9971 0.0766
vt 0.381583 -0.014648
vt 0.381733 -0.014648
vt 0.381733 0.277599
vt 0.381583 0.277599
vt 0.381583 0.810595
vt 0.381733 0.810595
vt 0.381733 1.043921
vt 0.381583 1.043921
vt 0.382971 0.622653
vt 0.377601 0.403674
vt 0.382939 0.403674
vt 0.382971 0.405304
vt 0.381583 0.280074
vt 0.381733 0.280074
vt 0.381733 0.513399
vt 0.381583 0.513399
vt 0.381583 0.515874
vt 0.381733 0.515874
vt 0.381733 0.808120
vt 0.381583 0.808120
vt 0.381733 1.046396
vt 0.381583 1.046396
vt 0.377569 0.405304
vt 0.377569 0.622653
vt 0.377601 0.624283
vt 0.382939 0.624283
s 0
usemtl Gradient
f 26/27/11 27/28/11 20/29/11 17/30/11
f 30/31/12 31/32/12 28/33/12 25/34/12
f 31/35/13 20/36/13 27/37/13 28/38/13
f 18/39/14 19/40/14 24/41/14 21/42/14
f 22/43/15 23/44/15 32/45/15 29/46/15
f 17/30/16 20/29/16 19/40/16 18/39/16
f 23/44/17 22/43/17 21/42/17 24/41/17
f 31/32/18 30/31/18 29/46/18 32/45/18
f 27/47/19 26/48/19 25/34/19 28/33/19
f 21/49/20 22/36/20 29/37/20 18/50/20
f 17/51/20 30/38/20 25/35/20 26/52/20
f 20/36/13 31/35/13 32/52/13 19/49/13
f 18/50/20 29/37/20 30/38/20 17/51/20
f 19/49/13 32/52/13 23/51/13 24/50/13
o Queso_LOncha.002
v -0.052503 0.000103 0.072531
v -0.053132 0.000174 0.071906
v -0.053132 0.002908 0.072215
v -0.052503 0.002838 0.072840
v -0.053132 0.009590 -0.011400
v -0.052503 0.009660 -0.012025
v -0.052503 0.012395 -0.011716
v -0.053132 0.012324 -0.011091
v 0.053132 0.000174 0.071906
v 0.052503 0.000103 0.072531
v 0.052503 0.002838 0.072840
v 0.053132 0.002908 0.072215
v 0.052503 0.009660 -0.012025
v 0.053132 0.009590 -0.011400
v 0.053132 0.012324 -0.011091
v 0.052503 0.012395 -0.011716
vn -0.0000 -0.1123 0.9937
vn 1.0000 -0.0000 -0.0000
vn -0.0000 0.9937 0.1123
vn -1.0000 -0.0000 -0.0000
vn -0.0000 0.1123 -0.9937
vn -0.7071 -0.0794 0.7026
vn -0.7071 0.0794 -0.7026
vn 0.7071 0.0794 -0.7026
vn 0.7071 -0.0794 0.7026
vn -0.0000 -0.9937 -0.1123
vt 0.381583 -0.014648
vt 0.381733 -0.014648
vt 0.381733 0.277599
vt 0.381583 0.277599
vt 0.381583 0.810595
vt 0.381733 0.810595
vt 0.381733 1.043921
vt 0.381583 1.043921
vt 0.382971 0.622653
vt 0.377601 0.403674
vt 0.382939 0.403674
vt 0.382971 0.405304
vt 0.381583 0.280074
vt 0.381733 0.280074
vt 0.381733 0.513399
vt 0.381583 0.513399
vt 0.381583 0.515874
vt 0.381733 0.515874
vt 0.381733 0.808120
vt 0.381583 0.808120
vt 0.381733 1.046396
vt 0.381583 1.046396
vt 0.377569 0.405304
vt 0.377569 0.622653
vt 0.377601 0.624283
vt 0.382939 0.624283
s 0
usemtl Gradient
f 42/53/21 43/54/21 36/55/21 33/56/21
f 46/57/22 47/58/22 44/59/22 41/60/22
f 47/61/23 36/62/23 43/63/23 44/64/23
f 34/65/24 35/66/24 40/67/24 37/68/24
f 38/69/25 39/70/25 48/71/25 45/72/25
f 33/56/26 36/55/26 35/66/26 34/65/26
f 39/70/27 38/69/27 37/68/27 40/67/27
f 47/58/28 46/57/28 45/72/28 48/71/28
f 43/73/29 42/74/29 41/60/29 44/59/29
f 37/75/30 38/62/30 45/63/30 34/76/30
f 33/77/30 46/64/30 41/61/30 42/78/30
f 36/62/23 47/61/23 48/78/23 35/75/23
f 34/76/30 45/63/30 46/64/30 33/77/30
f 35/75/23 48/78/23 39/77/23 40/76/23
