# Blender 4.2.1 LTS
# www.blender.org
mtllib lettuce.mtl
o Hoja_Lechuga
v -0.020463 -0.001370 0.044666
v -0.020463 -0.001370 -0.045091
v 0.076568 0.002720 0.008622
v 0.076903 0.002733 -0.012027
v -0.065890 0.004083 -0.000213
v 0.080089 0.004083 -0.001612
v -0.052550 -0.001370 -0.030584
v 0.080089 0.003916 -0.006204
v 0.080089 0.003576 0.005294
v -0.046782 -0.001370 0.030158
v 0.038885 -0.001370 -0.020650
v 0.038855 -0.001370 0.024354
v 0.014279 0.004083 -0.000213
v 0.019232 0.001340 -0.016537
v 0.023060 0.001283 0.014216
v 0.012712 -0.001370 0.037791
v 0.013060 -0.001370 -0.034694
v -0.022832 0.004083 -0.000213
v -0.010046 -0.000995 -0.022140
v -0.020226 0.000315 0.018816
v -0.022348 0.004083 0.000600
v 0.080089 0.004083 -0.003151
v -0.065760 0.004083 -0.000507
v 0.014797 0.004083 0.000758
v 0.080089 0.004083 -0.000182
v 0.014695 0.004083 -0.001331
v -0.065736 0.004083 0.000031
v -0.022463 0.004083 -0.001102
v -0.020463 -0.003679 0.044667
v -0.020463 -0.003679 -0.045090
v 0.076567 0.000411 0.008624
v 0.076903 0.000424 -0.012026
v -0.065890 0.001774 -0.000212
v 0.080089 0.001774 -0.001611
v -0.052550 -0.003679 -0.030583
v 0.080089 0.001607 -0.006202
v 0.080089 0.001267 0.005295
v -0.046782 -0.003679 0.030159
v 0.038884 -0.003679 -0.020649
v 0.038855 -0.003679 0.024355
v 0.014279 0.001774 -0.000212
v 0.019232 -0.000973 -0.016536
v 0.023060 -0.001032 0.014217
v 0.012711 -0.003679 0.037792
v 0.013059 -0.003679 -0.034693
v -0.022832 0.001774 -0.000212
v -0.010046 -0.003314 -0.022139
v -0.020227 -0.002008 0.018818
v -0.022348 0.001774 0.000602
v 0.080089 0.001774 -0.003149
v -0.065761 0.001774 -0.000506
v 0.014796 0.001774 0.000759
v 0.080089 0.001774 -0.000181
v 0.014695 0.001774 -0.001330
v -0.065736 0.001774 0.000032
v -0.022463 0.001774 -0.001101
vn -0.0083 0.9979 0.0650
vn -0.0000 1.0000 -0.0000
vn -0.0010 0.9999 -0.0159
vn 0.0049 0.9827 0.1853
vn -0.0044 0.9847 0.1740
vn 0.0054 0.9340 -0.3571
vn 0.0003 0.9678 0.2519
vn -0.0006 0.9791 0.2033
vn 0.0122 0.9884 -0.1517
vn 0.0171 0.9927 0.1192
vn -0.0166 0.9757 -0.2184
vn -0.0094 0.9871 -0.1597
vn 0.0136 0.9807 -0.1953
vn 0.0083 -0.9979 -0.0644
vn -0.0000 -1.0000 -0.0000
vn 0.0010 -0.9999 0.0155
vn -0.0051 -0.9826 -0.1855
vn 0.0045 -0.9847 -0.1743
vn -0.0053 -0.9341 0.3569
vn -0.0002 -0.9678 -0.2516
vn 0.0006 -0.9790 -0.2039
vn -0.0120 -0.9884 0.1514
vn -0.0169 -0.9928 -0.1189
vn 0.0167 -0.9756 0.2187
vn 0.0094 -0.9871 0.1599
vn -0.0137 -0.9806 0.1954
vn 0.3849 0.0004 0.9229
vn -0.9156 -0.0001 -0.4021
vn 0.4571 0.0004 0.8894
vn -0.4120 -0.0004 -0.9112
vn 0.8773 -0.0004 -0.4800
vn 0.2962 -0.0005 -0.9551
vn 0.2213 -0.0005 -0.9752
vn 0.6869 0.0003 0.7268
vn 1.0000 -0.0001 -0.0000
vn -0.8464 0.0004 0.5326
vn 0.2029 0.0005 0.9792
vn -0.4827 0.0005 0.8758
vn -0.9155 -0.0001 -0.4022
vn 0.4777 -0.0005 -0.8785
vt 0.506080 0.229085
vt 0.514303 0.045858
vt 0.506092 -0.180666
vt 0.495800 -0.067905
vt 0.473036 1.030145
vt 0.473004 1.399201
vt 0.473053 1.400347
vt 0.473183 1.033428
vt 0.495856 1.083821
vt 0.506288 1.247331
vt 0.516253 1.016975
vt 0.503034 0.883512
vt 0.506788 0.517412
vt 0.520270 0.520728
vt 0.473094 1.399078
vt 0.473321 1.029432
vt 0.475004 0.543021
vt 0.495253 0.520249
vt 0.492650 0.306929
vt 0.474988 0.456252
vt 0.475063 0.838814
vt 0.487844 0.917073
vt 0.493933 0.795643
vt 0.475070 0.688280
vt 0.473261 0.156169
vt 0.473296 0.717186
vt 0.473460 0.712928
vt 0.473500 0.156390
vt 0.473004 0.155932
vt 0.473110 0.713471
vt 0.487718 0.147619
vt 0.474972 0.377044
vt 0.506898 0.550060
vt 0.495355 0.553010
vt 0.475071 0.583932
vt 0.520352 0.540218
vt 0.506200 0.837625
vt 0.496039 1.145081
vt 0.506372 1.247287
vt 0.514493 1.012406
vt 0.472922 0.501173
vt 0.473069 0.497890
vt 0.472939 0.130972
vt 0.472890 0.132118
vt 0.495645 0.010992
vt 0.502900 0.203915
vt 0.516064 0.056962
vt 0.506011 -0.163161
vt 0.506794 0.548632
vt 0.520272 0.531524
vt 0.473206 0.501886
vt 0.472980 0.132241
vt 0.475007 0.555560
vt 0.475025 0.642323
vt 0.492742 0.773541
vt 0.495260 0.557600
vt 0.474952 0.277229
vt 0.475019 0.427724
vt 0.493835 0.301080
vt 0.487700 0.185900
vt 0.473147 1.375149
vt 0.473386 1.374928
vt 0.473345 0.818391
vt 0.473181 0.814132
vt 0.472890 1.375387
vt 0.472996 0.817848
vt 0.475039 0.721531
vt 0.487874 0.937866
vt 0.495353 0.542214
vt 0.506895 0.533345
vt 0.475060 0.532064
vt 0.520350 0.529422
vt 0.501880 0.726521
vt 0.501880 0.649655
vt 0.497353 0.649665
vt 0.497353 0.726533
vt 0.511864 0.569144
vt 0.511864 0.646012
vt 0.515278 0.646027
vt 0.515278 0.569159
vt 0.504935 0.726512
vt 0.504935 0.649647
vt 0.508205 0.569134
vt 0.508205 0.646001
vt 0.496355 0.569136
vt 0.496355 0.646006
vt 0.497344 0.646001
vt 0.497344 0.569134
vt 0.504557 0.569136
vt 0.504557 0.646001
vt 0.501655 0.646004
vt 0.501655 0.569136
vt 0.496833 0.649667
vt 0.496833 0.726535
vt 0.496264 0.649670
vt 0.496264 0.726537
vt 0.515278 0.726519
vt 0.515278 0.649655
vt 0.511579 0.649642
vt 0.511579 0.726510
vt 0.508456 0.726504
vt 0.508456 0.649640
vt 0.495672 0.569142
vt 0.495672 0.646006
vt 0.473483 0.463054
vt 0.473483 0.339447
vt 0.473434 0.339447
vt 0.473434 0.463054
vt 0.473536 0.463054
vt 0.473536 0.339448
vt 0.473082 0.463055
vt 0.473082 0.339448
vt 0.472825 0.339449
vt 0.472825 0.463056
vt 0.473321 0.463054
vt 0.473321 0.339447
s 0
usemtl Gradient
f 20/1/1 10/2/1 1/3/1 16/4/1
f 28/5/2 23/6/2 5/7/2 18/8/2
f 17/9/3 2/10/3 7/11/3 19/12/3
f 21/13/4 27/14/4 10/2/4 20/1/4
f 18/8/2 5/7/2 27/15/2 21/16/2
f 25/17/5 24/18/5 15/19/5 9/20/5
f 4/21/6 11/22/6 14/23/6 8/24/6
f 6/25/2 13/26/2 24/27/2 25/28/2
f 22/29/2 26/30/2 13/26/2 6/25/2
f 9/20/7 15/19/7 12/31/7 3/32/7
f 24/18/8 21/13/8 20/1/8 15/19/8
f 11/22/9 17/9/9 19/12/9 14/23/9
f 26/30/2 28/5/2 18/8/2 13/26/2
f 15/19/10 20/1/10 16/4/10 12/31/10
f 14/23/11 19/12/11 28/33/11 26/34/11
f 8/24/12 14/23/12 26/34/12 22/35/12
f 13/26/2 18/8/2 21/16/2 24/27/2
f 19/12/13 7/11/13 23/36/13 28/33/13
f 48/37/14 44/38/14 29/39/14 38/40/14
f 56/41/15 46/42/15 33/43/15 51/44/15
f 45/45/16 47/46/16 35/47/16 30/48/16
f 49/49/17 48/37/17 38/40/17 55/50/17
f 46/42/15 49/51/15 55/52/15 33/43/15
f 53/53/18 37/54/18 43/55/18 52/56/18
f 32/57/19 36/58/19 42/59/19 39/60/19
f 34/61/15 53/62/15 52/63/15 41/64/15
f 50/65/15 34/61/15 41/64/15 54/66/15
f 37/54/20 31/67/20 40/68/20 43/55/20
f 52/56/21 43/55/21 48/37/21 49/49/21
f 39/60/22 42/59/22 47/46/22 45/45/22
f 54/66/15 41/64/15 46/42/15 56/41/15
f 43/55/23 40/68/23 44/38/23 48/37/23
f 42/59/24 54/69/24 56/70/24 47/46/24
f 36/58/25 50/71/25 54/69/25 42/59/25
f 41/64/15 52/63/15 49/51/15 46/42/15
f 47/46/26 56/70/26 51/72/26 35/47/26
f 12/73/27 40/74/27 31/75/27 3/76/27
f 7/77/28 35/78/28 51/79/28 23/80/28
f 16/81/29 44/82/29 40/74/29 12/73/29
f 2/83/30 30/84/30 35/78/30 7/77/30
f 8/85/31 36/86/31 32/87/31 4/88/31
f 17/89/32 45/90/32 30/84/32 2/83/32
f 4/88/33 32/87/33 39/91/33 11/92/33
f 3/76/34 31/75/34 37/93/34 9/94/34
f 9/94/35 37/93/35 53/95/35 25/96/35
f 27/97/36 55/98/36 38/99/36 10/100/36
f 1/101/37 29/102/37 44/82/37 16/81/37
f 22/103/35 50/104/35 36/86/35 8/85/35
f 10/100/38 38/99/38 29/102/38 1/101/38
f 5/105/36 33/106/36 55/107/36 27/108/36
f 23/109/39 51/110/39 33/106/39 5/105/39
f 6/111/35 34/112/35 50/113/35 22/114/35
f 11/92/40 39/91/40 45/90/40 17/89/40
f 25/115/35 53/116/35 34/112/35 6/111/35
