# Blender 4.2.1 LTS
# www.blender.org
mtllib Lettuce2.mtl
o Hoja_Lechuga
v -0.038884 -0.001370 0.030031
v 0.002848 -0.001370 -0.049435
v 0.063780 0.002720 0.043233
v 0.073677 0.002733 0.025107
v -0.058236 0.004083 -0.030823
v 0.071656 0.004083 0.035809
v -0.032305 -0.001370 -0.051510
v 0.073791 0.003916 0.031744
v 0.068445 0.003576 0.041923
v -0.055440 -0.001370 0.004949
v 0.044028 -0.001370 -0.000203
v 0.023077 -0.001370 0.039627
v 0.012741 0.004083 0.006450
v 0.024716 0.001340 -0.005699
v 0.013806 0.001283 0.023308
v -0.006316 -0.001370 0.039368
v 0.027693 -0.001370 -0.024644
v -0.020115 0.004083 -0.010804
v 0.001400 -0.000995 -0.024272
v -0.026655 0.000315 0.007255
v -0.020065 0.004083 -0.009859
v 0.072371 0.004083 0.034447
v -0.057984 0.004083 -0.031023
v 0.012748 0.004083 0.007551
v 0.070991 0.004083 0.037075
v 0.013629 0.004083 0.005654
v -0.058213 0.004083 -0.030536
v -0.019375 0.004083 -0.011420
v -0.038884 -0.003679 0.030032
v 0.002847 -0.003679 -0.049434
v 0.063778 0.000411 0.043234
v 0.073677 0.000424 0.025108
v -0.058237 0.001774 -0.030822
v 0.071655 0.001774 0.035810
v -0.032306 -0.003679 -0.051509
v 0.073790 0.001607 0.031745
v 0.068444 0.001267 0.041924
v -0.055440 -0.003679 0.004950
v 0.044026 -0.003679 -0.000203
v 0.023076 -0.003679 0.039628
v 0.012740 0.001774 0.006451
v 0.024715 -0.000973 -0.005698
v 0.013806 -0.001032 0.023308
v -0.006317 -0.003679 0.039369
v 0.027692 -0.003679 -0.024644
v -0.020116 0.001774 -0.010803
v 0.001399 -0.003314 -0.024271
v -0.026657 -0.002008 0.007256
v -0.020066 0.001774 -0.009857
v 0.072370 0.001774 0.034448
v -0.057986 0.001774 -0.031023
v 0.012747 0.001774 0.007551
v 0.070990 0.001774 0.037076
v 0.013628 0.001774 0.005655
v -0.058214 0.001774 -0.030535
v -0.019376 0.001774 -0.011419
vn -0.0376 0.9979 0.0536
vn -0.0000 1.0000 -0.0000
vn 0.0065 0.9999 -0.0145
vn -0.0818 0.9827 0.1663
vn -0.0848 0.9847 0.1519
vn 0.1708 0.9341 -0.3136
vn -0.1168 0.9678 0.2232
vn -0.0950 0.9791 0.1797
vn 0.0813 0.9884 -0.1286
vn -0.0403 0.9927 0.1135
vn 0.0868 0.9757 -0.2010
vn 0.0659 0.9871 -0.1457
vn 0.1028 0.9807 -0.1665
vn 0.0373 -0.9979 -0.0532
vn -0.0000 -1.0000 -0.0000
vn -0.0063 -0.9999 0.0141
vn 0.0817 -0.9826 -0.1666
vn 0.0850 -0.9847 -0.1522
vn -0.1706 -0.9341 0.3135
vn 0.1168 -0.9678 -0.2228
vn 0.0953 -0.9790 -0.1802
vn -0.0810 -0.9884 0.1285
vn 0.0403 -0.9928 -0.1131
vn -0.0869 -0.9756 0.2014
vn -0.0660 -0.9871 0.1459
vn -0.1030 -0.9806 0.1666
vn -0.0883 0.0005 0.9961
vn -0.6236 -0.0000 -0.7817
vn -0.0088 0.0003 1.0000
vn 0.0589 -0.0004 -0.9983
vn 0.9999 -0.0003 -0.0170
vn 0.7063 -0.0005 -0.7079
vn 0.6493 -0.0005 -0.7605
vn 0.2702 0.0003 0.9628
vn 0.8853 -0.0000 0.4649
vn -0.9970 0.0002 0.0780
vn -0.2756 0.0004 0.9613
vn -0.8346 0.0004 0.5509
vn -0.9969 0.0004 0.0781
vn -0.6236 -0.0001 -0.7817
vn 0.8314 -0.0006 -0.5557
vt 0.506080 0.229085
vt 0.514303 0.045858
vt 0.506092 -0.180666
vt 0.495800 -0.067905
vt 0.473036 1.030145
vt 0.473004 1.399201
vt 0.473053 1.400347
vt 0.473183 1.033428
vt 0.495856 1.083821
vt 0.506288 1.247331
vt 0.516253 1.016975
vt 0.503034 0.883512
vt 0.506788 0.517412
vt 0.520270 0.520728
vt 0.473094 1.399078
vt 0.473321 1.029432
vt 0.475004 0.543021
vt 0.495253 0.520249
vt 0.492650 0.306929
vt 0.474988 0.456252
vt 0.475063 0.838814
vt 0.487844 0.917073
vt 0.493933 0.795643
vt 0.475070 0.688280
vt 0.473261 0.156169
vt 0.473296 0.717186
vt 0.473460 0.712928
vt 0.473500 0.156390
vt 0.473004 0.155932
vt 0.473110 0.713471
vt 0.487718 0.147619
vt 0.474972 0.377044
vt 0.506898 0.550060
vt 0.495355 0.553010
vt 0.475071 0.583932
vt 0.520352 0.540218
vt 0.506200 0.837625
vt 0.496039 1.145081
vt 0.506372 1.247287
vt 0.514493 1.012406
vt 0.472922 0.501173
vt 0.473069 0.497890
vt 0.472939 0.130972
vt 0.472890 0.132118
vt 0.495645 0.010992
vt 0.502900 0.203915
vt 0.516064 0.056962
vt 0.506011 -0.163161
vt 0.506794 0.548632
vt 0.520272 0.531524
vt 0.473206 0.501886
vt 0.472980 0.132241
vt 0.475007 0.555560
vt 0.475025 0.642323
vt 0.492742 0.773541
vt 0.495260 0.557600
vt 0.474952 0.277229
vt 0.475019 0.427724
vt 0.493835 0.301080
vt 0.487700 0.185900
vt 0.473147 1.375149
vt 0.473386 1.374928
vt 0.473345 0.818391
vt 0.473181 0.814132
vt 0.472890 1.375387
vt 0.472996 0.817848
vt 0.475039 0.721531
vt 0.487874 0.937866
vt 0.495353 0.542214
vt 0.506895 0.533345
vt 0.475060 0.532064
vt 0.520350 0.529422
vt 0.501880 0.726521
vt 0.501880 0.649655
vt 0.497353 0.649665
vt 0.497353 0.726533
vt 0.511864 0.569144
vt 0.511864 0.646012
vt 0.515278 0.646027
vt 0.515278 0.569159
vt 0.504935 0.726512
vt 0.504935 0.649647
vt 0.508205 0.569134
vt 0.508205 0.646001
vt 0.496355 0.569136
vt 0.496355 0.646006
vt 0.497344 0.646001
vt 0.497344 0.569134
vt 0.504557 0.569136
vt 0.504557 0.646001
vt 0.501655 0.646004
vt 0.501655 0.569136
vt 0.496833 0.649667
vt 0.496833 0.726535
vt 0.496264 0.649670
vt 0.496264 0.726537
vt 0.515278 0.726519
vt 0.515278 0.649655
vt 0.511579 0.649642
vt 0.511579 0.726510
vt 0.508456 0.726504
vt 0.508456 0.649640
vt 0.495672 0.569142
vt 0.495672 0.646006
vt 0.473483 0.463054
vt 0.473483 0.339447
vt 0.473434 0.339447
vt 0.473434 0.463054
vt 0.473536 0.463054
vt 0.473536 0.339448
vt 0.473082 0.463055
vt 0.473082 0.339448
vt 0.472825 0.339449
vt 0.472825 0.463056
vt 0.473321 0.463054
vt 0.473321 0.339447
s 0
usemtl Gradient.001
f 20/1/1 10/2/1 1/3/1 16/4/1
f 28/5/2 23/6/2 5/7/2 18/8/2
f 17/9/3 2/10/3 7/11/3 19/12/3
f 21/13/4 27/14/4 10/2/4 20/1/4
f 18/8/2 5/7/2 27/15/2 21/16/2
f 25/17/5 24/18/5 15/19/5 9/20/5
f 4/21/6 11/22/6 14/23/6 8/24/6
f 6/25/2 13/26/2 24/27/2 25/28/2
f 22/29/2 26/30/2 13/26/2 6/25/2
f 9/20/7 15/19/7 12/31/7 3/32/7
f 24/18/8 21/13/8 20/1/8 15/19/8
f 11/22/9 17/9/9 19/12/9 14/23/9
f 26/30/2 28/5/2 18/8/2 13/26/2
f 15/19/10 20/1/10 16/4/10 12/31/10
f 14/23/11 19/12/11 28/33/11 26/34/11
f 8/24/12 14/23/12 26/34/12 22/35/12
f 13/26/2 18/8/2 21/16/2 24/27/2
f 19/12/13 7/11/13 23/36/13 28/33/13
f 48/37/14 44/38/14 29/39/14 38/40/14
f 56/41/15 46/42/15 33/43/15 51/44/15
f 45/45/16 47/46/16 35/47/16 30/48/16
f 49/49/17 48/37/17 38/40/17 55/50/17
f 46/42/15 49/51/15 55/52/15 33/43/15
f 53/53/18 37/54/18 43/55/18 52/56/18
f 32/57/19 36/58/19 42/59/19 39/60/19
f 34/61/15 53/62/15 52/63/15 41/64/15
f 50/65/15 34/61/15 41/64/15 54/66/15
f 37/54/20 31/67/20 40/68/20 43/55/20
f 52/56/21 43/55/21 48/37/21 49/49/21
f 39/60/22 42/59/22 47/46/22 45/45/22
f 54/66/15 41/64/15 46/42/15 56/41/15
f 43/55/23 40/68/23 44/38/23 48/37/23
f 42/59/24 54/69/24 56/70/24 47/46/24
f 36/58/25 50/71/25 54/69/25 42/59/25
f 41/64/15 52/63/15 49/51/15 46/42/15
f 47/46/26 56/70/26 51/72/26 35/47/26
f 12/73/27 40/74/27 31/75/27 3/76/27
f 7/77/28 35/78/28 51/79/28 23/80/28
f 16/81/29 44/82/29 40/74/29 12/73/29
f 2/83/30 30/84/30 35/78/30 7/77/30
f 8/85/31 36/86/31 32/87/31 4/88/31
f 17/89/32 45/90/32 30/84/32 2/83/32
f 4/88/33 32/87/33 39/91/33 11/92/33
f 3/76/34 31/75/34 37/93/34 9/94/34
f 9/94/35 37/93/35 53/95/35 25/96/35
f 27/97/36 55/98/36 38/99/36 10/100/36
f 1/101/37 29/102/37 44/82/37 16/81/37
f 22/103/35 50/104/35 36/86/35 8/85/35
f 10/100/38 38/99/38 29/102/38 1/101/38
f 5/105/39 33/106/39 55/107/39 27/108/39
f 23/109/40 51/110/40 33/106/40 5/105/40
f 6/111/35 34/112/35 50/113/35 22/114/35
f 11/92/41 39/91/41 45/90/41 17/89/41
f 25/115/35 53/116/35 34/112/35 6/111/35
o Hoja_Lechuga.001
v -0.038035 0.018036 0.049134
v -0.075759 0.006500 -0.031490
v 0.030596 0.037718 -0.025922
v 0.022207 0.035147 -0.044617
v -0.097924 0.008026 0.028625
v 0.029037 0.038462 -0.036692
v -0.097698 0.001634 -0.004378
v 0.027148 0.037710 -0.040813
v 0.032064 0.038859 -0.030477
v -0.067129 0.010651 0.047652
v -0.013631 0.022088 -0.035580
v 0.005257 0.027866 0.004858
v -0.027876 0.024840 -0.006556
v -0.029738 0.021122 -0.023326
v -0.013454 0.025822 0.002619
v -0.011938 0.024110 0.028400
v -0.042098 0.014867 -0.036862
v -0.060302 0.017056 0.009729
v -0.057103 0.011998 -0.015455
v -0.049105 0.016396 0.025770
v -0.059537 0.017262 0.010247
v 0.028390 0.038265 -0.038075
v -0.097934 0.008015 0.028304
v -0.027015 0.025073 -0.005911
v 0.029638 0.038646 -0.035408
v -0.027983 0.024783 -0.007743
v -0.097687 0.008089 0.028776
v -0.060353 0.017019 0.008769
v -0.037470 0.015798 0.049191
v -0.075193 0.004262 -0.031433
v 0.031161 0.035480 -0.025864
v 0.022772 0.032909 -0.044560
v -0.097358 0.005788 0.028681
v 0.029603 0.036224 -0.036636
v -0.097132 -0.000604 -0.004321
v 0.027714 0.035472 -0.040755
v 0.032629 0.036621 -0.030420
v -0.066563 0.008413 0.047709
v -0.013066 0.019850 -0.035523
v 0.005823 0.025628 0.004915
v -0.027311 0.022602 -0.006499
v -0.029171 0.018880 -0.023270
v -0.012887 0.023578 0.002676
v -0.011373 0.021872 0.028457
v -0.041533 0.012629 -0.036805
v -0.059736 0.014818 0.009786
v -0.056535 0.009750 -0.015398
v -0.048536 0.014145 0.025828
v -0.058971 0.015024 0.010305
v 0.028956 0.036027 -0.038017
v -0.097369 0.005777 0.028361
v -0.026451 0.022835 -0.005854
v 0.030204 0.036408 -0.035351
v -0.027417 0.022545 -0.007686
v -0.097121 0.005851 0.028833
v -0.059787 0.014781 0.008826
vn -0.2242 0.9738 0.0379
vn -0.2448 0.9693 -0.0242
vn -0.2523 0.9669 -0.0380
vn -0.1584 0.9773 0.1406
vn -0.1718 0.9759 0.1344
vn -0.3740 0.8606 -0.3457
vn -0.1307 0.9705 0.2027
vn -0.1548 0.9751 0.1591
vn -0.2950 0.9411 -0.1655
vn -0.1779 0.9811 0.0756
vn -0.3451 0.9142 -0.2124
vn -0.3169 0.9343 -0.1631
vn -0.3103 0.9283 -0.2050
vn 0.2244 -0.9738 -0.0374
vn 0.2448 -0.9693 0.0242
vn 0.2521 -0.9670 0.0376
vn 0.1581 -0.9773 -0.1407
vn 0.1717 -0.9759 -0.1347
vn 0.3740 -0.8607 0.3454
vn 0.1310 -0.9705 -0.2025
vn 0.1545 -0.9750 -0.1597
vn 0.2951 -0.9411 0.1651
vn 0.1783 -0.9811 -0.0754
vn 0.3453 -0.9141 0.2127
vn 0.3170 -0.9342 0.1633
vn 0.3102 -0.9283 0.2052
vn 0.7241 0.1999 0.6601
vn -0.9690 -0.2437 0.0406
vn 0.7731 0.2105 0.5983
vn -0.7428 -0.2039 -0.6377
vn 0.5649 0.1220 -0.8161
vn -0.1425 -0.0611 -0.9879
vn -0.2164 -0.0794 -0.9731
vn 0.9055 0.2378 0.3514
vn 0.8737 0.2097 -0.4388
vn -0.5158 -0.1088 0.8498
vn 0.5888 0.1688 0.7905
vn -0.0538 0.0117 0.9985
vn -0.5157 -0.1087 0.8498
vn -0.9690 -0.2438 0.0406
vn 0.0483 -0.0133 -0.9987
vt 0.506080 0.229085
vt 0.514303 0.045858
vt 0.506092 -0.180666
vt 0.495800 -0.067905
vt 0.473036 1.030145
vt 0.473004 1.399201
vt 0.473053 1.400347
vt 0.473183 1.033428
vt 0.495856 1.083821
vt 0.506288 1.247331
vt 0.516253 1.016975
vt 0.503034 0.883512
vt 0.506788 0.517412
vt 0.520270 0.520728
vt 0.473094 1.399078
vt 0.473321 1.029432
vt 0.475004 0.543021
vt 0.495253 0.520249
vt 0.492650 0.306929
vt 0.474988 0.456252
vt 0.475063 0.838814
vt 0.487844 0.917073
vt 0.493933 0.795643
vt 0.475070 0.688280
vt 0.473261 0.156169
vt 0.473296 0.717186
vt 0.473460 0.712928
vt 0.473500 0.156390
vt 0.473004 0.155932
vt 0.473110 0.713471
vt 0.487718 0.147619
vt 0.474972 0.377044
vt 0.506898 0.550060
vt 0.495355 0.553010
vt 0.475071 0.583932
vt 0.520352 0.540218
vt 0.506200 0.837625
vt 0.496039 1.145081
vt 0.506372 1.247287
vt 0.514493 1.012406
vt 0.472922 0.501173
vt 0.473069 0.497890
vt 0.472939 0.130972
vt 0.472890 0.132118
vt 0.495645 0.010992
vt 0.502900 0.203915
vt 0.516064 0.056962
vt 0.506011 -0.163161
vt 0.506794 0.548632
vt 0.520272 0.531524
vt 0.473206 0.501886
vt 0.472980 0.132241
vt 0.475007 0.555560
vt 0.475025 0.642323
vt 0.492742 0.773541
vt 0.495260 0.557600
vt 0.474952 0.277229
vt 0.475019 0.427724
vt 0.493835 0.301080
vt 0.487700 0.185900
vt 0.473147 1.375149
vt 0.473386 1.374928
vt 0.473345 0.818391
vt 0.473181 0.814132
vt 0.472890 1.375387
vt 0.472996 0.817848
vt 0.475039 0.721531
vt 0.487874 0.937866
vt 0.495353 0.542214
vt 0.506895 0.533345
vt 0.475060 0.532064
vt 0.520350 0.529422
vt 0.501880 0.726521
vt 0.501880 0.649655
vt 0.497353 0.649665
vt 0.497353 0.726533
vt 0.511864 0.569144
vt 0.511864 0.646012
vt 0.515278 0.646027
vt 0.515278 0.569159
vt 0.504935 0.726512
vt 0.504935 0.649647
vt 0.508205 0.569134
vt 0.508205 0.646001
vt 0.496355 0.569136
vt 0.496355 0.646006
vt 0.497344 0.646001
vt 0.497344 0.569134
vt 0.504557 0.569136
vt 0.504557 0.646001
vt 0.501655 0.646004
vt 0.501655 0.569136
vt 0.496833 0.649667
vt 0.496833 0.726535
vt 0.496264 0.649670
vt 0.496264 0.726537
vt 0.515278 0.726519
vt 0.515278 0.649655
vt 0.511579 0.649642
vt 0.511579 0.726510
vt 0.508456 0.726504
vt 0.508456 0.649640
vt 0.495672 0.569142
vt 0.495672 0.646006
vt 0.473483 0.463054
vt 0.473483 0.339447
vt 0.473434 0.339447
vt 0.473434 0.463054
vt 0.473536 0.463054
vt 0.473536 0.339448
vt 0.473082 0.463055
vt 0.473082 0.339448
vt 0.472825 0.339449
vt 0.472825 0.463056
vt 0.473321 0.463054
vt 0.473321 0.339447
s 0
usemtl Gradient.001
f 76/117/42 66/118/42 57/119/42 72/120/42
f 84/121/43 79/122/43 61/123/43 74/124/43
f 73/125/44 58/126/44 63/127/44 75/128/44
f 77/129/45 83/130/45 66/118/45 76/117/45
f 74/124/43 61/123/43 83/131/43 77/132/43
f 81/133/46 80/134/46 71/135/46 65/136/46
f 60/137/47 67/138/47 70/139/47 64/140/47
f 62/141/43 69/142/43 80/143/43 81/144/43
f 78/145/43 82/146/43 69/142/43 62/141/43
f 65/136/48 71/135/48 68/147/48 59/148/48
f 80/134/49 77/129/49 76/117/49 71/135/49
f 67/138/50 73/125/50 75/128/50 70/139/50
f 82/146/43 84/121/43 74/124/43 69/142/43
f 71/135/51 76/117/51 72/120/51 68/147/51
f 70/139/52 75/128/52 84/149/52 82/150/52
f 64/140/53 70/139/53 82/150/53 78/151/53
f 69/142/43 74/124/43 77/132/43 80/143/43
f 75/128/54 63/127/54 79/152/54 84/149/54
f 104/153/55 100/154/55 85/155/55 94/156/55
f 112/157/56 102/158/56 89/159/56 107/160/56
f 101/161/57 103/162/57 91/163/57 86/164/57
f 105/165/58 104/153/58 94/156/58 111/166/58
f 102/158/56 105/167/56 111/168/56 89/159/56
f 109/169/59 93/170/59 99/171/59 108/172/59
f 88/173/60 92/174/60 98/175/60 95/176/60
f 90/177/56 109/178/56 108/179/56 97/180/56
f 106/181/56 90/177/56 97/180/56 110/182/56
f 93/170/61 87/183/61 96/184/61 99/171/61
f 108/172/62 99/171/62 104/153/62 105/165/62
f 95/176/63 98/175/63 103/162/63 101/161/63
f 110/182/56 97/180/56 102/158/56 112/157/56
f 99/171/64 96/184/64 100/154/64 104/153/64
f 98/175/65 110/185/65 112/186/65 103/162/65
f 92/174/66 106/187/66 110/185/66 98/175/66
f 97/180/56 108/179/56 105/167/56 102/158/56
f 103/162/67 112/186/67 107/188/67 91/163/67
f 68/189/68 96/190/68 87/191/68 59/192/68
f 63/193/69 91/194/69 107/195/69 79/196/69
f 72/197/70 100/198/70 96/190/70 68/189/70
f 58/199/71 86/200/71 91/194/71 63/193/71
f 64/201/72 92/202/72 88/203/72 60/204/72
f 73/205/73 101/206/73 86/200/73 58/199/73
f 60/204/74 88/203/74 95/207/74 67/208/74
f 59/192/75 87/191/75 93/209/75 65/210/75
f 65/210/76 93/209/76 109/211/76 81/212/76
f 83/213/77 111/214/77 94/215/77 66/216/77
f 57/217/78 85/218/78 100/198/78 72/197/78
f 78/219/76 106/220/76 92/202/76 64/201/76
f 66/216/79 94/215/79 85/218/79 57/217/79
f 61/221/80 89/222/80 111/223/80 83/224/80
f 79/225/81 107/226/81 89/222/81 61/221/81
f 62/227/76 90/228/76 106/229/76 78/230/76
f 67/208/82 95/207/82 101/206/82 73/205/82
f 81/231/76 109/232/76 90/228/76 62/227/76
o Hoja_Lechuga.002
v 0.082319 0.003702 -0.026955
v 0.034691 0.006556 0.049070
v -0.018601 0.013848 -0.048005
v -0.029841 0.014534 -0.030693
v 0.097239 0.008271 0.035206
v -0.026927 0.015712 -0.041209
v 0.069518 0.004469 0.053840
v -0.029374 0.015691 -0.037319
v -0.023293 0.014986 -0.047058
v 0.096873 0.002830 -0.000675
v -0.002518 0.008786 -0.003180
v 0.021388 0.007354 -0.041283
v 0.029457 0.012333 -0.007410
v 0.016443 0.010365 0.003784
v 0.029521 0.009524 -0.024299
v 0.050621 0.005602 -0.038767
v 0.011864 0.007924 0.022444
v 0.060834 0.010452 0.012318
v 0.038084 0.006729 0.024093
v 0.068502 0.006218 -0.005185
v 0.060856 0.010451 0.011372
v -0.027744 0.015761 -0.039905
v 0.096973 0.008287 0.035386
v 0.029534 0.012328 -0.008508
v -0.026168 0.015667 -0.042420
v 0.028512 0.012390 -0.006684
v 0.097238 0.008271 0.034918
v 0.060050 0.010499 0.012874
v 0.082181 0.001397 -0.026955
v 0.034553 0.004252 0.049069
v -0.018738 0.011543 -0.048006
v -0.029978 0.012229 -0.030694
v 0.097101 0.005966 0.035206
v -0.027065 0.013407 -0.041209
v 0.069380 0.002164 0.053839
v -0.029511 0.013387 -0.037321
v -0.023431 0.012682 -0.047059
v 0.096735 0.000525 -0.000676
v -0.002655 0.006482 -0.003180
v 0.021250 0.005049 -0.041284
v 0.029319 0.010028 -0.007411
v 0.016305 0.008056 0.003783
v 0.029383 0.007213 -0.024300
v 0.050485 0.003297 -0.038767
v 0.011728 0.005620 0.022443
v 0.060696 0.008148 0.012317
v 0.037946 0.004414 0.024092
v 0.068365 0.003899 -0.005187
v 0.060719 0.008146 0.011370
v -0.027881 0.013456 -0.039907
v 0.096836 0.005982 0.035386
v 0.029397 0.010023 -0.008508
v -0.026306 0.013362 -0.042421
v 0.028374 0.010085 -0.006685
v 0.097100 0.005966 0.034917
v 0.059912 0.008195 0.012874
vn 0.1012 0.9936 -0.0506
vn 0.0598 0.9982 -0.0000
vn 0.0522 0.9985 0.0140
vn 0.1530 0.9753 -0.1595
vn 0.1550 0.9772 -0.1450
vn -0.1381 0.9440 0.2996
vn 0.1913 0.9580 -0.2135
vn 0.1669 0.9709 -0.1718
vn -0.0317 0.9920 0.1220
vn 0.1082 0.9880 -0.1101
vn -0.0434 0.9801 0.1938
vn -0.0177 0.9900 0.1402
vn -0.0564 0.9858 0.1582
vn -0.1009 -0.9936 0.0502
vn -0.0598 -0.9982 -0.0000
vn -0.0524 -0.9985 -0.0136
vn -0.1529 -0.9752 0.1598
vn -0.1551 -0.9772 0.1452
vn 0.1379 -0.9441 -0.2994
vn -0.1912 -0.9581 0.2132
vn -0.1672 -0.9707 0.1723
vn 0.0313 -0.9921 -0.1218
vn -0.1082 -0.9881 0.1097
vn 0.0436 -0.9800 -0.1941
vn 0.0178 -0.9899 -0.1404
vn 0.0566 -0.9858 -0.1582
vn 0.1643 -0.0093 -0.9864
vn 0.5607 -0.0336 0.8273
vn 0.0855 -0.0048 -0.9963
vn -0.1352 0.0077 0.9908
vn -0.9964 0.0594 -0.0599
vn -0.7573 0.0449 0.6515
vn -0.7046 0.0418 0.7084
vn -0.1951 0.0120 -0.9807
vn -0.8455 0.0507 -0.5316
vn 0.9982 -0.0596 -0.0011
vn 0.3480 -0.0205 -0.9373
vn 0.8729 -0.0519 -0.4852
vn 0.9982 -0.0594 -0.0012
vn 0.5607 -0.0337 0.8273
vn -0.8701 0.0516 0.4901
vt 0.506080 0.229085
vt 0.514303 0.045858
vt 0.506092 -0.180666
vt 0.495800 -0.067905
vt 0.473036 1.030145
vt 0.473004 1.399201
vt 0.473053 1.400347
vt 0.473183 1.033428
vt 0.495856 1.083821
vt 0.506288 1.247331
vt 0.516253 1.016975
vt 0.503034 0.883512
vt 0.506788 0.517412
vt 0.520270 0.520728
vt 0.473094 1.399078
vt 0.473321 1.029432
vt 0.475004 0.543021
vt 0.495253 0.520249
vt 0.492650 0.306929
vt 0.474988 0.456252
vt 0.475063 0.838814
vt 0.487844 0.917073
vt 0.493933 0.795643
vt 0.475070 0.688280
vt 0.473261 0.156169
vt 0.473296 0.717186
vt 0.473460 0.712928
vt 0.473500 0.156390
vt 0.473004 0.155932
vt 0.473110 0.713471
vt 0.487718 0.147619
vt 0.474972 0.377044
vt 0.506898 0.550060
vt 0.495355 0.553010
vt 0.475071 0.583932
vt 0.520352 0.540218
vt 0.506200 0.837625
vt 0.496039 1.145081
vt 0.506372 1.247287
vt 0.514493 1.012406
vt 0.472922 0.501173
vt 0.473069 0.497890
vt 0.472939 0.130972
vt 0.472890 0.132118
vt 0.495645 0.010992
vt 0.502900 0.203915
vt 0.516064 0.056962
vt 0.506011 -0.163161
vt 0.506794 0.548632
vt 0.520272 0.531524
vt 0.473206 0.501886
vt 0.472980 0.132241
vt 0.475007 0.555560
vt 0.475025 0.642323
vt 0.492742 0.773541
vt 0.495260 0.557600
vt 0.474952 0.277229
vt 0.475019 0.427724
vt 0.493835 0.301080
vt 0.487700 0.185900
vt 0.473147 1.375149
vt 0.473386 1.374928
vt 0.473345 0.818391
vt 0.473181 0.814132
vt 0.472890 1.375387
vt 0.472996 0.817848
vt 0.475039 0.721531
vt 0.487874 0.937866
vt 0.495353 0.542214
vt 0.506895 0.533345
vt 0.475060 0.532064
vt 0.520350 0.529422
vt 0.501880 0.726521
vt 0.501880 0.649655
vt 0.497353 0.649665
vt 0.497353 0.726533
vt 0.511864 0.569144
vt 0.511864 0.646012
vt 0.515278 0.646027
vt 0.515278 0.569159
vt 0.504935 0.726512
vt 0.504935 0.649647
vt 0.508205 0.569134
vt 0.508205 0.646001
vt 0.496355 0.569136
vt 0.496355 0.646006
vt 0.497344 0.646001
vt 0.497344 0.569134
vt 0.504557 0.569136
vt 0.504557 0.646001
vt 0.501655 0.646004
vt 0.501655 0.569136
vt 0.496833 0.649667
vt 0.496833 0.726535
vt 0.496264 0.649670
vt 0.496264 0.726537
vt 0.515278 0.726519
vt 0.515278 0.649655
vt 0.511579 0.649642
vt 0.511579 0.726510
vt 0.508456 0.726504
vt 0.508456 0.649640
vt 0.495672 0.569142
vt 0.495672 0.646006
vt 0.473483 0.463054
vt 0.473483 0.339447
vt 0.473434 0.339447
vt 0.473434 0.463054
vt 0.473536 0.463054
vt 0.473536 0.339448
vt 0.473082 0.463055
vt 0.473082 0.339448
vt 0.472825 0.339449
vt 0.472825 0.463056
vt 0.473321 0.463054
vt 0.473321 0.339447
s 0
usemtl Gradient.001
f 132/233/83 122/234/83 113/235/83 128/236/83
f 140/237/84 135/238/84 117/239/84 130/240/84
f 129/241/85 114/242/85 119/243/85 131/244/85
f 133/245/86 139/246/86 122/234/86 132/233/86
f 130/240/84 117/239/84 139/247/84 133/248/84
f 137/249/87 136/250/87 127/251/87 121/252/87
f 116/253/88 123/254/88 126/255/88 120/256/88
f 118/257/84 125/258/84 136/259/84 137/260/84
f 134/261/84 138/262/84 125/258/84 118/257/84
f 121/252/89 127/251/89 124/263/89 115/264/89
f 136/250/90 133/245/90 132/233/90 127/251/90
f 123/254/91 129/241/91 131/244/91 126/255/91
f 138/262/84 140/237/84 130/240/84 125/258/84
f 127/251/92 132/233/92 128/236/92 124/263/92
f 126/255/93 131/244/93 140/265/93 138/266/93
f 120/256/94 126/255/94 138/266/94 134/267/94
f 125/258/84 130/240/84 133/248/84 136/259/84
f 131/244/95 119/243/95 135/268/95 140/265/95
f 160/269/96 156/270/96 141/271/96 150/272/96
f 168/273/97 158/274/97 145/275/97 163/276/97
f 157/277/98 159/278/98 147/279/98 142/280/98
f 161/281/99 160/269/99 150/272/99 167/282/99
f 158/274/97 161/283/97 167/284/97 145/275/97
f 165/285/100 149/286/100 155/287/100 164/288/100
f 144/289/101 148/290/101 154/291/101 151/292/101
f 146/293/97 165/294/97 164/295/97 153/296/97
f 162/297/97 146/293/97 153/296/97 166/298/97
f 149/286/102 143/299/102 152/300/102 155/287/102
f 164/288/103 155/287/103 160/269/103 161/281/103
f 151/292/104 154/291/104 159/278/104 157/277/104
f 166/298/97 153/296/97 158/274/97 168/273/97
f 155/287/105 152/300/105 156/270/105 160/269/105
f 154/291/106 166/301/106 168/302/106 159/278/106
f 148/290/107 162/303/107 166/301/107 154/291/107
f 153/296/97 164/295/97 161/283/97 158/274/97
f 159/278/108 168/302/108 163/304/108 147/279/108
f 124/305/109 152/306/109 143/307/109 115/308/109
f 119/309/110 147/310/110 163/311/110 135/312/110
f 128/313/111 156/314/111 152/306/111 124/305/111
f 114/315/112 142/316/112 147/310/112 119/309/112
f 120/317/113 148/318/113 144/319/113 116/320/113
f 129/321/114 157/322/114 142/316/114 114/315/114
f 116/320/115 144/319/115 151/323/115 123/324/115
f 115/308/116 143/307/116 149/325/116 121/326/116
f 121/326/117 149/325/117 165/327/117 137/328/117
f 139/329/118 167/330/118 150/331/118 122/332/118
f 113/333/119 141/334/119 156/314/119 128/313/119
f 134/335/117 162/336/117 148/318/117 120/317/117
f 122/332/120 150/331/120 141/334/120 113/333/120
f 117/337/121 145/338/121 167/339/121 139/340/121
f 135/341/122 163/342/122 145/338/122 117/337/122
f 118/343/117 146/344/117 162/345/117 134/346/117
f 123/324/123 151/323/123 157/322/123 129/321/123
f 137/347/117 165/348/117 146/344/117 118/343/117
