# Blender 4.2.1 LTS
# www.blender.org
mtllib LettuceMontado.mtl
o Hoja_Lechuga.002
v 0.145295 -0.001370 -0.026955
v 0.097582 -0.001370 0.049070
v 0.043949 0.002720 -0.048005
v 0.032689 0.002733 -0.030693
v 0.159915 0.004083 0.035206
v 0.035526 0.004083 -0.041209
v 0.132471 -0.001370 0.053840
v 0.033085 0.003916 -0.037319
v 0.039198 0.003576 -0.047058
v 0.159875 -0.001370 -0.000675
v 0.060306 -0.001370 -0.003180
v 0.084255 -0.001370 -0.041283
v 0.092012 0.004083 -0.007410
v 0.079139 0.001340 0.003784
v 0.092244 0.001283 -0.024299
v 0.113541 -0.001370 -0.038767
v 0.074715 -0.001370 0.022444
v 0.123445 0.004083 0.012318
v 0.100959 -0.000995 0.024093
v 0.131353 0.000315 -0.005185
v 0.123467 0.004083 0.011372
v 0.034708 0.004083 -0.039905
v 0.159649 0.004083 0.035386
v 0.092089 0.004083 -0.008508
v 0.036287 0.004083 -0.042420
v 0.091065 0.004083 -0.006684
v 0.159914 0.004083 0.034918
v 0.122660 0.004083 0.012874
v 0.145296 -0.003679 -0.026955
v 0.097582 -0.003679 0.049069
v 0.043951 0.000411 -0.048006
v 0.032689 0.000424 -0.030694
v 0.159916 0.001774 0.035206
v 0.035527 0.001774 -0.041209
v 0.132472 -0.003679 0.053839
v 0.033086 0.001607 -0.037321
v 0.039198 0.001267 -0.047059
v 0.159876 -0.003679 -0.000676
v 0.060308 -0.003679 -0.003180
v 0.084255 -0.003679 -0.041284
v 0.092012 0.001774 -0.007411
v 0.079139 -0.000973 0.003783
v 0.092245 -0.001032 -0.024300
v 0.113542 -0.003679 -0.038767
v 0.074716 -0.003679 0.022443
v 0.123445 0.001774 0.012317
v 0.100959 -0.003314 0.024092
v 0.131355 -0.002008 -0.005187
v 0.123468 0.001774 0.011370
v 0.034709 0.001774 -0.039907
v 0.159650 0.001774 0.035386
v 0.092090 0.001774 -0.008508
v 0.036287 0.001774 -0.042421
v 0.091065 0.001774 -0.006685
v 0.159915 0.001774 0.034917
v 0.122660 0.001774 0.012874
v -0.038884 -0.001370 0.030031
v 0.002848 -0.001370 -0.049435
v 0.063780 0.002720 0.043233
v 0.073677 0.002733 0.025107
v -0.058236 0.004083 -0.030823
v 0.071656 0.004083 0.035809
v -0.032305 -0.001370 -0.051510
v 0.073791 0.003916 0.031744
v 0.068445 0.003576 0.041923
v -0.055440 -0.001370 0.004949
v 0.044028 -0.001370 -0.000203
v 0.023077 -0.001370 0.039627
v 0.012741 0.004083 0.006450
v 0.024716 0.001340 -0.005699
v 0.013806 0.001283 0.023308
v -0.006316 -0.001370 0.039368
v 0.027693 -0.001370 -0.024644
v -0.020115 0.004083 -0.010804
v 0.001400 -0.000995 -0.024272
v -0.026655 0.000315 0.007255
v -0.020065 0.004083 -0.009859
v 0.072371 0.004083 0.034447
v -0.057984 0.004083 -0.031023
v 0.012748 0.004083 0.007551
v 0.070991 0.004083 0.037075
v 0.013629 0.004083 0.005654
v -0.058213 0.004083 -0.030536
v -0.019375 0.004083 -0.011420
v -0.038884 -0.003679 0.030032
v 0.002847 -0.003679 -0.049434
v 0.063778 0.000411 0.043234
v 0.073677 0.000424 0.025108
v -0.058237 0.001774 -0.030822
v 0.071655 0.001774 0.035810
v -0.032306 -0.003679 -0.051509
v 0.073790 0.001607 0.031745
v 0.068444 0.001267 0.041924
v -0.055440 -0.003679 0.004950
v 0.044026 -0.003679 -0.000203
v 0.023076 -0.003679 0.039628
v 0.012740 0.001774 0.006451
v 0.024715 -0.000973 -0.005698
v 0.013806 -0.001032 0.023308
v -0.006317 -0.003679 0.039369
v 0.027692 -0.003679 -0.024644
v -0.020116 0.001774 -0.010803
v 0.001399 -0.003314 -0.024271
v -0.026657 -0.002008 0.007256
v -0.020066 0.001774 -0.009857
v 0.072370 0.001774 0.034448
v -0.057986 0.001774 -0.031023
v 0.012747 0.001774 0.007551
v 0.070990 0.001774 0.037076
v 0.013628 0.001774 0.005655
v -0.058214 0.001774 -0.030535
v -0.019376 0.001774 -0.011419
v -0.113249 -0.001370 0.048318
v -0.164791 -0.001370 -0.025165
v -0.054509 0.002720 -0.036910
v -0.066092 0.002733 -0.054007
v -0.176210 0.004083 0.037662
v -0.057503 0.004083 -0.047310
v -0.182729 -0.001370 0.005138
v -0.060140 0.003916 -0.051069
v -0.053537 0.003576 -0.041656
v -0.143127 -0.001370 0.051554
v -0.102168 -0.001370 -0.039235
v -0.076350 -0.001370 -0.002374
v -0.110577 0.004083 -0.008374
v -0.115896 0.001340 -0.024582
v -0.095103 0.001283 -0.001604
v -0.090037 -0.001370 0.023639
v -0.131376 -0.001370 -0.035903
v -0.140959 0.004083 0.012937
v -0.143083 -0.000995 -0.012357
v -0.127899 0.000315 0.027019
v -0.140096 0.004083 0.013324
v -0.058387 0.004083 -0.048570
v -0.176273 0.004083 0.037347
v -0.109596 0.004083 -0.007876
v -0.056682 0.004083 -0.046139
v -0.110879 0.004083 -0.009528
v -0.175944 0.004083 0.037774
v -0.141168 0.004083 0.011997
v -0.113248 -0.003679 0.048319
v -0.164790 -0.003679 -0.025164
v -0.054508 0.000411 -0.036908
v -0.066091 0.000424 -0.054006
v -0.176210 0.001774 0.037663
v -0.057502 0.001774 -0.047309
v -0.182729 -0.003679 0.005138
v -0.060139 0.001607 -0.051068
v -0.053536 0.001267 -0.041655
v -0.143126 -0.003679 0.051555
v -0.102169 -0.003679 -0.039234
v -0.076349 -0.003679 -0.002373
v -0.110577 0.001774 -0.008373
v -0.115896 -0.000973 -0.024582
v -0.095102 -0.001032 -0.001603
v -0.090037 -0.003679 0.023641
v -0.131376 -0.003679 -0.035902
v -0.140959 0.001774 0.012938
v -0.143082 -0.003314 -0.012356
v -0.127898 -0.002008 0.027021
v -0.140095 0.001774 0.013326
v -0.058385 0.001774 -0.048568
v -0.176273 0.001774 0.037348
v -0.109596 0.001774 -0.007875
v -0.056681 0.001774 -0.046139
v -0.110878 0.001774 -0.009527
v -0.175944 0.001774 0.037774
v -0.141167 0.001774 0.011998
vn 0.0416 0.9979 -0.0506
vn -0.0000 1.0000 -0.0000
vn -0.0076 0.9999 0.0140
vn 0.0944 0.9827 -0.1595
vn 0.0962 0.9847 -0.1450
vn -0.1944 0.9341 0.2996
vn 0.1336 0.9678 -0.2135
vn 0.1085 0.9791 -0.1718
vn -0.0909 0.9884 0.1220
vn 0.0489 0.9927 -0.1101
vn -0.1020 0.9757 0.1938
vn -0.0769 0.9871 0.1402
vn -0.1153 0.9807 0.1582
vn -0.0413 -0.9979 0.0502
vn -0.0000 -1.0000 -0.0000
vn 0.0074 -0.9999 -0.0136
vn -0.0943 -0.9826 0.1598
vn -0.0964 -0.9847 0.1452
vn 0.1942 -0.9341 -0.2994
vn -0.1336 -0.9678 0.2132
vn -0.1089 -0.9790 0.1723
vn 0.0906 -0.9884 -0.1218
vn -0.0489 -0.9928 0.1097
vn 0.1021 -0.9756 -0.1941
vn 0.0770 -0.9871 -0.1404
vn 0.1155 -0.9806 -0.1582
vn 0.1646 0.0005 -0.9864
vn 0.5617 -0.0000 0.8273
vn 0.0856 0.0003 -0.9963
vn -0.1354 -0.0004 0.9908
vn -0.9982 -0.0003 -0.0599
vn -0.7586 -0.0005 0.6515
vn -0.7058 -0.0005 0.7084
vn -0.1954 0.0003 -0.9807
vn -0.8470 -0.0000 -0.5316
vn 1.0000 0.0002 -0.0011
vn 0.3486 0.0004 -0.9373
vn 0.8744 0.0004 -0.4852
vn 1.0000 0.0004 -0.0012
vn 0.5617 -0.0001 0.8273
vn -0.8716 -0.0006 0.4901
vn -0.0376 0.9979 0.0536
vn 0.0065 0.9999 -0.0145
vn -0.0818 0.9827 0.1663
vn -0.0848 0.9847 0.1519
vn 0.1708 0.9341 -0.3136
vn -0.1168 0.9678 0.2232
vn -0.0950 0.9791 0.1797
vn 0.0813 0.9884 -0.1286
vn -0.0403 0.9927 0.1135
vn 0.0868 0.9757 -0.2010
vn 0.0659 0.9871 -0.1457
vn 0.1028 0.9807 -0.1665
vn 0.0373 -0.9979 -0.0532
vn -0.0063 -0.9999 0.0141
vn 0.0817 -0.9826 -0.1666
vn 0.0850 -0.9847 -0.1522
vn -0.1706 -0.9341 0.3135
vn 0.1168 -0.9678 -0.2228
vn 0.0953 -0.9790 -0.1802
vn -0.0810 -0.9884 0.1285
vn 0.0403 -0.9928 -0.1131
vn -0.0869 -0.9756 0.2014
vn -0.0660 -0.9871 0.1459
vn -0.1030 -0.9806 0.1666
vn -0.0883 0.0005 0.9961
vn -0.6236 -0.0000 -0.7817
vn -0.0088 0.0003 1.0000
vn 0.0589 -0.0004 -0.9983
vn 0.9999 -0.0003 -0.0170
vn 0.7063 -0.0005 -0.7079
vn 0.6493 -0.0005 -0.7605
vn 0.2702 0.0003 0.9628
vn 0.8853 -0.0000 0.4649
vn -0.9970 0.0002 0.0780
vn -0.2756 0.0004 0.9613
vn -0.8346 0.0004 0.5509
vn -0.9969 0.0004 0.0781
vn -0.6236 -0.0001 -0.7817
vn 0.8314 -0.0006 -0.5557
vn 0.0305 0.9979 0.0580
vn -0.0099 0.9999 -0.0124
vn 0.1104 0.9827 0.1489
vn 0.0962 0.9847 0.1449
vn -0.2007 0.9341 -0.2954
vn 0.1449 0.9678 0.2060
vn 0.1162 0.9791 0.1667
vn -0.0771 0.9884 -0.1312
vn 0.0825 0.9927 0.0878
vn -0.1390 0.9757 -0.1692
vn -0.0994 0.9871 -0.1253
vn -0.1010 0.9807 -0.1676
vn -0.0302 -0.9979 -0.0575
vn 0.0097 -0.9999 0.0121
vn -0.1107 -0.9826 -0.1489
vn -0.0964 -0.9847 -0.1452
vn 0.2006 -0.9341 0.2952
vn -0.1446 -0.9678 -0.2058
vn -0.1165 -0.9790 -0.1672
vn 0.0771 -0.9884 0.1308
vn -0.0821 -0.9928 -0.0876
vn 0.1393 -0.9756 0.1695
vn 0.0995 -0.9871 0.1255
vn 0.1010 -0.9806 0.1678
vn 0.8451 0.0005 0.5345
vn -0.9805 -0.0000 0.1965
vn 0.8850 0.0003 0.4656
vn -0.8605 -0.0004 -0.5094
vn 0.4427 -0.0003 -0.8967
vn -0.3059 -0.0005 -0.9520
vn -0.3789 -0.0005 -0.9254
vn 0.9797 0.0003 0.2006
vn 0.8187 -0.0000 -0.5742
vn -0.3871 0.0002 0.9220
vn 0.7284 0.0004 0.6851
vn 0.1077 0.0004 0.9942
vn -0.3870 0.0004 0.9221
vn -0.9805 -0.0001 0.1965
vn -0.1134 -0.0006 -0.9936
vt 0.506080 0.229085
vt 0.514303 0.045858
vt 0.506092 -0.180666
vt 0.495800 -0.067905
vt 0.473036 1.030145
vt 0.473004 1.399201
vt 0.473053 1.400347
vt 0.473183 1.033428
vt 0.495856 1.083821
vt 0.506288 1.247331
vt 0.516253 1.016975
vt 0.503034 0.883512
vt 0.506788 0.517412
vt 0.520270 0.520728
vt 0.473094 1.399078
vt 0.473321 1.029432
vt 0.475004 0.543021
vt 0.495253 0.520249
vt 0.492650 0.306929
vt 0.474988 0.456252
vt 0.475063 0.838814
vt 0.487844 0.917073
vt 0.493933 0.795643
vt 0.475070 0.688280
vt 0.473261 0.156169
vt 0.473296 0.717186
vt 0.473460 0.712928
vt 0.473500 0.156390
vt 0.473004 0.155932
vt 0.473110 0.713471
vt 0.487718 0.147619
vt 0.474972 0.377044
vt 0.506898 0.550060
vt 0.495355 0.553010
vt 0.475071 0.583932
vt 0.520352 0.540218
vt 0.506200 0.837625
vt 0.496039 1.145081
vt 0.506372 1.247287
vt 0.514493 1.012406
vt 0.472922 0.501173
vt 0.473069 0.497890
vt 0.472939 0.130972
vt 0.472890 0.132118
vt 0.495645 0.010992
vt 0.502900 0.203915
vt 0.516064 0.056962
vt 0.506011 -0.163161
vt 0.506794 0.548632
vt 0.520272 0.531524
vt 0.473206 0.501886
vt 0.472980 0.132241
vt 0.475007 0.555560
vt 0.475025 0.642323
vt 0.492742 0.773541
vt 0.495260 0.557600
vt 0.474952 0.277229
vt 0.475019 0.427724
vt 0.493835 0.301080
vt 0.487700 0.185900
vt 0.473147 1.375149
vt 0.473386 1.374928
vt 0.473345 0.818391
vt 0.473181 0.814132
vt 0.472890 1.375387
vt 0.472996 0.817848
vt 0.475039 0.721531
vt 0.487874 0.937866
vt 0.495353 0.542214
vt 0.506895 0.533345
vt 0.475060 0.532064
vt 0.520350 0.529422
vt 0.501880 0.726521
vt 0.501880 0.649655
vt 0.497353 0.649665
vt 0.497353 0.726533
vt 0.511864 0.569144
vt 0.511864 0.646012
vt 0.515278 0.646027
vt 0.515278 0.569159
vt 0.504935 0.726512
vt 0.504935 0.649647
vt 0.508205 0.569134
vt 0.508205 0.646001
vt 0.496355 0.569136
vt 0.496355 0.646006
vt 0.497344 0.646001
vt 0.497344 0.569134
vt 0.504557 0.569136
vt 0.504557 0.646001
vt 0.501655 0.646004
vt 0.501655 0.569136
vt 0.496833 0.649667
vt 0.496833 0.726535
vt 0.496264 0.649670
vt 0.496264 0.726537
vt 0.515278 0.726519
vt 0.515278 0.649655
vt 0.511579 0.649642
vt 0.511579 0.726510
vt 0.508456 0.726504
vt 0.508456 0.649640
vt 0.495672 0.569142
vt 0.495672 0.646006
vt 0.473483 0.463054
vt 0.473483 0.339447
vt 0.473434 0.339447
vt 0.473434 0.463054
vt 0.473536 0.463054
vt 0.473536 0.339448
vt 0.473082 0.463055
vt 0.473082 0.339448
vt 0.472825 0.339449
vt 0.472825 0.463056
vt 0.473321 0.463054
vt 0.473321 0.339447
s 0
usemtl Gradient.001
f 20/1/1 10/2/1 1/3/1 16/4/1
f 28/5/2 23/6/2 5/7/2 18/8/2
f 17/9/3 2/10/3 7/11/3 19/12/3
f 21/13/4 27/14/4 10/2/4 20/1/4
f 18/8/2 5/7/2 27/15/2 21/16/2
f 25/17/5 24/18/5 15/19/5 9/20/5
f 4/21/6 11/22/6 14/23/6 8/24/6
f 6/25/2 13/26/2 24/27/2 25/28/2
f 22/29/2 26/30/2 13/26/2 6/25/2
f 9/20/7 15/19/7 12/31/7 3/32/7
f 24/18/8 21/13/8 20/1/8 15/19/8
f 11/22/9 17/9/9 19/12/9 14/23/9
f 26/30/2 28/5/2 18/8/2 13/26/2
f 15/19/10 20/1/10 16/4/10 12/31/10
f 14/23/11 19/12/11 28/33/11 26/34/11
f 8/24/12 14/23/12 26/34/12 22/35/12
f 13/26/2 18/8/2 21/16/2 24/27/2
f 19/12/13 7/11/13 23/36/13 28/33/13
f 48/37/14 44/38/14 29/39/14 38/40/14
f 56/41/15 46/42/15 33/43/15 51/44/15
f 45/45/16 47/46/16 35/47/16 30/48/16
f 49/49/17 48/37/17 38/40/17 55/50/17
f 46/42/15 49/51/15 55/52/15 33/43/15
f 53/53/18 37/54/18 43/55/18 52/56/18
f 32/57/19 36/58/19 42/59/19 39/60/19
f 34/61/15 53/62/15 52/63/15 41/64/15
f 50/65/15 34/61/15 41/64/15 54/66/15
f 37/54/20 31/67/20 40/68/20 43/55/20
f 52/56/21 43/55/21 48/37/21 49/49/21
f 39/60/22 42/59/22 47/46/22 45/45/22
f 54/66/15 41/64/15 46/42/15 56/41/15
f 43/55/23 40/68/23 44/38/23 48/37/23
f 42/59/24 54/69/24 56/70/24 47/46/24
f 36/58/25 50/71/25 54/69/25 42/59/25
f 41/64/15 52/63/15 49/51/15 46/42/15
f 47/46/26 56/70/26 51/72/26 35/47/26
f 12/73/27 40/74/27 31/75/27 3/76/27
f 7/77/28 35/78/28 51/79/28 23/80/28
f 16/81/29 44/82/29 40/74/29 12/73/29
f 2/83/30 30/84/30 35/78/30 7/77/30
f 8/85/31 36/86/31 32/87/31 4/88/31
f 17/89/32 45/90/32 30/84/32 2/83/32
f 4/88/33 32/87/33 39/91/33 11/92/33
f 3/76/34 31/75/34 37/93/34 9/94/34
f 9/94/35 37/93/35 53/95/35 25/96/35
f 27/97/36 55/98/36 38/99/36 10/100/36
f 1/101/37 29/102/37 44/82/37 16/81/37
f 22/103/35 50/104/35 36/86/35 8/85/35
f 10/100/38 38/99/38 29/102/38 1/101/38
f 5/105/39 33/106/39 55/107/39 27/108/39
f 23/109/40 51/110/40 33/106/40 5/105/40
f 6/111/35 34/112/35 50/113/35 22/114/35
f 11/92/41 39/91/41 45/90/41 17/89/41
f 25/115/35 53/116/35 34/112/35 6/111/35
f 76/1/42 66/2/42 57/3/42 72/4/42
f 84/5/2 79/6/2 61/7/2 74/8/2
f 73/9/43 58/10/43 63/11/43 75/12/43
f 77/13/44 83/14/44 66/2/44 76/1/44
f 74/8/2 61/7/2 83/15/2 77/16/2
f 81/17/45 80/18/45 71/19/45 65/20/45
f 60/21/46 67/22/46 70/23/46 64/24/46
f 62/25/2 69/26/2 80/27/2 81/28/2
f 78/29/2 82/30/2 69/26/2 62/25/2
f 65/20/47 71/19/47 68/31/47 59/32/47
f 80/18/48 77/13/48 76/1/48 71/19/48
f 67/22/49 73/9/49 75/12/49 70/23/49
f 82/30/2 84/5/2 74/8/2 69/26/2
f 71/19/50 76/1/50 72/4/50 68/31/50
f 70/23/51 75/12/51 84/33/51 82/34/51
f 64/24/52 70/23/52 82/34/52 78/35/52
f 69/26/2 74/8/2 77/16/2 80/27/2
f 75/12/53 63/11/53 79/36/53 84/33/53
f 104/37/54 100/38/54 85/39/54 94/40/54
f 112/41/15 102/42/15 89/43/15 107/44/15
f 101/45/55 103/46/55 91/47/55 86/48/55
f 105/49/56 104/37/56 94/40/56 111/50/56
f 102/42/15 105/51/15 111/52/15 89/43/15
f 109/53/57 93/54/57 99/55/57 108/56/57
f 88/57/58 92/58/58 98/59/58 95/60/58
f 90/61/15 109/62/15 108/63/15 97/64/15
f 106/65/15 90/61/15 97/64/15 110/66/15
f 93/54/59 87/67/59 96/68/59 99/55/59
f 108/56/60 99/55/60 104/37/60 105/49/60
f 95/60/61 98/59/61 103/46/61 101/45/61
f 110/66/15 97/64/15 102/42/15 112/41/15
f 99/55/62 96/68/62 100/38/62 104/37/62
f 98/59/63 110/69/63 112/70/63 103/46/63
f 92/58/64 106/71/64 110/69/64 98/59/64
f 97/64/15 108/63/15 105/51/15 102/42/15
f 103/46/65 112/70/65 107/72/65 91/47/65
f 68/73/66 96/74/66 87/75/66 59/76/66
f 63/77/67 91/78/67 107/79/67 79/80/67
f 72/81/68 100/82/68 96/74/68 68/73/68
f 58/83/69 86/84/69 91/78/69 63/77/69
f 64/85/70 92/86/70 88/87/70 60/88/70
f 73/89/71 101/90/71 86/84/71 58/83/71
f 60/88/72 88/87/72 95/91/72 67/92/72
f 59/76/73 87/75/73 93/93/73 65/94/73
f 65/94/74 93/93/74 109/95/74 81/96/74
f 83/97/75 111/98/75 94/99/75 66/100/75
f 57/101/76 85/102/76 100/82/76 72/81/76
f 78/103/74 106/104/74 92/86/74 64/85/74
f 66/100/77 94/99/77 85/102/77 57/101/77
f 61/105/78 89/106/78 111/107/78 83/108/78
f 79/109/79 107/110/79 89/106/79 61/105/79
f 62/111/74 90/112/74 106/113/74 78/114/74
f 67/92/80 95/91/80 101/90/80 73/89/80
f 81/115/74 109/116/74 90/112/74 62/111/74
f 132/1/81 122/2/81 113/3/81 128/4/81
f 140/5/2 135/6/2 117/7/2 130/8/2
f 129/9/82 114/10/82 119/11/82 131/12/82
f 133/13/83 139/14/83 122/2/83 132/1/83
f 130/8/2 117/7/2 139/15/2 133/16/2
f 137/17/84 136/18/84 127/19/84 121/20/84
f 116/21/85 123/22/85 126/23/85 120/24/85
f 118/25/2 125/26/2 136/27/2 137/28/2
f 134/29/2 138/30/2 125/26/2 118/25/2
f 121/20/86 127/19/86 124/31/86 115/32/86
f 136/18/87 133/13/87 132/1/87 127/19/87
f 123/22/88 129/9/88 131/12/88 126/23/88
f 138/30/2 140/5/2 130/8/2 125/26/2
f 127/19/89 132/1/89 128/4/89 124/31/89
f 126/23/90 131/12/90 140/33/90 138/34/90
f 120/24/91 126/23/91 138/34/91 134/35/91
f 125/26/2 130/8/2 133/16/2 136/27/2
f 131/12/92 119/11/92 135/36/92 140/33/92
f 160/37/93 156/38/93 141/39/93 150/40/93
f 168/41/15 158/42/15 145/43/15 163/44/15
f 157/45/94 159/46/94 147/47/94 142/48/94
f 161/49/95 160/37/95 150/40/95 167/50/95
f 158/42/15 161/51/15 167/52/15 145/43/15
f 165/53/96 149/54/96 155/55/96 164/56/96
f 144/57/97 148/58/97 154/59/97 151/60/97
f 146/61/15 165/62/15 164/63/15 153/64/15
f 162/65/15 146/61/15 153/64/15 166/66/15
f 149/54/98 143/67/98 152/68/98 155/55/98
f 164/56/99 155/55/99 160/37/99 161/49/99
f 151/60/100 154/59/100 159/46/100 157/45/100
f 166/66/15 153/64/15 158/42/15 168/41/15
f 155/55/101 152/68/101 156/38/101 160/37/101
f 154/59/102 166/69/102 168/70/102 159/46/102
f 148/58/103 162/71/103 166/69/103 154/59/103
f 153/64/15 164/63/15 161/51/15 158/42/15
f 159/46/104 168/70/104 163/72/104 147/47/104
f 124/73/105 152/74/105 143/75/105 115/76/105
f 119/77/106 147/78/106 163/79/106 135/80/106
f 128/81/107 156/82/107 152/74/107 124/73/107
f 114/83/108 142/84/108 147/78/108 119/77/108
f 120/85/109 148/86/109 144/87/109 116/88/109
f 129/89/110 157/90/110 142/84/110 114/83/110
f 116/88/111 144/87/111 151/91/111 123/92/111
f 115/76/112 143/75/112 149/93/112 121/94/112
f 121/94/113 149/93/113 165/95/113 137/96/113
f 139/97/114 167/98/114 150/99/114 122/100/114
f 113/101/115 141/102/115 156/82/115 128/81/115
f 134/103/113 162/104/113 148/86/113 120/85/113
f 122/100/116 150/99/116 141/102/116 113/101/116
f 117/105/117 145/106/117 167/107/117 139/108/117
f 135/109/118 163/110/118 145/106/118 117/105/118
f 118/111/113 146/112/113 162/113/113 134/114/113
f 123/92/119 151/91/119 157/90/119 129/89/119
f 137/115/113 165/116/113 146/112/113 118/111/113
