# Blender 4.2.1 LTS
# www.blender.org
mtllib archivadorBajo.mtl
o Armazon.004
v 0.250381 -0.342988 -0.189469
v 0.250381 0.575147 -0.189469
v -0.250744 -0.342988 -0.188986
v -0.250744 0.575147 -0.188986
v -0.250744 0.203164 -0.188986
v -0.250744 -0.207343 -0.188986
v 0.250381 0.203164 -0.189469
v 0.250381 -0.207343 -0.189469
v -0.258835 0.594409 -0.188978
v 0.258472 0.594409 -0.189477
v -0.250744 0.164640 -0.188986
v 0.250381 0.164640 -0.189469
v -0.258835 0.183902 -0.188978
v -0.250744 -0.245867 -0.188986
v 0.258472 0.183902 -0.189477
v 0.250381 -0.245867 -0.189469
v -0.258835 -0.226605 -0.188978
v -0.258835 -0.362250 -0.188978
v 0.258472 -0.362250 -0.189477
v 0.258472 -0.226605 -0.189477
v 0.273277 -0.454276 0.421357
v 0.273275 -0.457086 0.420041
v 0.274456 -0.454276 0.420040
v 0.274456 0.628251 0.420040
v 0.273275 0.631061 0.420041
v 0.273277 0.628251 0.421357
v -0.272462 -0.457086 0.420568
v -0.272461 -0.454276 0.421883
v -0.273642 -0.454276 0.420569
v -0.272461 0.628251 0.421883
v -0.272462 0.631061 0.420568
v -0.273642 0.628251 0.420569
v -0.274229 0.628251 -0.187648
v -0.273049 0.631061 -0.187649
v -0.273315 0.628882 -0.188964
v -0.273049 -0.457086 -0.187649
v -0.274229 -0.454276 -0.187648
v -0.273451 -0.452285 -0.188964
v 0.273088 -0.452285 -0.189491
v 0.273869 -0.454276 -0.188177
v 0.272688 -0.457086 -0.188175
v 0.272688 0.631061 -0.188175
v 0.273869 0.628251 -0.188177
v 0.272952 0.628882 -0.189491
v 0.274456 -0.238823 0.420040
v 0.273277 -0.238823 0.421357
v 0.273277 0.196119 0.421357
v 0.274456 0.196119 0.420040
v -0.273642 0.196119 0.420569
v -0.272461 0.196119 0.421883
v -0.272461 -0.238823 0.421883
v -0.273642 -0.238823 0.420569
v -0.273337 0.195410 -0.188964
v -0.274229 0.196119 -0.187648
v -0.274229 -0.238823 -0.187648
v -0.273381 -0.238148 -0.188964
v 0.273869 0.196119 -0.188177
v 0.272973 0.195410 -0.189491
v 0.273018 -0.238148 -0.189491
v 0.273869 -0.238823 -0.188177
v 0.093252 0.519618 -0.197504
v -0.093634 0.519618 -0.197323
v -0.091598 0.480969 -0.194919
v 0.091220 0.480969 -0.195096
v -0.236388 0.281692 0.355074
v 0.237072 0.281692 0.354617
v -0.236907 0.281692 -0.183035
v 0.236553 0.281692 -0.183492
v -0.098375 0.525429 -0.194913
v 0.097997 0.525429 -0.195102
v -0.095343 0.436534 -0.194916
v 0.094966 0.436534 -0.195099
v -0.098375 0.430622 -0.194913
v 0.097997 0.430622 -0.195102
v -0.093634 0.486880 -0.197323
v 0.093252 0.486880 -0.197504
v -0.095320 0.444690 -0.170750
v 0.094989 0.444690 -0.170934
v -0.091574 0.489124 -0.170754
v 0.091244 0.489124 -0.170930
v -0.237571 0.569712 -0.183699
v 0.237215 0.569712 -0.184157
v -0.237051 0.569712 0.355739
v 0.237736 0.569712 0.355281
v -0.246915 0.208847 0.365673
v -0.245878 0.208847 0.366827
v -0.245879 0.206380 0.365672
v 0.247620 0.208847 0.365196
v 0.246583 0.206380 0.365197
v 0.246585 0.208847 0.366352
v -0.247455 0.208847 -0.193614
v -0.246419 0.206380 -0.193615
v -0.246269 0.208165 -0.194770
v 0.245892 0.208165 -0.195245
v 0.246044 0.206380 -0.194090
v 0.247080 0.208847 -0.194091
v -0.246419 0.573472 -0.193615
v -0.247455 0.571005 -0.193614
v -0.246271 0.573090 -0.194770
v 0.245893 0.573090 -0.195245
v 0.247080 0.571005 -0.194091
v 0.246044 0.573472 -0.194090
v -0.245878 0.571005 0.366827
v -0.246915 0.571005 0.365673
v -0.245879 0.573472 0.365672
v 0.246583 0.573472 0.365197
v 0.247620 0.571005 0.365196
v 0.246585 0.571005 0.366352
v 0.093252 0.109545 -0.197504
v -0.093634 0.109545 -0.197323
v -0.091598 0.070896 -0.194919
v 0.091220 0.070896 -0.195096
v -0.236388 -0.128381 0.355074
v 0.237072 -0.128381 0.354617
v -0.236907 -0.128381 -0.091198
v 0.236553 -0.128381 -0.091655
v -0.098375 0.115356 -0.194913
v 0.097997 0.115356 -0.195102
v -0.095343 0.026461 -0.194916
v 0.094966 0.026461 -0.195099
v -0.098375 0.020549 -0.194913
v 0.097997 0.020549 -0.195102
v -0.093634 0.076807 -0.197323
v 0.093252 0.076807 -0.197504
v -0.095320 0.034617 -0.170750
v 0.094989 0.034617 -0.170934
v -0.091574 0.079052 -0.170754
v 0.091244 0.079052 -0.170930
v -0.237571 0.159639 -0.091862
v 0.237215 0.159639 -0.092320
v -0.237051 0.159639 0.355739
v 0.237736 0.159639 0.355281
v -0.246915 -0.201226 0.365673
v -0.245878 -0.201226 0.366827
v -0.245879 -0.203693 0.365672
v 0.247620 -0.201226 0.365196
v 0.246583 -0.203693 0.365197
v 0.246585 -0.201226 0.366352
v -0.247455 -0.201226 -0.193614
v -0.246419 -0.203693 -0.193615
v -0.246269 -0.201908 -0.194770
v 0.245892 -0.201908 -0.195245
v 0.246044 -0.203693 -0.194090
v 0.247080 -0.201226 -0.194091
v -0.246419 0.163399 -0.193615
v -0.247455 0.160932 -0.193614
v -0.246271 0.163017 -0.194770
v 0.245893 0.163017 -0.195245
v 0.247080 0.160932 -0.194091
v 0.246044 0.163399 -0.194090
v -0.245878 0.160932 0.366827
v -0.246915 0.160932 0.365673
v -0.245879 0.163399 0.365672
v 0.246583 0.163399 0.365197
v 0.247620 0.160932 0.365196
v 0.246585 0.160932 0.366352
vn -0.0000 1.0000 -0.0000
vn -0.0010 -0.0000 -1.0000
vn 0.0010 -0.0000 1.0000
vn 0.0009 0.2172 0.9761
vn 0.9803 -0.1976 -0.0009
vn 1.0000 -0.0000 -0.0010
vn -0.9803 -0.1975 0.0009
vn -1.0000 -0.0000 0.0010
vn -0.0010 -0.1298 -0.9915
vn 0.9497 0.1671 -0.2650
vn 0.9803 0.1976 -0.0009
vn -0.9803 0.1975 0.0009
vn -0.9503 0.1669 -0.2629
vn -0.0000 -1.0000 -0.0000
vn 0.7384 -0.1338 0.6610
vn 0.7111 -0.2986 0.6365
vn 0.7380 -0.1373 0.6607
vn 0.7380 0.1373 0.6607
vn 0.7111 0.2986 0.6365
vn 0.7384 0.1338 0.6610
vn -0.7099 -0.2983 0.6380
vn -0.7371 -0.1337 0.6625
vn -0.7367 -0.1372 0.6622
vn -0.7371 0.1337 0.6625
vn -0.7099 0.2983 0.6380
vn -0.7367 0.1372 0.6622
vn -0.9158 0.3845 -0.1159
vn -0.8484 0.2023 -0.4892
vn -0.6110 -0.2563 -0.7490
vn -0.6758 -0.2012 -0.7091
vn -0.8204 -0.0436 -0.5701
vn 0.8190 -0.0437 -0.5721
vn 0.6745 -0.2012 -0.7104
vn 0.6093 -0.2564 -0.7503
vn 0.9154 0.3848 -0.1177
vn 0.8476 0.2024 -0.4906
vn 0.0009 -0.4240 0.9057
vn 0.0009 -0.2172 0.9761
vn 0.7451 -0.0000 0.6670
vn 0.0009 0.4240 0.9057
vn -0.7437 -0.0000 0.6685
vn -0.9220 -0.3872 0.0009
vn -0.9220 0.3872 0.0009
vn -0.8404 0.0001 -0.5419
vn -0.8447 0.0001 -0.5352
vn -0.0009 -0.2643 -0.9645
vn -0.0008 0.5168 -0.8561
vn 0.8435 0.0001 -0.5372
vn 0.8391 0.0001 -0.5440
vn 0.9219 -0.3875 -0.0009
vn 0.9219 0.3875 -0.0009
vn -0.8307 -0.0000 -0.5567
vn -0.8281 -0.0000 -0.5606
vn 0.8267 -0.0000 -0.5627
vn 0.8293 -0.0000 -0.5589
vn -0.2449 -0.0842 -0.9659
vn -0.1843 0.1432 -0.9724
vn 0.1825 0.1432 -0.9727
vn 0.2432 -0.0842 -0.9663
vn 0.0191 -0.0036 -0.9998
vn -0.0546 0.0566 -0.9969
vn 0.9745 0.2221 -0.0326
vn 0.3915 0.9202 -0.0004
vn -0.0210 -0.0036 -0.9998
vn 0.0003 0.9351 0.3543
vn 0.0527 0.0566 -0.9970
vn 0.9961 -0.0840 0.0274
vn -0.2528 -0.0339 -0.9669
vn 0.2509 -0.0339 -0.9674
vn -0.0009 -0.3770 -0.9262
vn 0.4274 -0.0576 -0.9022
vn -0.4292 -0.0577 -0.9013
vn -0.0003 0.9475 -0.3198
vn -0.9960 -0.0840 0.0293
vn 0.0003 -0.9475 0.3197
vn -0.0003 0.9351 -0.3543
vn -0.3915 0.9202 0.0004
vn -0.0010 0.0023 -1.0000
vn -1.0000 0.0023 0.0010
vn 1.0000 0.0023 -0.0010
vn -0.7368 -0.1372 0.6621
vn -0.7099 -0.2984 0.6379
vn -0.7371 -0.1337 0.6624
vn 0.7383 -0.1338 0.6610
vn 0.7110 -0.2986 0.6366
vn -0.7239 -0.1015 -0.6824
vn -0.7376 -0.1782 -0.6513
vn -0.7491 -0.3143 -0.5831
vn 0.7364 -0.1783 -0.6526
vn 0.7226 -0.1015 -0.6837
vn 0.7481 -0.3144 -0.5844
vn -0.9164 0.3848 -0.1099
vn -0.8953 0.3759 -0.2391
vn -0.9746 0.2220 -0.0306
vn 0.8948 0.3760 -0.2408
vn 0.9162 0.3849 -0.1119
vn -0.7371 0.1337 0.6624
vn -0.7096 0.2984 0.6383
vn -0.7368 0.1372 0.6621
vn 0.7110 0.2986 0.6366
vn 0.7383 0.1338 0.6610
vn -0.0003 0.9494 -0.3140
vn -0.6983 -0.0000 -0.7158
vn 0.6969 -0.0000 -0.7171
vn -0.0008 -0.5432 -0.8396
vn 0.9219 0.3873 -0.0009
vn 0.9219 -0.3874 -0.0009
vn 0.2597 0.9656 0.0130
vn 0.0122 0.9908 -0.1346
vn 0.3933 0.9194 -0.0004
vn -0.2569 0.9663 0.0135
vn -0.0126 0.9908 -0.1346
vn -0.4292 -0.0577 -0.9014
vn 0.0003 -0.9475 0.3198
vn -0.3897 0.9210 0.0004
vn -0.0127 0.9908 -0.1346
vn -0.2571 0.9663 0.0135
vn -1.0000 0.0023 0.0012
vn 1.0000 0.0023 -0.0012
vn -0.9164 0.3848 -0.1098
vn -0.8953 0.3759 -0.2390
vn 0.8948 0.3760 -0.2409
vn 0.9162 0.3849 -0.1118
vn -0.7099 0.2984 0.6379
vn 0.6969 -0.0000 -0.7172
vn -0.0008 -0.5433 -0.8396
vn 0.9219 0.3874 -0.0009
vn -0.9218 0.3876 0.0009
vt 0.604234 0.500538
vt 0.593672 0.500538
vt 0.593672 0.749462
vt 0.604234 0.749462
vt 0.601467 0.742978
vt 0.601467 0.507022
vt 0.601186 0.500417
vt 0.601186 0.749583
vt 0.604705 0.000538
vt 0.601192 0.000538
vt 0.601192 0.249462
vt 0.604705 0.249462
vt 0.611757 0.750538
vt 0.608241 0.750538
vt 0.608241 0.999462
vt 0.611757 0.999462
vt 0.611757 0.250538
vt 0.608241 0.250538
vt 0.608241 0.499462
vt 0.611757 0.499462
vt 0.611479 0.507022
vt 0.611479 0.742977
vt 0.611762 0.749644
vt 0.611762 0.500356
vt 0.608141 0.742978
vt 0.608235 0.749612
vt 0.604804 0.507022
vt 0.604710 0.500408
vt 0.608241 0.000538
vt 0.608241 0.249462
vt 0.604804 0.742977
vt 0.604710 0.749592
vt 0.608141 0.507022
vt 0.608235 0.500388
vt 0.604705 0.750538
vt 0.601192 0.750538
vt 0.601192 0.999462
vt 0.604705 0.999462
vt 0.604705 0.250538
vt 0.604705 0.499462
vt 0.601192 0.250538
vt 0.601192 0.499462
vt 0.625450 0.500538
vt 0.614887 0.500538
vt 0.614887 0.749462
vt 0.625450 0.749462
vt 0.601623 0.739287
vt 0.601623 0.510713
vt 0.604647 0.510713
vt 0.604647 0.739287
vt 0.604961 0.510713
vt 0.607985 0.510713
vt 0.607985 0.739287
vt 0.604961 0.739287
vt 0.608298 0.510713
vt 0.611322 0.510713
vt 0.611322 0.739287
vt 0.608298 0.739287
vt 0.601436 0.530187
vt 0.601426 0.530187
vt 0.601426 0.530410
vt 0.588270 0.530410
vt 0.588270 0.530187
vt 0.588260 0.530187
vt 0.601426 0.427131
vt 0.601436 0.427131
vt 0.601426 0.426908
vt 0.588260 0.427131
vt 0.588270 0.427131
vt 0.588270 0.426908
vt 0.592643 0.426908
vt 0.592643 0.427131
vt 0.592652 0.427081
vt 0.597053 0.427131
vt 0.597053 0.426908
vt 0.597044 0.427056
vt 0.597030 0.530410
vt 0.597035 0.530633
vt 0.597044 0.530633
vt 0.592643 0.530187
vt 0.592643 0.530410
vt 0.592652 0.530237
vt 0.594116 0.219906
vt 0.592662 0.219906
vt 0.592662 0.220129
vt 0.594116 0.220129
vt 0.595580 0.323630
vt 0.597035 0.323630
vt 0.597035 0.323184
vt 0.595580 0.323184
vt 0.595578 0.427069
vt 0.597038 0.427056
vt 0.597035 0.426686
vt 0.595580 0.426686
vt 0.597053 0.530187
vt 0.597038 0.530262
vt 0.592659 0.530237
vt 0.592659 0.427081
vt 0.595580 0.530633
vt 0.595578 0.530249
vt 0.597053 0.530410
vt 0.597035 0.219906
vt 0.595580 0.219906
vt 0.595580 0.220129
vt 0.597035 0.220129
vt 0.592662 0.323630
vt 0.594116 0.323630
vt 0.594116 0.323184
vt 0.592662 0.323184
vt 0.594118 0.427077
vt 0.594116 0.426686
vt 0.592662 0.426686
vt 0.592662 0.530633
vt 0.594116 0.530633
vt 0.594118 0.530241
vt 0.611757 0.000538
vt 0.611757 0.249462
vt 0.602168 0.535371
vt 0.601165 0.535371
vt 0.601165 0.714629
vt 0.602168 0.714629
vt 0.607735 0.738808
vt 0.607735 0.511192
vt 0.604711 0.515583
vt 0.604711 0.734417
vt 0.607715 0.511192
vt 0.607715 0.738808
vt 0.604732 0.738808
vt 0.604732 0.511192
vt 0.603794 0.530822
vt 0.604641 0.510873
vt 0.601630 0.510873
vt 0.602477 0.530822
vt 0.613996 0.739287
vt 0.616979 0.739287
vt 0.604711 0.513676
vt 0.604711 0.511192
vt 0.603794 0.719178
vt 0.604641 0.739127
vt 0.621310 0.736324
vt 0.621310 0.738808
vt 0.621310 0.511192
vt 0.621310 0.513676
vt 0.602477 0.719178
vt 0.601630 0.739127
vt 0.593259 0.441552
vt 0.593193 0.439669
vt 0.593193 0.517649
vt 0.593259 0.515766
vt 0.593674 0.441552
vt 0.593739 0.439669
vt 0.593739 0.517649
vt 0.593674 0.515766
vt 0.615620 0.537322
vt 0.615744 0.533729
vt 0.606866 0.716271
vt 0.606882 0.719178
vt 0.606882 0.530822
vt 0.606866 0.533729
vt 0.606742 0.537322
vt 0.606725 0.535371
vt 0.606725 0.714629
vt 0.606742 0.712678
vt 0.615620 0.712678
vt 0.615744 0.716271
vt 0.604711 0.738808
vt 0.604711 0.736324
vt 0.607715 0.510713
vt 0.607715 0.739287
vt 0.594084 0.431344
vt 0.594089 0.431410
vt 0.594092 0.431542
vt 0.574100 0.525908
vt 0.574094 0.525974
vt 0.574103 0.525776
vt 0.592840 0.431542
vt 0.592843 0.431410
vt 0.592849 0.431344
vt 0.592843 0.525908
vt 0.592840 0.525776
vt 0.592849 0.525974
vt 0.604732 0.510713
vt 0.604732 0.739287
vt 0.594084 0.525974
vt 0.594089 0.525908
vt 0.594092 0.525776
vt 0.595938 0.739287
vt 0.595917 0.738808
vt 0.594712 0.510713
vt 0.594692 0.511192
vt 0.597716 0.511192
vt 0.597695 0.510713
vt 0.577420 0.738808
vt 0.577399 0.739287
vt 0.616979 0.510713
vt 0.613996 0.510713
vt 0.600024 0.535371
vt 0.599020 0.535371
vt 0.599020 0.714629
vt 0.600024 0.714629
vt 0.626714 0.736324
vt 0.626714 0.738808
vt 0.626714 0.511192
vt 0.626714 0.513676
s 1
usemtl Material.001
f 34/1/1 31/2/1 25/3/1 42/4/1
f 10/5/2 9/6/2 35/7/2 44/8/2
f 47/9/3 26/10/4 30/11/4 50/12/3
f 40/13/5 60/14/6 45/15/6 23/16/5
f 29/17/7 52/18/8 55/19/8 37/20/7
f 18/21/2 19/22/2 39/23/9 38/24/9
f 19/22/2 20/25/2 59/26/2 39/23/9
f 9/6/2 13/27/2 53/28/2 35/7/2
f 46/29/3 47/9/3 50/12/3 51/30/3
f 15/31/2 10/5/2 44/8/2 58/32/2
f 17/33/2 18/21/2 38/24/9 56/34/2
f 20/25/2 15/31/2 58/32/2 59/26/2
f 57/35/6 43/36/10 24/37/11 48/38/6
f 52/18/8 49/39/8 54/40/8 55/19/8
f 49/39/8 32/41/12 33/42/13 54/40/8
f 13/27/2 17/33/2 56/34/2 53/28/2
f 27/43/14 36/44/14 41/45/14 22/46/14
f 60/14/6 57/35/6 48/38/6 45/15/6
f 2/47/2 4/48/2 9/6/2 10/5/2
f 4/48/2 5/49/2 13/27/2 9/6/2
f 7/50/2 2/47/2 10/5/2 15/31/2
f 5/49/2 7/50/2 15/31/2 13/27/2
f 11/51/2 6/52/2 17/33/2 13/27/2
f 8/53/2 12/54/2 15/31/2 20/25/2
f 6/52/2 8/53/2 20/25/2 17/33/2
f 12/54/2 11/51/2 13/27/2 15/31/2
f 14/55/2 3/56/2 18/21/2 17/33/2
f 3/56/2 1/57/2 19/22/2 18/21/2
f 1/57/2 16/58/2 20/25/2 19/22/2
f 16/58/2 14/55/2 17/33/2 20/25/2
f 21/59/15 22/60/16 23/61/17
f 24/62/18 25/63/19 26/64/20
f 27/65/21 28/66/22 29/67/23
f 30/68/24 31/69/25 32/70/26
f 33/71/13 34/72/27 35/73/28
f 36/74/29 37/75/30 38/76/31
f 39/77/32 40/78/33 41/79/34
f 42/80/35 43/81/10 44/82/36
f 27/65/37 22/60/37 21/59/38 28/66/38
f 48/83/39 24/84/18 26/85/20 47/86/39
f 25/63/40 31/69/40 30/68/4 26/64/4
f 52/87/41 29/88/23 28/89/22 51/90/41
f 36/74/42 27/65/42 29/67/7 37/75/7
f 31/69/43 34/72/27 33/71/13 32/70/12
f 56/91/44 38/92/31 37/93/30 55/94/45
f 41/95/46 36/74/46 38/92/9 39/96/9
f 34/72/47 42/80/47 44/97/47 35/98/47
f 60/99/48 40/78/33 39/96/32 59/100/49
f 22/60/50 41/95/50 40/101/5 23/61/5
f 42/80/35 25/63/51 24/62/11 43/81/10
f 23/102/17 45/103/39 46/104/39 21/105/15
f 45/103/39 48/83/39 47/86/39 46/104/39
f 32/106/26 49/107/41 50/108/41 30/109/24
f 49/107/41 52/87/41 51/90/41 50/108/41
f 35/98/28 53/110/52 54/111/53 33/112/13
f 53/110/52 56/91/44 55/94/45 54/111/53
f 43/113/10 57/114/54 58/115/55 44/97/36
f 57/114/54 60/99/48 59/100/49 58/115/55
f 21/116/38 46/29/3 51/30/3 28/117/38
f 75/118/56 62/119/57 61/120/58 76/121/59
f 95/122/14 89/122/14 87/123/14 92/123/14
f 67/124/1 65/124/1 66/125/1 68/125/1
f 86/126/38 90/127/38 108/128/4 103/129/4
f 73/130/60 93/131/2 99/132/2 69/133/61
f 101/134/62 107/134/11 88/135/5 96/135/5
f 81/136/63 97/137/63 105/137/63 83/136/63
f 74/138/64 94/139/2 93/131/2 73/130/60
f 82/140/65 102/141/65 97/142/65 81/143/65
f 70/144/66 100/145/2 94/139/2 74/138/64
f 62/146/57 69/147/61 70/148/66 61/149/58
f 75/150/56 73/151/60 69/147/61 62/146/57
f 61/149/58 70/148/66 74/152/64 76/153/59
f 63/154/67 79/154/67 77/155/67 71/155/67
f 72/156/68 74/157/64 73/158/60 71/159/69
f 63/160/70 75/161/56 76/162/59 64/163/70
f 71/159/69 73/158/60 75/161/71 63/160/71
f 64/163/72 76/162/72 74/157/64 72/156/68
f 80/164/2 78/165/2 77/155/2 79/154/2
f 71/159/73 77/159/73 78/156/73 72/156/73
f 72/165/74 78/165/74 80/164/74 64/164/74
f 64/164/75 80/164/75 79/154/75 63/154/75
f 69/133/61 99/132/2 100/145/2 70/144/66
f 83/136/76 105/137/76 106/166/76 84/167/76
f 84/167/77 106/166/77 102/166/77 82/167/77
f 65/124/78 83/136/78 84/167/78 66/125/78
f 66/125/79 84/167/79 82/167/79 68/125/79
f 67/124/80 81/136/80 83/136/80 65/124/80
f 85/168/81 87/123/82 86/126/83
f 88/169/17 90/127/84 89/122/85
f 91/170/86 93/171/87 92/172/88
f 94/173/89 96/174/90 95/175/91
f 97/176/92 99/177/93 98/178/94
f 100/179/95 102/180/96 101/181/62
f 103/129/97 105/137/98 104/182/99
f 106/166/100 108/128/101 107/183/18
f 99/177/102 97/176/102 102/180/102 100/179/102
f 98/178/103 99/177/103 93/171/87 91/170/86
f 100/179/104 101/181/104 96/184/90 94/185/89
f 92/172/105 93/171/105 94/185/105 95/186/105
f 105/137/40 103/129/4 108/128/4 106/166/40
f 103/129/97 104/182/99 85/168/81 86/126/83
f 107/183/18 108/128/101 90/127/84 88/169/17
f 86/126/38 87/123/37 89/122/37 90/127/38
f 101/187/62 102/188/96 106/188/106 107/187/11
f 104/189/12 105/190/43 97/190/92 98/189/94
f 87/191/42 85/192/7 91/192/7 92/191/42
f 95/193/107 96/194/5 88/194/5 89/193/107
f 91/195/7 85/195/7 104/196/12 98/196/94
f 123/197/56 110/198/57 109/199/58 124/200/59
f 143/122/14 137/122/14 135/123/14 140/123/14
f 115/124/1 113/124/1 114/125/1 116/125/1
f 134/126/38 138/127/38 156/128/4 151/129/4
f 121/130/60 141/131/2 147/132/2 117/133/61
f 149/134/62 155/134/11 136/135/5 144/135/5
f 129/136/108 145/137/109 153/137/110 131/136/110
f 122/138/64 142/139/2 141/131/2 121/130/60
f 130/201/111 150/202/112 145/203/109 129/204/108
f 118/144/66 148/145/2 142/139/2 122/138/64
f 110/146/57 117/147/61 118/148/66 109/149/58
f 123/150/56 121/151/60 117/147/61 110/146/57
f 109/149/58 118/148/66 122/152/64 124/153/59
f 111/154/67 127/154/67 125/155/67 119/155/67
f 120/156/68 122/157/64 121/158/60 119/159/69
f 111/160/70 123/161/56 124/162/59 112/163/70
f 119/159/69 121/158/60 123/161/71 111/160/71
f 112/163/113 124/162/113 122/157/64 120/156/68
f 128/164/2 126/165/2 125/155/2 127/154/2
f 119/159/73 125/159/73 126/156/73 120/156/73
f 120/165/74 126/165/74 128/164/74 112/164/74
f 112/164/114 128/164/114 127/154/114 111/154/114
f 117/133/61 147/132/2 148/145/2 118/144/66
f 131/136/76 153/137/76 154/166/76 132/167/76
f 132/167/115 154/166/115 150/166/116 130/167/117
f 113/124/78 131/136/78 132/167/78 114/125/78
f 114/125/118 132/167/118 130/167/118 116/125/118
f 115/124/119 129/136/119 131/136/119 113/124/119
f 133/168/81 135/123/82 134/126/83
f 136/169/17 138/127/84 137/122/85
f 139/170/86 141/171/87 140/172/88
f 142/185/89 144/184/90 143/186/91
f 145/176/120 147/177/121 146/178/94
f 148/179/122 150/180/123 149/181/62
f 151/129/97 153/137/124 152/182/99
f 154/166/100 156/128/101 155/183/18
f 147/177/102 145/176/109 150/180/112 148/179/102
f 146/178/103 147/177/103 141/171/87 139/170/86
f 148/179/125 149/181/125 144/184/90 142/185/89
f 140/172/126 141/171/126 142/185/126 143/186/126
f 153/137/40 151/129/4 156/128/4 154/166/40
f 151/129/97 152/182/99 133/168/81 134/126/83
f 155/183/18 156/128/101 138/127/84 136/169/17
f 134/126/38 135/123/37 137/122/37 138/127/38
f 149/181/62 150/180/123 154/180/127 155/181/11
f 152/178/12 153/176/128 145/176/120 146/178/94
f 135/172/42 133/170/7 139/170/7 140/172/42
f 143/186/107 144/184/5 136/184/5 137/186/107
f 139/195/7 133/195/7 152/196/12 146/196/94
f 14/55/2 16/58/2 1/57/2 3/56/2
