# Blender 4.2.3 LTS
# www.blender.org
mtllib CoffeeLiquid.mtl
o CoffeeLiquid
v 0.000000 0.014367 -0.000000
v 0.023029 0.014367 -0.055597
v 0.024468 0.017037 -0.059070
v 0.000000 0.017037 -0.063937
v 0.000000 0.014367 -0.060177
v 0.042552 0.014367 -0.042552
v 0.045210 0.017037 -0.045210
v 0.055597 0.014367 -0.023029
v 0.059070 0.017037 -0.024468
v 0.060177 0.014367 -0.000000
v 0.063937 0.017037 -0.000000
v 0.055597 0.014367 0.023029
v 0.059070 0.017037 0.024468
v 0.042552 0.014367 0.042552
v 0.045210 0.017037 0.045210
v 0.023029 0.014367 0.055597
v 0.024468 0.017037 0.059070
v 0.000000 0.014367 0.060177
v 0.000000 0.017037 0.063937
v -0.023029 0.014367 0.055597
v -0.024468 0.017037 0.059070
v -0.042552 0.014367 0.042552
v -0.045210 0.017037 0.045210
v -0.055597 0.014367 0.023029
v -0.059070 0.017037 0.024468
v -0.060177 0.014367 -0.000000
v -0.063937 0.017037 -0.000000
v -0.055597 0.014367 -0.023029
v -0.059070 0.017037 -0.024468
v -0.042552 0.014367 -0.042552
v -0.045210 0.017037 -0.045210
v -0.023029 0.014367 -0.055597
v -0.024468 0.017037 -0.059070
vn -0.1291 0.9413 0.3118
vn -0.0000 0.9413 0.3375
vn -0.0000 1.0000 -0.0000
vn -0.2386 0.9413 0.2386
vn -0.2216 0.8154 0.5349
vn -0.0000 0.8154 0.5789
vn -0.4094 0.8153 0.4094
vn -0.5349 0.8154 0.2216
vn -0.3118 0.9413 0.1291
vn -0.5789 0.8154 -0.0000
vn -0.3375 0.9413 -0.0000
vn -0.5349 0.8154 -0.2216
vn -0.3118 0.9413 -0.1291
vn -0.4094 0.8153 -0.4094
vn -0.2386 0.9413 -0.2386
vn -0.2216 0.8154 -0.5349
vn -0.1291 0.9413 -0.3118
vn -0.0000 0.8154 -0.5789
vn -0.0000 0.9413 -0.3375
vn 0.2216 0.8154 -0.5349
vn 0.1291 0.9413 -0.3118
vn 0.4094 0.8153 -0.4094
vn 0.2386 0.9413 -0.2386
vn 0.5349 0.8154 -0.2216
vn 0.3118 0.9413 -0.1291
vn 0.5789 0.8154 -0.0000
vn 0.3375 0.9413 -0.0000
vn 0.5349 0.8154 0.2216
vn 0.3118 0.9413 0.1291
vn 0.4094 0.8153 0.4094
vn 0.2386 0.9413 0.2386
vn 0.2216 0.8154 0.5349
vn 0.1291 0.9413 0.3118
vt 0.036762 0.834625
vt 0.030495 0.862191
vt 0.030495 0.500000
vt 0.042076 0.756110
vt 0.037154 0.855529
vt 0.030495 0.884822
vt 0.042799 0.772108
vt 0.046572 0.647267
vt 0.045626 0.638606
vt 0.047896 0.500000
vt 0.046872 0.500000
vt 0.046572 0.352733
vt 0.045626 0.361394
vt 0.042799 0.227892
vt 0.042076 0.243890
vt 0.037154 0.144472
vt 0.036762 0.165375
vt 0.030495 0.115178
vt 0.030495 0.137809
vt 0.023836 0.144472
vt 0.024228 0.165375
vt 0.018191 0.227892
vt 0.018914 0.243890
vt 0.014419 0.352733
vt 0.015364 0.361394
vt 0.013094 0.500000
vt 0.014118 0.500000
vt 0.014419 0.647267
vt 0.015364 0.638606
vt 0.018191 0.772108
vt 0.018914 0.756110
vt 0.023836 0.855529
vt 0.024228 0.834625
s 1
usemtl Cup
f 2/1/1 5/2/2 1/3/3 6/4/4
f 3/5/5 4/6/6 5/2/2 2/1/1
f 7/7/7 3/5/5 2/1/1 6/4/4
f 9/8/8 7/7/7 6/4/4 8/9/9
f 11/10/10 9/8/8 8/9/9 10/11/11
f 13/12/12 11/10/10 10/11/11 12/13/13
f 15/14/14 13/12/12 12/13/13 14/15/15
f 17/16/16 15/14/14 14/15/15 16/17/17
f 19/18/18 17/16/16 16/17/17 18/19/19
f 21/20/20 19/18/18 18/19/19 20/21/21
f 23/22/22 21/20/20 20/21/21 22/23/23
f 25/24/24 23/22/22 22/23/23 24/25/25
f 27/26/26 25/24/24 24/25/25 26/27/27
f 29/28/28 27/26/26 26/27/27 28/29/29
f 31/30/30 29/28/28 28/29/29 30/31/31
f 33/32/32 31/30/30 30/31/31 32/33/33
f 4/6/6 33/32/32 32/33/33 5/2/2
f 18/19/19 1/3/3 22/23/23 20/21/21
f 10/11/11 1/3/3 14/15/15 12/13/13
f 26/27/27 1/3/3 30/31/31 28/29/29
f 6/4/4 1/3/3 10/11/11 8/9/9
f 22/23/23 1/3/3 26/27/27 24/25/25
f 14/15/15 1/3/3 18/19/19 16/17/17
f 30/31/31 1/3/3 5/2/2 32/33/33
