# Blender 4.2.1 LTS
# www.blender.org
mtllib Libro5.mtl
o Libro.004
v 0.021061 -0.121577 -0.101427
v -0.021061 -0.121577 -0.101427
v -0.021061 0.121589 -0.101427
v 0.021061 0.121589 -0.101427
v 0.021061 0.121589 0.073373
v -0.021061 0.121589 0.073373
v -0.021061 -0.121577 0.073374
v 0.021061 -0.121577 0.073374
v 0.020795 -0.114438 -0.090501
v -0.020796 -0.114438 -0.090501
v -0.020796 0.114396 -0.090501
v 0.020795 0.114396 -0.090501
v 0.020795 0.114396 0.072549
v -0.020796 0.114396 0.072549
v -0.020796 -0.114438 0.072549
v 0.020795 -0.114438 0.072549
v -0.032597 -0.119542 0.081535
v -0.030505 -0.121577 0.081721
v -0.030562 -0.119542 0.083570
v -0.032597 0.119554 0.081535
v -0.030562 0.119554 0.083570
v -0.030505 0.121589 0.081721
v -0.032597 -0.119542 -0.099393
v -0.030509 -0.121577 -0.101427
v -0.032597 0.119554 -0.099393
v -0.030509 0.121589 -0.101427
v 0.032597 -0.119542 0.081535
v 0.030562 -0.119542 0.083570
v 0.030505 -0.121577 0.081721
v 0.032597 0.119554 0.081535
v 0.030505 0.121589 0.081721
v 0.030562 0.119554 0.083570
v 0.032597 -0.119542 -0.099393
v 0.030509 -0.121577 -0.101427
v 0.032597 0.119554 -0.099393
v 0.030509 0.121589 -0.101427
vn 0.3380 0.8681 0.3635
vn -0.0000 1.0000 -0.0000
vn -0.3380 0.8681 0.3635
vn -0.3380 -0.8681 0.3635
vn -0.0000 -1.0000 -0.0000
vn 0.3380 -0.8681 0.3635
vn -0.0000 -0.7071 -0.7071
vn 0.3871 -0.6520 -0.6519
vn 0.3871 0.6520 -0.6519
vn -0.0000 0.7071 -0.7071
vn -0.3871 -0.6520 -0.6519
vn -0.3871 0.6520 -0.6519
vn -0.8772 -0.3419 0.3372
vn -0.8772 0.3419 0.3372
vn -0.9020 0.3054 -0.3053
vn -0.9020 -0.3054 -0.3053
vn 0.9020 -0.3054 -0.3053
vn 0.9020 0.3054 -0.3053
vn 0.8772 0.3419 0.3372
vn 0.8772 -0.3419 0.3372
vn -0.0000 -0.1147 -0.9934
vn -0.9998 0.0137 -0.0153
vn -0.9998 -0.0137 -0.0153
vn -0.9997 -0.0202 -0.0111
vn -0.9997 0.0200 -0.0111
vn -0.0000 0.1139 -0.9935
vn 0.9993 -0.0371 -0.0000
vn 0.9998 -0.0137 -0.0153
vn 0.9997 -0.0202 -0.0111
vn -0.9993 0.0369 -0.0000
vn 0.9998 0.0137 -0.0153
vn 0.9997 0.0200 -0.0111
vn -0.9993 -0.0371 -0.0000
vn 0.9993 0.0369 -0.0000
vn -0.3455 -0.3241 0.8807
vn -0.3455 0.3241 0.8807
vn 0.3455 -0.3241 0.8807
vn 0.3455 0.3241 0.8807
vt 0.263573 0.432750
vt 0.263757 0.434102
vt 0.263732 0.439999
vt 0.263537 0.441290
vt 0.258735 0.440818
vt 0.258548 0.439482
vt 0.258559 0.433582
vt 0.258751 0.432272
vt 0.258348 0.408139
vt 0.258551 0.408075
vt 0.258539 0.431233
vt 0.263700 0.408112
vt 0.263906 0.408152
vt 0.263786 0.431667
vt 0.258632 0.464826
vt 0.263719 0.464870
vt 0.263718 0.466088
vt 0.258632 0.466043
vt 0.263916 0.464812
vt 0.263743 0.442307
vt 0.258551 0.406843
vt 0.263700 0.406879
vt 0.258800 0.441026
vt 0.263474 0.441494
vt 0.263655 0.464497
vt 0.258696 0.464434
vt 0.258431 0.464793
vt 0.258530 0.441880
vt 0.258616 0.408455
vt 0.263634 0.408510
vt 0.263506 0.432530
vt 0.258817 0.432058
vt 0.258385 0.439434
vt 0.258395 0.433608
vt 0.258702 0.405418
vt 0.263548 0.405453
vt 0.263922 0.434166
vt 0.263897 0.439988
vt 0.766206 0.350739
vt 0.766206 0.649261
vt 0.765142 0.649261
vt 0.765142 0.350739
vt 0.765142 0.138035
vt 0.766206 0.138035
vt 0.766206 0.861965
vt 0.765142 0.861965
vt 0.258285 0.463336
vt 0.258377 0.441963
vt 0.264056 0.409653
vt 0.263943 0.431587
vt 0.263568 0.467495
vt 0.258781 0.467453
vt 0.258385 0.431172
vt 0.258207 0.409631
vt 0.263894 0.442369
vt 0.264056 0.463362
vt 0.258800 0.440667
vt 0.263474 0.441134
vt 0.258818 0.432426
vt 0.263505 0.432899
s 1
usemtl OficeMaterial
f 31/1/1 5/2/2 6/3/2 22/4/3
f 18/5/4 7/6/5 8/7/5 29/8/6
f 1/9/7 34/10/8 29/8/6 8/11/5
f 36/12/9 4/13/10 5/14/2 31/1/1
f 24/15/11 26/16/12 3/17/10 2/18/7
f 3/19/10 26/16/12 22/4/3 6/20/2
f 1/21/7 4/22/10 36/12/9 34/10/8
f 17/23/13 20/24/14 25/25/15 23/26/16
f 24/15/11 2/27/7 7/28/5 18/5/4
f 33/29/17 35/30/18 30/31/19 27/32/20
f 8/7/21 7/6/21 15/33/21 16/34/21
f 4/22/22 1/21/23 9/35/24 12/36/25
f 6/3/26 5/2/26 13/37/26 14/38/26
f 10/39/7 11/40/10 12/41/10 9/42/7
f 10/39/7 9/42/7 16/43/5 15/44/5
f 12/41/10 11/40/10 14/45/2 13/46/2
f 7/28/27 2/27/28 10/47/29 15/48/27
f 5/14/30 4/13/22 12/49/25 13/50/30
f 2/18/28 3/17/31 11/51/32 10/52/29
f 1/9/23 8/11/33 16/53/33 9/54/24
f 3/19/31 6/20/34 14/55/34 11/56/32
f 17/23/13 18/5/4 19/57/35
f 20/24/14 21/58/36 22/4/3
f 27/32/20 28/59/37 29/8/6
f 30/31/19 31/1/1 32/60/38
f 19/57/35 21/58/36 20/24/14 17/23/13
f 26/16/12 24/15/11 23/26/16 25/25/15
f 35/30/18 33/29/17 34/10/8 36/12/9
f 32/60/38 28/59/37 27/32/20 30/31/19
f 18/5/4 29/8/6 28/59/37 19/57/35
f 31/1/1 22/4/3 21/58/36 32/60/38
f 24/15/11 18/5/4 17/23/13 23/26/16
f 22/4/3 26/16/12 25/25/15 20/24/14
f 29/8/6 34/10/8 33/29/17 27/32/20
f 36/12/9 31/1/1 30/31/19 35/30/18
f 32/60/38 21/58/36 19/57/35 28/59/37
