# Blender 4.2.1 LTS
# www.blender.org
mtllib lUZoFICINA.mtl.mtl
o Cube.003
v -0.048903 -0.035857 0.729614
v -0.045358 -0.038563 0.728120
v -0.045968 -0.036197 0.732432
v -0.055000 0.011437 0.746983
v -0.052160 0.011437 0.750000
v -0.045358 -0.038563 -0.728120
v -0.048903 -0.035857 -0.729614
v -0.045968 -0.036197 -0.732432
v -0.052160 0.011437 -0.750000
v -0.055000 0.011437 -0.746983
v 0.045358 -0.038563 0.728120
v 0.048903 -0.035857 0.729614
v 0.045968 -0.036197 0.732432
v 0.052160 0.011437 0.750000
v 0.055000 0.011437 0.746983
v 0.045358 -0.038563 -0.728120
v 0.045968 -0.036197 -0.732432
v 0.048903 -0.035857 -0.729614
v 0.055000 0.011437 -0.746983
v 0.052160 0.011437 -0.750000
v -0.055000 -0.013563 0.743824
v -0.052159 -0.013563 0.746849
v -0.055000 -0.013563 -0.743824
v -0.052159 -0.013563 -0.746849
v 0.052159 -0.013563 -0.746849
v 0.055000 -0.013563 -0.743824
v 0.055000 -0.013563 0.743824
v 0.052159 -0.013563 0.746849
v -0.060095 0.004633 0.754243
v -0.060095 0.007244 0.756854
v -0.062706 0.007244 0.754243
v -0.062706 0.040233 0.754243
v -0.060095 0.040233 0.756854
v -0.060095 0.004633 -0.754243
v -0.062706 0.007244 -0.754243
v -0.060095 0.007244 -0.756854
v -0.060095 0.040233 -0.756854
v -0.062706 0.040233 -0.754243
v 0.060095 0.004633 0.754243
v 0.062706 0.007244 0.754243
v 0.060095 0.007244 0.756854
v 0.060095 0.040233 0.756854
v 0.062706 0.040233 0.754243
v 0.060095 0.004633 -0.754243
v 0.060095 0.007244 -0.756854
v 0.062706 0.007244 -0.754243
v 0.062706 0.040233 -0.754243
v 0.060095 0.040233 -0.756854
vn -0.2744 -0.7159 -0.6421
vn -0.0000 -0.3229 -0.9464
vn 0.2744 -0.7159 -0.6421
vn 0.9646 -0.2638 -0.0000
vn 0.9950 -0.0998 -0.0000
vn -0.9950 -0.0998 -0.0000
vn -1.0000 -0.0000 -0.0000
vn 0.2744 -0.7159 0.6421
vn -0.0000 -0.3229 0.9464
vn -0.2744 -0.7159 0.6421
vn -0.0000 -0.1251 0.9921
vn 1.0000 -0.0000 -0.0000
vn -0.0000 -0.1251 -0.9921
vn -0.2759 -0.9392 -0.2041
vn 0.2759 -0.9392 -0.2041
vn 0.2759 -0.9392 0.2041
vn -0.2759 -0.9392 0.2041
vn -0.5877 -0.7322 0.3443
vn -0.5877 -0.7322 -0.3443
vn 0.5877 -0.7322 0.3443
vn 0.5877 -0.7322 -0.3443
vn -0.6963 -0.2955 0.6541
vn -0.7258 -0.0862 0.6825
vn -0.6848 -0.3430 0.6430
vn -0.6963 -0.2955 -0.6541
vn -0.6848 -0.3430 -0.6430
vn 0.6848 -0.3430 -0.6430
vn 0.6963 -0.2955 -0.6541
vn 0.6963 -0.2955 0.6541
vn 0.6848 -0.3430 0.6430
vn -0.7258 -0.0862 -0.6825
vn 0.7258 -0.0862 -0.6825
vn 0.7258 -0.0862 0.6825
vn -0.9646 -0.2638 -0.0000
vn -0.0000 -0.0000 1.0000
vn -0.0000 -0.0000 -1.0000
vn -0.5774 -0.5773 0.5774
vn -0.5774 -0.5773 -0.5774
vn 0.5774 -0.5773 0.5774
vn 0.5774 -0.5773 -0.5774
vn -0.7071 -0.7071 -0.0000
vn -0.7071 -0.0000 0.7071
vn -0.7071 -0.0000 -0.7071
vn -0.0000 -0.7071 -0.7071
vn 0.7071 -0.0000 -0.7071
vn 0.7071 -0.7071 -0.0000
vn 0.7071 -0.0000 0.7071
vn -0.0000 -0.7071 0.7071
vn -0.0000 -1.0000 -0.0000
vt 0.390889 0.472592
vt 0.391062 0.470705
vt 0.391062 0.502535
vt 0.390889 0.500647
vt 0.390855 0.501542
vt 0.391025 0.503401
vt 0.373148 0.503401
vt 0.373319 0.501542
vt 0.373148 0.469835
vt 0.373110 0.469835
vt 0.391063 0.469835
vt 0.391025 0.469835
vt 0.373285 0.500647
vt 0.373111 0.502535
vt 0.373111 0.470705
vt 0.373285 0.472592
vt 0.373074 0.502535
vt 0.373074 0.470702
vt 0.391063 0.503401
vt 0.373110 0.503401
vt 0.391100 0.470702
vt 0.391100 0.502535
vt 0.390837 0.472779
vt 0.390837 0.500461
vt 0.373336 0.500461
vt 0.373336 0.472779
vt 0.373319 0.471697
vt 0.390855 0.471697
vt 0.759727 0.493897
vt 0.759720 0.461326
vt 0.780482 0.492992
vt 0.759763 0.494600
vt 0.780511 0.459713
vt 0.780517 0.492284
vt 0.759756 0.460616
vt 0.780475 0.459008
vt 0.759756 0.461324
vt 0.780475 0.459716
vt 0.759762 0.493895
vt 0.780482 0.492287
s 1
usemtl MaterialGoogaz
f 8/1/1 24/2/2 25/3/2 17/4/3
f 18/5/4 26/6/5 27/7/5 12/8/4
f 21/9/6 4/10/7 10/11/7 23/12/6
f 13/13/8 28/14/9 22/15/9 3/16/10
f 28/14/9 14/17/11 5/18/11 22/15/9
f 26/6/5 19/19/12 15/20/12 27/7/5
f 24/2/2 9/21/13 20/22/13 25/3/2
f 6/23/14 16/24/15 11/25/16 2/26/17
f 1/27/18 2/26/17 3/16/10
f 6/23/14 7/28/19 8/1/1
f 11/25/16 12/8/20 13/13/8
f 16/24/15 17/4/3 18/5/21
f 6/23/14 2/26/17 1/27/18 7/28/19
f 22/15/22 5/18/23 4/10/23 21/9/24
f 24/2/25 8/1/1 7/28/19 23/12/26
f 16/24/15 6/23/14 8/1/1 17/4/3
f 26/6/27 18/5/21 17/4/3 25/3/28
f 11/25/16 16/24/15 18/5/21 12/8/20
f 28/14/29 13/13/8 12/8/20 27/7/30
f 2/26/17 11/25/16 13/13/8 3/16/10
f 3/16/10 22/15/22 21/9/24 1/27/18
f 9/21/31 24/2/25 23/12/26 10/11/31
f 19/19/32 26/6/27 25/3/28 20/22/32
f 14/17/33 28/14/29 27/7/30 15/20/33
f 1/27/34 21/9/6 23/12/6 7/28/34
f 41/29/35 42/29/35 33/30/35 30/30/35
f 46/31/12 47/31/12 43/32/12 40/32/12
f 36/33/36 37/33/36 48/34/36 45/34/36
f 31/35/7 32/35/7 38/36/7 35/36/7
f 29/37/37 30/30/37 31/35/37
f 34/38/38 35/36/38 36/33/38
f 39/39/39 40/32/39 41/29/39
f 44/40/40 45/34/40 46/31/40
f 34/38/41 29/37/41 31/35/41 35/36/41
f 30/30/42 33/30/42 32/35/42 31/35/42
f 37/33/43 36/33/43 35/36/43 38/36/43
f 44/40/44 34/38/44 36/33/44 45/34/44
f 47/31/45 46/31/45 45/34/45 48/34/45
f 39/39/46 44/40/46 46/31/46 40/32/46
f 42/29/47 41/29/47 40/32/47 43/32/47
f 29/37/48 39/39/48 41/29/48 30/30/48
f 34/38/49 44/40/49 39/39/49 29/37/49
