# Blender 4.2.3 LTS
# www.blender.org
mtllib OfficeBookshelf2.mtl
o OfficeBookshelf.002
v -0.335863 0.238554 0.231153
v -0.335863 0.241809 0.225681
v 0.335859 0.238554 0.231153
v 0.335859 0.241809 0.225681
v 0.335859 0.241809 -0.116302
v -0.335863 0.241809 -0.116302
v -0.335863 0.218371 0.231153
v -0.335863 0.215115 0.225681
v 0.335859 0.215115 0.225681
v 0.335859 0.218371 0.231153
v 0.335859 0.215115 -0.116302
v -0.335863 0.215115 -0.116302
v -0.335863 0.532186 0.231153
v -0.335863 0.535442 0.225681
v 0.335859 0.532186 0.231153
v 0.335859 0.535442 0.225681
v 0.335859 0.535442 -0.116302
v -0.335863 0.535442 -0.116302
v -0.335863 0.512003 0.231153
v -0.335863 0.508748 0.225681
v 0.335859 0.508748 0.225681
v 0.335859 0.512003 0.231153
v 0.335859 0.508748 -0.116302
v -0.335863 0.508748 -0.116302
v -0.335863 0.825819 0.231153
v -0.335863 0.829074 0.225681
v 0.335859 0.825819 0.231153
v 0.335859 0.829074 0.225681
v 0.335859 0.829074 -0.116302
v -0.335863 0.829074 -0.116302
v -0.335863 0.805636 0.231153
v -0.335863 0.802380 0.225681
v 0.335859 0.802380 0.225681
v 0.335859 0.805636 0.231153
v 0.335859 0.802380 -0.116302
v -0.335863 0.802380 -0.116302
v -0.335863 1.119451 0.231153
v -0.335863 1.122707 0.225681
v 0.335859 1.119451 0.231153
v 0.335859 1.122707 0.225681
v 0.335859 1.122707 -0.116302
v -0.335863 1.122707 -0.116302
v -0.335863 1.099268 0.231153
v -0.335863 1.096013 0.225681
v 0.335859 1.096013 0.225681
v 0.335859 1.099268 0.231153
v 0.335859 1.096013 -0.116302
v -0.335863 1.096013 -0.116302
v -0.328352 1.334774 -0.108942
v -0.325112 1.334774 -0.116302
v -0.325112 1.339152 -0.108942
v 0.328403 1.334847 -0.108943
v 0.325163 1.339227 -0.108943
v 0.325109 1.334774 -0.116302
v 0.325163 0.026306 -0.108943
v 0.328403 0.030685 -0.108943
v 0.325109 0.030759 -0.116302
v -0.325167 0.026306 -0.108943
v -0.325112 0.030759 -0.116302
v -0.328407 0.030685 -0.108943
v -0.327764 0.022794 0.238354
v -0.330995 0.027174 0.238333
v -0.334354 0.018266 0.245713
v -0.328361 1.334774 0.232222
v -0.325112 1.339170 0.232231
v -0.331503 1.343413 0.240449
v -0.352895 0.001241 -0.245713
v -0.352895 1.364291 -0.245713
v -0.349656 1.368687 -0.245713
v 0.334010 0.018161 0.244763
v 0.331001 0.027174 0.238354
v 0.327761 0.022794 0.238354
v 0.331001 1.338359 0.238354
v 0.334155 1.347002 0.245713
v 0.327761 1.342720 0.238323
v 0.350184 -0.002419 -0.245713
v 0.346945 1.372313 -0.245713
v 0.350184 1.367951 -0.245713
v -0.350228 0.001241 0.238354
v -0.346899 0.001308 0.245713
v -0.346989 1.368670 0.238353
v -0.350228 1.364291 0.238354
v -0.347016 1.364382 0.244819
v 0.346945 1.368725 0.238354
v 0.347084 1.364479 0.245713
v 0.350184 1.364346 0.238334
v 0.350184 -0.002419 0.232221
v 0.347219 -0.002222 0.240515
vn -0.0000 0.9642 0.2651
vn -0.0000 1.0000 -0.0000
vn -0.0000 -0.9642 0.2652
vn -0.0000 -1.0000 -0.0000
vn -0.0000 0.4944 0.8693
vn -0.0000 -0.4943 0.8693
vn -0.0000 0.9642 0.2652
vn -0.0000 -0.9642 0.2651
vn -0.0000 0.4943 0.8693
vn -0.3572 -0.8570 0.3714
vn 0.3673 -0.8600 0.3543
vn 0.4174 -0.8780 0.2342
vn -0.4149 -0.8779 0.2392
vn -0.0939 -0.2125 0.9726
vn -0.0761 0.1184 0.9901
vn 0.5924 -0.0434 0.8045
vn 0.5043 0.3901 0.7703
vn 0.3556 0.8413 0.4072
vn -0.3486 0.8375 0.4207
vn -0.4158 0.8768 0.2417
vn 0.4159 0.8767 0.2417
vn -0.4662 0.4127 0.7825
vn -0.4665 -0.4137 0.7818
vn 0.4677 -0.4147 0.7806
vn 0.4670 0.4130 0.7819
vn -0.9257 0.2205 0.3074
vn -0.9260 -0.2296 0.2996
vn -0.9337 -0.2972 0.1995
vn -0.9338 0.2969 0.1995
vn -0.9752 0.0001 0.2213
vn -0.9330 0.2942 0.2073
vn -0.9500 0.3123 0.0052
vn -1.0000 -0.0000 0.0055
vn 0.2215 0.1183 0.9680
vn 0.2294 -0.2156 0.9491
vn -0.4480 0.3934 0.8028
vn -0.5090 -0.0402 0.8598
vn 1.0000 -0.0000 -0.0000
vn 0.9491 0.3149 0.0023
vn 0.9392 0.2956 0.1749
vn 0.9833 -0.0007 0.1818
vn 0.4477 0.8942 0.0046
vn -0.4530 0.8915 0.0046
vn -0.4123 0.8776 0.2446
vn 0.4167 0.8782 0.2347
vn 0.9350 -0.2979 0.1926
vn 0.9343 0.2965 0.1978
vn 0.9289 0.2282 0.2918
vn 0.9315 -0.2358 0.2770
vt 0.801406 0.113524
vt 0.801406 0.677752
vt 0.796168 0.677752
vt 0.796168 0.113524
vt 0.806026 0.113524
vt 0.806110 0.113524
vt 0.806110 0.677752
vt 0.806026 0.677752
vt 0.801490 0.113524
vt 0.801490 0.677752
vt 0.804969 0.367655
vt 0.804940 0.632119
vt 0.804940 0.368707
vt 0.805005 0.365066
vt 0.794048 0.365123
vt 0.793880 0.359773
vt 0.805149 0.359828
vt 0.794086 0.633197
vt 0.794086 0.367655
vt 0.794115 0.368707
vt 0.794115 0.632142
vt 0.794152 0.368729
vt 0.804903 0.368729
vt 0.804903 0.632119
vt 0.794152 0.632119
vt 0.794122 0.366345
vt 0.804933 0.366345
vt 0.804904 0.367394
vt 0.794152 0.367394
vt 0.793909 0.642296
vt 0.805147 0.642296
vt 0.805147 0.643376
vt 0.793909 0.643376
vt 0.794049 0.635864
vt 0.804975 0.634711
vt 0.805148 0.640993
vt 0.793909 0.640945
vt 0.793879 0.358571
vt 0.805177 0.358571
vt 0.805147 0.358571
vt 0.805213 0.359887
vt 0.805184 0.642063
vt 0.805183 0.640982
vt 0.805184 0.359887
vt 0.808695 0.558954
vt 0.808695 0.557645
vt 0.808733 0.558954
vt 0.808734 0.558954
vt 0.797272 0.558954
vt 0.797310 0.558954
vt 0.797311 0.557645
vt 0.797241 0.620878
vt 0.797279 0.620874
vt 0.797202 0.622190
vt 0.808695 0.619787
vt 0.808733 0.619787
vt 0.808770 0.621252
vt 0.797201 0.622018
vt 0.797279 0.620878
vt 0.808726 0.620878
vt 0.808802 0.622190
vt 0.808764 0.620863
vt 0.808991 0.620878
vt 0.808953 0.620878
vt 0.808954 0.622030
vt 0.808955 0.622190
vt 0.808953 0.620874
vt 0.797054 0.622190
vt 0.797053 0.620878
vt 0.808991 0.534574
vt 0.808953 0.534574
vt 0.809023 0.534574
vt 0.808985 0.534574
vt 0.797023 0.621263
vt 0.797021 0.619787
vt 0.804903 0.633436
vt 0.794122 0.634506
vt 0.794152 0.633454
vt 0.804903 0.633432
s 1
usemtl BossMat.003
f 2/1/1 4/2/1 5/3/2 6/4/2
f 8/1/3 12/4/4 11/3/4 9/2/3
f 2/5/1 1/6/5 3/7/5 4/8/1
f 7/6/6 8/5/3 9/8/3 10/7/6
f 1/9/5 7/9/6 10/10/6 3/10/5
f 14/1/7 16/2/7 17/3/2 18/4/2
f 20/1/8 24/4/4 23/3/4 21/2/8
f 14/5/7 13/6/9 15/7/9 16/8/7
f 19/6/6 20/5/8 21/8/8 22/7/6
f 13/9/9 19/9/6 22/10/6 15/10/9
f 26/1/1 28/2/1 29/3/2 30/4/2
f 32/1/3 36/4/4 35/3/4 33/2/3
f 26/5/1 25/6/5 27/7/5 28/8/1
f 31/6/6 32/5/3 33/8/3 34/7/6
f 25/9/5 31/9/6 34/10/6 27/10/5
f 38/1/7 40/2/7 41/3/2 42/4/2
f 44/1/8 48/4/4 47/3/4 45/2/8
f 38/5/7 37/6/9 39/7/9 40/8/7
f 43/6/6 44/5/8 45/8/8 46/7/6
f 37/9/9 43/9/6 46/10/6 39/10/9
f 75/11/10 65/12/11 51/12/12 53/13/13
f 74/14/14 70/15/15 88/16/16 85/17/17
f 61/18/18 72/19/19 55/20/20 58/21/21
f 57/22/22 54/23/23 50/24/24 59/25/25
f 71/26/26 73/27/27 52/28/28 56/29/29
f 79/30/30 82/31/31 68/32/32 67/33/33
f 63/34/34 66/35/35 83/36/36 80/37/37
f 66/35/35 74/14/14 85/17/17 83/36/36
f 76/38/38 78/39/39 86/40/40 87/38/41
f 77/41/42 69/42/43 81/43/44 84/44/45
f 70/15/15 63/34/34 80/37/37 88/16/16
f 49/45/46 50/46/24 51/47/12
f 52/45/28 53/48/13 54/46/23
f 55/49/20 56/50/29 57/51/22
f 58/49/21 59/51/25 60/50/47
f 61/52/18 62/53/48 63/54/34
f 64/55/49 65/56/11 66/57/35
f 70/58/15 71/59/26 72/52/19
f 73/60/27 74/61/14 75/62/10
f 81/63/44 82/64/31 83/65/36
f 84/63/45 85/66/17 86/67/40
f 58/49/21 55/49/20 57/51/22 59/51/25
f 54/46/23 57/51/22 56/50/29 52/45/28
f 59/51/25 50/46/24 49/45/46 60/50/47
f 53/48/13 51/47/12 50/46/24 54/46/23
f 83/65/36 85/66/17 84/63/45 81/63/44
f 63/54/34 70/58/15 72/52/19 61/52/18
f 80/68/37 83/65/36 82/64/31 79/69/30
f 70/58/15 74/61/14 73/60/27 71/59/26
f 51/47/12 65/56/11 64/55/49 49/45/46
f 81/63/44 69/70/43 68/71/32 82/64/31
f 77/72/42 84/63/45 86/67/40 78/73/39
f 74/61/14 66/57/35 65/56/11 75/62/10
f 85/66/17 88/74/16 87/75/41 86/67/40
f 62/53/48 64/55/49 66/57/35 63/54/34
f 60/50/47 62/53/48 61/52/18 58/49/21
f 71/59/26 56/50/29 55/49/20 72/52/19
f 52/45/28 73/60/27 75/62/10 53/48/13
f 64/76/49 62/77/48 60/78/47 49/79/46
