# Blender 4.2.3 LTS
# www.blender.org
mtllib OfficeBookshelf1.mtl
o OfficeBookshelf
v -0.763089 0.412377 0.231153
v -0.763089 0.417849 0.225681
v 0.763089 0.412377 0.231153
v 0.763089 0.417849 0.225681
v 0.763089 0.417849 -0.116302
v -0.763089 0.417849 -0.116302
v -0.763089 0.378455 0.231153
v -0.763089 0.372983 0.225681
v 0.763089 0.372983 0.225681
v 0.763089 0.378455 0.231153
v 0.763089 0.372983 -0.116302
v -0.763089 0.372983 -0.116302
v -0.763089 0.905904 0.231153
v -0.763089 0.911375 0.225681
v 0.763089 0.905904 0.231153
v 0.763089 0.911375 0.225681
v 0.763089 0.911375 -0.116302
v -0.763089 0.911375 -0.116302
v -0.763089 0.871981 0.231153
v -0.763089 0.866509 0.225681
v 0.763089 0.866509 0.225681
v 0.763089 0.871981 0.231153
v 0.763089 0.866509 -0.116302
v -0.763089 0.866509 -0.116302
v -0.763089 1.399430 0.231153
v -0.763089 1.404902 0.225681
v 0.763089 1.399430 0.231153
v 0.763089 1.404902 0.225681
v 0.763089 1.404902 -0.116302
v -0.763089 1.404902 -0.116302
v -0.763089 1.365507 0.231153
v -0.763089 1.360035 0.225681
v 0.763089 1.360035 0.225681
v 0.763089 1.365507 0.231153
v 0.763089 1.360035 -0.116302
v -0.763089 1.360035 -0.116302
v -0.763089 1.892956 0.231153
v -0.763089 1.898428 0.225681
v 0.763089 1.892956 0.231153
v 0.763089 1.898428 0.225681
v 0.763089 1.898428 -0.116302
v -0.763089 1.898428 -0.116302
v -0.763089 1.859034 0.231153
v -0.763089 1.853562 0.225681
v 0.763089 1.853562 0.225681
v 0.763089 1.859034 0.231153
v 0.763089 1.853562 -0.116302
v -0.763089 1.853562 -0.116302
v -0.746023 2.254861 -0.108942
v -0.738663 2.254861 -0.116302
v -0.738663 2.262221 -0.108942
v 0.746148 2.254986 -0.108943
v 0.738787 2.262347 -0.108943
v 0.738663 2.254861 -0.116302
v 0.738787 0.055639 -0.108943
v 0.746148 0.063000 -0.108943
v 0.738663 0.063124 -0.116302
v -0.738787 0.055639 -0.108943
v -0.738663 0.063124 -0.116302
v -0.746148 0.063000 -0.108943
v -0.744689 0.049738 0.238354
v -0.752029 0.057099 0.238333
v -0.759660 0.042127 0.245713
v -0.746043 2.254862 0.232222
v -0.738663 2.262252 0.232231
v -0.753184 2.269382 0.240449
v -0.801787 0.013512 -0.245713
v -0.801787 2.304474 -0.245713
v -0.794427 2.311862 -0.245713
v 0.758887 0.041950 0.244763
v 0.752050 0.057098 0.238354
v 0.744689 0.049738 0.238354
v 0.752050 2.260887 0.238354
v 0.759216 2.275414 0.245713
v 0.744688 2.268218 0.238323
v 0.795635 0.007360 -0.245713
v 0.788275 2.317957 -0.245713
v 0.795635 2.310625 -0.245713
v -0.795727 0.013512 0.238354
v -0.788163 0.013624 0.245713
v -0.788367 2.311834 0.238353
v -0.795727 2.304474 0.238354
v -0.788428 2.304627 0.244819
v 0.788275 2.311926 0.238354
v 0.788591 2.304789 0.245713
v 0.795635 2.304566 0.238334
v 0.795635 0.007360 0.232221
v 0.788898 0.007691 0.240515
vn -0.0000 0.9239 0.3827
vn -0.0000 1.0000 -0.0000
vn -0.0000 -0.9239 0.3827
vn -0.0000 -1.0000 -0.0000
vn -0.0000 0.3827 0.9239
vn -0.0000 -0.3827 0.9239
vn -0.0000 0.9239 0.3826
vn -0.2538 -0.8324 0.4926
vn 0.2612 -0.8382 0.4787
vn 0.3421 -0.8740 0.3450
vn -0.3385 -0.8723 0.3529
vn -0.0730 -0.1290 0.9890
vn -0.0610 0.0679 0.9958
vn 0.4312 -0.0209 0.9020
vn 0.3738 0.3322 0.8660
vn 0.2545 0.8076 0.5320
vn -0.2501 0.8039 0.5397
vn -0.3392 0.8706 0.3563
vn 0.3394 0.8705 0.3563
vn -0.3370 0.3370 0.8792
vn -0.3371 -0.3380 0.8787
vn 0.3403 -0.3403 0.8766
vn 0.3381 0.3371 0.8787
vn -0.8187 0.2455 0.5191
vn -0.8199 -0.2548 0.5126
vn -0.8705 -0.3395 0.3564
vn -0.8706 0.3392 0.3563
vn -0.9149 0.0001 0.4037
vn -0.8688 0.3360 0.3637
vn -0.9244 0.3812 0.0116
vn -0.9999 -0.0000 0.0125
vn 0.1266 0.0688 0.9896
vn 0.1327 -0.1338 0.9821
vn -0.3208 0.3261 0.8892
vn -0.3505 -0.0179 0.9364
vn 1.0000 -0.0000 -0.0000
vn 0.9226 0.3857 0.0048
vn 0.8844 0.3380 0.3218
vn 0.9372 -0.0008 0.3488
vn 0.3803 0.9248 0.0082
vn -0.3866 0.9222 0.0082
vn -0.3355 0.8716 0.3575
vn 0.3415 0.8741 0.3455
vn 0.8742 -0.3417 0.3450
vn 0.8722 0.3388 0.3529
vn 0.8277 0.2526 0.5011
vn 0.8351 -0.2615 0.4841
vt 0.801406 0.113524
vt 0.801406 0.677752
vt 0.796168 0.677752
vt 0.796168 0.113524
vt 0.806026 0.113524
vt 0.806110 0.113524
vt 0.806110 0.677752
vt 0.806026 0.677752
vt 0.801490 0.113524
vt 0.801490 0.677752
vt 0.804969 0.367655
vt 0.804940 0.632119
vt 0.804940 0.368707
vt 0.805005 0.365066
vt 0.794048 0.365123
vt 0.793880 0.359773
vt 0.805149 0.359828
vt 0.794086 0.633197
vt 0.794086 0.367655
vt 0.794115 0.368707
vt 0.794115 0.632142
vt 0.794152 0.368729
vt 0.804903 0.368729
vt 0.804903 0.632119
vt 0.794152 0.632119
vt 0.794122 0.366345
vt 0.804933 0.366345
vt 0.804904 0.367394
vt 0.794152 0.367394
vt 0.793909 0.642296
vt 0.805147 0.642296
vt 0.805147 0.643376
vt 0.793909 0.643376
vt 0.794049 0.635864
vt 0.804975 0.634711
vt 0.805148 0.640993
vt 0.793909 0.640945
vt 0.793879 0.358571
vt 0.805177 0.358571
vt 0.805147 0.358571
vt 0.805213 0.359887
vt 0.805184 0.642063
vt 0.805183 0.640982
vt 0.805184 0.359887
vt 0.808695 0.558954
vt 0.808695 0.557645
vt 0.808733 0.558954
vt 0.808734 0.558954
vt 0.797272 0.558954
vt 0.797310 0.558954
vt 0.797311 0.557645
vt 0.797241 0.620878
vt 0.797279 0.620874
vt 0.797202 0.622190
vt 0.808695 0.619787
vt 0.808733 0.619787
vt 0.808770 0.621252
vt 0.797201 0.622018
vt 0.797279 0.620878
vt 0.808726 0.620878
vt 0.808802 0.622190
vt 0.808764 0.620863
vt 0.808991 0.620878
vt 0.808953 0.620878
vt 0.808954 0.622030
vt 0.808955 0.622190
vt 0.808953 0.620874
vt 0.797054 0.622190
vt 0.797053 0.620878
vt 0.808991 0.534574
vt 0.808953 0.534574
vt 0.809023 0.534574
vt 0.808985 0.534574
vt 0.797023 0.621263
vt 0.797021 0.619787
vt 0.804903 0.633436
vt 0.794122 0.634506
vt 0.794152 0.633454
vt 0.804903 0.633432
s 1
usemtl BossMat
f 2/1/1 4/2/1 5/3/2 6/4/2
f 8/1/3 12/4/4 11/3/4 9/2/3
f 2/5/1 1/6/5 3/7/5 4/8/1
f 7/6/6 8/5/3 9/8/3 10/7/6
f 1/9/5 7/9/6 10/10/6 3/10/5
f 14/1/7 16/2/7 17/3/2 18/4/2
f 20/1/3 24/4/4 23/3/4 21/2/3
f 14/5/7 13/6/5 15/7/5 16/8/7
f 19/6/6 20/5/3 21/8/3 22/7/6
f 13/9/5 19/9/6 22/10/6 15/10/5
f 26/1/1 28/2/1 29/3/2 30/4/2
f 32/1/3 36/4/4 35/3/4 33/2/3
f 26/5/1 25/6/5 27/7/5 28/8/1
f 31/6/6 32/5/3 33/8/3 34/7/6
f 25/9/5 31/9/6 34/10/6 27/10/5
f 38/1/1 40/2/1 41/3/2 42/4/2
f 44/1/3 48/4/4 47/3/4 45/2/3
f 38/5/1 37/6/5 39/7/5 40/8/1
f 43/6/6 44/5/3 45/8/3 46/7/6
f 37/9/5 43/9/6 46/10/6 39/10/5
f 75/11/8 65/12/9 51/12/10 53/13/11
f 74/14/12 70/15/13 88/16/14 85/17/15
f 61/18/16 72/19/17 55/20/18 58/21/19
f 57/22/20 54/23/21 50/24/22 59/25/23
f 71/26/24 73/27/25 52/28/26 56/29/27
f 79/30/28 82/31/29 68/32/30 67/33/31
f 63/34/32 66/35/33 83/36/34 80/37/35
f 66/35/33 74/14/12 85/17/15 83/36/34
f 76/38/36 78/39/37 86/40/38 87/38/39
f 77/41/40 69/42/41 81/43/42 84/44/43
f 70/15/13 63/34/32 80/37/35 88/16/14
f 49/45/44 50/46/22 51/47/10
f 52/45/26 53/48/11 54/46/21
f 55/49/18 56/50/27 57/51/20
f 58/49/19 59/51/23 60/50/45
f 61/52/16 62/53/46 63/54/32
f 64/55/47 65/56/9 66/57/33
f 70/58/13 71/59/24 72/52/17
f 73/60/25 74/61/12 75/62/8
f 81/63/42 82/64/29 83/65/34
f 84/63/43 85/66/15 86/67/38
f 58/49/19 55/49/18 57/51/20 59/51/23
f 54/46/21 57/51/20 56/50/27 52/45/26
f 59/51/23 50/46/22 49/45/44 60/50/45
f 53/48/11 51/47/10 50/46/22 54/46/21
f 83/65/34 85/66/15 84/63/43 81/63/42
f 63/54/32 70/58/13 72/52/17 61/52/16
f 80/68/35 83/65/34 82/64/29 79/69/28
f 70/58/13 74/61/12 73/60/25 71/59/24
f 51/47/10 65/56/9 64/55/47 49/45/44
f 81/63/42 69/70/41 68/71/30 82/64/29
f 77/72/40 84/63/43 86/67/38 78/73/37
f 74/61/12 66/57/33 65/56/9 75/62/8
f 85/66/15 88/74/14 87/75/39 86/67/38
f 62/53/46 64/55/47 66/57/33 63/54/32
f 60/50/45 62/53/46 61/52/16 58/49/19
f 71/59/24 56/50/27 55/49/18 72/52/17
f 52/45/26 73/60/25 75/62/8 53/48/11
f 64/76/47 62/77/46 60/78/45 49/79/44
