# Blender 4.2.1 LTS
# www.blender.org
mtllib Portapapeles.mtl
o Cube.006
v -0.081716 -0.023643 0.294489
v 0.080843 -0.023643 0.294489
v -0.210474 -0.023643 -0.182040
v 0.209601 -0.023643 -0.182040
v -0.208318 -0.023643 0.294489
v -0.210474 -0.023643 0.292333
v -0.210474 -0.010697 0.292333
v -0.210474 -0.010697 0.292333
v -0.208318 -0.010684 0.294489
v -0.208318 -0.010684 0.294489
v -0.208318 -0.008528 0.292333
v -0.208318 -0.008528 0.292333
v -0.210474 -0.023643 -0.291451
v -0.208318 -0.023643 -0.293616
v -0.208318 0.008622 -0.288503
v -0.208318 0.008622 -0.288503
v -0.208318 0.006817 -0.290829
v -0.208318 0.006817 -0.290829
v -0.210474 0.006481 -0.288694
v -0.210474 0.006481 -0.288694
v 0.209601 -0.023643 0.292333
v 0.207444 -0.023643 0.294489
v 0.207444 -0.008528 0.292333
v 0.207444 -0.008528 0.292333
v 0.207444 -0.010684 0.294489
v 0.207444 -0.010684 0.294489
v 0.209601 -0.010697 0.292333
v 0.209601 -0.010697 0.292333
v 0.207444 -0.023643 -0.293616
v 0.209601 -0.023643 -0.291451
v 0.207444 0.008622 -0.288503
v 0.207444 0.008622 -0.288503
v 0.209601 0.006481 -0.288694
v 0.209601 0.006481 -0.288694
v 0.207444 0.006817 -0.290829
v 0.207444 0.006817 -0.290829
v 0.080843 -0.023643 -0.291451
v 0.082999 -0.023643 -0.293616
v -0.083872 -0.023643 -0.293616
v -0.081716 -0.023643 -0.291451
v -0.083872 0.008622 -0.288503
v -0.083872 0.008622 -0.288503
v -0.081716 0.006468 -0.288695
v -0.081716 0.006468 -0.288695
v -0.083872 0.006817 -0.290829
v -0.083872 0.006817 -0.290829
v 0.082999 0.008622 -0.288503
v 0.082999 0.008622 -0.288503
v 0.082999 0.006817 -0.290829
v 0.082999 0.006817 -0.290829
v 0.080843 0.006468 -0.288695
v 0.080843 0.006468 -0.288695
v 0.080843 -0.008528 0.292333
v 0.080843 -0.010684 0.294489
v -0.081716 -0.010684 0.294489
v -0.081716 -0.008528 0.292333
v -0.210474 -0.010698 -0.182040
v -0.208318 -0.008528 -0.179883
v -0.208318 -0.008528 -0.179883
v -0.208318 -0.008185 -0.184169
v -0.208318 -0.008185 -0.184169
v 0.209601 -0.010698 -0.182040
v 0.207444 -0.008185 -0.184169
v 0.207444 -0.008185 -0.184169
v 0.207444 -0.008528 -0.179883
v 0.207444 -0.008528 -0.179883
v 0.078686 -0.010684 -0.182040
v 0.078686 -0.010684 -0.182040
v 0.080843 -0.008528 -0.179883
v 0.082999 -0.008185 -0.184169
v 0.082999 -0.008185 -0.184169
v 0.080843 -0.010365 -0.184197
v 0.080843 -0.010365 -0.184197
v -0.079559 -0.010684 -0.182040
v -0.079559 -0.010684 -0.182040
v -0.081716 -0.010365 -0.184197
v -0.081716 -0.010365 -0.184197
v -0.083872 -0.008185 -0.184169
v -0.083872 -0.008185 -0.184169
v -0.081716 -0.008528 -0.179883
v -0.081716 -0.023643 -0.184197
v -0.079559 -0.023643 -0.182040
v 0.078686 -0.023643 -0.182040
v 0.080843 -0.023643 -0.184197
v -0.203681 -0.011345 -0.284105
v -0.194409 -0.011345 -0.284105
v -0.194409 -0.011345 -0.182078
v -0.203681 -0.011345 -0.181181
v -0.194409 -0.011345 -0.233091
v -0.203681 -0.011345 -0.232643
v -0.194409 -0.011345 -0.207585
v -0.203681 -0.011345 -0.206912
v -0.194409 -0.011345 -0.258598
v -0.203681 -0.011345 -0.258374
v 0.202807 -0.011345 -0.284105
v 0.193536 -0.011345 -0.284105
v 0.193536 -0.011345 -0.182078
v 0.202807 -0.011345 -0.181181
v 0.193536 -0.011345 -0.233091
v 0.202807 -0.011345 -0.232643
v 0.193536 -0.011345 -0.207585
v 0.202807 -0.011345 -0.206912
v 0.193536 -0.011345 -0.258598
v 0.202807 -0.011345 -0.258374
v -0.201627 -0.011345 0.284978
v -0.203681 -0.011345 0.282924
v -0.201627 0.060754 0.284978
v -0.201627 0.060754 0.284978
v -0.201715 0.062808 0.283348
v -0.201715 0.062808 0.283348
v -0.203681 0.060754 0.282924
v -0.203681 0.060754 0.282924
v -0.203681 0.003433 -0.284105
v -0.201627 0.005586 -0.284105
v -0.196463 0.005586 -0.284105
v -0.194409 0.003246 -0.284105
v -0.192355 0.060754 0.277290
v -0.192355 0.060754 0.277290
v -0.194409 0.060754 0.275236
v -0.194409 0.060754 0.275236
v -0.196330 0.062808 0.278883
v -0.194409 -0.011345 0.275236
v -0.192355 -0.011345 0.277290
v -0.194409 0.060576 -0.182078
v -0.194409 0.060576 -0.182078
v -0.196243 0.061442 -0.183442
v -0.196243 0.061442 -0.183442
v -0.196463 0.062808 -0.179816
v -0.196463 0.062808 -0.179816
v -0.201627 0.062808 -0.179316
v -0.201627 0.062808 -0.179316
v -0.201631 0.061449 -0.182927
v -0.201631 0.061449 -0.182927
v -0.203681 0.060414 -0.181181
v -0.203681 0.060414 -0.181181
v -0.201777 0.023517 -0.232735
v -0.201777 0.023517 -0.232735
v -0.203681 0.021153 -0.232643
v -0.196210 0.023517 -0.233004
v -0.194409 0.021148 -0.233091
v -0.194409 0.038653 -0.207585
v -0.196236 0.041048 -0.207452
v -0.203681 0.038439 -0.206912
v -0.201772 0.041048 -0.207050
v -0.201772 0.041048 -0.207050
v -0.203681 0.010255 -0.258374
v -0.201627 0.012453 -0.258424
v -0.201627 0.012453 -0.258424
v -0.194409 0.010105 -0.258598
v -0.196463 0.012453 -0.258549
v 0.202807 -0.011345 0.282924
v 0.200754 -0.011345 0.284978
v 0.202807 0.060754 0.282924
v 0.202807 0.060754 0.282924
v 0.200830 0.062808 0.283338
v 0.200830 0.062808 0.283338
v 0.200754 0.060754 0.284978
v 0.200754 0.060754 0.284978
v 0.200754 0.005586 -0.284105
v 0.202807 0.003250 -0.284105
v 0.193536 0.003431 -0.284105
v 0.195373 0.005586 -0.284105
v 0.191482 0.060754 0.277290
v 0.191482 0.060754 0.277290
v 0.195489 0.062808 0.278910
v 0.193536 0.060754 0.275236
v 0.193536 0.060754 0.275236
v 0.191482 -0.011345 0.277290
v 0.193536 -0.011345 0.275236
v 0.195493 0.062808 -0.179825
v 0.195493 0.062808 -0.179825
v 0.195585 0.061442 -0.183421
v 0.195585 0.061442 -0.183421
v 0.193536 0.060409 -0.182078
v 0.193536 0.060409 -0.182078
v 0.202807 0.060579 -0.181181
v 0.202807 0.060579 -0.181181
v 0.200758 0.061449 -0.182927
v 0.200758 0.061449 -0.182927
v 0.200754 0.062808 -0.179316
v 0.200754 0.062808 -0.179316
v 0.202807 0.021153 -0.232643
v 0.200903 0.023517 -0.232735
v 0.200903 0.023517 -0.232735
v 0.193536 0.021148 -0.233091
v 0.195337 0.023517 -0.233004
v 0.195587 0.041048 -0.207436
v 0.193536 0.038431 -0.207585
v 0.200756 0.041048 -0.207061
v 0.200756 0.041048 -0.207061
v 0.202807 0.038658 -0.206912
v 0.200897 0.012453 -0.258420
v 0.200897 0.012453 -0.258420
v 0.202807 0.010109 -0.258374
v 0.195364 0.012453 -0.258554
v 0.193536 0.010253 -0.258598
vn -0.0000 0.9873 0.1590
vn -0.0000 0.9928 0.1195
vn -0.0000 0.9934 0.1144
vn -0.0000 1.0000 -0.0000
vn -0.0000 0.9992 0.0399
vn -0.0000 0.9998 0.0208
vn -0.0000 0.0911 -0.9958
vn 1.0000 -0.0000 -0.0000
vn -0.0000 -0.0000 -1.0000
vn -1.0000 -0.0000 -0.0000
vn -0.0000 -0.0000 1.0000
vn -0.5797 0.5762 0.5762
vn -0.5895 0.6382 -0.4952
vn 0.5797 0.5762 0.5762
vn 0.5895 0.6382 -0.4952
vn 0.5919 0.6368 -0.4941
vn -0.5919 0.6368 -0.4941
vn -0.7188 0.6931 0.0542
vn -0.7203 0.6933 0.0226
vn -0.7347 0.6763 0.0541
vn -0.7175 0.6909 0.0888
vn 0.7188 0.6931 0.0542
vn 0.7175 0.6909 0.0888
vn 0.7347 0.6763 0.0541
vn 0.7203 0.6933 0.0226
vn -0.5878 0.7443 -0.3170
vn -0.6663 0.7392 -0.0979
vn -0.6622 0.7408 -0.1125
vn 0.5878 0.7443 -0.3170
vn 0.6622 0.7408 -0.1125
vn 0.6663 0.7392 -0.0979
vn -0.7071 -0.0000 0.7071
vn -0.7049 0.7003 0.1128
vn -0.7071 0.0644 -0.7042
vn -0.0000 0.7900 -0.6131
vn 0.7071 0.0644 -0.7042
vn 0.7093 0.7049 -0.0000
vn 0.7071 -0.0000 0.7071
vn -0.0000 0.7071 0.7071
vn 0.7071 -0.0000 -0.7071
vn -0.7071 -0.0000 -0.7071
vn -0.7093 0.7049 -0.0000
vn 0.7049 0.7003 0.1128
vn -0.7071 0.6981 0.1125
vn 0.7071 0.6981 0.1125
vn -0.0000 0.7071 -0.7071
vn -0.0031 0.9659 -0.2589
vn -0.0016 0.9914 -0.1306
vn -0.0060 0.9749 -0.2226
vn -0.0088 0.9447 -0.3277
vn -0.0177 0.9821 -0.1874
vn -0.0165 0.9846 -0.1742
vn -0.0242 0.8766 -0.4806
vn -0.0213 0.8898 -0.4559
vn -0.0341 0.8248 -0.5644
vn -0.0441 0.7939 -0.6065
vn -0.0436 0.7956 -0.6043
vn -0.0537 0.7618 -0.6455
vn -0.0439 0.8634 -0.5026
vn -0.0447 0.8567 -0.5139
vn -0.0146 0.9179 -0.3964
vn 0.0032 0.9659 -0.2589
vn 0.0087 0.9448 -0.3276
vn 0.0060 0.9752 -0.2214
vn 0.0173 0.9829 -0.1831
vn 0.0165 0.9846 -0.1742
vn 0.0240 0.8768 -0.4802
vn 0.0435 0.7956 -0.6042
vn 0.0441 0.7939 -0.6065
vn 0.0339 0.8248 -0.5644
vn 0.0276 0.8591 -0.5110
vn 0.0538 0.7619 -0.6455
vn 0.0444 0.8591 -0.5098
vn 0.0439 0.8634 -0.5026
vn 0.0074 0.9793 -0.2024
vn -0.6861 0.2417 0.6861
vn -0.6245 0.4691 0.6245
vn 0.3270 0.8866 -0.3270
vn 0.6348 0.7547 -0.1661
vn 0.6205 0.6914 -0.3700
vn 0.6270 0.6777 -0.3841
vn 0.5639 0.7836 -0.2609
vn 0.6716 0.7328 -0.1099
vn -0.6944 0.7094 -0.1205
vn -0.6111 0.7411 -0.2782
vn -0.6712 0.6387 -0.3762
vn -0.6638 0.6538 -0.3631
vn -0.6711 0.7217 -0.1697
vn 0.6857 0.2444 0.6857
vn 0.6226 0.4740 0.6226
vn -0.3243 0.8886 -0.3243
vn -0.6907 0.7117 -0.1281
vn -0.5796 0.7568 -0.3022
vn -0.6245 0.6682 -0.4045
vn -0.6213 0.6759 -0.3965
vn -0.6539 0.7318 -0.1920
vn 0.6420 0.7459 -0.1774
vn 0.6234 0.6839 -0.3791
vn 0.6323 0.6658 -0.3962
vn 0.5717 0.7681 -0.2884
vn 0.6710 0.7309 -0.1245
vn -0.0000 -0.1071 -0.9943
vn 0.7330 0.6803 -0.0002
vn -0.7164 0.6742 -0.1795
vn 0.6868 0.5681 -0.4535
vn 0.7064 0.5690 -0.4210
vn -0.7418 0.6707 -0.0003
vn -0.7442 0.5531 -0.3745
vn 0.7418 0.6299 -0.2301
vn 0.7318 0.5871 -0.3460
vn 0.7367 0.5992 -0.3135
vn 0.7415 0.6359 -0.2141
vn -0.7107 0.5370 -0.4544
vn -0.7315 0.6262 -0.2696
vn 0.7397 0.6499 -0.1747
vn -0.7512 0.6601 -0.0003
vn 0.7526 0.6357 -0.1718
vn -0.0000 0.6229 0.7823
vn -0.7001 0.5757 -0.4225
vn -0.6774 0.5756 -0.4581
vn 0.7281 0.6855 -0.0002
vn 0.7171 0.5768 -0.3911
vn -0.7535 0.6237 -0.2078
vn -0.7422 0.5955 -0.3073
vn -0.7336 0.5874 -0.3417
vn -0.7534 0.6185 -0.2233
vn -0.0000 0.6161 -0.7877
vn 0.6710 0.5653 -0.4798
vn 0.7541 0.6033 -0.2595
vn -0.7530 0.6355 -0.1705
vt 0.521775 0.552834
vt 0.521724 0.573756
vt 0.517017 0.573477
vt 0.517068 0.552555
vt 0.521893 0.503859
vt 0.521842 0.524780
vt 0.517136 0.524501
vt 0.517186 0.503579
vt 0.516992 0.503568
vt 0.516941 0.524852
vt 0.495637 0.523587
vt 0.495688 0.502303
vt 0.516875 0.552181
vt 0.516824 0.573465
vt 0.495520 0.572200
vt 0.495571 0.550916
vt 0.521955 0.573770
vt 0.521829 0.573762
vt 0.521880 0.552840
vt 0.522006 0.552848
vt 0.522027 0.503504
vt 0.521903 0.503497
vt 0.517090 0.503211
vt 0.516973 0.551824
vt 0.517038 0.525220
vt 0.495689 0.501940
vt 0.516921 0.573833
vt 0.521732 0.574119
vt 0.521857 0.574126
vt 0.517070 0.552192
vt 0.521909 0.552480
vt 0.521784 0.552472
vt 0.495540 0.523581
vt 0.495474 0.550910
vt 0.517136 0.524863
vt 0.521850 0.525143
vt 0.521975 0.525151
vt 0.495591 0.502297
vt 0.522073 0.524794
vt 0.521947 0.524786
vt 0.521998 0.503865
vt 0.522124 0.503872
vt 0.495422 0.572195
vt 0.495519 0.572563
vt 0.521481 0.496618
vt 0.521480 0.497486
vt 0.520322 0.497255
vt 0.520328 0.496388
vt 0.496194 0.426347
vt 0.496153 0.490877
vt 0.520319 0.497600
vt 0.521480 0.497832
vt 0.516836 0.496906
vt 0.517997 0.497137
vt 0.516878 0.495355
vt 0.518029 0.495584
vt 0.495879 0.492396
vt 0.495922 0.424721
vt 0.496121 0.425659
vt 0.496081 0.491531
vt 0.519158 0.497369
vt 0.495941 0.424392
vt 0.516880 0.428568
vt 0.495898 0.492731
vt 0.516776 0.495680
vt 0.516752 0.496543
vt 0.519175 0.496116
vt 0.519163 0.497050
vt 0.518004 0.496818
vt 0.518022 0.495890
vt 0.516916 0.496577
vt 0.516939 0.495676
vt 0.520330 0.496043
vt 0.521481 0.496273
vt 0.519179 0.495814
vt 0.521522 0.430743
vt 0.520369 0.430515
vt 0.520364 0.429583
vt 0.521523 0.429839
vt 0.496287 0.426020
vt 0.516919 0.430134
vt 0.520362 0.429262
vt 0.521523 0.429493
vt 0.518040 0.428799
vt 0.518070 0.430364
vt 0.516818 0.429785
vt 0.516795 0.428896
vt 0.519201 0.429030
vt 0.519221 0.430593
vt 0.520371 0.430823
vt 0.519217 0.430289
vt 0.518063 0.430017
vt 0.518047 0.429145
vt 0.519205 0.429351
vt 0.516980 0.429801
vt 0.516958 0.428927
vt 0.521522 0.431052
vt 0.496246 0.491241
vt 0.495805 0.492367
vt 0.495848 0.424719
s 1
usemtl MaterialGoogaz
f 42/1/1 41/1/1 16/2/1 15/2/1 61/3/1 60/3/2 79/4/3 78/4/1
f 32/5/1 31/5/1 48/6/1 47/6/1 71/7/1 70/7/3 64/8/2 63/8/1
f 66/9/4 65/9/5 69/10/6 53/11/4 24/12/4 23/12/4
f 80/13/6 59/14/5 58/14/4 12/15/4 11/15/4 56/16/4
f 14/17/7 18/18/7 17/18/7 46/19/7 45/19/7 39/20/7
f 30/21/8 34/22/8 33/22/8 62/23/8 4/23/8
f 75/24/9 74/24/9 68/25/9 67/25/9 83/25/9 82/24/9
f 4/23/8 62/23/8 28/26/8 27/26/8 21/26/8
f 69/10/6 80/13/6 56/16/4 53/11/4
f 3/27/10 57/27/10 20/28/10 19/28/10 13/29/10
f 81/30/8 40/31/8 44/32/8 43/32/8 77/30/8 76/30/8
f 2/33/11 54/33/11 55/34/11 1/34/11
f 84/35/10 73/35/10 72/35/10 52/36/10 51/36/10 37/37/10
f 22/38/11 26/38/11 25/38/11 54/33/11 2/33/11
f 38/39/7 50/40/7 49/40/7 36/41/7 35/41/7 29/42/7
f 1/34/11 55/34/11 10/43/11 9/43/11 5/43/11
f 7/44/12 8/44/12 9/43/12 10/43/12 11/15/12 12/15/12
f 15/2/13 16/2/13 17/18/13 18/18/13 19/28/13 20/28/13
f 23/12/14 24/12/14 25/38/14 26/38/14 27/26/14 28/26/14
f 31/5/15 32/5/15 33/22/15 34/22/15 35/41/15 36/41/15
f 41/1/16 42/1/16 43/32/16 44/32/16 45/19/16 46/19/16
f 47/6/17 48/6/17 49/40/17 50/40/17 51/36/17 52/36/17
f 57/27/18 58/14/19 59/14/20 60/3/20 61/3/21
f 62/23/22 63/8/23 64/8/24 65/9/24 66/9/25
f 67/25/26 68/25/26 69/10/26 70/7/26 71/7/27 72/35/28 73/35/26
f 74/24/29 75/24/29 76/30/29 77/30/30 78/4/31 79/4/29 80/13/29
f 5/43/32 9/43/32 8/44/32 6/44/32
f 61/3/21 15/2/33 20/28/33 57/27/18
f 18/18/34 14/17/34 13/29/34 19/28/34
f 48/6/35 31/5/35 36/41/35 49/40/35
f 34/22/36 30/21/36 29/42/36 35/41/36
f 66/9/25 23/12/37 28/26/37 62/23/22
f 26/38/38 22/38/38 21/26/38 27/26/38
f 56/16/39 11/15/39 10/43/39 55/34/39
f 81/30/40 76/30/40 75/24/40 82/24/40
f 16/2/35 41/1/35 46/19/35 17/18/35
f 83/25/41 67/25/41 73/35/41 84/35/41
f 24/12/39 53/11/39 54/33/39 25/38/39
f 53/11/39 56/16/39 55/34/39 54/33/39
f 44/32/36 40/31/36 39/20/36 45/19/36
f 50/40/34 38/39/34 37/37/34 51/36/34
f 12/15/42 58/14/19 57/27/18 7/44/42
f 32/5/43 63/8/23 62/23/22 33/22/43
f 52/36/44 72/35/28 71/7/27 47/6/44
f 42/1/45 78/4/31 77/30/30 43/32/45
f 80/13/46 69/10/46 68/25/46 74/24/46
f 69/10/6 65/9/5 64/8/2 70/7/3
f 59/14/5 80/13/6 79/4/3 60/3/2
f 6/44/10 8/44/10 7/44/10 57/27/10 3/27/10
f 115/45/47 114/46/47 148/47/48 147/47/49 150/48/50
f 164/49/9 163/49/9 168/49/9 123/50/9 118/50/9 117/50/9
f 94/51/10 146/51/10 113/52/10 85/52/10
f 88/53/10 134/53/10 143/54/10 92/54/10
f 87/55/8 91/56/8 141/56/8 125/55/8 124/55/8
f 109/57/4 156/58/4 155/58/4 165/59/4 121/60/4
f 92/54/10 143/54/10 138/61/10 90/61/10
f 151/62/8 98/63/8 176/63/8 154/62/8 153/62/8
f 90/61/10 138/61/10 146/51/10 94/51/10
f 106/64/10 112/64/10 111/64/10 135/53/10 134/53/10 88/53/10
f 129/65/4 128/65/51 131/66/52 130/66/4 110/57/4 109/57/4 121/60/4
f 139/67/53 136/68/54 145/69/55 144/69/56 142/70/57
f 142/70/57 144/69/56 133/71/58 132/71/59 127/72/60 126/72/58
f 150/48/50 147/47/49 137/68/61 136/68/54 139/67/53
f 93/73/8 86/74/8 116/74/8 149/73/8
f 91/56/8 89/75/8 140/75/8 141/56/8
f 89/75/8 93/73/8 149/73/8 140/75/8
f 162/76/62 195/77/63 192/78/64 159/79/62
f 169/80/10 167/80/10 166/80/10 175/81/10 174/81/10 97/81/10
f 104/82/8 95/83/8 160/83/8 194/82/8
f 98/63/8 102/84/8 191/84/8 177/63/8 176/63/8
f 97/81/10 174/81/10 188/85/10 101/85/10
f 171/86/65 170/86/4 165/59/4 155/58/4 181/87/4 180/87/66
f 102/84/8 100/88/8 182/88/8 191/84/8
f 99/89/10 185/89/10 196/90/10 103/90/10
f 186/91/67 187/92/68 189/93/69 184/94/70 183/94/71
f 187/92/68 173/95/72 172/95/73 179/96/74 178/96/72 190/93/72 189/93/69
f 100/88/8 104/82/8 194/82/8 182/88/8
f 103/90/10 196/90/10 161/97/10 96/97/10
f 101/85/10 188/85/10 185/89/10 99/89/10
f 195/77/63 186/91/67 183/94/71 193/78/75 192/78/64
f 122/98/8 87/55/8 124/55/8 120/98/8 119/98/8
f 107/99/76 108/99/77 109/57/77 110/57/77 111/64/77 112/64/76
f 117/50/78 118/50/78 119/98/78 120/98/78 121/60/78
f 124/55/79 125/55/80 126/72/81 127/72/82 128/65/82 129/65/83
f 130/66/84 131/66/85 132/71/85 133/71/86 134/53/87 135/53/88
f 136/68/11 137/68/11 138/61/11
f 143/54/4 144/69/4 145/69/4
f 146/51/4 147/47/49 148/47/48
f 153/62/89 154/62/90 155/58/90 156/58/90 157/100/90 158/100/89
f 163/49/91 164/49/91 165/59/91 166/80/91 167/80/91
f 170/86/92 171/86/93 172/95/93 173/95/94 174/81/95 175/81/96
f 176/63/97 177/63/98 178/96/99 179/96/100 180/87/100 181/87/101
f 182/88/102 183/94/102 184/94/102
f 189/93/4 190/93/4 191/84/4
f 192/78/64 193/78/75 194/82/4
f 105/99/32 107/99/76 112/64/76 106/64/32
f 122/98/40 119/98/40 118/50/40 123/50/40
f 129/65/83 121/60/103 120/98/103 124/55/79
f 148/47/104 114/46/104 113/52/104 146/51/104
f 142/70/105 126/72/81 125/55/80 141/56/106
f 110/57/107 130/66/84 135/53/88 111/64/107
f 131/66/52 128/65/51 127/72/60 132/71/59
f 145/69/108 136/68/108 138/61/108 143/54/108
f 150/48/109 139/67/110 140/75/111 149/73/112
f 139/67/110 142/70/105 141/56/106 140/75/111
f 133/71/86 144/69/113 143/54/113 134/53/87
f 137/68/114 147/47/114 146/51/114 138/61/114
f 115/45/115 150/48/109 149/73/112 116/74/115
f 151/62/38 153/62/89 158/100/89 152/100/38
f 168/49/41 163/49/41 167/80/41 169/80/41
f 175/81/96 166/80/116 165/59/116 170/86/92
f 194/82/117 160/83/117 159/79/117 192/78/117
f 108/99/118 157/100/118 156/58/118 109/57/118
f 188/85/119 174/81/95 173/95/94 187/92/120
f 154/62/121 176/63/97 181/87/101 155/58/121
f 179/96/74 172/95/73 171/86/65 180/87/66
f 191/84/122 182/88/122 184/94/122 189/93/122
f 196/90/123 185/89/124 186/91/125 195/77/126
f 164/49/127 117/50/127 121/60/127 165/59/127
f 185/89/124 188/85/119 187/92/120 186/91/125
f 177/63/98 191/84/128 190/93/128 178/96/99
f 182/88/129 194/82/129 193/78/129 183/94/129
f 161/97/130 196/90/123 195/77/126 162/76/130
f 105/99/11 152/100/11 158/100/11 157/100/11 108/99/11 107/99/11
