# Blender 4.2.1 LTS
# www.blender.org
mtllib Post_its_googaz.mtl
o Cube.001
v 0.042336 -0.005902 0.006590
v 0.042336 0.005902 0.006590
v -0.006590 -0.005902 0.042336
v -0.006590 0.005902 0.042336
v 0.006590 -0.005902 -0.042336
v 0.006590 0.005902 -0.042336
v -0.042336 -0.005902 -0.006590
v -0.042336 0.005902 -0.006590
v 0.042336 0.006192 0.006590
v 0.042336 0.017995 0.006590
v -0.006590 0.006192 0.042336
v -0.006590 0.017995 0.042336
v 0.006590 0.006192 -0.042336
v 0.006590 0.017995 -0.042336
v -0.042336 0.006192 -0.006590
v -0.042336 0.017995 -0.006590
v 0.042336 0.018233 0.006590
v 0.042336 0.030036 0.006590
v -0.006590 0.018233 0.042336
v -0.006590 0.030036 0.042336
v 0.006590 0.018233 -0.042336
v 0.006590 0.030036 -0.042336
v -0.042336 0.018233 -0.006590
v -0.042336 0.030036 -0.006590
v 0.042336 0.030140 0.006590
v 0.042336 0.041944 0.006590
v -0.006590 0.030140 0.042336
v -0.006590 0.041944 0.042336
v 0.006590 0.030140 -0.042336
v 0.006590 0.041944 -0.042336
v -0.042336 0.030140 -0.006590
v -0.042336 0.041944 -0.006590
v 0.042336 0.042087 0.006590
v 0.006817 0.051075 -0.042026
v -0.006590 0.042087 0.042336
v -0.038892 0.059226 -0.003707
v 0.017873 0.042087 0.024463
v 0.024237 0.042721 -0.018183
v -0.017646 0.049504 -0.024153
v -0.024690 0.042721 0.017562
v -0.000227 0.044090 -0.000311
v 0.030105 0.042087 0.015527
v 0.015527 0.046113 -0.030105
v -0.027736 0.054577 -0.012839
v -0.015527 0.042087 0.030105
v 0.005641 0.042087 0.033400
v 0.033400 0.042087 -0.005641
v -0.005414 0.049504 -0.033089
v -0.032045 0.052566 0.008050
v -0.012459 0.042721 0.008626
v 0.012005 0.042721 -0.009247
v 0.008936 0.042087 0.012232
v -0.008936 0.047557 -0.012232
v 0.003295 0.046113 -0.021168
v 0.021168 0.042087 0.003295
v -0.003295 0.042087 0.021168
v -0.020888 0.047916 -0.001082
v 0.029955 0.040489 0.015394
v 0.042187 0.040489 0.006457
v 0.015377 0.044514 -0.030238
v 0.006668 0.049476 -0.042159
v -0.027885 0.052979 -0.012972
v -0.039042 0.057628 -0.003840
v -0.015676 0.040489 0.029971
v -0.006740 0.040489 0.042203
v 0.005492 0.040489 0.033267
v 0.017723 0.040489 0.024330
v 0.033250 0.040489 -0.005774
v 0.024087 0.041123 -0.018317
v -0.005564 0.047906 -0.033223
v -0.017796 0.047906 -0.024286
v -0.032194 0.050967 0.007917
v -0.024840 0.041123 0.017429
v -0.012608 0.041123 0.008493
v 0.011855 0.041123 -0.009380
v -0.000376 0.042492 -0.000444
v 0.008787 0.040489 0.012098
v -0.009086 0.045958 -0.012365
v 0.003146 0.044514 -0.021301
v 0.021019 0.040489 0.003162
v -0.003445 0.040489 0.021035
v -0.021038 0.046318 -0.001215
vn 0.5899 -0.0000 0.8075
vn -0.8075 -0.0000 0.5899
vn -0.5899 -0.0000 -0.8075
vn 0.8075 -0.0000 -0.5899
vn -0.0000 -1.0000 -0.0000
vn -0.0000 1.0000 -0.0000
vn 0.3322 0.9146 0.2307
vn 0.4586 0.8733 0.1645
vn 0.5033 0.8441 0.1851
vn 0.4873 0.8469 0.2126
vn 0.0092 0.9995 0.0303
vn 0.0189 0.9978 0.0634
vn 0.0241 0.9992 0.0329
vn 0.0119 0.9998 0.0163
vn 0.0261 0.9995 0.0180
vn 0.0961 0.9919 0.0832
vn 0.1172 0.9852 0.1254
vn 0.0237 0.9992 0.0324
vn 0.1539 0.9739 0.1666
vn 0.1318 0.9744 0.1822
vn 0.2352 0.9651 0.1150
vn 0.2038 0.9675 0.1496
vn 0.1321 0.9746 0.1808
vn 0.1266 0.9689 0.2128
vn 0.1202 0.9610 0.2489
vn 0.2817 0.9163 0.2845
vn 0.4176 0.8497 0.3219
vn -0.3322 -0.9146 -0.2307
vn -0.4873 -0.8469 -0.2126
vn -0.5033 -0.8441 -0.1851
vn -0.4586 -0.8733 -0.1645
vn -0.0092 -0.9995 -0.0303
vn -0.0119 -0.9998 -0.0163
vn -0.0241 -0.9992 -0.0329
vn -0.0189 -0.9978 -0.0634
vn -0.0261 -0.9995 -0.0180
vn -0.0237 -0.9992 -0.0324
vn -0.1172 -0.9852 -0.1254
vn -0.0961 -0.9919 -0.0832
vn -0.1539 -0.9739 -0.1666
vn -0.2038 -0.9675 -0.1496
vn -0.2352 -0.9651 -0.1150
vn -0.1318 -0.9744 -0.1822
vn -0.1321 -0.9746 -0.1808
vn -0.1266 -0.9689 -0.2128
vn -0.1202 -0.9610 -0.2489
vn -0.2817 -0.9163 -0.2845
vn -0.4176 -0.8497 -0.3219
vn 0.8025 -0.0254 -0.5961
vn 0.8034 -0.0256 -0.5949
vn 0.8022 -0.0253 -0.5966
vn 0.5856 -0.1216 0.8015
vn -0.6181 0.1225 -0.7765
vn -0.6936 0.1240 -0.7096
vn -0.5977 0.1220 -0.7924
vn 0.8072 -0.0263 -0.5897
vn 0.8069 -0.0263 -0.5901
vn 0.8068 -0.0263 -0.5902
vn -0.8068 0.0263 0.5902
vn -0.8069 0.0263 0.5901
vn -0.8072 0.0263 0.5897
vn -0.5957 0.1219 -0.7939
vn -0.5897 0.1217 -0.7984
vn -0.5913 0.1218 -0.7972
vn -0.8544 0.0367 0.5184
vn -0.7901 0.0229 0.6125
vn -0.8486 0.0354 0.5279
vn 0.8057 -0.0260 -0.5917
vn 0.8047 -0.0258 -0.5931
vn -0.6191 0.1226 -0.7756
vn -0.6668 0.1236 -0.7349
vn -0.8033 0.0255 0.5951
vn -0.7890 0.0226 0.6139
vt 0.341480 0.492322
vt 0.345319 0.492322
vt 0.345319 0.496161
vt 0.341480 0.496161
vt 0.345319 0.500000
vt 0.341480 0.500000
vt 0.345319 0.503839
vt 0.341480 0.503839
vt 0.345319 0.507678
vt 0.341480 0.507678
vt 0.337641 0.500000
vt 0.337641 0.503839
vt 0.349159 0.500000
vt 0.349159 0.503839
vt 0.265181 0.494548
vt 0.267907 0.494548
vt 0.267907 0.497274
vt 0.265181 0.497274
vt 0.267907 0.500000
vt 0.265181 0.500000
vt 0.267907 0.502726
vt 0.265181 0.502726
vt 0.267907 0.505452
vt 0.265181 0.505452
vt 0.262455 0.500000
vt 0.262455 0.502726
vt 0.270633 0.500000
vt 0.270633 0.502726
vt 0.518802 0.491876
vt 0.522864 0.491876
vt 0.522864 0.495938
vt 0.518802 0.495938
vt 0.522864 0.500000
vt 0.518802 0.500000
vt 0.522864 0.504062
vt 0.518802 0.504062
vt 0.522864 0.508124
vt 0.518802 0.508124
vt 0.514740 0.500000
vt 0.514740 0.504062
vt 0.526926 0.500000
vt 0.526926 0.504062
vt 0.392280 0.490482
vt 0.397038 0.490482
vt 0.397038 0.495241
vt 0.392280 0.495241
vt 0.397038 0.500000
vt 0.392280 0.500000
vt 0.397038 0.504759
vt 0.392280 0.504759
vt 0.397038 0.509518
vt 0.392280 0.509518
vt 0.387520 0.500000
vt 0.387520 0.504759
vt 0.401797 0.500000
vt 0.401797 0.504759
vt 0.395597 0.503077
vt 0.398674 0.503077
vt 0.398674 0.506154
vt 0.395597 0.506154
vt 0.389443 0.503077
vt 0.392520 0.503077
vt 0.392520 0.506154
vt 0.389443 0.506154
vt 0.389443 0.496923
vt 0.392520 0.496923
vt 0.392520 0.500000
vt 0.389443 0.500000
vt 0.395597 0.496923
vt 0.398674 0.496923
vt 0.398674 0.500000
vt 0.395597 0.500000
vt 0.392520 0.493846
vt 0.395597 0.493846
vt 0.398674 0.493846
vt 0.386366 0.496923
vt 0.386366 0.500000
vt 0.386366 0.493846
vt 0.389443 0.493846
vt 0.386366 0.503077
vt 0.386366 0.506154
s 1
usemtl Material.005
f 1/1/1 2/2/1 4/3/1 3/4/1
f 3/4/2 4/3/2 8/5/2 7/6/2
f 7/6/3 8/5/3 6/7/3 5/8/3
f 5/8/4 6/7/4 2/9/4 1/10/4
f 3/11/5 7/6/5 5/8/5 1/12/5
f 8/5/6 4/13/6 2/14/6 6/7/6
f 9/15/1 10/16/1 12/17/1 11/18/1
f 11/18/2 12/17/2 16/19/2 15/20/2
f 15/20/3 16/19/3 14/21/3 13/22/3
f 13/22/4 14/21/4 10/23/4 9/24/4
f 11/25/5 15/20/5 13/22/5 9/26/5
f 16/19/6 12/27/6 10/28/6 14/21/6
f 17/29/1 18/30/1 20/31/1 19/32/1
f 19/32/2 20/31/2 24/33/2 23/34/2
f 23/34/3 24/33/3 22/35/3 21/36/3
f 21/36/4 22/35/4 18/37/4 17/38/4
f 19/39/5 23/34/5 21/36/5 17/40/5
f 24/33/6 20/41/6 18/42/6 22/35/6
f 25/43/1 26/44/1 28/45/1 27/46/1
f 27/46/2 28/45/2 32/47/2 31/48/2
f 31/48/3 32/47/3 30/49/3 29/50/3
f 29/50/4 30/49/4 26/51/4 25/52/4
f 27/53/5 31/48/5 29/50/5 25/54/5
f 32/47/6 28/55/6 26/56/6 30/49/6
f 57/57/7 44/58/8 36/59/9 49/60/10
f 56/61/11 50/62/12 40/63/13 45/64/14
f 55/65/15 51/66/16 41/67/17 52/68/18
f 54/69/19 48/70/20 39/71/21 53/72/22
f 51/66/16 54/69/19 53/72/22 41/67/17
f 38/73/23 43/74/24 54/69/19 51/66/16
f 43/74/24 34/75/25 48/70/20 54/69/19
f 42/76/6 55/65/15 52/68/18 37/77/6
f 33/78/6 47/79/14 55/65/15 42/76/6
f 47/79/14 38/73/13 51/66/16 55/65/15
f 46/80/6 56/61/11 45/64/14 35/81/6
f 37/77/6 52/68/18 56/61/11 46/80/6
f 52/68/18 41/67/17 50/62/12 56/61/11
f 50/62/26 57/57/7 49/60/10 40/63/27
f 41/67/17 53/72/22 57/57/7 50/62/26
f 53/72/22 39/71/21 44/58/8 57/57/7
f 82/57/28 72/60/29 63/59/30 62/58/31
f 81/61/32 64/64/33 73/63/34 74/62/35
f 80/65/36 77/68/37 76/67/38 75/66/39
f 79/69/40 78/72/41 71/71/42 70/70/43
f 75/66/39 76/67/38 78/72/41 79/69/40
f 69/73/44 75/66/39 79/69/40 60/74/45
f 60/74/45 79/69/40 70/70/43 61/75/46
f 58/76/5 67/77/5 77/68/37 80/65/36
f 59/78/5 58/76/5 80/65/36 68/79/33
f 68/79/33 80/65/36 75/66/39 69/73/34
f 66/80/5 65/81/5 64/64/33 81/61/32
f 67/77/5 66/80/5 81/61/32 77/68/37
f 77/68/37 81/61/32 74/62/35 76/67/38
f 74/62/47 73/63/48 72/60/29 82/57/28
f 76/67/38 74/62/47 82/57/28 78/72/41
f 78/72/41 82/57/28 62/58/31 71/71/42
f 43/74/49 60/74/50 61/75/51 34/75/51
f 35/81/52 65/81/52 66/80/52 46/80/52
f 44/58/53 62/58/54 63/59/55 36/59/55
f 33/78/56 59/78/56 68/79/57 47/79/58
f 45/64/59 64/64/60 65/81/61 35/81/61
f 34/75/62 61/75/62 70/70/63 48/70/64
f 46/80/52 66/80/52 67/77/52 37/77/52
f 36/59/65 63/59/65 72/60/66 49/60/67
f 37/77/52 67/77/52 58/76/52 42/76/52
f 47/79/58 68/79/57 69/73/68 38/73/69
f 38/73/69 69/73/68 60/74/50 43/74/49
f 48/70/64 70/70/63 71/71/70 39/71/71
f 39/71/71 71/71/70 62/58/54 44/58/53
f 49/60/67 72/60/66 73/63/72 40/63/73
f 42/76/52 58/76/52 59/78/52 33/78/52
f 40/63/73 73/63/72 64/64/60 45/64/59
