# Blender 4.2.3 LTS
# www.blender.org
mtllib PrinterButton.mtl
o Cylinder
v 0.428369 1.169171 0.629488
v 0.439729 1.168390 0.631608
v 0.449360 1.166165 0.637647
v 0.455795 1.162836 0.646684
v 0.458054 1.158908 0.657343
v 0.455795 1.154981 0.668003
v 0.449360 1.151651 0.677040
v 0.439729 1.149427 0.683078
v 0.428369 1.148645 0.685198
v 0.417008 1.149427 0.683078
v 0.407378 1.151651 0.677040
v 0.400943 1.154981 0.668003
v 0.398683 1.158908 0.657343
v 0.400943 1.162836 0.646684
v 0.407378 1.166165 0.637647
v 0.417008 1.168390 0.631608
v 0.428369 1.205384 0.643743
v 0.428369 1.204892 0.642649
v 0.439401 1.204625 0.645802
v 0.439729 1.204111 0.644769
v 0.448754 1.202465 0.651666
v 0.449360 1.201886 0.650808
v 0.455004 1.199231 0.660442
v 0.455795 1.198557 0.659845
v 0.457198 1.195417 0.670795
v 0.458054 1.194629 0.670504
v 0.455004 1.191603 0.681147
v 0.455795 1.190702 0.681164
v 0.448754 1.188369 0.689923
v 0.449360 1.187372 0.690201
v 0.439401 1.186209 0.695787
v 0.439729 1.185148 0.696239
v 0.428369 1.185450 0.697847
v 0.428369 1.184366 0.698360
v 0.417336 1.186209 0.695787
v 0.417008 1.185148 0.696239
v 0.407983 1.188369 0.689923
v 0.407378 1.187372 0.690201
v 0.401733 1.191603 0.681147
v 0.400943 1.190702 0.681164
v 0.399539 1.195417 0.670795
v 0.398683 1.194629 0.670504
v 0.401733 1.199231 0.660442
v 0.400943 1.198557 0.659845
v 0.407983 1.202465 0.651666
v 0.407378 1.201886 0.650808
v 0.417336 1.204625 0.645802
v 0.417008 1.204111 0.644769
v 0.442784 1.201397 0.656889
v 0.428369 1.202361 0.655716
v 0.413954 1.201397 0.656889
v 0.443971 1.196640 0.671245
v 0.428369 1.197824 0.671681
v 0.412766 1.196640 0.671245
v 0.442784 1.190945 0.685256
v 0.428369 1.190918 0.686774
v 0.413954 1.190945 0.685256
vn -0.0000 0.3457 -0.9383
vn 0.3827 0.3194 -0.8669
vn 0.7071 0.2445 -0.6635
vn 0.9239 0.1323 -0.3591
vn 1.0000 -0.0000 -0.0000
vn 0.9239 -0.1323 0.3591
vn 0.7071 -0.2445 0.6635
vn 0.3827 -0.3194 0.8669
vn -0.0000 -0.3457 0.9383
vn -0.3827 -0.3194 0.8669
vn -0.7071 -0.2445 0.6635
vn -0.9239 -0.1323 0.3591
vn -1.0000 -0.0000 -0.0000
vn -0.9239 0.1323 -0.3591
vn -0.7071 0.2445 -0.6635
vn -0.3827 0.3194 -0.8669
vn -0.0000 0.9930 -0.1180
vn -0.0000 0.6692 -0.7431
vn 0.1769 0.9804 -0.0862
vn 0.3554 0.6447 -0.6768
vn 0.3232 0.9463 0.0042
vn 0.6566 0.5751 -0.4879
vn 0.4184 0.8970 0.1430
vn 0.8579 0.4710 -0.2052
vn 0.4518 0.8371 0.3084
vn 0.9286 0.3481 0.1283
vn 0.4184 0.7753 0.4732
vn 0.8579 0.2252 0.4617
vn 0.3232 0.7228 0.6108
vn 0.6566 0.1211 0.7444
vn 0.1769 0.6901 0.7017
vn 0.3554 0.0515 0.9333
vn -0.0000 0.6791 0.7340
vn -0.0000 0.0271 0.9996
vn -0.1769 0.6901 0.7017
vn -0.3554 0.0515 0.9333
vn -0.3232 0.7228 0.6108
vn -0.6566 0.1211 0.7444
vn -0.4184 0.7753 0.4732
vn -0.8579 0.2252 0.4617
vn -0.4518 0.8371 0.3084
vn -0.9286 0.3481 0.1283
vn -0.4184 0.8970 0.1430
vn -0.8579 0.4710 -0.2052
vn -0.3232 0.9463 0.0042
vn -0.6566 0.5751 -0.4879
vn -0.1769 0.9804 -0.0862
vn -0.3554 0.6447 -0.6768
vn 0.0641 0.9566 0.2844
vn -0.0000 0.9620 0.2730
vn -0.0641 0.9566 0.2844
vn 0.0750 0.9357 0.3447
vn -0.0000 0.9383 0.3457
vn -0.0750 0.9357 0.3447
vn 0.0641 0.9124 0.4043
vn -0.0000 0.9092 0.4164
vn -0.0641 0.9124 0.4043
vt 0.725005 0.274736
vt 0.751776 0.275009
vt 0.751778 0.256887
vt 0.725008 0.256607
vt 0.725002 0.326374
vt 0.751772 0.326639
vt 0.751766 0.403903
vt 0.724995 0.403631
vt 0.751759 0.495051
vt 0.724987 0.494779
vt 0.751752 0.586200
vt 0.724981 0.585927
vt 0.751747 0.663463
vt 0.724975 0.663198
vt 0.751742 0.715094
vt 0.724971 0.714829
vt 0.751740 0.733230
vt 0.724970 0.732958
vt 0.758515 0.567440
vt 0.758120 0.571206
vt 0.758120 0.569264
vt 0.758504 0.565606
vt 0.758851 0.556715
vt 0.758830 0.555190
vt 0.759075 0.540663
vt 0.759047 0.539602
vt 0.759154 0.521729
vt 0.759124 0.521214
vt 0.759075 0.502795
vt 0.759047 0.502826
vt 0.758851 0.486744
vt 0.758830 0.487237
vt 0.758515 0.476018
vt 0.758504 0.476821
vt 0.758120 0.472252
vt 0.758120 0.473163
vt 0.757724 0.476018
vt 0.757735 0.476821
vt 0.757389 0.486744
vt 0.757410 0.487237
vt 0.757164 0.502795
vt 0.757192 0.502826
vt 0.757086 0.521729
vt 0.757116 0.521214
vt 0.757164 0.540663
vt 0.757192 0.539602
vt 0.757389 0.556715
vt 0.757410 0.555190
vt 0.757724 0.567440
vt 0.757735 0.565606
vt 0.752366 0.281361
vt 0.752924 0.373784
vt 0.752356 0.406541
vt 0.752361 0.331498
vt 0.753265 0.495066
vt 0.752349 0.495063
vt 0.752906 0.616329
vt 0.752342 0.583578
vt 0.752333 0.708757
vt 0.752337 0.658614
vt 0.752368 0.263760
vt 0.753276 0.362294
vt 0.754153 0.495076
vt 0.753255 0.627838
vt 0.752332 0.726365
s 1
usemtl Toon
f 16/1/16 48/2/48 18/3/18 1/4/1
f 3/5/3 22/6/22 24/7/24 4/8/4
f 4/8/4 24/7/24 26/9/26 5/10/5
f 5/10/5 26/9/26 28/11/28 6/12/6
f 6/12/6 28/11/28 30/13/30 7/14/7
f 7/14/7 30/13/30 32/15/32 8/16/8
f 8/16/8 32/15/32 34/17/34 9/18/9
f 9/18/9 34/17/34 36/15/36 10/16/10
f 10/16/10 36/15/36 38/13/38 11/14/11
f 11/14/11 38/13/38 40/11/40 12/12/12
f 12/12/12 40/11/40 42/9/42 13/10/13
f 13/10/13 42/9/42 44/7/44 14/8/14
f 14/8/14 44/7/44 46/6/46 15/5/15
f 15/5/15 46/6/46 48/2/48 16/1/16
f 1/4/1 18/3/18 20/2/20 2/1/2
f 2/1/2 20/2/20 22/6/22 3/5/3
f 20/19/20 18/20/18 17/21/17 19/22/19
f 22/23/22 20/19/20 19/22/19 21/24/21
f 24/25/24 22/23/22 21/24/21 23/26/23
f 26/27/26 24/25/24 23/26/23 25/28/25
f 28/29/28 26/27/26 25/28/25 27/30/27
f 30/31/30 28/29/28 27/30/27 29/32/29
f 32/33/32 30/31/30 29/32/29 31/34/31
f 34/35/34 32/33/32 31/34/31 33/36/33
f 36/37/36 34/35/34 33/36/33 35/38/35
f 38/39/38 36/37/36 35/38/35 37/40/37
f 40/41/40 38/39/38 37/40/37 39/42/39
f 42/43/42 40/41/40 39/42/39 41/44/41
f 44/45/44 42/43/42 41/44/41 43/46/43
f 46/47/46 44/45/44 43/46/43 45/48/45
f 48/49/48 46/47/46 45/48/45 47/50/47
f 18/20/18 48/49/48 47/50/47 17/21/17
f 19/51/19 49/52/49 23/53/23 21/54/21
f 49/52/49 52/55/52 25/56/25 23/53/23
f 52/55/52 55/57/55 27/58/27 25/56/25
f 55/57/55 31/59/31 29/60/29 27/58/27
f 17/61/17 50/62/50 49/52/49 19/51/19
f 50/62/50 53/63/53 52/55/52 49/52/49
f 53/63/53 56/64/56 55/57/55 52/55/52
f 56/64/56 33/65/33 31/59/31 55/57/55
f 47/51/47 51/52/51 50/62/50 17/61/17
f 51/52/51 54/55/54 53/63/53 50/62/50
f 54/55/54 57/57/57 56/64/56 53/63/53
f 57/57/57 35/59/35 33/65/33 56/64/56
f 45/54/45 43/53/43 51/52/51 47/51/47
f 43/53/43 41/56/41 54/55/54 51/52/51
f 41/56/41 39/58/39 57/57/57 54/55/54
f 39/58/39 37/60/37 35/59/35 57/57/57
