# Blender 4.2.1 LTS
# www.blender.org
mtllib PrintPaper.mtl
o Papel.001
v -0.157922 0.000000 0.208960
v 0.157974 0.000000 0.208920
v -0.157974 -0.000000 -0.208920
v 0.157921 -0.000000 -0.208960
v -0.157922 -0.003000 0.208960
v 0.157974 -0.003000 0.208920
v -0.157974 -0.003000 -0.208920
v 0.157921 -0.003000 -0.208960
vn -0.0000 1.0000 -0.0000
vn -0.0000 -1.0000 -0.0000
vn -0.0001 -0.0000 -1.0000
vn 0.0001 -0.0000 1.0000
vn 1.0000 -0.0000 -0.0001
vn -1.0000 -0.0000 0.0001
vt 0.994507 0.994578
vt 0.002199 0.994578
vt 0.002198 0.004821
vt 0.994510 0.004822
vt 0.002927 0.003553
vt 0.002927 0.036442
vt 0.034408 0.036442
vt 0.034408 0.003553
vt 0.034408 0.037797
vt 0.002927 0.037797
vt 0.002927 0.002198
vt 0.034408 0.002198
vt 0.036124 0.003553
vt 0.036124 0.036442
vt 0.001211 0.036442
vt 0.001211 0.003553
s 0
usemtl PrintPaper
f 1/1/1 2/2/1 4/3/1 3/4/1
f 5/5/2 7/6/2 8/7/2 6/8/2
f 4/9/3 8/7/3 7/6/3 3/10/3
f 1/11/4 5/5/4 6/8/4 2/12/4
f 2/13/5 6/8/5 8/7/5 4/14/5
f 3/15/6 7/6/6 5/5/6 1/16/6
