# Blender 4.2.3 LTS
# www.blender.org
mtllib Guardrail_Default.mtl
o Guardrail_Default
v -0.121325 0.427606 -1.000000
v -0.121325 0.827497 -1.000000
v -0.121325 0.427606 1.000000
v -0.121325 0.827497 1.000000
v -0.106404 0.690140 1.000000
v -0.106404 0.564962 1.000000
v -0.106404 0.690140 -1.000000
v -0.106404 0.564962 -1.000000
v -0.088325 0.627551 1.000000
v -0.088325 0.627551 -1.000000
v -0.131623 0.531764 1.000000
v -0.133338 0.451597 1.000000
v -0.142575 0.494527 1.000000
v -0.131623 0.531764 -1.000000
v -0.133338 0.451597 -1.000000
v -0.142575 0.494527 -1.000000
v -0.131623 0.723338 1.000000
v -0.133338 0.803506 1.000000
v -0.142575 0.760575 1.000000
v -0.131623 0.723338 -1.000000
v -0.133338 0.803506 -1.000000
v -0.142575 0.760575 -1.000000
v -0.098589 0.427606 -1.000000
v -0.098589 0.427606 1.000000
v -0.098589 0.827497 1.000000
v -0.098589 0.827497 -1.000000
v -0.065588 0.627551 1.000000
v -0.083668 0.564962 1.000000
v -0.065589 0.627551 -1.000000
v -0.083668 0.564962 -1.000000
v -0.083668 0.690140 1.000000
v -0.083668 0.690140 -1.000000
v -0.108886 0.531764 1.000000
v -0.119838 0.494527 1.000000
v -0.110602 0.451597 1.000000
v -0.108887 0.531764 -1.000000
v -0.119839 0.494527 -1.000000
v -0.110602 0.451597 -1.000000
v -0.119839 0.760575 -1.000000
v -0.110602 0.803506 -1.000000
v -0.108887 0.723338 -1.000000
v -0.119838 0.760575 1.000000
v -0.110602 0.803506 1.000000
v -0.108886 0.723338 1.000000
v -0.018155 0.523242 -0.025139
v -0.018155 0.523242 0.025139
v -0.018155 0.000000 -0.025139
v -0.018155 0.000000 0.025139
v -0.106228 0.523242 -0.025139
v -0.112052 0.523242 -0.019316
v -0.112052 0.523242 0.019316
v -0.106228 0.523242 0.025139
v -0.106228 0.000000 0.025139
v -0.112052 0.000000 0.019316
v -0.112052 0.000000 -0.019316
v -0.106228 0.000000 -0.025139
vn 0.8936 0.4488 -0.0000
vn 0.8925 0.4510 -0.0000
vn 1.0000 -0.0000 -0.0000
vn 0.5255 0.8508 -0.0000
vn 0.9434 0.3317 -0.0000
vn 0.8936 -0.4488 -0.0000
vn 0.8925 -0.4510 -0.0000
vn 0.9434 -0.3317 -0.0000
vn 0.5255 -0.8508 -0.0000
vn 0.9993 -0.0371 -0.0000
vn 0.9993 0.0371 -0.0000
vn -0.8936 -0.4488 -0.0000
vn -0.8925 -0.4510 -0.0000
vn -1.0000 -0.0000 -0.0000
vn -0.8508 0.5255 -0.0000
vn -0.9434 -0.3317 -0.0000
vn -0.8936 0.4488 -0.0000
vn -0.8925 0.4510 -0.0000
vn -0.9434 0.3317 -0.0000
vn -0.8508 -0.5255 -0.0000
vn -0.9993 0.0371 -0.0000
vn -0.9993 -0.0371 -0.0000
vn -0.0000 -0.0000 -1.0000
vn -0.0000 -0.0000 1.0000
vn -0.7071 -0.0000 0.7071
vn -0.7071 -0.0000 -0.7071
vt 0.627237 0.727390
vt 0.627237 0.218126
vt 0.626102 0.218126
vt 0.626102 0.727390
vt 0.631834 0.727390
vt 0.631834 0.218126
vt 0.631645 0.218126
vt 0.631645 0.727390
vt 0.636216 0.727390
vt 0.636216 0.218126
vt 0.635395 0.218126
vt 0.635395 0.727390
vt 0.632023 0.727390
vt 0.632023 0.218126
vt 0.632654 0.727390
vt 0.632654 0.218126
vt 0.631518 0.218126
vt 0.631518 0.727390
vt 0.623360 0.727390
vt 0.623360 0.218126
vt 0.622539 0.218126
vt 0.622539 0.727390
vt 0.633927 0.727390
vt 0.633927 0.218126
vt 0.624828 0.727390
vt 0.624828 0.218126
vt 0.629378 0.727390
vt 0.629378 0.218126
vt 0.617629 0.727390
vt 0.617629 0.218126
vt 0.647550 0.466356
vt 0.633895 0.466356
vt 0.647550 0.479150
vt 0.633895 0.479150
vt 0.630453 0.477668
vt 0.632757 0.477668
vt 0.632757 0.479150
vt 0.630453 0.479150
vt 0.630453 0.466356
vt 0.632757 0.466356
vt 0.632757 0.467838
vt 0.630453 0.467838
vt 0.647550 0.477668
vt 0.633895 0.477668
vt 0.633895 0.467838
vt 0.647550 0.467838
s 1
usemtl Material
f 5/1/1 7/2/1 20/3/2 17/4/2
f 9/5/3 10/6/3 7/7/1 5/8/1
f 3/9/4 1/10/4 15/11/5 12/12/5
f 6/13/6 8/14/6 10/6/3 9/5/3
f 11/15/7 14/16/7 8/17/6 6/18/6
f 18/19/8 21/20/8 2/21/9 4/22/9
f 11/15/7 13/23/10 16/24/10 14/16/7
f 13/23/10 12/12/5 15/11/5 16/24/10
f 18/19/8 19/25/11 22/26/11 21/20/8
f 19/25/11 17/4/2 20/3/2 22/26/11
f 31/1/12 44/4/13 41/3/13 32/2/12
f 27/27/14 31/1/12 32/2/12 29/28/14
f 24/9/15 35/12/16 38/11/16 23/10/15
f 28/18/17 27/27/14 29/28/14 30/17/17
f 33/15/18 28/18/17 30/17/17 36/16/18
f 43/19/19 25/22/20 26/21/20 40/20/19
f 33/15/18 36/16/18 37/24/21 34/23/21
f 34/23/21 37/24/21 38/11/16 35/12/16
f 43/19/19 40/20/19 39/26/22 42/25/22
f 42/25/22 39/26/22 41/3/13 44/4/13
f 1/10/4 3/9/4 24/9/15 23/10/15
f 4/29/9 2/30/9 26/30/20 25/29/20
s 0
f 56/31/23 49/32/23 45/32/23 47/31/23
f 48/33/24 46/34/24 52/34/24 53/33/24
f 51/35/25 54/36/25 53/37/25 52/38/25
f 49/39/26 56/40/26 55/41/26 50/42/26
f 54/43/14 51/44/14 50/45/14 55/46/14
