# Blender 4.2.3 LTS
# www.blender.org
mtllib Guardrail_End_L.mtl
o Guardrail_End_L
v -0.045970 0.333280 -0.962055
v -0.045970 0.921823 -0.962055
v -0.121325 0.427606 1.000000
v -0.121325 0.827497 1.000000
v -0.106404 0.690140 1.000000
v -0.106404 0.564962 1.000000
v 0.044706 0.719667 -1.103755
v 0.044706 0.535435 -1.103755
v -0.088325 0.627551 1.000000
v 0.054913 0.627551 -1.108292
v -0.131623 0.531764 1.000000
v -0.133338 0.451597 1.000000
v -0.142575 0.494527 1.000000
v 0.031352 0.486576 -1.098907
v -0.004406 0.368589 -1.040127
v 0.013070 0.431772 -1.075868
v -0.131623 0.723338 1.000000
v -0.133338 0.803506 1.000000
v -0.142575 0.760575 1.000000
v 0.031352 0.768526 -1.098907
v -0.004406 0.886514 -1.040127
v 0.013070 0.823330 -1.075868
v -0.038984 0.333280 -0.957949
v -0.098589 0.427606 1.000000
v -0.098589 0.827497 1.000000
v -0.038984 0.921823 -0.957949
v -0.065588 0.627551 1.000000
v -0.083668 0.564962 1.000000
v 0.061874 0.627551 -1.104142
v 0.051667 0.535435 -1.099605
v -0.083668 0.690140 1.000000
v 0.051667 0.719667 -1.099605
v -0.108886 0.531764 1.000000
v -0.119838 0.494527 1.000000
v -0.110602 0.451597 1.000000
v 0.038666 0.486576 -1.095352
v 0.020504 0.431772 -1.072511
v 0.002735 0.368589 -1.036281
v 0.020504 0.823330 -1.072511
v 0.002735 0.886514 -1.036281
v 0.038666 0.768526 -1.095352
v -0.119838 0.760575 1.000000
v -0.110602 0.803506 1.000000
v -0.108886 0.723338 1.000000
v -0.118377 0.827497 -0.582124
v -0.108258 0.564962 -0.582124
v -0.108258 0.690140 -0.582124
v -0.095996 0.627551 -0.582124
v -0.125361 0.531764 -0.582124
v -0.126524 0.803506 -0.582124
v -0.102957 0.827497 -0.582124
v -0.092838 0.564962 -0.582124
v -0.092838 0.690140 -0.582124
v -0.080576 0.627551 -0.582124
v -0.109941 0.531764 -0.582124
v -0.111104 0.803506 -0.582124
v -0.118377 0.427606 -0.582124
v -0.132789 0.494527 -0.582124
v -0.126524 0.451597 -0.582124
v -0.132789 0.760575 -0.582124
v -0.125361 0.723338 -0.582124
v -0.102957 0.427606 -0.582124
v -0.117369 0.494527 -0.582124
v -0.111104 0.451597 -0.582124
v -0.117369 0.760575 -0.582124
v -0.109941 0.723338 -0.582124
v -0.100621 0.852619 -0.763943
v -0.073045 0.557098 -0.839072
v -0.073045 0.698004 -0.839072
v -0.063365 0.627551 -0.840970
v -0.086337 0.519729 -0.837215
v -0.095540 0.825614 -0.805921
v -0.089841 0.852619 -0.761098
v -0.062271 0.557098 -0.836204
v -0.062271 0.698004 -0.836204
v -0.052591 0.627551 -0.838101
v -0.075478 0.519729 -0.834663
v -0.084723 0.825614 -0.803214
v -0.100621 0.402483 -0.763943
v -0.095082 0.477813 -0.825245
v -0.095540 0.429488 -0.805921
v -0.095082 0.777289 -0.825245
v -0.086337 0.735373 -0.837215
v -0.089841 0.402483 -0.761098
v -0.084195 0.477813 -0.822800
v -0.084723 0.429488 -0.803214
v -0.084195 0.777289 -0.822800
v -0.075478 0.735373 -0.834663
v -0.018155 0.523242 -0.025139
v -0.018155 0.523242 0.025139
v -0.018155 0.000000 -0.025139
v -0.018155 0.000000 0.025139
v -0.106228 0.523242 -0.025139
v -0.112052 0.523242 -0.019315
v -0.112052 0.523242 0.019315
v -0.106228 0.523242 0.025139
v -0.106228 0.000000 0.025139
v -0.112052 0.000000 0.019315
v -0.112052 0.000000 -0.019315
v -0.106228 0.000000 -0.025139
vn 0.9329 0.2224 0.2833
vn 0.2703 -0.0026 0.9628
vn 0.3211 -0.1351 0.9373
vn 0.9275 0.2284 0.2960
vn 0.9601 -0.0000 0.2796
vn 0.2465 -0.0000 0.9691
vn 0.7365 0.6760 -0.0237
vn 0.6091 0.7471 0.2659
vn 0.3848 0.6134 0.6897
vn 0.9643 0.0291 0.2631
vn 0.9329 -0.2224 0.2833
vn 0.2703 0.0026 0.9628
vn 0.9275 -0.2284 0.2960
vn 0.3211 0.1351 0.9373
vn 0.9643 -0.0291 0.2631
vn 0.3848 -0.6134 0.6897
vn 0.6091 -0.7471 0.2659
vn 0.7365 -0.6760 -0.0237
vn 0.9599 -0.0458 0.2767
vn 0.3944 0.3277 0.8585
vn 0.9599 0.0458 0.2767
vn 0.3944 -0.3277 0.8585
vn -0.9363 -0.2238 -0.2706
vn -0.9306 -0.2305 -0.2845
vn -0.8725 -0.3482 0.3427
vn -0.9298 -0.2097 0.3026
vn -0.9638 -0.0000 -0.2668
vn -0.9503 -0.0000 0.3114
vn -0.6880 0.6728 -0.2723
vn -0.9679 -0.0181 -0.2507
vn -0.8003 0.5670 0.1948
vn -0.5586 0.8045 -0.2019
vn -0.9363 0.2238 -0.2706
vn -0.9298 0.2097 0.3026
vn -0.9306 0.2305 -0.2845
vn -0.8725 0.3482 0.3427
vn -0.9679 0.0181 -0.2507
vn -0.6880 -0.6728 -0.2723
vn -0.5586 -0.8045 -0.2019
vn -0.8003 -0.5670 0.1948
vn -0.8741 0.3873 0.2932
vn -0.9631 0.0499 -0.2644
vn -0.8741 -0.3873 0.2932
vn -0.9631 -0.0499 -0.2644
vn 0.6323 0.7747 -0.0042
vn 0.5539 0.8326 0.0017
vn -0.8333 0.5529 0.0013
vn -0.7935 0.6015 -0.0925
vn -0.9969 -0.0412 -0.0672
vn -0.9376 -0.3407 -0.0690
vn -0.9192 -0.3938 0.0012
vn -0.9995 -0.0317 -0.0005
vn -0.9588 0.2842 0.0004
vn -0.9792 0.1961 -0.0515
vn -0.9969 0.0412 -0.0672
vn -0.9792 -0.1961 -0.0515
vn -0.9588 -0.2842 0.0004
vn -0.9995 0.0317 -0.0005
vn -0.9192 0.3938 0.0012
vn -0.9376 0.3407 -0.0690
vn -0.8333 -0.5529 0.0013
vn -0.7935 -0.6015 -0.0925
vn -0.9201 0.3916 0.0051
vn -0.9401 0.3354 -0.0605
vn -1.0000 -0.0000 0.0076
vn -0.9985 -0.0000 -0.0554
vn -0.9201 -0.3916 0.0051
vn -0.9401 -0.3354 -0.0605
vn 0.9371 0.3400 0.0788
vn 0.9962 0.0395 0.0778
vn 0.9995 0.0316 0.0052
vn 0.9193 0.3936 0.0031
vn 0.9776 -0.2009 0.0629
vn 0.9588 -0.2841 0.0040
vn 0.9776 0.2009 0.0629
vn 0.9962 -0.0395 0.0778
vn 0.9995 -0.0316 0.0052
vn 0.9588 0.2841 0.0040
vn 0.9371 -0.3400 0.0788
vn 0.9193 -0.3936 0.0031
vn 0.6323 -0.7747 -0.0042
vn 0.5539 -0.8326 0.0017
vn 0.9395 -0.3353 0.0706
vn 0.9201 -0.3918 -0.0009
vn 0.9978 -0.0000 0.0661
vn 1.0000 -0.0000 -0.0030
vn 0.9395 0.3353 0.0706
vn 0.9201 0.3918 -0.0009
vn -0.0000 -0.0000 -1.0000
vn -0.0000 -0.0000 1.0000
vn -0.7071 -0.0000 0.7071
vn -0.7071 -0.0000 -0.7071
vn -1.0000 -0.0000 -0.0000
vt 0.626968 0.260351
vt 0.626227 0.192955
vt 0.624557 0.194189
vt 0.625690 0.260828
vt 0.631834 0.259865
vt 0.631834 0.191803
vt 0.631556 0.192955
vt 0.631621 0.260351
vt 0.637075 0.279480
vt 0.639442 0.229035
vt 0.638235 0.209160
vt 0.636152 0.268793
vt 0.632046 0.260351
vt 0.632112 0.192955
vt 0.633065 0.260828
vt 0.634199 0.194189
vt 0.632529 0.192955
vt 0.631787 0.260351
vt 0.622603 0.268793
vt 0.620521 0.209160
vt 0.619313 0.229035
vt 0.621680 0.279480
vt 0.634499 0.263874
vt 0.636073 0.200062
vt 0.624257 0.263874
vt 0.622682 0.200062
vt 0.626968 0.261084
vt 0.625690 0.261479
vt 0.624557 0.195095
vt 0.626227 0.194010
vt 0.629378 0.260594
vt 0.629378 0.192858
vt 0.637075 0.280211
vt 0.636152 0.269480
vt 0.638235 0.210133
vt 0.639442 0.230080
vt 0.631787 0.261084
vt 0.632529 0.194010
vt 0.633065 0.261479
vt 0.634199 0.195095
vt 0.622603 0.269480
vt 0.621680 0.280211
vt 0.619313 0.230080
vt 0.620521 0.210133
vt 0.636073 0.200907
vt 0.634499 0.264494
vt 0.622682 0.200907
vt 0.624257 0.264494
vt 0.617586 0.279480
vt 0.617465 0.229035
vt 0.617465 0.230080
vt 0.617586 0.280211
vt 0.636216 0.325783
vt 0.636216 0.728644
vt 0.624828 0.325783
vt 0.626102 0.325783
vt 0.626102 0.728644
vt 0.624828 0.728644
vt 0.623360 0.728644
vt 0.623360 0.325783
vt 0.633927 0.325783
vt 0.635395 0.325783
vt 0.635395 0.728644
vt 0.633927 0.728644
vt 0.632654 0.728644
vt 0.632654 0.325783
vt 0.622539 0.728644
vt 0.622539 0.325783
vt 0.631518 0.728644
vt 0.631518 0.325783
vt 0.629378 0.728644
vt 0.629378 0.325783
vt 0.627237 0.728644
vt 0.627237 0.325783
vt 0.632023 0.728644
vt 0.632023 0.325783
vt 0.631834 0.325783
vt 0.631834 0.728644
vt 0.631645 0.325783
vt 0.631645 0.728644
vt 0.617629 0.325783
vt 0.617629 0.728644
vt 0.647550 0.466356
vt 0.633895 0.466356
vt 0.647550 0.479150
vt 0.633895 0.479150
vt 0.617526 0.209160
vt 0.617526 0.210133
vt 0.617637 0.200062
vt 0.617637 0.200907
vt 0.617732 0.194189
vt 0.617732 0.195095
vt 0.617818 0.192955
vt 0.617818 0.194010
vt 0.630453 0.477668
vt 0.632757 0.477668
vt 0.632757 0.479150
vt 0.630453 0.479150
vt 0.630453 0.466356
vt 0.632757 0.466356
vt 0.632757 0.467838
vt 0.630453 0.467838
vt 0.647550 0.477668
vt 0.633895 0.477668
vt 0.633895 0.467838
vt 0.647550 0.467838
s 1
usemtl Material
f 69/1/1 7/2/2 20/3/3 83/4/4
f 70/5/5 10/6/6 7/7/2 69/8/1
f 79/9/7 1/10/8 15/11/9 81/12/10
f 68/13/11 8/14/12 10/6/6 70/5/5
f 71/15/13 14/16/14 8/17/12 68/18/11
f 72/19/15 21/20/16 2/21/17 67/22/18
f 71/15/13 80/23/19 16/24/20 14/16/14
f 80/23/19 81/12/10 15/11/9 16/24/20
f 72/19/15 82/25/21 22/26/22 21/20/16
f 82/25/21 83/4/4 20/3/3 22/26/22
f 75/27/23 88/28/24 41/29/25 32/30/26
f 76/31/27 75/27/23 32/30/26 29/32/28
f 84/33/29 86/34/30 38/35/31 23/36/32
f 74/37/33 76/31/27 29/32/28 30/38/34
f 77/39/35 74/37/33 30/38/34 36/40/36
f 78/41/37 73/42/38 26/43/39 40/44/40
f 77/39/35 36/40/36 37/45/41 85/46/42
f 85/46/42 37/45/41 38/35/31 86/34/30
f 78/41/37 40/44/40 39/47/43 87/48/44
f 87/48/44 39/47/43 41/29/25 88/28/24
f 67/49/18 2/50/17 26/51/39 73/52/38
f 57/53/45 3/54/46 24/54/47 62/53/48
f 65/55/49 66/56/50 44/57/51 42/58/52
f 43/59/53 56/60/54 65/55/49 42/58/52
f 63/61/55 64/62/56 35/63/57 34/64/58
f 33/65/59 55/66/60 63/61/55 34/64/58
f 25/67/61 51/68/62 56/60/54 43/59/53
f 28/69/63 52/70/64 55/66/60 33/65/59
f 27/71/65 54/72/66 52/70/64 28/69/63
f 64/62/56 62/53/48 24/54/47 35/63/57
f 31/73/67 53/74/68 54/72/66 27/71/65
f 66/56/50 53/74/68 31/73/67 44/57/51
f 61/56/69 60/55/70 19/58/71 17/57/72
f 60/55/70 50/60/73 18/59/74 19/58/71
f 59/62/75 58/61/76 13/64/77 12/63/78
f 58/61/76 49/66/79 11/65/80 13/64/77
f 18/59/74 50/60/73 45/68/81 4/67/82
f 11/65/80 49/66/79 46/70/83 6/69/84
f 6/75/84 46/76/83 48/77/85 9/78/86
f 57/53/45 59/62/75 12/63/78 3/54/46
f 9/78/86 48/77/85 47/79/87 5/80/88
f 5/73/88 47/74/87 61/56/69 17/57/72
f 79/9/7 57/53/45 62/53/48 84/33/29
f 1/10/8 79/9/7 84/33/29 23/36/32
f 45/81/81 67/49/18 73/52/38 51/81/62
f 65/55/49 87/48/44 88/28/24 66/56/50
f 56/60/54 78/41/37 87/48/44 65/55/49
f 63/61/55 85/46/42 86/34/30 64/62/56
f 55/66/60 77/39/35 85/46/42 63/61/55
f 56/60/54 51/68/62 73/42/38 78/41/37
f 55/66/60 52/70/64 74/37/33 77/39/35
f 52/70/64 54/72/66 76/31/27 74/37/33
f 62/53/48 64/62/56 86/34/30 84/33/29
f 54/72/66 53/74/68 75/27/23 76/31/27
f 53/74/68 66/56/50 88/28/24 75/27/23
f 60/55/70 61/56/69 83/4/4 82/25/21
f 50/60/73 60/55/70 82/25/21 72/19/15
f 58/61/76 59/62/75 81/12/10 80/23/19
f 49/66/79 58/61/76 80/23/19 71/15/13
f 50/60/73 72/19/15 67/22/18 45/68/81
f 49/66/79 71/15/13 68/18/11 46/70/83
f 46/76/83 68/13/11 70/5/5 48/77/85
f 57/53/45 79/9/7 81/12/10 59/62/75
f 48/77/85 70/5/5 69/8/1 47/79/87
f 47/74/87 69/1/1 83/4/4 61/56/69
f 4/82/82 45/81/81 51/81/62 25/82/61
s 0
f 100/83/89 93/84/89 89/84/89 91/83/89
f 92/85/90 90/86/90 96/86/90 97/85/90
s 1
f 2/50/17 21/87/16 40/88/40 26/51/39
f 21/87/16 22/89/22 39/90/43 40/88/40
f 22/89/22 20/91/3 41/92/25 39/90/43
f 20/91/3 7/93/2 32/94/26 41/92/25
f 7/2/2 10/6/6 29/32/28 32/30/26
f 10/6/6 8/14/12 30/38/34 29/32/28
f 8/14/12 14/16/14 36/40/36 30/38/34
f 14/16/14 16/24/20 37/45/41 36/40/36
f 16/24/20 15/11/9 38/35/31 37/45/41
f 15/11/9 1/10/8 23/36/32 38/35/31
s 0
f 95/95/91 98/96/91 97/97/91 96/98/91
f 93/99/92 100/100/92 99/101/92 94/102/92
f 98/103/93 95/104/93 94/105/93 99/106/93
