# Blender 4.2.3 LTS
# www.blender.org
mtllib Guardrail_End_R.mtl
o Guardrail_End_R
v -0.045970 0.921823 0.972931
v -0.045970 0.333280 0.972931
v -0.121325 0.827497 -1.000000
v -0.121325 0.427606 -1.000000
v -0.106404 0.564963 -1.000000
v -0.106404 0.690141 -1.000000
v 0.044707 0.535436 1.114631
v 0.044707 0.719667 1.114632
v -0.088325 0.627552 -1.000000
v 0.054914 0.627551 1.119168
v -0.131623 0.723339 -1.000000
v -0.133338 0.803506 -1.000000
v -0.142575 0.760576 -1.000000
v 0.031352 0.768527 1.109784
v -0.004406 0.886514 1.051004
v 0.013071 0.823330 1.086744
v -0.131623 0.531765 -1.000000
v -0.133338 0.451597 -1.000000
v -0.142575 0.494528 -1.000000
v 0.031352 0.486576 1.109783
v -0.004406 0.368589 1.051004
v 0.013071 0.431773 1.086744
v -0.038983 0.921823 0.968826
v -0.098589 0.827497 -1.000000
v -0.098589 0.427606 -1.000000
v -0.038983 0.333280 0.968826
v -0.065589 0.627552 -1.000000
v -0.083668 0.690141 -1.000000
v 0.061874 0.627551 1.115018
v 0.051667 0.719667 1.110482
v -0.083668 0.564963 -1.000000
v 0.051667 0.535436 1.110482
v -0.108887 0.723339 -1.000000
v -0.119839 0.760576 -1.000000
v -0.110602 0.803506 -1.000000
v 0.038667 0.768527 1.106229
v 0.020504 0.823330 1.083388
v 0.002735 0.886514 1.047157
v 0.020504 0.431773 1.083388
v 0.002735 0.368589 1.047157
v 0.038667 0.486576 1.106228
v -0.119839 0.494528 -1.000000
v -0.110602 0.451597 -1.000000
v -0.108887 0.531765 -1.000000
v -0.118377 0.427606 0.593000
v -0.108258 0.690140 0.593000
v -0.108258 0.564963 0.593000
v -0.095996 0.627551 0.593000
v -0.125361 0.723338 0.593000
v -0.126524 0.451597 0.593000
v -0.102957 0.427606 0.593000
v -0.092838 0.690140 0.593000
v -0.092838 0.564963 0.593000
v -0.080576 0.627551 0.593000
v -0.109941 0.723338 0.593000
v -0.111104 0.451597 0.593000
v -0.118377 0.827497 0.593000
v -0.132789 0.760575 0.593000
v -0.126524 0.803506 0.593000
v -0.132789 0.494528 0.593000
v -0.125361 0.531765 0.593000
v -0.102957 0.827497 0.593000
v -0.117369 0.760575 0.593000
v -0.111104 0.803506 0.593000
v -0.117369 0.494528 0.593000
v -0.109941 0.531765 0.593000
v -0.100621 0.402483 0.774819
v -0.073045 0.698004 0.849949
v -0.073045 0.557098 0.849949
v -0.063365 0.627551 0.851846
v -0.086337 0.735374 0.848091
v -0.095540 0.429489 0.816797
v -0.089841 0.402483 0.771974
v -0.062271 0.698004 0.847080
v -0.062271 0.557098 0.847080
v -0.052591 0.627551 0.848978
v -0.075478 0.735374 0.845540
v -0.084723 0.429489 0.814090
v -0.100621 0.852619 0.774819
v -0.095081 0.777289 0.836122
v -0.095540 0.825614 0.816797
v -0.095081 0.477814 0.836122
v -0.086337 0.519729 0.848091
v -0.089841 0.852619 0.771974
v -0.084195 0.777289 0.833676
v -0.084723 0.825614 0.814090
v -0.084195 0.477814 0.833676
v -0.075478 0.519729 0.845540
v -0.018155 0.523242 -0.025139
v -0.018155 0.523242 0.025139
v -0.018155 0.000000 -0.025139
v -0.018155 0.000000 0.025139
v -0.106228 0.523242 -0.025139
v -0.112052 0.523242 -0.019315
v -0.112052 0.523242 0.019316
v -0.106228 0.523242 0.025140
v -0.106228 0.000000 0.025140
v -0.112052 0.000000 0.019316
v -0.112052 0.000000 -0.019315
v -0.106228 0.000000 -0.025139
vn 0.9329 -0.2224 -0.2833
vn 0.2703 0.0026 -0.9628
vn 0.3211 0.1351 -0.9373
vn 0.9275 -0.2284 -0.2960
vn 0.9601 -0.0000 -0.2796
vn 0.2466 -0.0000 -0.9691
vn 0.7365 -0.6760 0.0237
vn 0.6091 -0.7471 -0.2659
vn 0.3848 -0.6134 -0.6897
vn 0.9643 -0.0291 -0.2631
vn 0.9329 0.2224 -0.2833
vn 0.2703 -0.0026 -0.9628
vn 0.9275 0.2284 -0.2960
vn 0.3211 -0.1351 -0.9373
vn 0.9643 0.0291 -0.2631
vn 0.3848 0.6134 -0.6897
vn 0.6091 0.7471 -0.2659
vn 0.7365 0.6760 0.0237
vn 0.9599 0.0458 -0.2767
vn 0.3944 -0.3277 -0.8585
vn 0.9599 -0.0458 -0.2767
vn 0.3944 0.3277 -0.8585
vn -0.9363 0.2238 0.2706
vn -0.9306 0.2305 0.2845
vn -0.8725 0.3482 -0.3427
vn -0.9297 0.2097 -0.3026
vn -0.9638 -0.0000 0.2668
vn -0.9503 -0.0000 -0.3114
vn -0.6880 -0.6728 0.2723
vn -0.9679 0.0181 0.2507
vn -0.8003 -0.5670 -0.1948
vn -0.5586 -0.8045 0.2019
vn -0.9363 -0.2238 0.2706
vn -0.9298 -0.2097 -0.3026
vn -0.9306 -0.2305 0.2845
vn -0.8725 -0.3482 -0.3427
vn -0.9679 -0.0181 0.2507
vn -0.6880 0.6728 0.2723
vn -0.5586 0.8045 0.2019
vn -0.8003 0.5670 -0.1948
vn -0.8741 -0.3873 -0.2932
vn -0.9631 -0.0499 0.2644
vn -0.8741 0.3873 -0.2932
vn -0.9631 0.0499 0.2644
vn 0.6323 -0.7747 0.0042
vn 0.5539 -0.8326 -0.0017
vn -0.8333 -0.5529 -0.0013
vn -0.7935 -0.6015 0.0925
vn -0.9969 0.0412 0.0672
vn -0.9376 0.3407 0.0690
vn -0.9192 0.3938 -0.0012
vn -0.9995 0.0317 0.0005
vn -0.9588 -0.2842 -0.0004
vn -0.9792 -0.1961 0.0515
vn -0.9969 -0.0412 0.0672
vn -0.9792 0.1961 0.0515
vn -0.9588 0.2842 -0.0004
vn -0.9995 -0.0317 0.0005
vn -0.9192 -0.3938 -0.0012
vn -0.9376 -0.3407 0.0690
vn -0.8333 0.5529 -0.0013
vn -0.7935 0.6015 0.0925
vn -0.9201 -0.3916 -0.0051
vn -0.9401 -0.3354 0.0605
vn -1.0000 -0.0000 -0.0076
vn -0.9985 -0.0000 0.0554
vn -0.9201 0.3916 -0.0051
vn -0.9401 0.3354 0.0605
vn 0.9371 -0.3400 -0.0788
vn 0.9962 -0.0395 -0.0778
vn 0.9995 -0.0316 -0.0051
vn 0.9193 -0.3936 -0.0031
vn 0.9776 0.2009 -0.0628
vn 0.9588 0.2841 -0.0040
vn 0.9776 -0.2009 -0.0628
vn 0.9962 0.0395 -0.0778
vn 0.9995 0.0316 -0.0051
vn 0.9588 -0.2841 -0.0040
vn 0.9371 0.3400 -0.0788
vn 0.9193 0.3936 -0.0031
vn 0.6323 0.7747 0.0042
vn 0.5539 0.8326 -0.0017
vn 0.9395 0.3353 -0.0706
vn 0.9201 0.3918 0.0009
vn 0.9978 -0.0000 -0.0661
vn 1.0000 -0.0000 0.0030
vn 0.9395 -0.3353 -0.0706
vn 0.9201 -0.3918 0.0009
vn -0.0000 -0.0000 -1.0000
vn -0.0000 -0.0000 1.0000
vn -0.7071 -0.0000 0.7071
vn -0.7071 -0.0000 -0.7071
vn -1.0000 -0.0000 -0.0000
vt 0.631619 0.659181
vt 0.632360 0.726583
vt 0.634032 0.725343
vt 0.632898 0.658704
vt 0.631819 0.659667
vt 0.631819 0.727733
vt 0.632097 0.726583
vt 0.632032 0.659181
vt 0.621512 0.640058
vt 0.619145 0.690504
vt 0.620353 0.710378
vt 0.622436 0.650743
vt 0.631606 0.659181
vt 0.631541 0.726583
vt 0.625522 0.658704
vt 0.624389 0.725343
vt 0.626060 0.726583
vt 0.626800 0.659181
vt 0.635984 0.650743
vt 0.638067 0.710378
vt 0.639274 0.690503
vt 0.636907 0.640058
vt 0.624089 0.655664
vt 0.622514 0.719476
vt 0.634331 0.655664
vt 0.635906 0.719476
vt 0.631619 0.658449
vt 0.632898 0.658056
vt 0.634032 0.724443
vt 0.632360 0.725522
vt 0.629210 0.658945
vt 0.629210 0.726674
vt 0.621512 0.639322
vt 0.622436 0.650053
vt 0.620353 0.709400
vt 0.619145 0.689449
vt 0.626800 0.658449
vt 0.626060 0.725523
vt 0.625522 0.658056
vt 0.624389 0.724443
vt 0.635984 0.650052
vt 0.636907 0.639322
vt 0.639274 0.689449
vt 0.638067 0.709400
vt 0.622514 0.718626
vt 0.624089 0.655040
vt 0.635906 0.718625
vt 0.634331 0.655040
vt 0.617621 0.593746
vt 0.617621 0.188125
vt 0.633759 0.593746
vt 0.632486 0.593746
vt 0.632486 0.188125
vt 0.633759 0.188125
vt 0.635227 0.188125
vt 0.635227 0.593746
vt 0.624660 0.593746
vt 0.623192 0.593746
vt 0.623192 0.188125
vt 0.624660 0.188125
vt 0.625934 0.188125
vt 0.625934 0.593746
vt 0.636048 0.188125
vt 0.636048 0.593746
vt 0.627069 0.188125
vt 0.627069 0.593746
vt 0.629210 0.188125
vt 0.629210 0.593746
vt 0.622372 0.593746
vt 0.622372 0.188125
vt 0.631350 0.188125
vt 0.631350 0.593746
vt 0.631630 0.188125
vt 0.631630 0.593746
vt 0.631819 0.593746
vt 0.631819 0.188125
vt 0.632008 0.593746
vt 0.632008 0.188125
vt 0.617577 0.640058
vt 0.617577 0.639322
vt 0.617456 0.690504
vt 0.617456 0.689449
vt 0.647550 0.466356
vt 0.633895 0.466356
vt 0.647550 0.479150
vt 0.633895 0.479150
vt 0.617518 0.710378
vt 0.617518 0.709400
vt 0.617628 0.719476
vt 0.617628 0.718626
vt 0.617724 0.725343
vt 0.617724 0.724443
vt 0.617809 0.726583
vt 0.617809 0.725523
vt 0.630453 0.477668
vt 0.632757 0.477668
vt 0.632757 0.479150
vt 0.630453 0.479150
vt 0.630453 0.466356
vt 0.632757 0.466356
vt 0.632757 0.467838
vt 0.630453 0.467838
vt 0.647550 0.477668
vt 0.633895 0.477668
vt 0.633895 0.467838
vt 0.647550 0.467838
s 1
usemtl Material
f 69/1/1 7/2/2 20/3/3 83/4/4
f 70/5/5 10/6/6 7/7/2 69/8/1
f 79/9/7 1/10/8 15/11/9 81/12/10
f 68/13/11 8/14/12 10/6/6 70/5/5
f 71/15/13 14/16/14 8/17/12 68/18/11
f 72/19/15 21/20/16 2/21/17 67/22/18
f 71/15/13 80/23/19 16/24/20 14/16/14
f 80/23/19 81/12/10 15/11/9 16/24/20
f 72/19/15 82/25/21 22/26/22 21/20/16
f 82/25/21 83/4/4 20/3/3 22/26/22
f 75/27/23 88/28/24 41/29/25 32/30/26
f 76/31/27 75/27/23 32/30/26 29/32/28
f 84/33/29 86/34/30 38/35/31 23/36/32
f 74/37/33 76/31/27 29/32/28 30/38/34
f 77/39/35 74/37/33 30/38/34 36/40/36
f 78/41/37 73/42/38 26/43/39 40/44/40
f 77/39/35 36/40/36 37/45/41 85/46/42
f 85/46/42 37/45/41 38/35/31 86/34/30
f 78/41/37 40/44/40 39/47/43 87/48/44
f 87/48/44 39/47/43 41/29/25 88/28/24
f 67/22/18 2/21/17 26/43/39 73/42/38
f 57/49/45 3/50/46 24/50/47 62/49/48
f 65/51/49 66/52/50 44/53/51 42/54/52
f 43/55/53 56/56/54 65/51/49 42/54/52
f 63/57/55 64/58/56 35/59/57 34/60/58
f 33/61/59 55/62/60 63/57/55 34/60/58
f 25/63/61 51/64/62 56/56/54 43/55/53
f 28/65/63 52/66/64 55/62/60 33/61/59
f 27/67/65 54/68/66 52/66/64 28/65/63
f 64/58/56 62/69/48 24/70/47 35/59/57
f 31/71/67 53/72/68 54/68/66 27/67/65
f 66/52/50 53/72/68 31/71/67 44/53/51
f 61/52/69 60/51/70 19/54/71 17/53/72
f 60/51/70 50/56/73 18/55/74 19/54/71
f 59/58/75 58/57/76 13/60/77 12/59/78
f 58/57/76 49/62/79 11/61/80 13/60/77
f 18/55/74 50/56/73 45/64/81 4/63/82
f 11/61/80 49/62/79 46/66/83 6/65/84
f 6/73/84 46/74/83 48/75/85 9/76/86
f 57/69/45 59/58/75 12/59/78 3/70/46
f 9/76/86 48/75/85 47/77/87 5/78/88
f 5/71/88 47/72/87 61/52/69 17/53/72
f 79/79/7 57/49/45 62/49/48 84/80/29
f 1/81/8 79/79/7 84/80/29 23/82/32
f 45/64/81 67/22/18 73/42/38 51/64/62
f 65/51/49 87/48/44 88/28/24 66/52/50
f 56/56/54 78/41/37 87/48/44 65/51/49
f 63/57/55 85/46/42 86/34/30 64/58/56
f 55/62/60 77/39/35 85/46/42 63/57/55
f 56/56/54 51/64/62 73/42/38 78/41/37
f 55/62/60 52/66/64 74/37/33 77/39/35
f 52/66/64 54/68/66 76/31/27 74/37/33
f 62/69/48 64/58/56 86/34/30 84/33/29
f 54/68/66 53/72/68 75/27/23 76/31/27
f 53/72/68 66/52/50 88/28/24 75/27/23
f 60/51/70 61/52/69 83/4/4 82/25/21
f 50/56/73 60/51/70 82/25/21 72/19/15
f 58/57/76 59/58/75 81/12/10 80/23/19
f 49/62/79 58/57/76 80/23/19 71/15/13
f 50/56/73 72/19/15 67/22/18 45/64/81
f 49/62/79 71/15/13 68/18/11 46/66/83
f 46/74/83 68/13/11 70/5/5 48/75/85
f 57/69/45 79/9/7 81/12/10 59/58/75
f 48/75/85 70/5/5 69/8/1 47/77/87
f 47/72/87 69/1/1 83/4/4 61/52/69
f 4/63/82 45/64/81 51/64/62 25/63/61
s 0
f 100/83/89 93/84/89 89/84/89 91/83/89
f 92/85/90 90/86/90 96/86/90 97/85/90
s 1
f 15/87/9 1/81/8 23/82/32 38/88/31
f 16/89/20 15/87/9 38/88/31 37/90/41
f 14/91/14 16/89/20 37/90/41 36/92/36
f 8/93/12 14/91/14 36/92/36 30/94/34
f 10/6/6 8/17/12 30/38/34 29/32/28
f 7/7/2 10/6/6 29/32/28 32/30/26
f 20/3/3 7/7/2 32/30/26 41/29/25
f 22/26/22 20/3/3 41/29/25 39/47/43
f 21/20/16 22/26/22 39/47/43 40/44/40
f 2/21/17 21/20/16 40/44/40 26/43/39
s 0
f 95/95/91 98/96/91 97/97/91 96/98/91
f 93/99/92 100/100/92 99/101/92 94/102/92
f 98/103/93 95/104/93 94/105/93 99/106/93
