# Blender 4.2.3 LTS
# www.blender.org
mtllib Road_Cont_Line.mtl
o Road_Cont_Line
v 0.000000 0.000000 0.000000
v 5.094498 0.000000 0.000000
v 0.000000 0.000000 -6.000000
v 5.094498 0.000000 -6.000000
v 0.111436 0.000000 0.000000
v 0.111436 0.000000 -6.000000
v 4.925121 0.000000 0.000000
v 4.925121 0.000000 -6.000000
v 7.000000 0.000000 0.000000
v 7.000000 0.000000 -6.000000
vn -0.0000 1.0000 -0.0000
vt 0.774820 0.626066
vt 0.774772 0.626066
vt 0.774772 0.422855
vt 0.774820 0.422855
vt 0.774859 0.626066
vt 0.774786 0.626066
vt 0.774786 0.422855
vt 0.774859 0.422855
vt 0.697125 0.626066
vt 0.695055 0.626066
vt 0.695055 0.422855
vt 0.697125 0.422855
vt 0.694982 0.422855
vt 0.694982 0.626066
vt 0.694163 0.626066
vt 0.694163 0.422855
s 1
usemtl Material
f 1/1/1 5/2/1 6/3/1 3/4/1
f 7/5/1 2/6/1 4/7/1 8/8/1
f 5/9/1 7/10/1 8/11/1 6/12/1
f 4/13/1 2/14/1 9/15/1 10/16/1
