# Blender 4.2.3 LTS
# www.blender.org
mtllib Ceiling.mtl
o Ceiling
v 1.038958 4.000000 -1.038958
v 1.961042 4.000000 -1.038958
v 1.961042 4.000000 -1.961042
v 1.038958 4.000000 -1.961042
v 1.038958 4.000000 -0.038958
v 1.961042 4.000000 -0.038958
v 1.961042 4.000000 -0.961042
v 1.038958 4.000000 -0.961042
v 0.038958 4.000000 -0.038958
v 0.961042 4.000000 -0.038958
v 0.961042 4.000000 -0.961042
v 0.038958 4.000000 -0.961042
v 0.038958 4.000000 -1.038958
v 0.961042 4.000000 -1.038958
v 0.961042 4.000000 -1.961042
v 0.038958 4.000000 -1.961042
v 0.038958 3.991000 -0.961042
v 0.038958 3.991000 -0.038958
v 1.038958 3.991000 -0.038958
v 1.961042 3.991000 -0.038958
v 1.961042 3.991000 -1.038958
v 1.961042 3.991000 -1.961042
v 0.961042 3.991000 -1.961042
v 0.038958 3.991000 -1.961042
v 0.038958 3.991000 -1.038958
v 1.961042 3.991000 -0.961042
v 0.038958 3.991000 -1.000000
v 0.000000 3.991000 -1.000000
v 0.961042 3.991000 -0.038958
v 1.038958 3.991000 -1.961042
v 1.038958 3.991000 -1.000000
v 1.000000 3.991000 -1.000000
v 1.000000 3.991000 -0.961042
v 1.000000 3.991000 -1.961041
v 1.000000 3.991000 -2.000000
v 1.038958 3.991000 -1.038958
v 2.000000 3.991000 -1.961042
v 2.000000 3.991000 -2.000000
v 1.038958 3.991000 -2.000000
v 1.038958 3.991000 -0.961042
v 1.961042 3.991000 -0.000000
v 2.000000 3.991000 -0.000000
v 2.000000 3.991000 -0.961042
v 2.000000 3.991000 -1.000000
v 0.961042 3.991000 -0.961042
v 0.961042 3.991000 -0.000000
v 1.000000 3.991000 -0.000000
v 0.000000 3.991000 -0.038958
v 0.000000 3.991000 -0.000000
v 0.961042 3.991000 -1.038958
v 0.038958 3.991000 -2.000000
v 0.000000 3.991000 -2.000000
v 0.000000 3.991000 -1.038958
v 1.961042 3.991000 -1.000000
v 0.961042 3.991000 -1.000000
v 1.000000 3.991000 -1.038958
v 1.000000 3.991000 -0.038958
v 2.000000 3.991000 -0.038958
v 0.961042 3.991000 -2.000000
v 1.038958 3.991000 -0.000000
v 0.000000 3.991000 -0.961042
v 2.000000 3.991000 -1.038958
v 0.038958 3.991000 -0.000000
v 0.000000 3.991000 -1.961042
v 1.961042 3.991000 -2.000000
vn -0.0000 -1.0000 -0.0000
vn -1.0000 -0.0000 -0.0000
vn 1.0000 -0.0000 -0.0000
vn -0.0000 -0.0000 1.0000
vn -0.0000 -0.0000 -1.0000
vt 0.073977 0.429832
vt 0.073977 0.415942
vt 0.074249 0.415942
vt 0.074249 0.429832
vt 0.073977 0.444896
vt 0.073977 0.431006
vt 0.074249 0.431006
vt 0.074249 0.444896
vt 0.073682 0.444896
vt 0.073682 0.431006
vt 0.073954 0.431006
vt 0.073954 0.444896
vt 0.073682 0.429832
vt 0.073682 0.415942
vt 0.073954 0.415942
vt 0.073954 0.429832
vt 0.009725 0.431006
vt 0.009725 0.444896
vt 0.009158 0.429832
vt 0.009158 0.415942
vt 0.009453 0.431006
vt 0.009430 0.415942
vt 0.009453 0.444896
vt 0.009725 0.415942
vt 0.009725 0.429832
vt 0.009158 0.444896
vt 0.009158 0.431006
vt 0.009453 0.429832
vt 0.009453 0.415942
vt 0.009430 0.429832
vt 0.009737 0.430419
vt 0.009725 0.430419
vt 0.009737 0.429832
vt 0.009441 0.445483
vt 0.009441 0.444896
vt 0.009453 0.445483
vt 0.009725 0.445483
vt 0.009737 0.444896
vt 0.009737 0.445483
vt 0.009441 0.431006
vt 0.009441 0.430419
vt 0.009453 0.430419
vt 0.009430 0.444896
vt 0.009430 0.445483
vt 0.009146 0.444896
vt 0.009158 0.445483
vt 0.009146 0.445483
vt 0.009430 0.431006
vt 0.009430 0.430419
vt 0.009146 0.430419
vt 0.009158 0.430419
vt 0.009146 0.431006
vt 0.009441 0.429832
vt 0.009441 0.415355
vt 0.009441 0.415942
vt 0.009430 0.415355
vt 0.009737 0.415942
vt 0.009725 0.415355
vt 0.009737 0.415355
vt 0.009453 0.415355
vt 0.009146 0.429832
vt 0.009737 0.431006
vt 0.009158 0.415355
vt 0.009146 0.415942
vt 0.009146 0.415355
s 0
usemtl Material.001
f 1/1/1 4/2/1 3/3/1 2/4/1
f 5/5/1 8/6/1 7/7/1 6/8/1
f 9/9/1 12/10/1 11/11/1 10/12/1
f 13/13/1 16/14/1 15/15/1 14/16/1
f 7/17/2 26/17/2 20/18/2 6/18/2
f 13/19/3 25/19/3 24/20/3 16/20/3
f 8/21/4 40/21/4 26/17/4 7/17/4
f 16/20/4 24/20/4 23/22/4 15/22/4
f 5/23/3 19/23/3 40/21/3 8/21/3
f 3/24/2 22/24/2 21/25/2 2/25/2
f 6/18/5 20/18/5 19/23/5 5/23/5
f 9/26/3 18/26/3 17/27/3 12/27/3
f 1/28/3 36/28/3 30/29/3 4/29/3
f 2/25/5 21/25/5 36/28/5 1/28/5
f 15/22/2 23/22/2 50/30/2 14/30/2
f 14/30/5 50/30/5 25/19/5 13/19/5
f 44/31/1 54/32/1 21/25/1 62/33/1
f 47/34/1 57/35/1 19/23/1 60/36/1
f 41/37/1 20/18/1 58/38/1 42/39/1
f 40/21/1 33/40/1 32/41/1 31/42/1
f 29/43/1 57/35/1 47/34/1 46/44/1
f 48/45/1 18/26/1 63/46/1 49/47/1
f 45/48/1 55/49/1 32/41/1 33/40/1
f 28/50/1 27/51/1 17/27/1 61/52/1
f 50/30/1 56/53/1 32/41/1 55/49/1
f 35/54/1 34/55/1 23/22/1 59/56/1
f 37/57/1 22/24/1 65/58/1 38/59/1
f 50/30/1 23/22/1 34/55/1 56/53/1
f 36/28/1 21/25/1 54/32/1 31/42/1
f 45/48/1 17/27/1 27/51/1 55/49/1
f 40/21/1 19/23/1 57/35/1 33/40/1
f 26/17/1 40/21/1 31/42/1 54/32/1
f 30/29/1 34/55/1 35/54/1 39/60/1
f 30/29/1 36/28/1 56/53/1 34/55/1
f 25/19/1 27/51/1 28/50/1 53/61/1
f 25/19/1 50/30/1 55/49/1 27/51/1
f 29/43/1 45/48/1 33/40/1 57/35/1
f 26/17/1 54/32/1 44/31/1 43/62/1
f 36/28/1 31/42/1 32/41/1 56/53/1
f 17/27/1 18/26/1 48/45/1 61/52/1
f 19/23/1 20/18/1 41/37/1 60/36/1
f 23/22/1 24/20/1 51/63/1 59/56/1
f 21/25/1 22/24/1 37/57/1 62/33/1
f 18/26/1 29/43/1 46/44/1 63/46/1
f 24/20/1 25/19/1 53/61/1 64/64/1
f 20/18/1 26/17/1 43/62/1 58/38/1
f 51/63/1 24/20/1 64/64/1 52/65/1
f 22/24/1 30/29/1 39/60/1 65/58/1
f 11/48/2 45/48/2 29/43/2 10/43/2
f 10/43/5 29/43/5 18/26/5 9/26/5
f 12/27/4 17/27/4 45/48/4 11/48/4
f 4/29/4 30/29/4 22/24/4 3/24/4
