# Blender 4.1.1
# www.blender.org
mtllib Office_Window.mtl
o Window
v -0.059639 0.988744 -0.355748
v -0.059639 0.981759 -0.362733
v -0.059639 2.946450 -0.362733
v -0.059639 2.939465 -0.355748
v -0.059639 0.981759 -1.637267
v -0.059639 0.988744 -1.644252
v -0.059639 2.939465 -1.644252
v -0.059639 2.946450 -1.637267
v 0.052654 0.981759 -0.362733
v 0.052654 0.988744 -0.355748
v 0.059639 0.984652 -0.348763
v 0.059639 0.974774 -0.358641
v 0.052654 2.946450 -0.362733
v 0.059639 2.953435 -0.358641
v 0.059639 2.943557 -0.348763
v 0.052654 2.939465 -0.355748
v 0.052654 0.988744 -1.644252
v 0.052654 0.981759 -1.637267
v 0.059639 0.974774 -1.641359
v 0.059639 0.984652 -1.651237
v 0.052654 2.939465 -1.644252
v 0.059639 2.943557 -1.651237
v 0.059639 2.953435 -1.641359
v 0.052654 2.946450 -1.637267
v -0.059639 0.848480 -1.784516
v -0.059639 0.841495 -1.777531
v -0.059639 0.841495 -0.222469
v -0.059639 0.848480 -0.215484
v -0.059639 3.079729 -0.215484
v -0.059639 3.086714 -0.222469
v -0.059639 3.086714 -1.777531
v -0.059639 3.079729 -1.784516
v 0.052654 3.086714 -1.777531
v 0.059639 3.079729 -1.767653
v 0.059639 3.069851 -1.777531
v 0.052654 3.079729 -1.784516
v 0.052654 0.841495 -1.777531
v 0.052654 0.848480 -1.784516
v 0.059639 0.858358 -1.777531
v 0.059639 0.848480 -1.767652
v 0.059639 0.848480 -0.232348
v 0.059639 0.858358 -0.222469
v 0.052654 0.848480 -0.215484
v 0.052654 0.841495 -0.222469
v 0.059639 3.079729 -0.232348
v 0.052654 3.086714 -0.222469
v 0.052654 3.079729 -0.215484
v 0.059639 3.069851 -0.222469
v 0.018512 2.002118 -1.639412
v -0.054112 2.074478 -1.639412
v 0.018512 2.002118 -0.360588
v -0.054112 2.074478 -0.360588
v 0.018512 0.918020 -1.639412
v 0.018512 0.918020 -0.360588
v -0.027609 3.115720 -1.639412
v -0.027609 3.115720 -0.360588
v -0.027609 2.031623 -1.639412
v -0.027609 2.031623 -0.360588
v 0.019578 2.074478 -1.639412
v 0.019578 2.074478 -0.360588
v 0.093269 2.009771 -0.368241
v 0.085616 2.002118 -0.360588
v 0.085616 2.074478 -0.360588
v 0.093269 2.066825 -0.368241
v 0.093269 2.009771 -1.631759
v 0.085616 2.002118 -1.639412
v 0.093269 2.066825 -1.631759
v 0.085616 2.074478 -1.639412
vn -0.0000 -0.0000 -1.0000
vn -0.0000 -0.0000 1.0000
vn 1.0000 -0.0000 -0.0000
vn -0.0000 1.0000 -0.0000
vn -0.0000 -1.0000 -0.0000
vn 0.7463 0.4706 -0.4706
vn 0.7463 -0.4706 -0.4706
vn 0.7463 0.4706 0.4706
vn 0.7463 -0.4706 0.4706
vn 0.8629 0.3574 -0.3574
vn 0.8629 -0.3574 -0.3574
vn 0.8629 -0.3574 0.3574
vn 0.8629 0.3574 0.3574
vn -0.0000 -0.7071 -0.7071
vn -0.0000 0.7071 -0.7071
vn 0.7071 -0.0000 -0.7071
vn 0.7071 -0.7071 -0.0000
vn 0.7071 0.7071 -0.0000
vn 0.7071 -0.0000 0.7071
vn -0.0000 -0.7071 0.7071
vn -0.0000 0.7071 0.7071
vn -1.0000 -0.0000 -0.0000
vt 0.636856 0.566513
vt 0.618959 0.566513
vt 0.638143 0.548599
vt 0.617672 0.548599
vt 0.636984 0.730697
vt 0.636984 0.566875
vt 0.638143 0.550747
vt 0.638143 0.746822
vt 0.617608 0.748081
vt 0.617608 0.549488
vt 0.638143 0.748974
vt 0.617672 0.748974
vt 0.638207 0.748081
vt 0.638207 0.549488
vt 0.636894 0.565616
vt 0.618921 0.565616
vt 0.617762 0.549488
vt 0.638053 0.549488
vt 0.618921 0.731956
vt 0.636894 0.731956
vt 0.638053 0.748081
vt 0.617762 0.748081
vt 0.618831 0.566875
vt 0.618831 0.730697
vt 0.617672 0.746822
vt 0.617672 0.550747
vt 0.618895 0.567402
vt 0.618895 0.730175
vt 0.636856 0.731064
vt 0.618959 0.731064
vt 0.636920 0.567402
vt 0.636920 0.730175
vt 0.609692 0.748081
vt 0.609756 0.746822
vt 0.609847 0.748081
vt 0.609756 0.748974
vt 0.630292 0.748081
vt 0.630228 0.748974
vt 0.630137 0.748081
vt 0.630228 0.746822
vt 0.630228 0.550747
vt 0.630137 0.549488
vt 0.630228 0.548599
vt 0.630292 0.549488
vt 0.609756 0.550747
vt 0.609692 0.549488
vt 0.609756 0.548599
vt 0.609847 0.549488
vt 0.639052 0.662880
vt 0.639052 0.653639
vt 0.635849 0.662880
vt 0.635849 0.653639
vt 0.639032 0.654616
vt 0.639032 0.661903
vt 0.635868 0.661903
vt 0.635868 0.654616
vt 0.577967 0.653639
vt 0.581169 0.653639
vt 0.581169 0.515189
vt 0.577967 0.515189
vt 0.577967 0.795857
vt 0.581169 0.795857
vt 0.581169 0.657407
vt 0.577967 0.657407
vt 0.634580 0.661903
vt 0.634580 0.654616
vt 0.634599 0.653639
vt 0.634599 0.662880
vt 0.631397 0.653639
vt 0.631416 0.654616
vt 0.631397 0.662880
vt 0.631416 0.661903
s 0
usemtl Material
f 1/1/1 4/2/1 16/2/1 10/1/1
f 43/3/2 47/4/2 29/4/2 28/3/2
f 19/5/3 12/6/3 41/7/3 40/8/3
f 33/9/4 31/9/4 30/10/4 46/10/4
f 25/11/1 32/12/1 36/12/1 38/11/1
f 26/13/5 37/13/5 44/14/5 27/14/5
f 11/15/3 15/16/3 48/17/3 42/18/3
f 22/19/3 20/20/3 39/21/3 35/22/3
f 14/23/3 23/24/3 34/25/3 45/26/3
f 3/27/5 8/28/5 24/28/5 13/27/5
f 6/29/2 17/29/2 21/30/2 7/30/2
f 9/31/6 10/1/6 11/15/6 12/6/6
f 13/27/7 14/23/7 15/16/7 16/2/7
f 17/29/8 18/32/8 19/5/8 20/20/8
f 21/30/9 22/19/9 23/24/9 24/28/9
f 33/33/10 34/34/10 35/35/10 36/36/10
f 37/37/11 38/38/11 39/39/11 40/40/11
f 41/41/12 42/42/12 43/43/12 44/44/12
f 45/45/13 46/46/13 47/47/13 48/48/13
f 37/13/14 26/13/14 25/11/14 38/11/14
f 31/33/15 33/33/15 36/36/15 32/36/15
f 35/35/16 39/39/16 38/38/16 36/36/16
f 44/44/17 37/37/17 40/40/17 41/41/17
f 33/33/18 46/46/18 45/45/18 34/34/18
f 47/47/19 43/43/19 42/42/19 48/48/19
f 27/14/20 44/14/20 43/3/20 28/3/20
f 46/46/21 30/46/21 29/47/21 47/47/21
f 21/30/19 17/29/19 20/20/19 22/19/19
f 12/6/18 19/5/18 18/32/18 9/31/18
f 23/24/17 14/23/17 13/27/17 24/28/17
f 15/16/16 11/15/16 10/1/16 16/2/16
f 34/25/3 23/24/3 22/19/3 35/22/3
f 19/5/3 40/8/3 39/21/3 20/20/3
f 11/15/3 42/18/3 41/7/3 12/6/3
f 48/17/3 15/16/3 14/23/3 45/26/3
f 7/30/20 21/30/20 24/28/20 8/28/20
f 5/32/21 18/32/21 17/29/21 6/29/21
f 1/1/15 10/1/15 9/31/15 2/31/15
f 3/27/14 13/27/14 16/2/14 4/2/14
f 5/32/4 2/31/4 9/31/4 18/32/4
f 59/49/1 68/49/1 66/50/1 49/50/1
f 63/51/2 60/51/2 51/52/2 62/52/2
f 65/53/3 67/54/3 64/55/3 61/56/3
f 59/49/4 50/49/4 52/51/4 60/51/4
f 51/57/22 49/58/22 53/59/22 54/60/22
f 56/61/22 55/62/22 57/63/22 58/64/22
f 68/49/4 59/49/4 60/51/4 63/51/4
f 67/65/16 65/66/16 66/67/16 68/68/16
f 62/69/17 66/67/17 65/66/17 61/70/17
f 68/68/18 63/71/18 64/72/18 67/65/18
f 63/71/19 62/69/19 61/70/19 64/72/19
f 49/50/5 66/50/5 62/52/5 51/52/5
