# Blender 4.1.1
# www.blender.org
mtllib Office_Floor.mtl
o Floor
v 0.000000 0.000000 0.000000
v 2.000000 0.000000 0.000000
v 0.000000 0.000000 -2.000000
v 2.000000 0.000000 -2.000000
v 1.000000 0.000000 -2.000000
v 1.000000 0.000000 -1.000000
v 0.000000 0.000000 -1.000000
v 2.000000 0.000000 -1.000000
v 1.000000 0.000000 0.000000
v 1.015721 0.000000 -0.984279
v 1.015721 0.000000 -0.015721
v 1.984279 0.000000 -0.015721
v 1.984279 0.000000 -0.984279
v 0.015721 0.000000 -0.984279
v 0.015721 0.000000 -0.015721
v 0.984279 0.000000 -0.015721
v 0.984279 0.000000 -0.984279
v 1.015721 0.000000 -1.984279
v 1.015721 0.000000 -1.015721
v 1.984279 0.000000 -1.015721
v 1.984279 0.000000 -1.984279
v 0.015721 0.000000 -1.984279
v 0.015721 0.000000 -1.015721
v 0.984279 0.000000 -1.015721
v 0.984279 0.000000 -1.984279
vn -0.0000 1.0000 -0.0000
vt 0.977104 0.373957
vt 0.977104 0.364499
vt 0.977289 0.364499
vt 0.977289 0.373957
vt 0.971686 0.547409
vt 0.971686 0.537950
vt 0.971871 0.537950
vt 0.971871 0.547409
vt 0.981666 0.557174
vt 0.981666 0.547716
vt 0.981851 0.547716
vt 0.981851 0.557174
vt 0.978073 0.557174
vt 0.978073 0.547716
vt 0.978259 0.547716
vt 0.978259 0.557174
vt 0.010683 0.547562
vt 0.010683 0.537797
vt 0.010686 0.537950
vt 0.010686 0.547409
vt 0.010875 0.537797
vt 0.010872 0.537950
vt 0.010875 0.547562
vt 0.010872 0.547409
vt 0.010492 0.547562
vt 0.010492 0.537797
vt 0.010495 0.537950
vt 0.010495 0.547409
vt 0.010680 0.537950
vt 0.010680 0.547409
vt 0.010683 0.557328
vt 0.010686 0.547716
vt 0.010686 0.557174
vt 0.010872 0.547716
vt 0.010875 0.557328
vt 0.010872 0.557174
vt 0.010492 0.557328
vt 0.010495 0.547716
vt 0.010495 0.557174
vt 0.010680 0.547716
vt 0.010680 0.557174
s 0
usemtl Material
f 10/1/1 11/2/1 12/3/1 13/4/1
f 14/5/1 15/6/1 16/7/1 17/8/1
f 18/9/1 19/10/1 20/11/1 21/12/1
f 22/13/1 23/14/1 24/15/1 25/16/1
f 6/17/1 9/18/1 11/19/1 10/20/1
f 9/18/1 2/21/1 12/22/1 11/19/1
f 2/21/1 8/23/1 13/24/1 12/22/1
f 8/23/1 6/17/1 10/20/1 13/24/1
f 7/25/1 1/26/1 15/27/1 14/28/1
f 1/26/1 9/18/1 16/29/1 15/27/1
f 9/18/1 6/17/1 17/30/1 16/29/1
f 6/17/1 7/25/1 14/28/1 17/30/1
f 5/31/1 6/17/1 19/32/1 18/33/1
f 6/17/1 8/23/1 20/34/1 19/32/1
f 8/23/1 4/35/1 21/36/1 20/34/1
f 4/35/1 5/31/1 18/33/1 21/36/1
f 3/37/1 7/25/1 23/38/1 22/39/1
f 7/25/1 6/17/1 24/40/1 23/38/1
f 6/17/1 5/31/1 25/41/1 24/40/1
f 5/31/1 3/37/1 22/39/1 25/41/1
