# Blender 4.2.1 LTS
# www.blender.org
mtllib Box_googaz.mtl
o Cube
v 0.199279 -0.199279 -0.199279
v 0.199279 -0.199279 0.199279
v -0.199279 -0.199279 -0.199279
v -0.199279 -0.199279 0.199279
v 0.205481 0.203940 -0.197932
v 0.205663 0.202578 -0.199646
v 0.204330 0.202199 -0.200954
v 0.202936 0.203528 -0.200604
v 0.204284 0.201967 -0.199279
v 0.202938 0.202920 0.200552
v 0.204337 0.201286 0.201169
v 0.205662 0.202575 0.199649
v 0.205481 0.203940 0.197948
v 0.204284 0.201967 0.199279
v -0.200336 0.210974 -0.197940
v -0.199279 0.210456 -0.199279
v -0.197940 0.211917 -0.200609
v -0.199460 0.210631 -0.200795
v -0.201036 0.208768 -0.199542
v -0.197940 0.211363 0.200555
v -0.199279 0.210456 0.199279
v -0.200336 0.210974 0.197940
v -0.201333 0.208595 0.199712
v -0.199610 0.209868 0.201069
v 0.435798 0.326253 -0.196540
v 0.434589 0.325559 -0.197893
v 0.434303 0.326921 -0.196453
v 0.435798 0.326253 0.199506
v 0.434303 0.326921 0.199427
v 0.434590 0.325557 0.200841
v 0.197978 0.118572 0.456430
v 0.199353 0.118873 0.454779
v 0.197965 0.119865 0.456167
v -0.197984 0.129438 0.456269
v -0.197940 0.130489 0.456164
v -0.199340 0.129786 0.454067
v -0.420128 0.038923 -0.197981
v -0.418994 0.041081 -0.197940
v -0.418750 0.039577 -0.199335
v -0.420128 0.038923 0.197970
v -0.418750 0.039576 0.199320
v -0.418994 0.041081 0.197940
v 0.197977 0.239016 -0.452799
v 0.197966 0.240158 -0.451383
v 0.199343 0.238819 -0.451471
v -0.197976 0.239016 -0.452799
v -0.199316 0.238865 -0.451467
v -0.197940 0.240202 -0.451378
v -0.212356 -0.247394 -0.212334
v -0.211039 -0.248732 -0.211018
v -0.212356 -0.247394 0.210938
v -0.211039 -0.248732 0.210960
v -0.211017 -0.247394 0.212277
v 0.210917 -0.247394 -0.212335
v 0.212256 -0.247394 -0.210996
v 0.210939 -0.248732 -0.211018
v 0.205315 0.178704 -0.204080
v 0.203976 0.178665 -0.205419
v 0.203927 0.180185 -0.206724
v 0.205209 0.181527 -0.206391
v 0.206531 0.182258 -0.204977
v 0.206449 0.180718 -0.204025
v -0.203954 0.183994 0.205189
v -0.203903 0.184967 0.206455
v -0.204913 0.186375 0.206297
v -0.206434 0.186028 0.204692
v -0.206320 0.184460 0.203802
v -0.205293 0.183956 0.203851
v 0.203976 0.178721 0.205189
v 0.205315 0.178704 0.203850
v 0.206449 0.180718 0.203809
v 0.206530 0.182260 0.204777
v 0.205193 0.181079 0.206284
v 0.203925 0.179636 0.206437
v 0.210917 -0.247394 0.212277
v 0.210939 -0.248732 0.210960
v 0.212256 -0.247394 0.210938
v -0.206359 0.167727 -0.204033
v -0.206506 0.169178 -0.205109
v -0.205062 0.170008 -0.206530
v -0.203905 0.168731 -0.206715
v -0.205294 0.167112 -0.205420
v 0.437904 0.317570 -0.197194
v 0.437064 0.315593 -0.197329
v 0.436684 0.316919 -0.198567
v 0.437904 0.317570 0.199993
v 0.436684 0.316920 0.201350
v 0.437064 0.315593 0.200086
v 0.198652 0.103414 0.439008
v 0.198722 0.102956 0.436727
v 0.200019 0.103988 0.437694
v -0.198629 0.119965 0.439169
v -0.199989 0.120812 0.437832
v -0.198701 0.119683 0.436709
v -0.421529 0.014457 0.198536
v -0.420558 0.013954 0.198593
v -0.420099 0.016029 0.199899
v -0.421529 0.014457 -0.198753
v -0.420110 0.015839 -0.200115
v -0.420518 0.013901 -0.198822
v -0.198634 0.215294 -0.454417
v -0.198699 0.213717 -0.453191
v -0.200001 0.215060 -0.453091
v 0.198653 0.215294 -0.454417
v 0.200021 0.215115 -0.453087
v 0.198720 0.213777 -0.453181
vn -0.0000 -0.0000 -1.0000
vn 0.0228 0.9519 0.3055
vn -0.6135 0.7897 -0.0000
vn -0.0000 1.0000 -0.0000
vn -0.4734 0.8808 -0.0000
vn -0.0911 0.1933 -0.9769
vn 0.9990 0.0325 0.0316
vn -0.9953 0.0967 0.0038
vn 0.9992 0.0375 -0.0152
vn 0.0141 -0.9874 -0.1574
vn 0.9999 0.0163 -0.0000
vn -0.0002 0.0165 -0.9999
vn -0.0000 -1.0000 -0.0000
vn 0.5048 -0.8632 -0.0000
vn 0.6035 -0.7972 0.0166
vn -0.0262 -0.9553 -0.2945
vn -0.0000 0.0680 -0.9977
vn -0.9984 0.0572 -0.0000
vn -0.9999 0.0125 -0.0000
vn -0.0281 -0.8137 0.5806
vn -0.9853 0.1607 0.0589
vn -0.1181 0.1351 0.9838
vn -0.0937 0.1093 -0.9896
vn 1.0000 -0.0000 -0.0000
vn 0.9718 0.2357 -0.0000
vn -0.0966 0.1807 0.9788
vn 0.0105 0.9917 0.1283
vn -0.9999 0.0167 -0.0003
vn 0.0001 0.0165 0.9999
vn -0.0252 0.9821 -0.1867
vn -0.0324 0.8897 0.4555
vn -0.6580 0.7369 -0.1549
vn -0.5957 0.7380 0.3170
vn 0.2866 0.7238 -0.6277
vn 0.2871 0.7179 0.6342
vn 0.7482 0.1393 0.6487
vn -0.8420 0.0885 0.5322
vn -0.7322 0.3953 -0.5546
vn -0.7317 0.3923 0.5574
vn 0.5844 0.6339 -0.5066
vn -0.5808 0.6324 -0.5126
vn -0.5837 -0.5645 0.5837
vn 0.5836 -0.5646 -0.5836
vn 0.6995 -0.4354 -0.5667
vn -0.5725 -0.5346 0.6216
vn 0.7257 -0.4737 0.4990
vn 0.5837 -0.5645 0.5837
vn -0.6208 -0.3066 -0.7215
vn 0.7796 -0.2936 -0.5531
vn 0.7763 -0.3038 0.5523
vn 0.5251 -0.8312 0.1828
vn -0.6002 -0.7924 0.1087
vn -0.2888 -0.4636 0.8376
vn -0.3189 -0.4786 -0.8181
vn -0.5603 -0.4940 -0.6649
vn 0.5667 -0.5054 -0.6507
vn 0.0170 0.8078 -0.5893
vn -0.8551 0.5185 -0.0000
vn 0.4397 0.8982 -0.0000
vn 0.0138 0.6601 0.7510
vn 0.4076 0.9132 -0.0000
vn -0.3651 0.6725 0.6438
vn -0.3602 0.6788 -0.6399
vn 0.0040 0.1550 0.9879
vn -0.6426 0.7304 0.2315
vn 0.7002 0.6748 0.2330
vn -0.8853 0.4651 -0.0000
vn -0.4599 0.5914 -0.6624
vn -0.4735 0.6086 0.6367
vn -0.0000 0.7731 -0.6343
vn 0.6981 0.7103 0.0899
vn -0.6732 0.7348 0.0826
vn -0.7130 -0.7012 -0.0000
vn -0.0000 -0.7013 -0.7129
vn -0.0104 -0.7994 0.6007
vn 0.8714 -0.4905 -0.0000
vn -0.0000 -0.7012 0.7129
vn -0.4530 -0.8907 0.0366
vn 0.0181 -0.6424 -0.7662
vn 0.7128 -0.7013 -0.0000
vn 0.9203 -0.3911 -0.0000
vn 0.3370 -0.5560 0.7598
vn 0.3423 -0.5480 -0.7632
vn -0.0413 -0.9872 0.1541
vn -0.7612 -0.6281 -0.1613
vn 0.7125 -0.6704 -0.2073
vn -0.4711 -0.8821 -0.0000
vn 0.3769 -0.5497 -0.7455
vn 0.3824 -0.5032 0.7750
vn 0.0001 -0.6227 -0.7824
vn 0.7243 -0.6810 -0.1080
vn -0.7296 -0.6699 -0.1375
vn -0.7186 0.0635 -0.6926
vn -0.7169 0.0576 0.6948
vn -0.7236 -0.5917 0.3555
vn 0.6954 -0.5284 0.4871
vn 0.6526 0.2184 -0.7255
vn 0.7003 0.0684 -0.7105
vn 0.6739 0.2043 0.7100
vn 0.6731 0.2175 -0.7069
vn -0.7414 0.1929 -0.6427
vn -0.7206 0.3012 0.6245
vn -0.7039 0.0681 -0.7070
vn 0.6406 0.2137 0.7375
vn 0.7068 0.0230 -0.7070
vn -0.7070 0.0232 0.7068
vn 0.7069 0.0233 0.7069
vn -0.0000 -0.0000 1.0000
vt 0.803023 0.507430
vt 0.803023 0.516148
vt 0.811713 0.517030
vt 0.811713 0.508312
vt 0.811741 0.517004
vt 0.811741 0.517004
vt 0.811741 0.508344
vt 0.811741 0.508344
vt 0.811742 0.490849
vt 0.811742 0.482189
vt 0.794305 0.497827
vt 0.794305 0.506545
vt 0.803023 0.498712
vt 0.811741 0.508286
vt 0.811742 0.499626
vt 0.811742 0.499597
vt 0.811741 0.508315
vt 0.811742 0.490878
vt 0.811742 0.499597
vt 0.811742 0.499568
vt 0.811742 0.490907
vt 0.811742 0.490907
vt 0.811742 0.499568
vt 0.803051 0.498742
vt 0.811715 0.499622
vt 0.811714 0.508284
vt 0.803050 0.507405
vt 0.803052 0.489996
vt 0.811714 0.490875
vt 0.811715 0.499566
vt 0.803051 0.498687
vt 0.794332 0.497857
vt 0.802996 0.498736
vt 0.802995 0.507400
vt 0.794332 0.506521
vt 0.811741 0.508286
vt 0.811742 0.499625
vt 0.811742 0.499626
vt 0.811741 0.508286
vt 0.811742 0.490850
vt 0.811742 0.482189
vt 0.811742 0.482189
vt 0.811742 0.490849
vt 0.811741 0.517005
vt 0.811741 0.508344
vt 0.811741 0.508344
vt 0.811741 0.517004
vt 0.811742 0.490908
vt 0.811742 0.499567
vt 0.811742 0.499567
vt 0.811742 0.490907
vt 0.811742 0.490849
vt 0.811742 0.482189
vt 0.811713 0.499594
vt 0.811741 0.508344
vt 0.811741 0.517004
vt 0.811741 0.517004
vt 0.811741 0.517033
vt 0.811741 0.517033
vt 0.811742 0.482160
vt 0.811742 0.482160
vt 0.803024 0.481275
vt 0.803024 0.489993
vt 0.811714 0.490875
vt 0.811714 0.482157
vt 0.811742 0.499626
vt 0.811741 0.508286
vt 0.811741 0.508286
vt 0.811742 0.499568
vt 0.811742 0.499567
vt 0.803051 0.481305
vt 0.811715 0.482185
vt 0.803050 0.507461
vt 0.811714 0.508341
vt 0.811714 0.517002
vt 0.803050 0.516124
vt 0.811741 0.517033
vt 0.794305 0.506517
vt 0.794333 0.506548
vt 0.803051 0.498715
vt 0.803024 0.498739
vt 0.811733 0.517003
vt 0.811741 0.517026
vt 0.811723 0.517031
vt 0.811714 0.517031
vt 0.802995 0.507427
vt 0.803023 0.507402
vt 0.794305 0.506517
vt 0.794305 0.497827
vt 0.794306 0.497827
vt 0.802995 0.498709
vt 0.802995 0.507427
vt 0.794333 0.506548
vt 0.803050 0.516151
s 0
usemtl Material.004
f 2/1/1 4/2/1 21/3/1 14/4/1
f 20/5/2 35/6/2 33/7/2 10/8/2
f 15/9/3 38/9/3 42/10/3 22/10/3
f 3/11/4 4/12/4 2/1/4 1/13/4
f 13/14/5 29/14/5 27/15/5 5/15/5
f 6/16/6 26/16/6 85/16/6 61/16/6
f 11/17/7 32/17/7 91/17/7 73/17/7
f 18/18/8 47/18/8 103/18/8 80/18/8
f 45/19/9 7/16/9 60/16/9 105/16/9
f 59/20/10 81/21/10 102/22/10 106/23/10
f 55/24/11 57/25/11 70/26/11 77/27/11
f 49/28/12 82/29/12 58/30/12 54/31/12
f 50/32/13 56/33/13 76/34/13 52/35/13
f 71/36/14 62/37/14 84/38/14 88/39/14
f 78/40/15 67/41/15 96/42/15 100/43/15
f 64/44/16 74/45/16 90/46/16 94/47/16
f 46/48/17 43/49/17 104/50/17 101/51/17
f 40/10/18 37/9/18 98/52/18 95/53/18
f 1/13/19 2/1/19 14/4/19 9/54/19
f 31/55/20 34/56/20 92/57/20 89/7/20
f 36/58/21 24/58/21 65/59/21 93/58/21
f 23/60/22 41/61/22 97/60/22 66/60/22
f 39/18/23 19/18/23 79/18/23 99/18/23
f 4/62/24 3/63/24 16/64/24 21/65/24
f 25/66/25 28/67/25 86/68/25 83/15/25
f 30/17/26 12/17/26 72/17/26 87/17/26
f 8/69/27 44/70/27 48/51/27 17/22/27
f 51/71/28 68/72/28 82/29/28 49/28/28
f 75/73/29 69/74/29 63/75/29 53/76/29
f 5/15/30 6/16/30 7/16/30 8/69/30 9/54/30
f 10/8/31 11/17/31 12/17/31 13/14/31 14/4/31
f 15/9/32 16/64/32 17/22/32 18/18/32 19/18/32
f 20/5/33 21/77/33 22/58/33 23/58/33 24/58/33
f 25/66/34 26/16/34 27/15/34
f 28/67/35 29/14/35 30/17/35
f 31/55/36 32/17/36 33/7/36
f 34/56/37 35/6/37 36/58/37
f 37/9/38 38/9/38 39/18/38
f 40/10/39 41/61/39 42/10/39
f 43/49/40 44/70/40 45/19/40
f 46/48/41 47/18/41 48/51/41
f 51/78/42 52/35/42 53/79/42
f 54/80/43 55/24/43 56/81/43
f 57/25/44 58/30/44 59/20/44 60/16/44 61/16/44 62/37/44
f 63/75/45 64/82/45 65/83/45 66/58/45 67/84/45 68/85/45
f 69/74/46 70/26/46 71/36/46 72/17/46 73/17/46 74/45/46
f 75/86/47 76/34/47 77/87/47
f 78/40/48 79/18/48 80/18/48 81/21/48 82/29/48
f 83/15/49 84/38/49 85/16/49
f 86/68/50 87/17/50 88/39/50
f 89/7/51 90/46/51 91/17/51
f 92/57/52 93/58/52 94/47/52
f 95/53/53 96/42/53 97/60/53
f 98/52/54 99/18/54 100/43/54
f 101/51/55 102/22/55 103/18/55
f 104/50/56 105/16/56 106/23/56
f 14/4/57 21/3/57 20/5/57 10/8/57
f 9/54/58 14/4/58 13/14/58 5/15/58
f 21/65/59 16/64/59 15/9/59 22/10/59
f 16/64/60 9/54/60 8/69/60 17/22/60
f 27/15/61 29/14/61 28/67/61 25/66/61
f 29/14/62 13/14/62 12/17/62 30/17/62
f 5/15/63 27/15/63 26/16/63 6/16/63
f 33/7/64 35/6/64 34/56/64 31/55/64
f 35/6/65 20/5/65 24/58/65 36/58/65
f 10/8/66 33/7/66 32/17/66 11/17/66
f 42/10/67 38/9/67 37/9/67 40/10/67
f 38/9/68 15/9/68 19/18/68 39/18/68
f 22/10/69 42/10/69 41/61/69 23/60/69
f 48/51/70 44/70/70 43/49/70 46/48/70
f 44/70/71 8/69/71 7/16/71 45/19/71
f 17/22/72 48/51/72 47/18/72 18/18/72
f 50/32/73 52/35/73 51/88/73 49/89/73
f 56/33/74 50/32/74 49/90/74 54/91/74
f 74/45/75 64/44/75 63/75/75 69/74/75
f 62/37/76 71/36/76 70/26/76 57/25/76
f 52/35/77 76/34/77 75/92/77 53/93/77
f 67/41/78 78/40/78 82/29/78 68/72/78
f 81/21/79 59/20/79 58/30/79 82/29/79
f 76/34/80 56/33/80 55/24/80 77/27/80
f 83/15/81 86/68/81 88/39/81 84/38/81
f 87/17/82 72/17/82 71/36/82 88/39/82
f 61/16/83 85/16/83 84/38/83 62/37/83
f 89/7/84 92/57/84 94/47/84 90/46/84
f 93/58/85 65/59/85 64/44/85 94/47/85
f 73/17/86 91/17/86 90/46/86 74/45/86
f 95/53/87 98/52/87 100/43/87 96/42/87
f 99/18/88 79/18/88 78/40/88 100/43/88
f 66/60/89 97/60/89 96/42/89 67/41/89
f 101/51/90 104/50/90 106/23/90 102/22/90
f 105/16/91 60/16/91 59/20/91 106/23/91
f 80/18/92 103/18/92 102/22/92 81/21/92
f 39/18/93 99/18/93 98/52/93 37/9/93
f 97/60/94 41/61/94 40/10/94 95/53/94
f 36/58/95 93/58/95 92/57/95 34/56/95
f 91/17/96 32/17/96 31/55/96 89/7/96
f 6/16/97 61/16/97 60/16/97 7/16/97
f 104/50/98 43/49/98 45/19/98 105/16/98
f 30/17/99 87/17/99 86/68/99 28/67/99
f 85/16/100 26/16/100 25/66/100 83/15/100
f 18/18/101 80/18/101 79/18/101 19/18/101
f 23/58/102 66/58/102 65/59/102 24/58/102
f 46/48/103 101/51/103 103/18/103 47/18/103
f 11/17/104 73/17/104 72/17/104 12/17/104
f 57/25/105 55/24/105 54/31/105 58/30/105
f 53/76/106 63/75/106 68/85/106 51/94/106
f 69/74/107 75/73/107 77/27/107 70/26/107
f 3/63/108 1/13/108 9/54/108 16/64/108
