# Blender 4.2.3 LTS
# www.blender.org
mtllib NightTable.mtl
o Cube
v 0.423079 0.675176 -0.201392
v 0.423079 0.152635 -0.201392
v -0.423079 0.675176 -0.201392
v -0.423079 0.152635 -0.201392
v 0.423079 0.428049 -0.201392
v 0.423079 0.399761 -0.201392
v -0.423079 0.428049 -0.201392
v -0.423079 0.399761 -0.201392
v 0.414008 0.161294 -0.197779
v -0.414008 0.161294 -0.197779
v 0.414008 0.391102 -0.197779
v -0.414008 0.391102 -0.197779
v -0.414008 0.666517 -0.197779
v 0.414008 0.666517 -0.197779
v 0.414008 0.436708 -0.197779
v -0.414008 0.436708 -0.197779
v 0.408493 0.163889 -0.206828
v -0.408493 0.163889 -0.206828
v 0.408493 0.388507 -0.206828
v -0.408493 0.388507 -0.206828
v -0.408493 0.663922 -0.206828
v 0.408493 0.663922 -0.206828
v 0.408493 0.439303 -0.206828
v -0.408493 0.439303 -0.206828
v 0.373607 -0.002685 -0.136737
v 0.324431 0.132036 -0.136737
v 0.373607 -0.002685 -0.178634
v 0.324431 0.132036 -0.178634
v 0.437405 -0.002685 -0.136737
v 0.422423 0.132036 -0.136737
v 0.437405 -0.002685 -0.178634
v 0.422423 0.132036 -0.178634
v 0.373607 -0.002685 0.177017
v 0.324431 0.132036 0.177017
v 0.373607 -0.002685 0.135119
v 0.324431 0.132036 0.135119
v 0.437405 -0.002685 0.177017
v 0.422423 0.132036 0.177017
v 0.437405 -0.002685 0.135119
v 0.422423 0.132036 0.135119
v -0.373607 -0.002685 -0.136737
v -0.324431 0.132036 -0.136737
v -0.373607 -0.002685 -0.178634
v -0.324431 0.132036 -0.178634
v -0.437405 -0.002685 -0.136737
v -0.422423 0.132036 -0.136737
v -0.437405 -0.002685 -0.178634
v -0.422423 0.132036 -0.178634
v -0.373607 -0.002685 0.177017
v -0.324431 0.132036 0.177017
v -0.373607 -0.002685 0.135119
v -0.324431 0.132036 0.135119
v -0.437405 -0.002685 0.177017
v -0.422423 0.132036 0.177017
v -0.437405 -0.002685 0.135119
v -0.422423 0.132036 0.135119
v -0.086489 0.534964 -0.201104
v -0.086489 0.572130 -0.201104
v -0.086489 0.534964 -0.226938
v -0.086489 0.572130 -0.226938
v 0.086489 0.534964 -0.201104
v 0.086489 0.572130 -0.201104
v 0.086489 0.534964 -0.226938
v 0.086489 0.572130 -0.226938
v -0.086489 0.245890 -0.201104
v -0.086489 0.283055 -0.201104
v -0.086489 0.245890 -0.226938
v -0.086489 0.283055 -0.226938
v 0.086489 0.245890 -0.201104
v 0.086489 0.283055 -0.201104
v 0.086489 0.245890 -0.226938
v 0.086489 0.283055 -0.226938
v 0.444368 0.699680 0.200096
v 0.450423 0.699680 0.193285
v 0.444368 0.705736 0.194041
v 0.444368 0.128130 0.200096
v 0.444368 0.122075 0.194041
v 0.450423 0.127048 0.193254
v -0.444368 0.699680 0.200096
v -0.444368 0.705736 0.194041
v -0.450423 0.699680 0.193285
v -0.444368 0.122075 0.194041
v -0.444368 0.128130 0.200096
v -0.450423 0.127048 0.193254
v 0.444616 0.128565 -0.201392
v 0.450423 0.127090 -0.195337
v 0.444368 0.122075 -0.195337
v -0.450423 0.127090 -0.195337
v -0.444616 0.128565 -0.201392
v -0.444368 0.122075 -0.195337
v 0.444606 0.413905 -0.201392
v 0.450423 0.409504 -0.195337
v -0.450423 0.409504 -0.195337
v -0.444606 0.413905 -0.201392
v -0.450423 0.699680 -0.195337
v -0.444368 0.705736 -0.195337
v -0.444616 0.699245 -0.201392
v 0.450423 0.699680 -0.195337
v 0.444616 0.699245 -0.201392
v 0.444368 0.705736 -0.195337
vn 1.0000 -0.0000 -0.0000
vn -0.0000 1.0000 -0.0000
vn -1.0000 -0.0000 -0.0000
vn -0.0000 -1.0000 -0.0000
vn -0.3701 -0.0000 -0.9290
vn -0.0000 -0.3851 -0.9229
vn -0.0000 -0.0000 -1.0000
vn -0.0000 0.9613 -0.2757
vn -0.8539 -0.0000 -0.5204
vn 0.3701 -0.0000 -0.9290
vn -0.0000 0.3851 -0.9229
vn 0.8539 -0.0000 -0.5204
vn -0.0000 -0.9613 -0.2757
vn -0.9394 -0.3429 -0.0000
vn 0.9939 0.1105 -0.0000
vn -0.0000 -0.0000 1.0000
vn 0.9394 -0.3429 -0.0000
vn -0.9939 0.1105 -0.0000
vn 0.6225 0.5534 0.5534
vn 0.5581 -0.5867 0.5867
vn -0.6225 0.5534 0.5534
vn -0.5581 -0.5867 0.5867
vn 0.4982 -0.6016 -0.6244
vn -0.4982 -0.6016 -0.6244
vn -0.5714 0.5714 -0.5891
vn 0.5714 0.5714 -0.5891
vn -0.6363 -0.7715 -0.0000
vn -0.0000 -0.6822 -0.7312
vn 0.7214 -0.0000 -0.6925
vn -0.7214 -0.0000 -0.6925
vn -0.0000 0.7071 0.7071
vn 0.7071 0.7071 -0.0000
vn -0.0000 -0.7071 0.7071
vn -0.7071 0.7071 -0.0000
vn -0.0000 0.6822 -0.7312
vn 0.6363 -0.7715 -0.0000
vn -0.7481 -0.0000 0.6636
vn 0.7481 -0.0000 0.6636
vt 0.872868 -0.543328
vt 0.857848 -0.543328
vt 0.857848 -0.543328
vt 0.887489 -0.543328
vt 0.857534 -0.528738
vt 0.857534 1.612578
vt 0.857534 1.612578
vt 0.857534 -0.528738
vt 0.887489 1.627167
vt 0.872868 1.627167
vt 0.887486 1.627167
vt 0.887486 -0.543328
vt 0.887746 1.612578
vt 0.887746 -0.528738
vt 0.887746 -0.528738
vt 0.031938 0.574192
vt 0.031082 0.574222
vt 0.031114 0.572490
vt 0.031905 0.572474
vt 0.030221 0.574201
vt 0.030221 0.426205
vt 0.030254 0.427927
vt 0.030254 0.572473
vt 0.857848 1.627167
vt 0.857848 1.627167
vt 0.886164 1.561300
vt 0.886164 -0.477439
vt 0.887410 -0.529334
vt 0.887410 1.613178
vt 0.873372 -0.477439
vt 0.872640 -0.529311
vt 0.887410 -0.529334
vt 0.873372 1.561300
vt 0.887410 1.613178
vt 0.872640 1.613155
vt 0.871908 1.561300
vt 0.871908 -0.477439
vt 0.872640 -0.529313
vt 0.872640 1.613152
vt 0.859116 1.561300
vt 0.872640 1.613155
vt 0.857870 1.613178
vt 0.859116 -0.477439
vt 0.857870 -0.529334
vt 0.872640 -0.529311
vt 0.814466 1.635333
vt 0.814466 -0.718663
vt 0.814689 -0.702973
vt 0.814689 1.619662
vt 0.834245 1.635333
vt 0.834022 1.619662
vt 0.031077 0.574287
vt 0.031045 0.572565
vt 0.031077 0.426291
vt 0.031045 0.428019
vt 0.031082 0.426235
vt 0.031114 0.427953
vt 0.031938 0.426205
vt 0.031905 0.427937
vt 0.834022 -0.702973
vt 0.834473 1.619662
vt 0.815140 1.619662
vt 0.815140 -0.702973
vt 0.834473 -0.702973
vt 0.814916 -0.718663
vt 0.834696 -0.718663
vt 0.814916 1.635333
vt 0.834245 -0.718663
vt 0.834696 1.635333
vt 0.897817 1.354738
vt 0.904714 1.226350
vt 0.904714 1.482171
vt 0.897817 1.521286
vt 0.897817 -0.596025
vt 0.904714 -0.467638
vt 0.897817 -0.762574
vt 0.904714 -0.723469
vt 0.635579 0.213805
vt 0.654826 0.213805
vt 0.654826 0.943590
vt 0.635579 0.943590
vt 0.635579 0.106099
vt 0.654826 0.106099
vt 0.654826 0.835883
vt 0.635579 0.835883
vt 0.852003 -0.151619
vt 0.852003 -0.160504
vt 0.851791 -0.151619
vt 0.871997 -0.151619
vt 0.872209 -0.151619
vt 0.872035 -0.160504
vt 0.852003 1.152397
vt 0.851791 1.152397
vt 0.852003 1.161289
vt 0.872209 1.152397
vt 0.871997 1.152397
vt 0.872035 1.161289
vt 0.871981 -0.151987
vt 0.872033 -0.160504
vt 0.872033 1.161289
vt 0.871981 1.152767
vt 0.852018 1.152767
vt 0.852018 -0.151987
vt 0.862154 -0.160504
vt 0.862000 -0.151968
vt 0.862000 1.152755
vt 0.862154 1.161289
vt 0.887433 -0.528738
vt 0.857848 -0.528738
vt 0.857848 1.612578
vt 0.887433 1.612578
s 0
usemtl Material
f 92/1/1 98/2/1 74/3/1 78/4/1
f 100/5/2 96/6/2 80/7/2 75/8/2
f 84/9/3 93/10/3 88/11/3
f 86/12/1 92/1/1 78/4/1
f 90/13/4 87/14/4 77/15/4 82/13/4
f 1/16/5 5/17/5 15/18/5 14/19/5
f 8/20/6 6/21/6 11/22/6 12/23/6
f 84/9/3 81/24/3 95/25/3 93/10/3
f 4/26/7 2/27/7 85/28/7 89/29/7
f 2/27/7 6/30/7 91/31/7 85/32/7
f 8/33/7 4/26/7 89/34/7 94/35/7
f 7/36/7 5/37/7 91/38/7 94/39/7
f 3/40/7 7/36/7 94/41/7 97/42/7
f 1/43/7 3/40/7 97/42/7 99/44/7
f 5/37/7 1/43/7 99/44/7 91/45/7
f 6/30/7 8/33/7 94/39/7 91/38/7
f 13/46/8 14/47/8 22/48/8 21/49/8
f 16/50/9 13/46/9 21/49/9 24/51/9
f 4/52/10 8/20/10 12/23/10 10/53/10
f 2/54/11 4/52/11 10/53/11 9/55/11
f 5/17/11 7/56/11 16/57/11 15/18/11
f 7/56/10 3/58/10 13/59/10 16/57/10
f 3/58/6 1/16/6 14/19/6 13/59/6
f 6/21/5 2/54/5 9/55/5 11/22/5
f 24/51/7 21/49/7 22/48/7 23/60/7
f 18/61/7 20/62/7 19/63/7 17/64/7
f 11/65/12 9/66/12 17/64/12 19/63/12
f 12/67/8 11/65/8 19/63/8 20/62/8
f 14/47/12 15/68/12 23/60/12 22/48/12
f 10/69/9 12/67/9 20/62/9 18/61/9
f 9/66/13 10/69/13 18/61/13 17/64/13
f 15/68/13 16/50/13 24/51/13 23/60/13
f 25/70/14 26/71/14 28/71/14 27/70/14
f 27/70/7 28/71/7 32/72/7 31/73/7
f 31/73/15 32/72/15 30/72/15 29/73/15
f 29/73/16 30/72/16 26/71/16 25/70/16
f 33/70/14 34/71/14 36/71/14 35/70/14
f 35/70/7 36/71/7 40/72/7 39/73/7
f 39/73/15 40/72/15 38/72/15 37/73/15
f 37/73/16 38/72/16 34/71/16 33/70/16
f 41/74/17 43/74/17 44/75/17 42/75/17
f 43/74/7 47/76/7 48/77/7 44/75/7
f 47/76/18 45/76/18 46/77/18 48/77/18
f 45/76/16 41/74/16 42/75/16 46/77/16
f 49/74/17 51/74/17 52/75/17 50/75/17
f 51/74/7 55/76/7 56/77/7 52/75/7
f 55/76/18 53/76/18 54/77/18 56/77/18
f 53/76/16 49/74/16 50/75/16 54/77/16
f 57/78/3 58/79/3 60/79/3 59/78/3
f 59/78/7 60/79/7 64/80/7 63/81/7
f 63/81/1 64/80/1 62/80/1 61/81/1
f 59/78/4 63/81/4 61/81/4 57/78/4
f 64/80/2 60/79/2 58/79/2 62/80/2
f 65/82/3 66/83/3 68/83/3 67/82/3
f 67/82/7 68/83/7 72/84/7 71/85/7
f 71/85/1 72/84/1 70/84/1 69/85/1
f 67/82/4 71/85/4 69/85/4 65/82/4
f 72/84/2 68/83/2 66/83/2 70/84/2
f 73/86/19 74/87/19 75/88/19
f 76/89/20 77/90/20 78/91/20
f 79/92/21 80/93/21 81/94/21
f 82/95/22 83/96/22 84/97/22
f 85/98/23 86/99/23 87/90/23
f 88/100/24 89/101/24 90/95/24
f 95/94/25 96/93/25 97/102/25
f 98/87/26 99/103/26 100/88/26
f 90/95/27 82/95/27 84/97/27 88/100/27
f 87/90/28 90/95/28 89/101/28 85/98/28
f 92/104/29 86/99/29 85/98/29 91/105/29
f 94/106/30 89/101/30 88/100/30 93/107/30
f 75/88/31 80/93/31 79/92/31 73/86/31
f 100/88/32 75/88/32 74/87/32 98/87/32
f 82/95/33 77/90/33 76/89/33 83/96/33
f 80/93/34 96/93/34 95/94/34 81/94/34
f 96/93/35 100/88/35 99/103/35 97/102/35
f 77/90/36 87/90/36 86/99/36 78/91/36
f 83/96/37 79/92/37 81/94/37 84/97/37
f 73/86/38 76/89/38 78/91/38 74/87/38
f 97/102/30 94/106/30 93/107/30 95/94/30
f 98/87/29 92/104/29 91/105/29 99/103/29
f 76/108/16 73/109/16 79/110/16 83/111/16
