# Blender 4.2.1 LTS
# www.blender.org
mtllib ordenador.mtl
o Cube
v 0.009551 0.316709 -0.544913
v 0.009551 0.951946 -0.544913
v -0.018351 0.278253 0.000000
v 0.018351 0.278253 0.000000
v 0.009552 0.951946 0.000000
v 0.009552 0.316709 0.000000
v -0.088196 -0.000248 -0.073172
v -0.068538 -0.000248 -0.073172
v -0.088196 -0.000248 -0.099435
v -0.068538 -0.000248 -0.112546
v 0.058803 -0.000248 -0.099435
v 0.041648 -0.000248 -0.112546
v -0.017243 0.989293 -0.600584
v -0.018351 0.989293 -0.599476
v -0.017243 0.990402 -0.599476
v -0.018351 0.165066 -0.599476
v -0.017243 0.165066 -0.600584
v -0.016936 0.163957 -0.599476
v 0.018351 0.952909 -0.546307
v 0.017243 0.951946 -0.544913
v 0.018351 0.165066 -0.600584
v 0.018312 0.163957 -0.599476
v 0.017243 0.316709 -0.544913
v 0.018351 0.315746 -0.546307
v -0.018351 0.278253 -0.599476
v -0.017243 0.278253 -0.600584
v 0.018351 0.278253 -0.599356
v 0.017243 0.277145 -0.600584
v 0.017243 0.989293 -0.600584
v 0.017243 0.990402 -0.599476
v 0.018351 0.989543 -0.599341
v 0.027349 0.163957 -0.599476
v 0.027349 0.165066 -0.600584
v 0.028457 0.165066 -0.599476
v 0.028457 0.277145 -0.599476
v 0.027349 0.277145 -0.600584
v 0.027349 0.278253 -0.599360
v 0.001307 0.163957 -0.118304
v -0.000263 0.163957 -0.119525
v 0.001346 0.163957 -0.120633
v 0.002416 0.163957 -0.119525
v -0.018351 0.989293 0.000000
v -0.017243 0.990402 0.000000
v 0.017243 0.990402 0.000000
v 0.018351 0.989525 0.000000
v -0.016923 0.163957 -0.119525
v -0.018116 0.164643 -0.118557
v 0.018351 0.952920 0.000000
v 0.017243 0.951946 0.000000
v 0.017243 0.316709 0.000000
v 0.018351 0.315735 0.000000
v 0.028458 0.165066 0.000000
v 0.027349 0.163957 0.000000
v 0.027349 0.278253 0.000000
v 0.028458 0.277145 0.000000
v -0.068573 0.105045 -0.072515
v -0.069395 0.103205 -0.072064
v -0.070506 0.104809 -0.073172
v -0.087338 0.111283 -0.072064
v -0.086518 0.113148 -0.072482
v -0.086319 0.111937 -0.073172
v -0.087168 0.011968 -0.073172
v -0.088206 0.010859 -0.072064
v -0.068527 0.010859 -0.072064
v -0.069635 0.011968 -0.073172
v -0.052491 0.144770 -0.095336
v -0.051770 0.144236 -0.096543
v -0.037232 0.132549 -0.095255
v -0.038131 0.133277 -0.096543
v -0.087160 0.011968 -0.099435
v -0.088196 0.010859 -0.099435
v -0.067429 0.010859 -0.099435
v -0.069635 0.011968 -0.100543
v -0.068538 0.010859 -0.098326
v -0.067429 -0.000248 -0.099435
v -0.068538 -0.000248 -0.098326
v -0.069646 -0.000248 -0.099435
v -0.068538 -0.000248 -0.100543
v -0.087157 0.011968 -0.111438
v -0.087088 0.010859 -0.112546
v -0.088196 0.010859 -0.111438
v -0.068538 0.011968 -0.111438
v -0.068538 0.010859 -0.112546
v -0.088196 -0.000248 -0.111438
v -0.087088 -0.000248 -0.112546
v 0.057695 0.011968 -0.099435
v 0.058803 0.010859 -0.099435
v 0.057695 0.010859 -0.112546
v 0.057695 0.011968 -0.111438
v 0.058803 0.010859 -0.111438
v 0.057695 -0.000248 -0.112546
v 0.058803 -0.000248 -0.111438
v 0.041648 -0.000248 -0.098326
v 0.040539 -0.000248 -0.099435
v 0.041648 -0.000248 -0.100543
v 0.042756 -0.000248 -0.099435
v 0.040539 0.010859 -0.099435
v 0.041648 0.010859 -0.098326
v 0.042756 0.011968 -0.100543
v 0.041648 0.010859 -0.112546
v 0.041648 0.011968 -0.111438
v -0.088196 -0.000248 0.000000
v -0.068538 -0.000248 0.000000
v -0.069395 0.103205 0.000000
v -0.068573 0.105045 0.000000
v -0.087338 0.111283 0.000000
v -0.086518 0.113148 0.000000
v -0.037232 0.132549 0.000000
v -0.052491 0.144770 0.000000
v 0.001307 0.163957 0.000000
v -0.018116 0.164643 0.000000
v -0.068527 0.010859 0.000000
v -0.088206 0.010859 0.000000
v 0.009551 0.316709 0.544913
v 0.009551 0.951946 0.544913
v -0.088196 -0.000248 0.073172
v -0.068538 -0.000248 0.073172
v -0.088196 -0.000248 0.099435
v -0.068538 -0.000248 0.112546
v 0.058803 -0.000248 0.099435
v 0.041648 -0.000248 0.112546
v -0.017243 0.989293 0.600584
v -0.018351 0.989293 0.599476
v -0.017243 0.990402 0.599476
v -0.018351 0.165066 0.599476
v -0.017243 0.165066 0.600584
v -0.016936 0.163957 0.599476
v 0.018351 0.952909 0.546307
v 0.017243 0.951946 0.544913
v 0.018351 0.165066 0.600584
v 0.018312 0.163957 0.599476
v 0.017243 0.316709 0.544913
v 0.018351 0.315746 0.546307
v -0.018351 0.278253 0.599476
v -0.017243 0.278253 0.600584
v 0.018351 0.278253 0.599356
v 0.017243 0.277145 0.600584
v 0.017243 0.989293 0.600584
v 0.017243 0.990402 0.599476
v 0.018351 0.989543 0.599341
v 0.027349 0.163957 0.599476
v 0.027349 0.165066 0.600584
v 0.028457 0.165066 0.599476
v 0.028457 0.277145 0.599476
v 0.027349 0.277145 0.600584
v 0.027349 0.278253 0.599360
v 0.001307 0.163957 0.118304
v -0.000263 0.163957 0.119525
v 0.001346 0.163957 0.120633
v 0.002416 0.163957 0.119525
v -0.016923 0.163957 0.119525
v -0.018116 0.164643 0.118557
v -0.068573 0.105045 0.072515
v -0.069395 0.103205 0.072064
v -0.070506 0.104809 0.073172
v -0.087338 0.111283 0.072064
v -0.086518 0.113148 0.072482
v -0.086319 0.111937 0.073172
v -0.087168 0.011968 0.073172
v -0.088206 0.010859 0.072064
v -0.068527 0.010859 0.072064
v -0.069635 0.011968 0.073172
v -0.052491 0.144770 0.095336
v -0.051770 0.144236 0.096543
v -0.037232 0.132549 0.095255
v -0.038131 0.133277 0.096543
v -0.087160 0.011968 0.099435
v -0.088196 0.010859 0.099435
v -0.067429 0.010859 0.099435
v -0.069635 0.011968 0.100543
v -0.068538 0.010859 0.098326
v -0.067429 -0.000248 0.099435
v -0.068538 -0.000248 0.098326
v -0.069646 -0.000248 0.099435
v -0.068538 -0.000248 0.100543
v -0.087157 0.011968 0.111438
v -0.087088 0.010859 0.112546
v -0.088196 0.010859 0.111438
v -0.068538 0.011968 0.111438
v -0.068538 0.010859 0.112546
v -0.088196 -0.000248 0.111438
v -0.087088 -0.000248 0.112546
v 0.057695 0.011968 0.099435
v 0.058803 0.010859 0.099435
v 0.057695 0.010859 0.112546
v 0.057695 0.011968 0.111438
v 0.058803 0.010859 0.111438
v 0.057695 -0.000248 0.112546
v 0.058803 -0.000248 0.111438
v 0.041648 -0.000248 0.098326
v 0.040539 -0.000248 0.099435
v 0.041648 -0.000248 0.100543
v 0.042756 -0.000248 0.099435
v 0.040539 0.010859 0.099435
v 0.041648 0.010859 0.098326
v 0.042756 0.011968 0.100543
v 0.041648 0.010859 0.112546
v 0.041648 0.011968 0.111438
vn -1.0000 -0.0008 -0.0000
vn -0.9239 0.3827 -0.0000
vn -0.8756 0.3416 -0.3416
vn -0.9239 -0.0003 -0.3826
vn -0.3827 0.9239 -0.0000
vn 0.3261 0.9453 -0.0000
vn 0.3012 0.8851 -0.3547
vn -0.3416 0.8756 -0.3416
vn -0.9534 0.1249 -0.2747
vn -0.8493 -0.4058 -0.3377
vn -0.3516 -0.3595 -0.8644
vn -0.3827 -0.0000 -0.9239
vn 0.1194 0.1190 -0.9857
vn -0.0000 -0.3827 -0.9239
vn 0.9891 0.0993 0.1087
vn 0.9105 0.4135 -0.0000
vn 0.7071 0.7071 -0.0000
vn 0.5951 0.5942 -0.5411
vn -0.0000 -1.0000 -0.0000
vn 0.0746 -0.9566 -0.2818
vn -0.4008 -0.7812 -0.4786
vn -0.2648 -0.9050 -0.3330
vn -0.0000 -0.9239 -0.3827
vn 0.9105 -0.4135 -0.0000
vn 0.9891 -0.0993 0.1087
vn 0.8604 0.3954 -0.3214
vn 0.8991 0.4378 -0.0000
vn 0.3416 -0.8756 -0.3416
vn 0.3827 -0.9239 -0.0000
vn 0.3827 0.9239 -0.0000
vn 0.3385 0.8860 -0.3171
vn 0.5836 -0.6160 0.5291
vn 0.3514 -0.9362 -0.0000
vn -0.0000 -0.7071 0.7071
vn 0.8756 -0.3416 -0.3416
vn 0.8714 0.3481 -0.3456
vn 0.9239 0.3827 -0.0000
vn 0.9239 -0.3827 -0.0000
vn 0.3388 0.3619 -0.8685
vn 0.3416 -0.3416 -0.8756
vn 0.5837 0.6159 0.5291
vn -0.0000 0.7071 0.7071
vn 1.0000 -0.0000 -0.0000
vn 0.3514 0.9362 -0.0000
vn -0.0000 1.0000 -0.0000
vn -0.8667 0.4988 -0.0000
vn -0.6915 0.6325 -0.3490
vn -0.5944 0.8042 -0.0000
vn -0.3416 0.3416 -0.8756
vn 0.3529 0.3300 -0.8756
vn -0.5678 0.0425 -0.8221
vn 0.1101 -0.3175 -0.9418
vn 0.5766 0.5799 -0.5756
vn -0.5966 0.5703 -0.5646
vn -0.9778 0.2097 -0.0000
vn -0.9343 0.1597 -0.3187
vn -0.9889 0.1072 -0.1029
vn -1.0000 0.0039 -0.0000
vn -0.8185 0.4930 -0.2950
vn -0.8151 0.5794 -0.0000
vn -0.5074 -0.0629 -0.8594
vn 0.0379 -0.6559 -0.7539
vn 0.3353 -0.9421 -0.0000
vn 0.1839 -0.9765 -0.1121
vn 1.0000 -0.0007 -0.0001
vn 0.8125 -0.4761 0.3364
vn 0.8278 0.4998 0.2547
vn 0.9877 0.1127 -0.1087
vn -0.3391 0.3379 -0.8780
vn -0.0000 0.3827 -0.9239
vn -0.0000 -0.0000 -1.0000
vn 0.0992 0.9901 0.0995
vn -0.3979 0.9174 -0.0001
vn -1.0000 -0.0006 -0.0001
vn -0.9301 0.3673 -0.0001
vn -1.0000 -0.0002 -0.0001
vn -1.0000 -0.0009 -0.0000
vn -0.0000 0.9239 -0.3827
vn -0.3572 0.8685 -0.3438
vn 0.2552 0.5012 0.8269
vn 0.3366 -0.4760 0.8125
vn -0.3366 -0.4760 0.8125
vn -0.2549 0.5013 0.8269
vn -0.8799 0.3283 -0.3434
vn -0.9239 -0.0000 -0.3827
vn -0.0991 0.9901 0.0991
vn 0.3416 0.8756 -0.3416
vn -0.8269 0.5013 -0.2549
vn -0.8269 0.5013 0.2549
vn -0.8125 -0.4760 0.3365
vn -0.8125 -0.4760 -0.3365
vn -0.0991 0.9901 -0.0991
vn 0.3416 0.3416 -0.8756
vn 0.3827 -0.0000 -0.9239
vn 0.9239 -0.0000 -0.3827
vn 0.8756 0.3416 -0.3416
vn 0.5997 -0.7059 -0.3769
vn 0.8856 -0.1797 -0.4283
vn 0.9790 -0.2040 -0.0000
vn 0.8048 -0.5935 -0.0000
vn 0.4868 -0.8193 -0.3030
vn 1.0000 0.0042 -0.0000
vn 1.0000 -0.0009 -0.0000
vn 0.6458 -0.7635 -0.0000
vn -0.9239 -0.0003 0.3826
vn -0.8756 0.3416 0.3416
vn -0.3416 0.8756 0.3416
vn 0.3012 0.8851 0.3547
vn -0.9534 0.1249 0.2747
vn -0.8493 -0.4058 0.3377
vn -0.3516 -0.3595 0.8644
vn -0.0000 -0.3827 0.9239
vn 0.1194 0.1190 0.9857
vn -0.3827 -0.0000 0.9239
vn 0.9891 0.0993 -0.1087
vn 0.5951 0.5942 0.5411
vn -0.0000 -0.9239 0.3827
vn -0.2648 -0.9050 0.3329
vn -0.4008 -0.7812 0.4786
vn 0.0746 -0.9566 0.2818
vn 0.8604 0.3954 0.3214
vn 0.9891 -0.0993 -0.1087
vn 0.3416 -0.8756 0.3416
vn 0.3385 0.8860 0.3171
vn 0.5836 -0.6160 -0.5291
vn -0.0000 -0.7071 -0.7071
vn 0.8756 -0.3416 0.3416
vn 0.8714 0.3481 0.3456
vn 0.3416 -0.3416 0.8756
vn 0.3388 0.3619 0.8685
vn 0.5837 0.6159 -0.5291
vn -0.0000 0.7071 -0.7071
vn -0.6915 0.6325 0.3490
vn 0.3529 0.3300 0.8756
vn -0.3416 0.3416 0.8756
vn -0.5678 0.0425 0.8221
vn -0.5966 0.5703 0.5646
vn 0.5766 0.5799 0.5756
vn 0.1101 -0.3175 0.9418
vn -0.9889 0.1072 0.1029
vn -0.9343 0.1597 0.3187
vn -0.8185 0.4930 0.2950
vn -0.5074 -0.0629 0.8594
vn 0.0379 -0.6559 0.7539
vn 0.1839 -0.9765 0.1121
vn 1.0000 -0.0007 0.0001
vn 0.9877 0.1127 0.1087
vn 0.8278 0.4998 -0.2547
vn 0.8125 -0.4761 -0.3364
vn -0.3391 0.3379 0.8780
vn -0.0000 -0.0000 1.0000
vn -0.0000 0.3827 0.9239
vn -0.3979 0.9174 0.0001
vn 0.0992 0.9901 -0.0995
vn -1.0000 -0.0006 0.0001
vn -1.0000 -0.0002 0.0001
vn -0.9301 0.3673 0.0001
vn -0.3572 0.8685 0.3438
vn -0.0000 0.9239 0.3827
vn 0.2552 0.5012 -0.8269
vn -0.2549 0.5013 -0.8269
vn -0.3366 -0.4760 -0.8125
vn 0.3366 -0.4760 -0.8125
vn -0.9239 -0.0000 0.3827
vn -0.8799 0.3283 0.3434
vn 0.3416 0.8756 0.3416
vn 0.3827 -0.0000 0.9239
vn 0.3416 0.3416 0.8756
vn 0.8756 0.3416 0.3416
vn 0.9239 -0.0000 0.3827
vn 0.5997 -0.7059 0.3769
vn 0.8856 -0.1797 0.4283
vn 0.4868 -0.8193 0.3030
vt 0.671695 0.439865
vt 0.671689 0.439865
vt 0.671689 0.040295
vt 0.671695 0.040295
vt 0.688443 0.493385
vt 0.688443 0.276489
vt 0.734944 0.411477
vt 0.740513 0.411035
vt 0.740513 0.194143
vt 0.734966 0.194143
vt 0.734966 0.193643
vt 0.740513 0.193643
vt 0.740459 0.193643
vt 0.667997 0.300516
vt 0.667996 0.498184
vt 0.666861 0.493385
vt 0.666861 0.276544
vt 0.734910 0.410539
vt 0.734910 0.411035
vt 0.734910 0.194143
vt 0.687307 0.498184
vt 0.687306 0.300516
vt 0.688417 0.276550
vt 0.688416 0.493498
vt 0.617674 0.032273
vt 0.617674 0.431743
vt 0.617674 0.431743
vt 0.617674 0.032269
vt 0.687277 0.301147
vt 0.687277 0.498308
vt 0.740459 0.194143
vt 0.740459 0.411035
vt 0.734966 0.411035
vt 0.668026 0.301147
vt 0.776092 1.025422
vt 0.776088 1.025422
vt 0.776088 0.662201
vt 0.776092 0.662201
vt 0.668026 0.498308
vt 0.734944 0.465055
vt 0.733970 0.421972
vt 0.733970 0.465055
vt 0.666861 0.275987
vt 0.688409 0.275987
vt 0.666827 0.275987
vt 0.732360 0.431985
vt 0.732011 0.431985
vt 0.727460 0.431985
vt 0.732329 0.465055
vt 0.732329 0.432481
vt 0.727405 0.432481
vt 0.727405 0.465055
vt 0.732420 0.432298
vt 0.732420 0.465055
vt 0.733944 0.421422
vt 0.733407 0.421422
vt 0.734910 0.465055
vt 0.734910 0.411588
vt 0.726861 0.431985
vt 0.726861 0.420614
vt 0.727405 0.420614
vt 0.727405 0.414190
vt 0.726861 0.414190
vt 0.727460 0.419614
vt 0.727460 0.420118
vt 0.727405 0.420118
vt 0.726861 0.420118
vt 0.726861 0.465055
vt 0.727460 0.414689
vt 0.727405 0.414689
vt 0.726861 0.414689
vt 0.727405 0.509488
vt 0.726861 0.509488
vt 0.727460 0.509988
vt 0.727460 0.510488
vt 0.688409 0.276489
vt 0.617674 0.032173
vt 0.617674 0.031250
vt 0.732022 0.432283
vt 0.731933 0.432481
vt 0.726861 0.419614
vt 0.688409 0.493385
vt 0.666861 0.276489
vt 0.617674 0.031250
vt 0.617661 1.030231
vt 0.617661 0.630757
vt 0.617661 1.030327
vt 0.731933 0.465055
vt 0.732022 0.465055
vt 0.733371 0.422006
vt 0.727405 0.509988
vt 0.726861 0.509988
vt 0.733371 0.465055
vt 0.671695 0.638880
vt 0.671695 1.038450
vt 0.671689 1.038450
vt 0.671689 0.638880
vt 0.688443 0.601412
vt 0.688443 0.818306
vt 0.734944 0.518625
vt 0.734966 0.735959
vt 0.740513 0.735959
vt 0.740513 0.519067
vt 0.734966 0.736459
vt 0.740459 0.736459
vt 0.740513 0.736459
vt 0.667997 0.794279
vt 0.666861 0.818252
vt 0.666861 0.601412
vt 0.667996 0.596609
vt 0.734910 0.519567
vt 0.734910 0.735959
vt 0.734910 0.519067
vt 0.687307 0.596609
vt 0.688416 0.601301
vt 0.688417 0.818245
vt 0.687306 0.794279
vt 0.617674 1.030227
vt 0.617674 1.030231
vt 0.617674 0.630757
vt 0.617674 0.630757
vt 0.687277 0.793649
vt 0.687277 0.596485
vt 0.734966 0.519067
vt 0.740459 0.519067
vt 0.740459 0.735959
vt 0.668026 0.793649
vt 0.776092 0.118118
vt 0.776092 0.481339
vt 0.776088 0.481339
vt 0.776088 0.118118
vt 0.668026 0.596485
vt 0.733970 0.508130
vt 0.666861 0.818807
vt 0.666827 0.818807
vt 0.688409 0.818807
vt 0.732360 0.498121
vt 0.727460 0.498121
vt 0.732011 0.498121
vt 0.727405 0.497621
vt 0.732329 0.497621
vt 0.732420 0.497804
vt 0.733944 0.508680
vt 0.733407 0.508680
vt 0.734910 0.518514
vt 0.740513 0.465055
vt 0.726861 0.498121
vt 0.727405 0.515912
vt 0.726861 0.515912
vt 0.727460 0.515413
vt 0.726861 0.515413
vt 0.727405 0.515413
vt 0.688409 0.818306
vt 0.617674 1.030327
vt 0.617674 1.031250
vt 0.732022 0.497819
vt 0.731933 0.497621
vt 0.726861 0.510488
vt 0.688409 0.601412
vt 0.666861 0.818306
vt 0.617674 1.031250
vt 0.617661 0.032269
vt 0.617661 0.032173
vt 0.617661 0.431743
vt 0.733371 0.508096
s 1
usemtl Screen
f 3/1/1 42/2/2 14/3/3 25/4/4
f 43/5/5 44/5/6 30/6/7 15/6/8
f 47/7/9 3/8/1 25/9/4 16/10/10
f 17/11/11 26/12/12 28/13/13 21/11/14
f 24/14/15 51/15/16 4/16/17 27/17/18
f 40/18/19 39/19/20 46/19/21 18/20/22 22/20/23
f 48/21/24 19/22/25 31/23/26 45/24/27
f 41/19/19 40/18/19 22/20/23 32/20/28 53/19/29
f 27/25/18 4/26/17 54/27/30 37/28/31
f 20/29/32 49/30/33 5/30/19 2/29/34
f 34/10/35 35/31/36 55/32/37 52/33/38
f 21/11/14 28/13/13 36/13/39 33/11/40
f 23/34/41 20/29/32 2/29/34 1/34/42
f 19/22/25 24/14/15 27/17/18 31/23/26
f 1/35/43 2/36/43 5/37/43 6/38/43
f 50/39/44 23/34/41 1/34/42 6/39/45
f 111/40/46 47/7/9 66/41/47 109/42/48
f 26/43/12 13/44/49 29/44/50 28/45/13
f 61/46/51 58/47/52 65/48/53 62/48/54
f 106/49/55 59/50/56 63/51/57 113/52/58
f 109/42/48 66/41/47 60/53/59 107/54/60
f 67/55/61 69/56/62 58/47/52 61/46/51
f 53/57/29 110/57/63 38/58/64 41/19/19
f 111/40/46 3/8/1 47/7/9
f 46/19/21 39/19/20 69/56/62 67/55/61
f 8/59/65 76/60/66 74/61/67 64/51/68
f 80/62/69 83/62/70 10/63/71 85/63/12
f 62/48/54 65/48/53 73/64/72 70/65/73
f 7/59/74 63/51/57 71/66/75 9/67/76
f 113/52/58 63/51/57 7/59/74 102/68/77
f 70/65/73 73/64/72 82/69/78 79/69/79
f 10/63/71 83/62/70 100/62/70 12/63/71
f 72/66/80 75/67/81 94/67/82 97/66/83
f 9/67/76 71/66/75 81/70/84 84/71/85
f 101/69/78 99/64/86 86/65/30 89/69/87
f 195/72/88 98/61/89 93/60/90 190/73/91
f 183/74/30 86/65/30 99/64/86 196/75/92
f 82/69/78 73/64/72 99/64/86 101/69/78
f 98/61/89 195/72/88 196/75/92 99/64/86
f 12/63/71 100/62/70 88/62/93 91/63/94
f 87/66/37 11/67/43 92/71/95 90/70/96
f 13/44/49 14/76/3 15/6/8
f 16/10/10 17/11/11 18/20/22
f 29/44/50 30/6/7 31/23/26
f 32/20/28 33/11/40 34/10/35
f 35/77/36 36/78/39 37/28/31
f 38/58/64 39/19/20 40/18/19 41/19/19
f 56/79/97 57/80/98 58/47/52
f 59/50/56 60/53/59 61/46/51
f 72/66/80 73/64/72 74/61/67
f 75/67/81 76/60/66 77/67/19 78/81/19
f 79/69/79 80/62/69 81/70/84
f 88/62/93 89/69/87 90/70/96
f 93/60/90 94/67/82 95/81/19 96/67/19
f 97/66/83 98/61/89 99/64/86
f 28/45/13 29/44/50 31/23/26 27/17/18
f 26/12/12 17/11/11 16/10/10 25/9/4
f 15/6/8 30/6/7 29/44/50 13/44/49
f 43/5/5 15/6/8 14/76/3 42/82/2
f 22/20/23 18/20/22 17/11/11 21/11/14
f 13/44/49 26/43/12 25/83/4 14/76/3
f 24/14/15 19/22/25 20/29/32 23/34/41
f 53/19/29 32/20/28 34/10/35 52/33/38
f 33/11/40 36/13/39 35/31/36 34/10/35
f 27/25/18 37/28/31 36/78/39 28/84/13
f 32/20/28 22/20/23 21/11/14 33/11/40
f 30/6/7 44/5/6 45/24/27 31/23/26
f 18/20/22 46/19/21 47/7/9 16/10/10
f 19/22/25 48/21/24 49/30/33 20/29/32
f 23/34/41 50/39/44 51/15/16 24/14/15
f 37/85/31 54/86/30 55/86/37 35/87/36
f 104/88/99 57/80/98 56/79/97 105/89/100
f 67/55/61 61/46/51 60/53/59 66/41/47
f 69/56/62 39/19/20 38/58/64 68/90/101
f 63/51/57 59/50/56 61/46/51 62/48/54
f 57/80/98 64/51/68 65/48/53 58/47/52
f 46/19/21 67/55/61 66/41/47 47/7/9
f 58/47/52 69/56/62 68/90/101 56/79/97
f 74/61/67 76/60/66 75/67/81 72/66/80
f 64/51/68 74/61/67 73/64/72 65/48/53
f 71/66/75 63/51/57 62/48/54 70/65/73
f 79/69/79 82/69/78 83/62/70 80/62/69
f 80/62/69 85/63/12 84/71/85 81/70/84
f 70/65/73 79/69/79 81/70/84 71/66/75
f 90/70/96 92/71/95 91/63/94 88/62/93
f 89/69/87 86/65/30 87/66/37 90/70/96
f 99/64/86 73/64/72 72/66/80 97/66/83
f 101/69/78 89/69/87 88/62/93 100/62/70
f 82/69/78 101/69/78 100/62/70 83/62/70
f 93/60/90 98/61/89 97/66/83 94/67/82
f 86/65/30 183/74/30 184/91/37 87/66/37
f 120/92/43 11/67/43 87/66/37 184/91/37
f 59/50/56 106/49/55 107/54/60 60/53/59
f 64/51/68 112/52/102 103/68/103 8/59/65
f 57/80/98 104/88/99 112/52/102 64/51/68
f 38/58/64 110/57/63 108/93/104 68/90/101
f 68/90/101 108/93/104 105/89/100 56/79/97
f 3/94/1 134/95/105 123/96/106 42/97/2
f 43/98/5 124/99/107 139/99/108 44/98/6
f 152/100/109 125/101/110 134/102/105 3/103/1
f 126/104/111 130/104/112 137/105/113 135/106/114
f 133/107/115 136/108/116 4/109/17 51/110/16
f 149/111/19 131/112/117 127/112/118 151/113/119 148/113/120
f 48/114/24 45/115/27 140/116/121 128/117/122
f 150/113/19 53/113/29 141/112/123 131/112/117 149/111/19
f 136/118/116 146/119/124 54/120/30 4/121/17
f 129/122/125 115/122/126 5/123/19 49/123/33
f 143/101/127 52/124/38 55/125/37 144/126/128
f 130/104/112 142/104/129 145/105/130 137/105/113
f 132/127/131 114/127/132 115/122/126 129/122/125
f 128/117/122 140/116/121 136/108/116 133/107/115
f 114/128/43 6/129/43 5/130/43 115/131/43
f 50/132/44 6/132/45 114/127/132 132/127/131
f 111/40/46 109/42/48 163/133/133 152/100/109
f 135/134/114 137/135/113 138/136/134 122/136/135
f 158/137/136 159/138/137 162/138/138 155/139/139
f 106/49/55 113/52/58 160/140/140 156/141/141
f 109/42/48 107/54/60 157/142/142 163/133/133
f 164/143/143 158/137/136 155/139/139 166/144/144
f 53/113/29 150/113/19 147/145/145 110/57/63
f 111/40/46 152/100/109 3/146/1
f 151/113/119 164/143/143 166/144/144 148/113/120
f 117/147/146 161/140/147 171/72/148 173/73/149
f 177/148/150 182/149/114 119/149/151 180/148/152
f 159/138/137 167/74/153 170/75/154 162/138/138
f 116/147/155 118/92/156 168/91/157 160/140/140
f 113/52/58 102/68/77 116/147/155 160/140/140
f 167/74/153 176/150/158 179/150/159 170/75/154
f 119/149/151 121/149/151 197/148/152 180/148/152
f 169/91/160 194/91/161 191/92/162 172/92/163
f 118/92/156 181/151/164 178/152/165 168/91/157
f 198/150/159 186/150/166 183/74/30 196/75/92
f 179/150/159 198/150/159 196/75/92 170/75/154
f 121/149/151 188/149/167 185/148/168 197/148/152
f 184/91/37 187/152/169 189/151/170 120/92/43
f 122/136/135 124/99/107 123/153/106
f 125/101/110 127/112/118 126/104/111
f 138/136/134 140/116/121 139/99/108
f 141/112/123 143/101/127 142/104/129
f 144/154/128 146/119/124 145/155/130
f 147/145/145 150/113/19 149/111/19 148/113/120
f 153/156/171 155/139/139 154/157/172
f 156/141/141 158/137/136 157/142/142
f 169/91/160 171/72/148 170/75/154
f 172/92/163 175/158/19 174/92/19 173/73/149
f 176/150/158 178/152/165 177/148/150
f 185/148/168 187/152/169 186/150/166
f 190/73/91 193/92/19 192/158/19 191/92/162
f 194/91/161 196/75/92 195/72/88
f 137/135/113 136/108/116 140/116/121 138/136/134
f 135/106/114 134/102/105 125/101/110 126/104/111
f 124/99/107 122/136/135 138/136/134 139/99/108
f 43/98/5 42/159/2 123/153/106 124/99/107
f 131/112/117 130/104/112 126/104/111 127/112/118
f 122/136/135 123/153/106 134/160/105 135/134/114
f 133/107/115 132/127/131 129/122/125 128/117/122
f 53/113/29 52/124/38 143/101/127 141/112/123
f 142/104/129 143/101/127 144/126/128 145/105/130
f 136/118/116 137/161/113 145/155/130 146/119/124
f 141/112/123 142/104/129 130/104/112 131/112/117
f 139/99/108 140/116/121 45/115/27 44/98/6
f 127/112/118 125/101/110 152/100/109 151/113/119
f 128/117/122 129/122/125 49/123/33 48/114/24
f 132/127/131 133/107/115 51/110/16 50/132/44
f 146/162/124 144/163/128 55/164/37 54/164/30
f 104/88/99 105/89/100 153/156/171 154/157/172
f 164/143/143 163/133/133 157/142/142 158/137/136
f 166/144/144 165/165/173 147/145/145 148/113/120
f 160/140/140 159/138/137 158/137/136 156/141/141
f 154/157/172 155/139/139 162/138/138 161/140/147
f 151/113/119 152/100/109 163/133/133 164/143/143
f 155/139/139 153/156/171 165/165/173 166/144/144
f 171/72/148 169/91/160 172/92/163 173/73/149
f 161/140/147 162/138/138 170/75/154 171/72/148
f 168/91/157 167/74/153 159/138/137 160/140/140
f 176/150/158 177/148/150 180/148/152 179/150/159
f 177/148/150 178/152/165 181/151/164 182/149/114
f 167/74/153 168/91/157 178/152/165 176/150/158
f 187/152/169 185/148/168 188/149/167 189/151/170
f 186/150/166 187/152/169 184/91/37 183/74/30
f 196/75/92 194/91/161 169/91/160 170/75/154
f 198/150/159 197/148/152 185/148/168 186/150/166
f 179/150/159 180/148/152 197/148/152 198/150/159
f 190/73/91 191/92/162 194/91/161 195/72/88
f 156/141/141 157/142/142 107/54/60 106/49/55
f 161/140/147 117/147/146 103/68/103 112/52/102
f 154/157/172 161/140/147 112/52/102 104/88/99
f 147/145/145 165/165/173 108/93/104 110/57/63
f 165/165/173 153/156/171 105/89/100 108/93/104
