# Blender 4.2.3 LTS
# www.blender.org
mtllib Plato.mtl
o Plato
v 0.000000 -0.003154 -0.220881
v 0.000000 0.010052 -0.198648
v 0.110441 -0.003154 -0.191289
v 0.099324 0.010052 -0.172034
v 0.191289 -0.003154 -0.110440
v 0.172034 0.010052 -0.099324
v 0.220881 -0.003154 0.000000
v 0.198648 0.010052 0.000000
v 0.191289 -0.003154 0.110441
v 0.172034 0.010052 0.099324
v 0.110440 -0.003154 0.191289
v 0.099324 0.010052 0.172034
v -0.000000 -0.003154 0.220881
v -0.000000 0.010052 0.198648
v -0.110441 -0.003154 0.191289
v -0.099324 0.010052 0.172034
v -0.191289 -0.003154 0.110440
v -0.172034 0.010052 0.099324
v -0.220881 -0.003154 -0.000000
v -0.198648 0.010052 -0.000000
v -0.191289 -0.003154 -0.110441
v -0.172034 0.010052 -0.099324
v -0.110440 -0.003154 -0.191289
v -0.099324 0.010052 -0.172034
v 0.119681 0.019091 -0.207294
v 0.000000 0.019091 -0.239363
v 0.207294 0.019091 -0.119681
v 0.239363 0.019091 0.000000
v 0.207294 0.019091 0.119681
v 0.119681 0.019091 0.207294
v -0.000000 0.019091 0.239363
v -0.119681 0.019091 0.207294
v -0.207294 0.019091 0.119681
v -0.239363 0.019091 -0.000000
v -0.207294 0.019091 -0.119681
v -0.119681 0.019091 -0.207294
v 0.000000 -0.040046 -0.000000
v 0.070998 -0.023435 -0.122972
v -0.000000 -0.023435 -0.141996
v 0.122972 -0.023435 -0.070998
v 0.141996 -0.023435 -0.000000
v 0.122972 -0.023435 0.070998
v 0.070998 -0.023435 0.122972
v 0.000000 -0.023435 0.141996
v -0.070998 -0.023435 0.122972
v -0.122972 -0.023435 0.070998
v -0.141996 -0.023435 0.000000
v -0.122972 -0.023435 -0.070998
v -0.070998 -0.023435 -0.122972
v 0.082639 -0.014435 -0.143135
v -0.000000 -0.014435 -0.165278
v 0.143135 -0.014435 -0.082639
v 0.165278 -0.014435 -0.000000
v 0.143135 -0.014435 0.082639
v 0.082639 -0.014435 0.143135
v -0.000000 -0.014435 0.165278
v -0.082639 -0.014435 0.143135
v -0.143135 -0.014435 0.082639
v -0.165278 -0.014435 0.000000
v -0.143135 -0.014435 -0.082639
v -0.082639 -0.014435 -0.143135
v -0.000000 0.015148 -0.247507
v 0.123753 0.015148 -0.214347
v 0.214347 0.015148 -0.123753
v 0.247507 0.015148 -0.000000
v 0.214347 0.015148 0.123753
v 0.123753 0.015148 0.214347
v 0.000000 0.015148 0.247507
v -0.123753 0.015148 0.214347
v -0.214347 0.015148 0.123753
v -0.247507 0.015148 0.000000
v -0.214347 0.015148 -0.123753
v -0.123753 0.015148 -0.214347
v -0.000000 -0.043226 -0.000000
v -0.000000 -0.037703 -0.187741
v 0.093870 -0.037703 -0.162588
v 0.162588 -0.037703 -0.093870
v 0.187741 -0.037703 -0.000000
v 0.162588 -0.037703 0.093870
v 0.093870 -0.037703 0.162588
v -0.000000 -0.037703 0.187741
v -0.093870 -0.037703 0.162588
v -0.162588 -0.037703 0.093870
v -0.187741 -0.037703 0.000000
v -0.162588 -0.037703 -0.093870
v -0.093870 -0.037703 -0.162588
v 0.064059 0.015148 -0.239073
v 0.061952 0.019091 -0.231206
v 0.051414 0.010052 -0.191879
v 0.042777 -0.014435 -0.159646
v 0.036751 -0.023435 -0.137158
v 0.057168 -0.003154 -0.213355
v 0.048591 -0.037703 -0.181344
v 0.175014 0.015148 -0.175014
v 0.169255 0.019091 -0.169255
v 0.140465 0.010052 -0.140465
v 0.116869 -0.014435 -0.116869
v 0.100407 -0.023435 -0.100407
v 0.156186 -0.003154 -0.156186
v 0.132753 -0.037703 -0.132753
v 0.239073 0.015148 -0.064059
v 0.231206 0.019091 -0.061952
v 0.191879 0.010052 -0.051414
v 0.159646 -0.014435 -0.042777
v 0.137158 -0.023435 -0.036751
v 0.213355 -0.003154 -0.057168
v 0.181344 -0.037703 -0.048591
v 0.239073 0.015148 0.064059
v 0.231206 0.019091 0.061952
v 0.191879 0.010052 0.051414
v 0.159646 -0.014435 0.042777
v 0.137158 -0.023435 0.036751
v 0.213355 -0.003154 0.057168
v 0.181344 -0.037703 0.048591
v 0.175014 0.015148 0.175014
v 0.169255 0.019091 0.169255
v 0.140465 0.010052 0.140465
v 0.116869 -0.014435 0.116869
v 0.100407 -0.023435 0.100407
v 0.156186 -0.003154 0.156186
v 0.132753 -0.037703 0.132753
v 0.064059 0.015148 0.239073
v 0.061952 0.019091 0.231206
v 0.051414 0.010052 0.191879
v 0.042777 -0.014435 0.159646
v 0.036751 -0.023435 0.137158
v 0.057168 -0.003154 0.213355
v 0.048591 -0.037703 0.181344
v -0.064059 0.015148 0.239073
v -0.061952 0.019091 0.231206
v -0.051414 0.010052 0.191879
v -0.042777 -0.014435 0.159646
v -0.036751 -0.023435 0.137158
v -0.057168 -0.003154 0.213355
v -0.048591 -0.037703 0.181344
v -0.175014 0.015148 0.175014
v -0.169255 0.019091 0.169255
v -0.140465 0.010052 0.140465
v -0.116869 -0.014435 0.116869
v -0.100407 -0.023435 0.100407
v -0.156186 -0.003154 0.156186
v -0.132753 -0.037703 0.132753
v -0.239073 0.015148 0.064059
v -0.231206 0.019091 0.061952
v -0.191879 0.010052 0.051414
v -0.159646 -0.014435 0.042777
v -0.137158 -0.023435 0.036751
v -0.213355 -0.003154 0.057168
v -0.181344 -0.037703 0.048591
v -0.239073 0.015148 -0.064059
v -0.231206 0.019091 -0.061952
v -0.191879 0.010052 -0.051414
v -0.159646 -0.014435 -0.042777
v -0.137158 -0.023435 -0.036751
v -0.213355 -0.003154 -0.057168
v -0.181344 -0.037703 -0.048591
v -0.175014 0.015148 -0.175014
v -0.169255 0.019091 -0.169255
v -0.140465 0.010052 -0.140465
v -0.116869 -0.014435 -0.116869
v -0.100407 -0.023435 -0.100407
v -0.156186 -0.003154 -0.156186
v -0.132753 -0.037703 -0.132753
v -0.064059 0.015148 -0.239073
v -0.061952 0.019091 -0.231206
v -0.051414 0.010052 -0.191879
v -0.042777 -0.014435 -0.159646
v -0.036751 -0.023435 -0.137158
v -0.057168 -0.003154 -0.213355
v -0.048591 -0.037703 -0.181344
vn 0.1128 0.9001 -0.4209
vn 0.2179 0.9001 -0.3774
vn 0.3081 0.9001 -0.3081
vn 0.3774 0.9001 -0.2179
vn 0.4209 0.9001 -0.1128
vn 0.4358 0.9001 -0.0000
vn 0.4209 0.9001 0.1128
vn 0.3774 0.9001 0.2179
vn 0.3081 0.9001 0.3081
vn 0.2179 0.9001 0.3774
vn 0.1128 0.9001 0.4209
vn -0.0000 0.9001 0.4358
vn -0.1128 0.9001 0.4209
vn -0.2179 0.9001 0.3774
vn -0.3081 0.9001 0.3081
vn -0.3774 0.9001 0.2179
vn -0.4209 0.9001 0.1128
vn -0.4358 0.9001 -0.0000
vn -0.4209 0.9001 -0.1128
vn -0.3774 0.9001 -0.2179
vn 0.5715 0.8062 -0.1531
vn 0.5123 0.8062 -0.2958
vn -0.3081 0.9001 -0.3081
vn -0.2179 0.9001 -0.3774
vn -0.1128 0.9001 -0.4209
vn -0.0000 0.9001 -0.4358
vn -0.1868 -0.6922 0.6971
vn -0.3608 -0.6922 0.6250
vn -0.0561 0.9762 0.2094
vn -0.1084 0.9762 0.1877
vn -0.1533 0.9762 0.1533
vn -0.1877 0.9762 0.1084
vn -0.2094 0.9762 0.0561
vn -0.2167 0.9762 -0.0000
vn -0.2094 0.9762 -0.0561
vn -0.1877 0.9762 -0.1084
vn -0.1533 0.9762 -0.1533
vn -0.1084 0.9762 -0.1877
vn -0.0561 0.9762 -0.2094
vn -0.0000 0.9762 -0.2167
vn 0.0561 0.9762 -0.2094
vn 0.1084 0.9762 -0.1877
vn 0.1533 0.9762 -0.1533
vn 0.1877 0.9762 -0.1084
vn 0.2094 0.9762 -0.0561
vn 0.2167 0.9762 -0.0000
vn 0.2094 0.9762 0.0561
vn 0.1877 0.9762 0.1084
vn 0.1533 0.9762 0.1533
vn 0.1084 0.9762 0.1877
vn 0.0561 0.9762 0.2094
vn -0.0000 0.9762 0.2167
vn -0.1531 0.8062 -0.5715
vn -0.2958 0.8062 -0.5123
vn -0.5715 0.8062 0.1531
vn -0.5123 0.8062 0.2958
vn 0.5715 0.8062 0.1531
vn 0.5916 0.8062 -0.0000
vn 0.1531 0.8062 -0.5715
vn -0.0000 0.8062 -0.5916
vn -0.5715 0.8062 -0.1531
vn -0.5916 0.8062 -0.0000
vn 0.4183 0.8062 0.4183
vn 0.5123 0.8062 0.2958
vn -0.1531 0.8062 0.5715
vn -0.0000 0.8062 0.5916
vn 0.4183 0.8062 -0.4183
vn 0.2958 0.8062 -0.5123
vn -0.4183 0.8062 -0.4183
vn -0.5123 0.8062 -0.2958
vn 0.1531 0.8062 0.5715
vn 0.2958 0.8062 0.5123
vn -0.4183 0.8062 0.4183
vn -0.2958 0.8062 0.5123
vn -0.0000 1.0000 -0.0000
vn -0.1242 0.9687 0.2151
vn -0.0647 0.9682 0.2416
vn -0.0000 0.9687 0.2484
vn -0.2151 0.9687 0.1242
vn -0.1769 0.9682 0.1769
vn -0.2484 0.9687 -0.0000
vn -0.2416 0.9682 0.0647
vn -0.2151 0.9687 -0.1242
vn -0.2416 0.9682 -0.0647
vn -0.1242 0.9687 -0.2151
vn -0.1769 0.9682 -0.1769
vn -0.0000 0.9687 -0.2484
vn -0.0647 0.9682 -0.2416
vn 0.1242 0.9687 -0.2151
vn 0.0647 0.9682 -0.2416
vn 0.2151 0.9687 -0.1242
vn 0.1769 0.9682 -0.1769
vn 0.2484 0.9687 -0.0000
vn 0.2416 0.9682 -0.0647
vn 0.2151 0.9687 0.1242
vn 0.2416 0.9682 0.0647
vn 0.1242 0.9687 0.2151
vn 0.1769 0.9682 0.1769
vn 0.0647 0.9682 0.2416
vn -0.1803 0.9327 0.3123
vn -0.0933 0.9327 0.3483
vn -0.3123 0.9327 0.1803
vn -0.2550 0.9327 0.2550
vn -0.3606 0.9327 -0.0000
vn -0.3483 0.9327 0.0933
vn -0.3123 0.9327 -0.1803
vn -0.3483 0.9327 -0.0933
vn -0.1803 0.9327 -0.3123
vn -0.2550 0.9327 -0.2550
vn -0.0000 0.9327 -0.3606
vn -0.0933 0.9327 -0.3483
vn 0.1803 0.9327 -0.3123
vn 0.0933 0.9327 -0.3483
vn 0.3123 0.9327 -0.1803
vn 0.2550 0.9327 -0.2550
vn 0.3606 0.9327 -0.0000
vn 0.3483 0.9327 -0.0933
vn 0.3123 0.9327 0.1803
vn 0.3483 0.9327 0.0933
vn 0.1803 0.9327 0.3123
vn 0.2550 0.9327 0.2550
vn -0.0000 0.9327 0.3606
vn 0.0933 0.9327 0.3483
vn 0.1466 -0.8241 -0.5472
vn -0.0000 -0.8241 -0.5665
vn 0.4005 -0.8241 -0.4005
vn 0.2832 -0.8241 -0.4906
vn 0.5472 -0.8241 -0.1466
vn 0.4906 -0.8241 -0.2832
vn 0.5472 -0.8241 0.1466
vn 0.5665 -0.8241 -0.0000
vn 0.4005 -0.8241 0.4005
vn 0.4906 -0.8241 0.2832
vn 0.1466 -0.8241 0.5472
vn 0.2832 -0.8241 0.4906
vn -0.1466 -0.8241 0.5472
vn -0.0000 -0.8241 0.5665
vn -0.4005 -0.8241 0.4005
vn -0.2832 -0.8241 0.4906
vn -0.5472 -0.8241 0.1466
vn -0.4906 -0.8241 0.2832
vn -0.5472 -0.8241 -0.1466
vn -0.5665 -0.8241 -0.0000
vn -0.4005 -0.8241 -0.4005
vn -0.4906 -0.8241 -0.2832
vn -0.1466 -0.8241 -0.5472
vn -0.2832 -0.8241 -0.4906
vn 0.6971 -0.6922 0.1868
vn 0.6250 -0.6922 0.3608
vn -0.5103 -0.6922 -0.5103
vn -0.3608 -0.6922 -0.6250
vn 0.1868 -0.6922 -0.6971
vn 0.3608 -0.6922 -0.6250
vn -0.5103 -0.6922 0.5103
vn -0.6250 -0.6922 0.3608
vn 0.5103 -0.6922 0.5103
vn 0.3608 -0.6922 0.6250
vn -0.1868 -0.6922 -0.6971
vn -0.0000 -0.6922 -0.7217
vn 0.5103 -0.6922 -0.5103
vn 0.6250 -0.6922 -0.3608
vn -0.6971 -0.6922 0.1868
vn -0.7217 -0.6922 -0.0000
vn 0.1868 -0.6922 0.6971
vn -0.0000 -0.6922 0.7217
vn 0.6971 -0.6922 -0.1868
vn 0.7217 -0.6922 -0.0000
vn -0.6971 -0.6922 -0.1868
vn -0.6250 -0.6922 -0.3608
vn -0.0000 -1.0000 -0.0000
vn -0.0000 -0.9996 -0.0284
vn 0.0076 -0.9996 -0.0284
vn 0.0142 -0.9996 -0.0246
vn 0.0208 -0.9996 -0.0208
vn 0.0246 -0.9996 -0.0142
vn 0.0284 -0.9996 -0.0076
vn 0.0284 -0.9996 -0.0000
vn 0.0284 -0.9996 0.0076
vn 0.0246 -0.9996 0.0142
vn 0.0208 -0.9996 0.0208
vn 0.0142 -0.9996 0.0246
vn 0.0076 -0.9996 0.0284
vn -0.0000 -0.9996 0.0284
vn -0.0076 -0.9996 0.0284
vn -0.0142 -0.9996 0.0246
vn -0.0208 -0.9996 0.0208
vn -0.0246 -0.9996 0.0142
vn -0.0284 -0.9996 0.0076
vn -0.0284 -0.9996 -0.0000
vn -0.0284 -0.9996 -0.0076
vn -0.0246 -0.9996 -0.0142
vn -0.0208 -0.9996 -0.0208
vn -0.0142 -0.9996 -0.0246
vn -0.0076 -0.9996 -0.0284
vt 0.582002 0.553442
vt 0.581657 0.553442
vt 0.581657 0.614801
vt 0.582002 0.614801
vt 0.582002 0.667493
vt 0.581657 0.667493
vt 0.581657 0.707923
vt 0.582002 0.707923
vt 0.582002 0.733339
vt 0.581657 0.733339
vt 0.581657 0.742012
vt 0.582002 0.742012
vt 0.581657 0.487596
vt 0.582002 0.487596
vt 0.582002 0.421753
vt 0.581657 0.421753
vt 0.581657 0.360391
vt 0.582002 0.360391
vt 0.582002 0.307699
vt 0.581657 0.307699
vt 0.581657 0.267269
vt 0.582002 0.267269
vt 0.582002 0.241855
vt 0.581657 0.241855
vt 0.581657 0.233182
vt 0.582002 0.233182
vt 0.604521 0.290365
vt 0.604521 0.310762
vt 0.606661 0.340467
vt 0.606661 0.323499
vt 0.605905 0.428833
vt 0.605905 0.374076
vt 0.608923 0.391111
vt 0.608923 0.437654
vt 0.601458 0.540443
vt 0.601458 0.589695
vt 0.600668 0.614801
vt 0.600668 0.553442
vt 0.601458 0.631979
vt 0.601458 0.664432
vt 0.600668 0.707923
vt 0.600668 0.667493
vt 0.601458 0.684829
vt 0.601458 0.691787
vt 0.600668 0.742012
vt 0.600668 0.733339
vt 0.601458 0.487596
vt 0.600668 0.487596
vt 0.601458 0.434751
vt 0.601458 0.385503
vt 0.600668 0.360391
vt 0.600668 0.421753
vt 0.601458 0.343216
vt 0.601458 0.310762
vt 0.600668 0.267269
vt 0.600668 0.307699
vt 0.601458 0.290365
vt 0.601458 0.283407
vt 0.600668 0.233182
vt 0.600668 0.241855
vt 0.604521 0.540443
vt 0.604521 0.589695
vt 0.606661 0.572544
vt 0.606661 0.531570
vt 0.604521 0.684829
vt 0.604521 0.664432
vt 0.606661 0.634727
vt 0.606661 0.651695
vt 0.604521 0.283407
vt 0.606661 0.317709
vt 0.604521 0.434751
vt 0.604521 0.487596
vt 0.606661 0.487596
vt 0.606661 0.443624
vt 0.604521 0.691787
vt 0.606661 0.657489
vt 0.604521 0.343216
vt 0.606661 0.367467
vt 0.604521 0.385503
vt 0.606661 0.402650
vt 0.604521 0.631979
vt 0.606661 0.607727
vt 0.610583 0.487596
vt 0.609132 0.560579
vt 0.609132 0.525375
vt 0.609132 0.487596
vt 0.609132 0.613998
vt 0.609132 0.590805
vt 0.609132 0.633554
vt 0.609132 0.628583
vt 0.609132 0.414621
vt 0.609132 0.449819
vt 0.609132 0.361196
vt 0.609132 0.384388
vt 0.609132 0.341638
vt 0.609132 0.346611
vt 0.609132 0.414621
vt 0.609132 0.449819
vt 0.608346 0.572544
vt 0.608346 0.531570
vt 0.608346 0.634727
vt 0.608346 0.607727
vt 0.608346 0.657489
vt 0.608346 0.651695
vt 0.608346 0.487596
vt 0.608346 0.402650
vt 0.608346 0.443624
vt 0.608346 0.340467
vt 0.608346 0.367467
vt 0.608346 0.317709
vt 0.608346 0.323499
vt 0.602611 0.546362
vt 0.602611 0.487596
vt 0.601012 0.487596
vt 0.601012 0.553442
vt 0.602611 0.648141
vt 0.602611 0.601121
vt 0.601012 0.614801
vt 0.601012 0.667493
vt 0.602611 0.706905
vt 0.602611 0.684225
vt 0.601012 0.707923
vt 0.601012 0.733339
vt 0.602611 0.714641
vt 0.601012 0.742012
vt 0.602611 0.428833
vt 0.601012 0.421753
vt 0.602611 0.327053
vt 0.602611 0.374076
vt 0.601012 0.360391
vt 0.601012 0.307699
vt 0.602611 0.268289
vt 0.602611 0.290969
vt 0.601012 0.267269
vt 0.601012 0.241855
vt 0.602611 0.260553
vt 0.601012 0.233182
vt 0.605905 0.706905
vt 0.605905 0.684225
vt 0.608923 0.654720
vt 0.608923 0.674001
vt 0.605905 0.327053
vt 0.608923 0.351141
vt 0.605905 0.546362
vt 0.605905 0.601121
vt 0.608923 0.584089
vt 0.608923 0.537544
vt 0.605905 0.290969
vt 0.608923 0.320474
vt 0.605905 0.648141
vt 0.608923 0.624054
vt 0.605905 0.487596
vt 0.608923 0.487596
vt 0.605905 0.268289
vt 0.605905 0.260553
vt 0.608923 0.294618
vt 0.608923 0.301193
vt 0.605905 0.714641
vt 0.608923 0.680574
vt 0.612469 0.487596
vt 0.611987 0.487596
vt 0.611987 0.537544
vt 0.611987 0.584089
vt 0.611987 0.624054
vt 0.611987 0.654720
vt 0.611987 0.674001
vt 0.611987 0.680574
vt 0.611987 0.437654
vt 0.611987 0.391111
vt 0.611987 0.351141
vt 0.611987 0.320474
vt 0.611987 0.301193
vt 0.611987 0.294618
s 1
usemtl Material
f 87/1/1 88/2/1 25/3/2 63/4/2
f 94/5/3 95/6/3 27/7/4 64/8/4
f 101/9/5 102/10/5 28/11/6 65/12/6
f 108/9/7 109/10/7 29/7/8 66/8/8
f 115/5/9 116/6/9 30/3/10 67/4/10
f 122/1/11 123/2/11 31/13/12 68/14/12
f 129/15/13 130/16/13 32/17/14 69/18/14
f 136/19/15 137/20/15 33/21/16 70/22/16
f 143/23/17 144/24/17 34/25/18 71/26/18
f 150/23/19 151/24/19 35/21/20 72/22/20
f 145/27/21 18/28/22 58/29/22 146/30/21
f 157/19/23 158/20/23 36/17/24 73/18/24
f 164/15/25 165/16/25 26/13/26 62/14/26
f 134/31/27 15/32/28 82/33/28 135/34/27
f 89/35/29 4/36/30 25/37/30 88/38/29
f 96/39/31 6/40/32 27/41/32 95/42/31
f 103/43/33 8/44/34 28/45/34 102/46/33
f 110/43/35 10/40/36 29/41/36 109/46/35
f 117/39/37 12/36/38 30/37/38 116/42/37
f 124/35/39 14/47/40 31/48/40 123/38/39
f 131/49/41 16/50/42 32/51/42 130/52/41
f 138/53/43 18/54/44 33/55/44 137/56/43
f 145/57/45 20/58/46 34/59/46 144/60/45
f 152/57/47 22/54/48 35/55/48 151/60/47
f 159/53/49 24/50/50 36/51/50 158/56/49
f 166/49/51 2/47/52 26/48/52 165/52/51
f 124/61/53 12/62/54 55/63/54 125/64/53
f 103/65/55 6/66/56 52/67/56 104/68/55
f 152/27/57 20/69/58 59/70/58 153/30/57
f 131/71/59 14/72/60 56/73/60 132/74/59
f 110/65/61 8/75/62 53/76/62 111/68/61
f 159/77/63 22/28/64 60/29/64 160/78/63
f 89/61/65 2/72/66 51/73/66 90/64/65
f 138/77/67 16/79/68 57/80/68 139/78/67
f 117/81/69 10/66/70 54/67/70 118/82/69
f 166/71/71 24/79/72 61/80/72 167/74/71
f 96/81/73 4/62/74 50/63/74 97/82/73
f 37/83/75 38/84/76 91/85/77 39/86/78
f 37/83/75 40/87/79 98/88/80 38/84/76
f 37/83/75 41/89/81 105/90/82 40/87/79
f 37/83/75 42/87/83 112/90/84 41/89/81
f 37/83/75 43/84/85 119/88/86 42/87/83
f 37/83/75 44/86/87 126/85/88 43/84/85
f 37/83/75 45/91/89 133/92/90 44/86/87
f 37/83/75 46/93/91 140/94/92 45/91/89
f 37/83/75 47/95/93 147/96/94 46/93/91
f 37/83/75 48/93/95 154/96/96 47/95/93
f 37/83/75 49/97/97 161/94/98 48/93/95
f 37/83/75 39/86/78 168/98/99 49/97/97
f 91/85/77 38/84/76 50/99/100 90/100/101
f 98/88/80 40/87/79 52/101/102 97/102/103
f 105/90/82 41/89/81 53/103/104 104/104/105
f 112/90/84 42/87/83 54/101/106 111/104/107
f 119/88/86 43/84/85 55/99/108 118/102/109
f 126/85/88 44/86/87 56/105/110 125/100/111
f 133/92/90 45/91/89 57/106/112 132/107/113
f 140/94/92 46/93/91 58/108/114 139/109/115
f 147/96/94 47/95/93 59/110/116 146/111/117
f 154/96/96 48/93/95 60/108/118 153/111/119
f 161/94/98 49/97/97 61/106/120 160/109/121
f 168/98/99 39/86/78 51/105/122 167/107/123
f 92/112/124 1/113/125 62/114/125 87/115/124
f 99/116/126 3/117/127 63/118/127 94/119/126
f 106/120/128 5/121/129 64/122/129 101/123/128
f 113/120/130 7/124/131 65/125/131 108/123/130
f 120/116/132 9/121/133 66/122/133 115/119/132
f 127/112/134 11/117/135 67/118/135 122/115/134
f 134/126/136 13/113/137 68/114/137 129/127/136
f 141/128/138 15/129/139 69/130/139 136/131/138
f 148/132/140 17/133/141 70/134/141 143/135/140
f 155/132/142 19/136/143 71/137/143 150/135/142
f 162/128/144 21/133/145 72/134/145 157/131/144
f 169/126/146 23/129/147 73/130/147 164/127/146
f 113/138/148 9/139/149 79/140/149 114/141/148
f 162/142/150 23/32/151 86/33/151 163/143/150
f 92/144/152 3/145/153 76/146/153 93/147/152
f 141/142/154 17/148/155 83/149/155 142/143/154
f 120/150/156 11/145/157 80/146/157 121/151/156
f 169/31/158 1/152/159 75/153/159 170/34/158
f 99/150/160 5/139/161 77/140/161 100/151/160
f 148/154/162 19/155/163 84/156/163 149/157/162
f 127/144/164 13/152/165 81/153/165 128/147/164
f 106/138/166 7/158/167 78/159/167 107/141/166
f 155/154/168 21/148/169 85/149/169 156/157/168
f 74/160/170 75/161/171 93/162/172 76/163/173
f 74/160/170 76/163/173 100/164/174 77/165/175
f 74/160/170 77/165/175 107/166/176 78/167/177
f 74/160/170 78/167/177 114/166/178 79/165/179
f 74/160/170 79/165/179 121/164/180 80/163/181
f 74/160/170 80/163/181 128/162/182 81/161/183
f 74/160/170 81/161/183 135/168/184 82/169/185
f 74/160/170 82/169/185 142/170/186 83/171/187
f 74/160/170 83/171/187 149/172/188 84/173/189
f 74/160/170 84/173/189 156/172/190 85/171/191
f 74/160/170 85/171/191 163/170/192 86/169/193
f 74/160/170 86/169/193 170/168/194 75/161/171
f 1/152/159 92/144/152 93/147/152 75/153/159
f 3/117/127 92/112/124 87/115/124 63/118/127
f 39/86/78 91/85/77 90/100/101 51/105/122
f 4/62/74 89/61/65 90/64/65 50/63/74
f 2/47/52 89/35/29 88/38/29 26/48/52
f 62/14/26 26/13/26 88/2/1 87/1/1
f 3/145/153 99/150/160 100/151/160 76/146/153
f 5/121/129 99/116/126 94/119/126 64/122/129
f 38/84/76 98/88/80 97/102/103 50/99/100
f 6/66/56 96/81/73 97/82/73 52/67/56
f 4/36/30 96/39/31 95/42/31 25/37/30
f 63/4/2 25/3/2 95/6/3 94/5/3
f 5/139/161 106/138/166 107/141/166 77/140/161
f 7/124/131 106/120/128 101/123/128 65/125/131
f 40/87/79 105/90/82 104/104/105 52/101/102
f 8/75/62 103/65/55 104/68/55 53/76/62
f 6/40/32 103/43/33 102/46/33 27/41/32
f 64/8/4 27/7/4 102/10/5 101/9/5
f 7/158/167 113/138/148 114/141/148 78/159/167
f 9/121/133 113/120/130 108/123/130 66/122/133
f 41/89/81 112/90/84 111/104/107 53/103/104
f 10/66/70 110/65/61 111/68/61 54/67/70
f 8/44/34 110/43/35 109/46/35 28/45/34
f 65/12/6 28/11/6 109/10/7 108/9/7
f 9/139/149 120/150/156 121/151/156 79/140/149
f 11/117/135 120/116/132 115/119/132 67/118/135
f 42/87/83 119/88/86 118/102/109 54/101/106
f 12/62/54 117/81/69 118/82/69 55/63/54
f 10/40/36 117/39/37 116/42/37 29/41/36
f 66/8/8 29/7/8 116/6/9 115/5/9
f 11/145/157 127/144/164 128/147/164 80/146/157
f 13/113/137 127/112/134 122/115/134 68/114/137
f 43/84/85 126/85/88 125/100/111 55/99/108
f 14/72/60 124/61/53 125/64/53 56/73/60
f 12/36/38 124/35/39 123/38/39 30/37/38
f 67/4/10 30/3/10 123/2/11 122/1/11
f 15/129/139 134/126/136 129/127/136 69/130/139
f 44/86/87 133/92/90 132/107/113 56/105/110
f 16/79/68 131/71/59 132/74/59 57/80/68
f 14/47/40 131/49/41 130/52/41 31/48/40
f 13/152/165 134/31/27 135/34/27 81/153/165
f 68/14/12 31/13/12 130/16/13 129/15/13
f 15/32/28 141/142/154 142/143/154 82/33/28
f 17/133/141 141/128/138 136/131/138 70/134/141
f 45/91/89 140/94/92 139/109/115 57/106/112
f 18/28/22 138/77/67 139/78/67 58/29/22
f 16/50/42 138/53/43 137/56/43 32/51/42
f 69/18/14 32/17/14 137/20/15 136/19/15
f 17/148/155 148/154/162 149/157/162 83/149/155
f 19/136/143 148/132/140 143/135/140 71/137/143
f 46/93/91 147/96/94 146/111/117 58/108/114
f 18/54/44 145/57/45 144/60/45 33/55/44
f 20/69/58 145/27/21 146/30/21 59/70/58
f 70/22/16 33/21/16 144/24/17 143/23/17
f 19/155/163 155/154/168 156/157/168 84/156/163
f 21/133/145 155/132/142 150/135/142 72/134/145
f 47/95/93 154/96/96 153/111/119 59/110/116
f 22/28/64 152/27/57 153/30/57 60/29/64
f 20/58/46 152/57/47 151/60/47 34/59/46
f 71/26/18 34/25/18 151/24/19 150/23/19
f 21/148/169 162/142/150 163/143/150 85/149/169
f 23/129/147 162/128/144 157/131/144 73/130/147
f 48/93/95 161/94/98 160/109/121 60/108/118
f 24/79/72 159/77/63 160/78/63 61/80/72
f 22/54/48 159/53/49 158/56/49 35/55/48
f 72/22/20 35/21/20 158/20/23 157/19/23
f 23/32/151 169/31/158 170/34/158 86/33/151
f 1/113/125 169/126/146 164/127/146 62/114/125
f 49/97/97 168/98/99 167/107/123 61/106/120
f 2/72/66 166/71/71 167/74/71 51/73/66
f 24/50/50 166/49/51 165/52/51 36/51/50
f 73/18/24 36/17/24 165/16/25 164/15/25
