# Blender 4.3.1
# www.blender.org
o Mueble_TV.001
v -0.016839 0.480708 0.688893
v -0.015248 0.478670 0.691954
v -0.016839 0.482299 0.690484
v -0.016839 1.025496 0.690484
v -0.015248 1.028079 0.691974
v -0.016839 1.027087 0.688893
v -0.016839 0.480708 -0.688893
v -0.016839 0.482299 -0.690484
v -0.015248 0.478670 -0.691954
v -0.016839 1.027087 -0.688893
v -0.015248 1.028079 -0.691974
v -0.016839 1.025496 -0.690484
v 0.042697 0.361474 0.908796
v 0.042697 0.363065 0.910387
v 0.044288 0.359863 0.911958
v 0.042697 1.359195 0.908796
v 0.044288 1.360807 0.911958
v 0.042697 1.357604 0.910387
v 0.042697 0.363065 -0.910387
v 0.042697 0.361474 -0.908796
v 0.044288 0.359863 -0.911958
v 0.042697 1.357604 -0.910387
v 0.044288 1.360807 -0.911958
v 0.042697 1.359195 -0.908796
v -0.015248 0.333123 -0.938530
v -0.013657 0.332676 -0.940000
v -0.013657 0.331085 -0.938409
v -0.013657 0.331085 0.938409
v -0.013657 0.332676 0.940000
v -0.015248 0.333123 0.938530
v -0.013657 1.387994 0.940000
v -0.013657 1.389585 0.938409
v -0.015248 1.388593 0.938510
v -0.013657 1.389585 -0.938409
v -0.013657 1.387994 -0.940000
v -0.015248 1.388593 -0.938510
v -0.054222 0.480708 -0.688893
v -0.055813 0.482299 -0.688893
v -0.054222 0.482299 -0.690484
v -0.054222 0.480708 0.688893
v -0.054222 0.482299 0.690484
v -0.055813 0.482299 0.688893
v -0.054222 1.025496 0.690484
v -0.054222 1.027087 0.688893
v -0.055813 1.025496 0.688893
v -0.054222 1.027087 -0.688893
v -0.054222 1.025496 -0.690484
v -0.055813 1.025496 -0.688893
v 0.042697 1.389585 -0.938409
v 0.044288 1.387973 -0.938430
v 0.042697 1.387994 -0.940000
v 0.042697 0.331085 -0.938409
v 0.042697 0.332676 -0.940000
v 0.044288 0.332696 -0.938430
v 0.044288 0.332696 0.938430
v 0.042697 0.332676 0.940000
v 0.042697 0.331085 0.938409
v 0.042697 1.389585 0.938409
v 0.042697 1.387994 0.940000
v 0.044288 1.387973 0.938430
v 0.035686 1.357604 -0.910387
v 0.035686 1.359195 -0.908796
v 0.035686 0.361474 -0.908796
v 0.035686 0.363065 -0.910387
v 0.035686 0.363065 0.910387
v 0.035686 0.361474 0.908796
v 0.035686 1.359195 0.908796
v 0.035686 1.357604 0.910387
v 0.038799 1.359195 -0.910387
v 0.038799 0.361474 -0.910387
v 0.038799 0.361474 0.910387
v 0.038799 1.359195 0.910387
v -0.230474 0.253867 0.449043
v -0.230474 0.254824 0.450000
v -0.231431 0.254824 0.449043
v -0.230474 0.272910 0.450000
v -0.230474 0.273867 0.449043
v -0.231431 0.272910 0.449043
v -0.230474 0.253867 -0.449043
v -0.231431 0.254824 -0.449043
v -0.230474 0.254824 -0.450000
v -0.230474 0.273867 -0.449043
v -0.230474 0.272910 -0.450000
v -0.231431 0.272910 -0.449043
v 0.167613 0.253867 0.449043
v 0.168569 0.254824 0.449043
v 0.167613 0.254824 0.450000
v 0.167613 0.273867 0.449043
v 0.167613 0.272910 0.450000
v 0.168569 0.272910 0.449043
v 0.167613 0.253867 -0.449043
v 0.167613 0.254824 -0.450000
v 0.168569 0.254824 -0.449043
v 0.167613 0.273867 -0.449043
v 0.168569 0.272910 -0.449043
v 0.167613 0.272910 -0.450000
v -0.018269 0.497044 0.125000
v -0.018269 0.497044 -0.125000
v -0.002596 0.497044 0.125000
v -0.002596 0.497044 -0.125000
v -0.046613 0.497044 0.124043
v -0.045656 0.497044 0.125000
v -0.045656 0.497044 -0.125000
v -0.046613 0.497044 -0.124043
v -0.045656 0.263632 0.125000
v -0.046613 0.263632 0.124043
v -0.018269 0.263632 0.124043
v -0.019226 0.263632 0.125000
v -0.046613 0.263632 -0.124043
v -0.045656 0.263632 -0.125000
v -0.019226 0.263632 -0.125000
v -0.018269 0.263632 -0.124043
v -0.045656 0.422728 -0.125000
v -0.046613 0.422728 -0.124043
v -0.019226 0.423685 -0.125000
v -0.017312 0.422728 -0.124043
v -0.018269 0.421772 -0.124043
v -0.045656 0.422728 0.125000
v -0.046613 0.422728 0.124043
v -0.018269 0.421772 0.124043
v -0.017312 0.422728 0.124043
v -0.019226 0.423685 0.125000
v -0.002596 0.423685 0.125000
v -0.002596 0.422728 0.124043
v -0.002596 0.422728 -0.124043
v -0.002596 0.423685 -0.125000
vn -0.0000 -0.0000 -1.0000
vn -0.0000 -0.0000 1.0000
vn -0.0000 -1.0000 -0.0000
vn -0.0000 1.0000 -0.0000
vn -1.0000 -0.0000 -0.0000
vn 1.0000 -0.0000 -0.0000
vn -0.8548 -0.5079 0.1061
vn -0.8663 -0.4826 0.1289
vn -0.9149 -0.2854 0.2855
vn -0.8753 0.3419 0.3419
vn -0.8548 -0.5079 -0.1061
vn -0.9149 -0.2855 -0.2855
vn -0.8663 -0.4826 -0.1289
vn -0.8753 0.3419 -0.3419
vn 0.9045 0.3015 -0.3015
vn 0.9046 -0.3015 -0.3015
vn 0.9045 0.3015 0.3015
vn 0.9046 -0.3014 0.3014
vn -0.6485 -0.5382 -0.5383
vn -0.6485 -0.5382 0.5383
vn -0.1323 0.7009 0.7009
vn -0.1581 0.6982 0.6982
vn -0.3682 0.6574 0.6574
vn -0.1581 0.6982 -0.6982
vn -0.1323 0.7009 -0.7009
vn -0.3683 0.6574 -0.6574
vn -0.5774 -0.5773 -0.5774
vn -0.5773 -0.5774 0.5774
vn -0.5773 0.5774 0.5774
vn -0.5773 0.5773 -0.5774
vn 0.5774 0.5773 -0.5773
vn 0.5771 -0.5775 -0.5775
vn 0.5771 -0.5775 0.5775
vn 0.5773 0.5774 0.5773
vn -0.7882 -0.6154 -0.0000
vn -0.6811 -0.0000 0.7322
vn -0.5292 0.8485 -0.0000
vn -0.6811 -0.0000 -0.7322
vn -0.0000 -0.7071 -0.7071
vn -0.0000 0.7071 -0.7071
vn 0.7024 -0.0000 -0.7118
vn 0.7115 -0.7027 -0.0000
vn 0.7118 0.7024 -0.0000
vn 0.7024 -0.0000 0.7118
vn -0.0000 -0.7071 0.7071
vn -0.0000 0.7071 0.7071
vn -0.5291 0.8485 -0.0000
vn -0.7071 -0.7071 -0.0000
vn -0.7071 -0.0000 0.7071
vn -0.7071 0.7071 -0.0000
vn -0.7071 -0.0000 -0.7071
vn 0.7023 -0.0000 0.7119
vn 0.7115 0.7027 -0.0000
vn 0.7117 -0.7025 -0.0000
vn 0.7023 -0.0000 -0.7119
vn -0.5773 -0.5774 -0.5774
vn -0.5773 0.5774 -0.5774
vn 0.5777 -0.5772 0.5772
vn 0.5777 0.5772 0.5772
vn 0.5777 -0.5772 -0.5772
vn 0.5777 0.5772 -0.5772
vn 0.7075 -0.0000 -0.7067
vn 0.7071 -0.7071 -0.0000
vn 0.7071 0.7071 -0.0000
vn 0.7075 -0.0000 0.7067
vn 0.3014 -0.3017 -0.9045
vn 0.3014 -0.3017 0.9045
vn 0.7071 -0.0000 -0.7071
vn 0.7071 -0.0000 0.7071
vn 0.7070 -0.7072 -0.0000
vt 0.690579 0.682418
vt 0.690579 0.606324
vt 0.681397 0.585364
vt 0.681397 0.733199
vt 0.691809 0.729165
vt 0.681573 0.729165
vt 0.691976 0.733422
vt 0.681406 0.733422
vt 0.691984 0.585364
vt 0.691984 0.733199
vt 0.682812 0.606324
vt 0.682812 0.682418
vt 0.690570 0.682418
vt 0.690570 0.606324
vt 0.682803 0.606324
vt 0.682803 0.682418
vt 0.690588 0.682780
vt 0.682794 0.682780
vt 0.681406 0.733283
vt 0.691976 0.733283
vt 0.682812 0.682641
vt 0.690570 0.682641
vt 0.681573 0.589398
vt 0.691809 0.589398
vt 0.682794 0.605816
vt 0.690588 0.605816
vt 0.691976 0.585427
vt 0.681406 0.585427
vt 0.691976 0.585141
vt 0.681406 0.585141
vt 0.681564 0.728942
vt 0.681564 0.589621
vt 0.691818 0.589621
vt 0.691818 0.728942
vt 0.691827 0.589172
vt 0.681555 0.589172
vt 0.681406 0.585367
vt 0.691976 0.585367
vt 0.681555 0.729391
vt 0.681406 0.733196
vt 0.691827 0.729391
vt 0.691976 0.733196
vt 0.682812 0.606101
vt 0.690570 0.606101
vt 0.775347 0.484467
vt 0.773226 0.485061
vt 0.773254 0.394366
vt 0.775375 0.393772
vt 0.696270 0.360612
vt 0.674955 0.360612
vt 0.696320 0.684126
vt 0.696320 0.360956
vt 0.696270 0.684126
vt 0.674955 0.684126
vt 0.674955 0.360956
vt 0.696270 0.360956
vt 0.674902 0.360956
vt 0.674902 0.684126
vt 0.674955 0.684471
vt 0.696270 0.684471
vt 0.712073 0.427896
vt 0.719945 0.428234
vt 0.711969 0.427891
vt 0.694890 0.427159
vt 0.694536 0.514161
vt 0.711717 0.514898
vt 0.711614 0.514893
vt 0.719592 0.515235
vt 0.694888 0.427491
vt 0.711865 0.428219
vt 0.711512 0.514561
vt 0.694537 0.513833
vt 0.711967 0.428223
vt 0.711616 0.514565
vt 0.719945 0.428565
vt 0.719592 0.514907
s 1
f 12/1/1 8/2/1 39/2/1 47/1/1
f 56/3/2 59/4/2 31/4/2 29/3/2
f 24/5/3 16/6/3 67/6/3 62/5/3
f 49/7/4 34/7/4 32/8/4 58/8/4
f 26/9/1 35/10/1 51/10/1 53/9/1
f 42/11/5 45/12/5 48/13/5 38/14/5
f 3/15/2 4/16/2 43/16/2 41/15/2
f 11/17/5 5/18/5 33/19/5 36/20/5
f 6/21/4 10/22/4 46/22/4 44/21/4
f 13/23/4 20/24/4 63/24/4 66/23/4
f 2/25/5 9/26/5 25/27/5 30/28/5
f 9/26/5 11/17/5 36/20/5 25/27/5
f 5/18/5 2/25/5 30/28/5 33/19/5
f 27/29/3 52/29/3 57/30/3 28/30/3
f 18/31/1 14/32/1 65/32/1 68/31/1
f 19/33/2 22/34/2 61/34/2 64/33/2
f 21/35/6 15/36/6 55/37/6 54/38/6
f 15/36/6 17/39/6 60/40/6 55/37/6
f 17/39/6 23/41/6 50/42/6 60/40/6
f 23/41/6 21/35/6 54/38/6 50/42/6
f 1/43/7 2/25/8 3/15/9
f 4/16/10 5/18/10 6/21/10
f 7/44/11 8/2/12 9/26/13
f 10/22/14 11/17/14 12/1/14
f 13/23/15 14/32/15 15/36/15
f 16/6/16 17/39/16 18/31/16
f 19/33/17 20/24/17 21/35/17
f 22/34/18 23/41/18 24/5/18
f 25/27/19 26/9/19 27/29/19
f 28/30/20 29/3/20 30/28/20
f 31/4/21 32/8/22 33/19/23
f 34/7/24 35/10/25 36/20/26
f 37/44/27 38/14/27 39/2/27
f 40/43/28 41/15/28 42/11/28
f 43/16/29 44/21/29 45/12/29
f 46/22/30 47/1/30 48/13/30
f 49/7/31 50/42/31 51/10/31
f 52/29/32 53/9/32 54/38/32
f 55/37/33 56/3/33 57/30/33
f 58/8/34 59/4/34 60/40/34
f 27/29/35 28/30/35 30/28/35 25/27/35
f 29/3/36 31/4/36 33/19/36 30/28/36
f 32/8/37 34/7/37 36/20/37 33/19/37
f 35/10/38 26/9/38 25/27/38 36/20/38
f 52/29/39 27/29/39 26/9/39 53/9/39
f 34/7/24 49/7/40 51/10/40 35/10/25
f 50/42/41 54/38/41 53/9/41 51/10/41
f 57/30/42 52/29/42 54/38/42 55/37/42
f 49/7/43 58/8/43 60/40/43 50/42/43
f 59/4/44 56/3/44 55/37/44 60/40/44
f 28/30/45 57/30/45 56/3/45 29/3/45
f 58/8/46 32/8/22 31/4/21 59/4/46
f 9/26/13 2/25/8 1/43/7 7/44/11
f 2/25/36 5/18/36 4/16/36 3/15/36
f 5/18/47 11/17/47 10/22/47 6/21/47
f 11/17/38 9/26/38 8/2/38 12/1/38
f 37/44/48 40/43/48 42/11/48 38/14/48
f 41/15/49 43/16/49 45/12/49 42/11/49
f 44/21/50 46/22/50 48/13/50 45/12/50
f 47/1/51 39/2/51 38/14/51 48/13/51
f 12/1/40 47/1/40 46/22/40 10/22/40
f 43/16/46 4/16/46 6/21/46 44/21/46
f 3/15/45 41/15/45 40/43/45 1/43/45
f 39/2/39 8/2/39 7/44/39 37/44/39
f 22/34/52 19/33/52 21/35/52 23/41/52
f 15/36/53 21/35/53 20/24/53 13/23/53
f 23/41/54 17/39/54 16/6/54 24/5/54
f 17/39/55 15/36/55 14/32/55 18/31/55
f 13/23/40 66/23/40 65/32/40 14/32/40
f 67/6/39 16/6/39 18/31/39 68/31/39
f 19/33/46 64/33/46 63/24/46 20/24/46
f 61/34/45 22/34/45 24/5/45 62/5/45
f 7/44/3 1/43/3 40/43/3 37/44/3
f 70/45/6 69/46/6 72/47/6 71/48/6
f 87/49/2 89/49/2 76/50/2 74/50/2
f 93/51/6 95/51/6 90/52/6 86/52/6
f 94/53/4 82/54/4 77/55/4 88/56/4
f 75/57/5 78/57/5 84/58/5 80/58/5
f 81/59/1 83/59/1 96/60/1 92/60/1
f 73/55/28 74/50/28 75/57/28
f 76/50/29 77/55/29 78/57/29
f 79/54/56 80/58/56 81/59/56
f 82/54/57 83/59/57 84/58/57
f 85/56/58 86/52/58 87/49/58
f 88/56/59 89/49/59 90/52/59
f 91/53/60 92/60/60 93/51/60
f 94/53/61 95/51/61 96/60/61
f 79/54/48 73/55/48 75/57/48 80/58/48
f 74/50/49 76/50/49 78/57/49 75/57/49
f 77/55/50 82/54/50 84/58/50 78/57/50
f 83/59/51 81/59/51 80/58/51 84/58/51
f 91/53/39 79/54/39 81/59/39 92/60/39
f 82/54/40 94/53/40 96/60/40 83/59/40
f 95/51/62 93/51/62 92/60/62 96/60/62
f 85/56/63 91/53/63 93/51/63 86/52/63
f 94/53/64 88/56/64 90/52/64 95/51/64
f 89/49/65 87/49/65 86/52/65 90/52/65
f 73/55/45 85/56/45 87/49/45 74/50/45
f 88/56/46 77/55/46 76/50/46 89/49/46
f 79/54/3 91/53/3 85/56/3 73/55/3
f 115/61/1 98/62/1 100/62/1 126/61/1
f 113/63/1 115/61/1 111/64/1 110/64/1
f 103/62/1 98/62/1 115/61/1 113/63/1
f 105/65/2 108/65/2 122/66/2 118/67/2
f 118/67/2 122/66/2 97/68/2 102/68/2
f 112/69/6 117/70/6 120/71/6 107/72/6
f 114/73/5 109/69/5 106/72/5 119/74/5
f 121/74/3 116/73/3 125/73/3 124/74/3
f 97/68/2 122/66/2 123/66/2 99/68/2
f 115/61/66 116/73/66 117/70/66
f 120/71/67 121/74/67 122/66/67
f 114/73/51 104/75/51 103/62/51 113/63/51
f 117/70/68 112/69/68 111/64/68 115/61/68
f 119/74/49 106/72/49 105/65/49 118/67/49
f 109/69/51 114/73/51 113/63/51 110/64/51
f 101/76/49 119/74/49 118/67/49 102/68/49
f 107/72/69 120/71/69 122/66/69 108/65/69
f 116/73/70 121/74/70 120/71/70 117/70/70
f 125/73/39 116/73/39 115/61/39 126/61/39
f 121/74/45 124/74/45 123/66/45 122/66/45
f 104/75/5 114/73/5 119/74/5 101/76/5
