# Blender 4.2.1 LTS
# www.blender.org
mtllib Wardrove.mtl
o Wardrove
v 0.288440 0.001357 0.901970
v 0.288440 0.001357 -0.901749
v 0.288440 2.670862 0.901970
v 0.288440 2.672450 -0.901749
v 0.288440 0.185664 0.901970
v 0.288440 0.185665 -0.901749
v -0.448002 0.185665 -0.901748
v -0.448002 0.185665 0.901970
v -0.448002 0.001357 -0.901748
v -0.448002 0.001357 0.901970
v -0.448002 2.672539 0.901971
v -0.448002 2.672539 -0.901748
v 0.214796 0.001357 0.901970
v 0.214796 0.001357 -0.901749
v 0.214796 0.185664 0.901970
v 0.214796 0.185665 -0.901749
v 0.288440 0.185665 0.375794
v 0.288440 2.671325 0.375793
v -0.448002 0.001357 0.375794
v 0.214796 0.001357 0.375794
v 0.214796 0.185665 0.377375
v 0.288440 0.185665 -0.375475
v 0.288440 2.671987 -0.375476
v -0.448002 0.001357 -0.375475
v 0.214796 0.001357 -0.375475
v 0.214796 0.185665 -0.373370
v -0.443169 0.001357 0.977366
v -0.443169 2.748392 0.977366
v -0.443169 0.001357 -0.976932
v -0.443169 2.748392 -0.976932
v -0.443169 0.185665 -0.976932
v -0.443169 0.185665 0.977366
v -0.443169 2.754433 0.901971
v -0.443169 2.754433 -0.901748
v -0.443169 2.672539 -0.976932
v -0.443169 2.672527 0.977366
v -0.443169 2.754433 0.375793
v -0.448002 0.185665 0.375794
v -0.448002 2.672539 0.375793
v -0.443169 2.754433 -0.375476
v -0.448002 2.672539 -0.375476
v -0.448002 0.185665 -0.375475
v -0.448002 0.001357 0.325821
v 0.288440 0.185665 0.325821
v 0.288440 2.671369 0.325821
v 0.214796 0.001357 0.325821
v 0.214796 0.185665 0.327463
v -0.448002 0.185665 0.325821
v -0.448002 2.672539 0.325821
v -0.443169 2.754433 0.325821
v 0.288440 0.185665 -0.325453
v 0.288440 2.671943 -0.325453
v 0.214796 0.001357 -0.325453
v 0.214796 0.185665 -0.323381
v -0.443169 2.754433 -0.325453
v -0.448002 0.001357 -0.325453
v -0.448002 0.185665 -0.325453
v -0.448002 2.672539 -0.325453
v 0.288440 0.231687 0.901970
v 0.288440 0.231717 -0.901749
v -0.448002 0.231718 -0.901748
v -0.448002 0.231718 0.901970
v 0.288440 0.231696 0.375794
v 0.288440 0.231708 -0.375475
v -0.443169 0.231718 -0.976932
v -0.443169 0.231718 0.977366
v -0.448002 0.231718 0.375794
v -0.448002 0.231718 -0.375475
v -0.448002 0.231718 0.325821
v 0.288440 0.231696 0.325821
v -0.448002 0.231718 -0.325453
v 0.288440 0.231707 -0.325453
v 0.305485 0.234308 0.901970
v 0.305485 2.673483 0.901970
v 0.305485 0.234338 -0.901749
v 0.305485 2.675071 -0.901749
v 0.305485 2.674608 -0.375476
v 0.305485 0.003978 0.901970
v 0.305485 0.188285 0.901970
v 0.305485 0.003978 -0.901749
v 0.305485 0.188286 -0.901749
v 0.305485 0.188286 -0.375475
v 0.305485 0.188285 0.375794
v 0.305485 2.673946 0.375793
v 0.305485 0.234316 0.375794
v 0.305485 0.188286 -0.325453
v 0.305485 2.674563 -0.325453
v 0.305485 0.234329 -0.375475
v 0.301637 2.751012 0.974685
v 0.301637 2.751012 -0.974252
v 0.301637 0.188285 -0.974252
v 0.301637 0.003978 -0.974252
v 0.301637 2.755823 0.901970
v 0.301637 0.188285 0.974685
v 0.301637 0.003978 0.974685
v 0.301637 2.755823 0.375794
v 0.301637 2.755823 -0.901749
v 0.301637 2.673427 0.974685
v 0.301637 2.675135 -0.974252
v 0.301637 0.234306 0.974685
v 0.301637 0.234338 -0.974252
v 0.301637 2.755823 -0.375476
v 0.301637 2.755823 0.325821
v 0.305485 0.188285 0.325821
v 0.305485 2.673990 0.325821
v 0.301637 2.755823 -0.325453
v 0.305485 0.234317 0.325821
v 0.305485 0.234328 -0.325453
v 0.276648 1.401601 0.226654
v 0.327962 1.401601 0.226654
v 0.276648 1.382246 0.235380
v 0.327962 1.382246 0.235380
v 0.276648 1.374229 0.256447
v 0.327962 1.374229 0.256447
v 0.276648 1.382246 0.277513
v 0.327962 1.382246 0.277513
v 0.276648 1.401601 0.286239
v 0.327962 1.401601 0.286239
v 0.276648 1.420956 0.277513
v 0.327962 1.420956 0.277513
v 0.276648 1.428973 0.256447
v 0.327962 1.428973 0.256447
v 0.276648 1.420956 0.235380
v 0.327962 1.420956 0.235380
v 0.327961 1.401601 0.256447
v 0.276648 1.401601 0.420482
v 0.327962 1.401601 0.420482
v 0.276648 1.382246 0.429208
v 0.327962 1.382246 0.429208
v 0.276648 1.374229 0.450274
v 0.327962 1.374229 0.450274
v 0.276648 1.382246 0.471341
v 0.327962 1.382246 0.471341
v 0.276648 1.401601 0.480067
v 0.327962 1.401601 0.480067
v 0.276648 1.420956 0.471341
v 0.327962 1.420956 0.471341
v 0.276648 1.428973 0.450274
v 0.327962 1.428973 0.450274
v 0.276648 1.420956 0.429208
v 0.327962 1.420956 0.429208
v 0.327961 1.401601 0.450274
v 0.276648 1.401601 -0.488303
v 0.327962 1.401601 -0.488303
v 0.276648 1.382246 -0.479576
v 0.327962 1.382246 -0.479576
v 0.276648 1.374229 -0.458510
v 0.327962 1.374229 -0.458510
v 0.276648 1.382246 -0.437443
v 0.327962 1.382246 -0.437443
v 0.276648 1.401601 -0.428717
v 0.327962 1.401601 -0.428717
v 0.276648 1.420956 -0.437443
v 0.327962 1.420956 -0.437443
v 0.276648 1.428973 -0.458510
v 0.327962 1.428973 -0.458510
v 0.276648 1.420956 -0.479576
v 0.327962 1.420956 -0.479576
v 0.327961 1.401601 -0.458510
v 0.288442 0.003931 0.974733
v 0.275816 2.750922 0.974778
v 0.275816 0.234217 0.974778
v 0.275816 2.673395 0.974778
v 0.275816 2.755774 0.901970
v 0.275816 0.188194 0.974778
v 0.275817 2.755774 0.375794
v 0.275818 2.755774 -0.375476
v 0.275818 2.755774 -0.325453
v 0.275819 2.750922 -0.974345
v 0.275819 2.755774 -0.901749
v 0.275817 2.755774 0.325821
v 0.275819 0.003887 -0.974345
v 0.275819 0.234248 -0.974345
v 0.275819 2.675045 -0.974345
v 0.275819 0.188195 -0.974345
v 0.213284 0.003667 -0.974570
v 0.213284 0.001357 -0.901748
v 0.214204 0.234031 -0.974566
v 0.214204 2.674830 -0.974566
v 0.214204 0.187978 -0.974566
v 0.214204 2.750705 -0.974566
v 0.214208 2.755660 0.325821
v 0.214206 2.755660 -0.325453
v 0.214208 2.755660 0.375794
v 0.214210 2.755660 0.901970
v 0.214210 2.750705 0.975000
v 0.214204 2.755660 -0.901749
v 0.214206 2.755660 -0.375476
v 0.214210 2.673321 0.975000
v 0.214211 0.187978 0.975000
v 0.214211 0.234003 0.975000
v 0.214211 0.003670 0.975000
vn 0.0036 -0.0000 -1.0000
vn -0.0000 -0.0000 -1.0000
vn -0.9980 -0.0000 0.0640
vn 0.0632 -0.9977 -0.0246
vn 0.0036 -0.0000 1.0000
vn -0.0019 1.0000 -0.0000
vn 0.1520 -0.9884 -0.0000
vn -0.1520 0.9884 -0.0000
vn 1.0000 -0.0000 -0.0000
vn 0.9989 0.0468 -0.0000
vn -0.9979 -0.0000 -0.0642
vn -1.0000 -0.0000 -0.0000
vn 0.0879 -0.9959 0.0199
vn -0.9983 0.0589 -0.0000
vn -0.0000 -1.0000 -0.0000
vn -0.0000 -0.0000 1.0000
vn -0.0026 0.9978 -0.0664
vn 0.1520 -0.9884 -0.0009
vn 0.9989 0.0473 -0.0000
vn -0.0026 0.9973 0.0739
vn 0.9986 -0.0000 -0.0530
vn 0.9986 -0.0000 0.0528
vn 0.9989 0.0470 -0.0000
vn -0.9990 0.0306 -0.0333
vn 0.9993 0.0246 -0.0273
vn 0.9989 0.0475 -0.0000
vn -0.9990 0.0306 0.0332
vn 0.9989 0.0471 -0.0000
vn 0.9993 0.0240 0.0272
vn -0.9241 -0.0000 -0.3822
vn -0.0000 -0.7948 -0.6069
vn -0.8485 -0.4205 -0.3211
vn -0.6723 -0.7402 -0.0000
vn -0.0000 -0.7948 0.6069
vn -0.8485 -0.4205 0.3211
vn -0.9241 -0.0000 0.3822
vn -0.0000 0.7948 0.6069
vn -0.8485 0.4205 0.3211
vn -0.0000 1.0000 -0.0000
vn -0.6723 0.7402 -0.0000
vn -0.0000 0.7948 -0.6069
vn -0.8485 0.4205 -0.3211
vn 0.0018 -0.9994 0.0335
vn -0.0026 0.9978 0.0663
vn -0.0026 0.9977 -0.0673
vn 0.0017 -0.9994 -0.0334
vn 0.0018 -0.9999 -0.0155
vn -0.0026 0.9972 -0.0741
vn -0.0026 0.9977 0.0671
vn 0.0018 -0.9999 0.0155
vt 0.758547 0.414565
vt 0.758571 0.414788
vt 0.757780 0.414788
vt 0.757756 0.414565
vt 0.731812 0.414566
vt 0.731836 0.414788
vt 0.729914 0.414788
vt 0.729890 0.414566
vt 0.710715 0.541547
vt 0.685256 0.541547
vt 0.685229 0.541547
vt 0.710687 0.541547
vt 0.731812 0.598022
vt 0.732293 0.598022
vt 0.732293 0.590946
vt 0.731812 0.590947
vt 0.729917 0.414818
vt 0.729917 0.421623
vt 0.729890 0.421623
vt 0.729916 0.414809
vt 0.731836 0.597800
vt 0.732316 0.597800
vt 0.758610 0.590946
vt 0.758623 0.590946
vt 0.758623 0.541549
vt 0.758610 0.541550
vt 0.720080 0.421629
vt 0.722002 0.421629
vt 0.711195 0.475713
vt 0.711195 0.536851
vt 0.711167 0.536851
vt 0.711167 0.475713
vt 0.710714 0.590952
vt 0.710687 0.590952
vt 0.758625 0.475723
vt 0.758624 0.475723
vt 0.758624 0.536862
vt 0.758625 0.536862
vt 0.732293 0.414565
vt 0.732317 0.414788
vt 0.732292 0.590946
vt 0.732292 0.541550
vt 0.757743 0.541550
vt 0.757738 0.590946
vt 0.758624 0.541549
vt 0.758625 0.541549
vt 0.757756 0.598022
vt 0.757756 0.590946
vt 0.758624 0.590946
vt 0.757766 0.590946
vt 0.757771 0.541550
vt 0.729890 0.598022
vt 0.729890 0.590947
vt 0.711195 0.541547
vt 0.711167 0.541547
vt 0.732293 0.421624
vt 0.757756 0.421623
vt 0.731812 0.541550
vt 0.729890 0.541550
vt 0.729917 0.590946
vt 0.729917 0.597770
vt 0.729917 0.597775
vt 0.710715 0.475713
vt 0.685263 0.475713
vt 0.685236 0.475713
vt 0.710687 0.475713
vt 0.757756 0.536862
vt 0.758610 0.536861
vt 0.758610 0.475724
vt 0.757756 0.475723
vt 0.757765 0.597770
vt 0.758574 0.597770
vt 0.758573 0.597779
vt 0.757765 0.597779
vt 0.732293 0.541550
vt 0.729914 0.597800
vt 0.729890 0.471028
vt 0.722002 0.590952
vt 0.720080 0.590952
vt 0.720080 0.541349
vt 0.722002 0.541547
vt 0.711195 0.590952
vt 0.711195 0.541349
vt 0.711167 0.590952
vt 0.722002 0.471025
vt 0.720080 0.470876
vt 0.711195 0.470876
vt 0.711195 0.471025
vt 0.711195 0.421629
vt 0.758625 0.471028
vt 0.758624 0.421623
vt 0.758624 0.421623
vt 0.758624 0.471028
vt 0.729890 0.536862
vt 0.711195 0.475561
vt 0.722002 0.475713
vt 0.720080 0.475561
vt 0.731812 0.421624
vt 0.721975 0.590952
vt 0.720052 0.590952
vt 0.758574 0.414817
vt 0.758573 0.414809
vt 0.720052 0.421629
vt 0.721975 0.421629
vt 0.685252 0.590952
vt 0.685225 0.590952
vt 0.732320 0.597770
vt 0.732319 0.597779
vt 0.685257 0.536851
vt 0.710715 0.536851
vt 0.710687 0.536851
vt 0.685230 0.536851
vt 0.757777 0.475723
vt 0.757777 0.471027
vt 0.757756 0.541550
vt 0.758547 0.598022
vt 0.758571 0.597800
vt 0.710715 0.471025
vt 0.710715 0.421629
vt 0.710687 0.421629
vt 0.710687 0.471025
vt 0.732293 0.475723
vt 0.757756 0.471027
vt 0.732293 0.471028
vt 0.729890 0.475724
vt 0.731812 0.475724
vt 0.731812 0.471028
vt 0.758610 0.471027
vt 0.758610 0.421623
vt 0.731812 0.536862
vt 0.732293 0.536862
vt 0.711167 0.471025
vt 0.722002 0.536851
vt 0.720080 0.536657
vt 0.711195 0.536657
vt 0.685269 0.421629
vt 0.685241 0.421629
vt 0.685264 0.471025
vt 0.685236 0.471025
vt 0.757744 0.536861
vt 0.732292 0.536862
vt 0.732292 0.475723
vt 0.757750 0.475723
vt 0.711167 0.421629
vt 0.757750 0.471028
vt 0.732292 0.471028
vt 0.757755 0.421623
vt 0.731840 0.421623
vt 0.731840 0.414818
vt 0.732320 0.414818
vt 0.732321 0.421623
vt 0.732320 0.590947
vt 0.757771 0.536862
vt 0.757783 0.414817
vt 0.757782 0.421623
vt 0.732321 0.475723
vt 0.731840 0.475723
vt 0.731840 0.471028
vt 0.732320 0.471028
vt 0.726723 0.471028
vt 0.726243 0.471028
vt 0.726243 0.421624
vt 0.726723 0.421624
vt 0.731840 0.597770
vt 0.731840 0.590946
vt 0.732320 0.541550
vt 0.731840 0.541550
vt 0.731840 0.536862
vt 0.732320 0.536862
vt 0.726723 0.536862
vt 0.726243 0.536862
vt 0.726243 0.475724
vt 0.726723 0.475724
vt 0.726243 0.590946
vt 0.726243 0.541550
vt 0.726723 0.541550
vt 0.726723 0.590947
vt 0.740869 1.128687
vt 0.745427 0.925999
vt 0.747493 0.436230
vt 0.745851 -0.053415
vt 0.741466 -0.256170
vt 0.736907 -0.053539
vt 0.734843 0.436055
vt 0.741168 0.436142
vt 0.736484 0.925874
vt 0.731839 0.597779
vt 0.757764 0.597800
vt 0.758624 0.590946
vt 0.758623 0.421623
vt 0.758623 0.471028
vt 0.758623 0.475723
vt 0.758623 0.536862
vt 0.731839 0.414809
vt 0.732320 0.414809
vt 0.757782 0.414808
s 0
usemtl Texture
f 30/1/1 181/2/1 179/3/1 35/4/1
f 31/5/1 180/6/1 176/7/1 29/8/1
f 64/9/2 23/10/2 77/11/2 88/12/2
f 32/13/3 66/14/3 62/15/3 8/16/3
f 92/17/4 80/18/4 2/19/4 172/20/4
f 32/13/5 190/21/5 191/22/5 66/14/5
f 33/23/6 185/24/6 184/25/6 37/26/6
f 5/27/2 1/28/2 13/28/2 15/27/2
f 44/29/7 51/30/7 86/31/7 104/32/7
f 60/33/8 64/9/8 88/12/8 75/34/8
f 106/35/6 168/36/6 171/37/6 103/38/6
f 31/5/1 65/39/1 178/40/1 180/6/1
f 59/41/9 63/42/9 18/43/9 3/44/9
f 103/38/6 171/37/6 166/45/6 96/46/6
f 36/47/3 11/48/3 62/15/3 66/14/3
f 96/46/10 93/49/10 74/50/10 84/51/10
f 27/52/3 32/13/3 8/16/3 10/53/3
f 51/30/7 22/54/7 82/55/7 86/31/7
f 35/4/11 65/39/11 61/56/11 12/57/11
f 10/53/12 8/16/12 38/58/12 19/59/12
f 1/53/13 78/60/13 95/61/13 160/62/13
f 70/63/2 45/64/2 105/65/2 107/66/2
f 49/67/14 50/68/14 55/69/14 58/70/14
f 98/71/5 89/72/5 161/73/5 163/74/5
f 62/15/12 67/75/12 38/58/12 8/16/12
f 32/13/5 27/52/5 192/76/5 190/21/5
f 14/19/15 25/77/15 24/77/15 9/19/15
f 14/78/9 16/79/9 26/80/9 25/81/9
f 2/78/16 6/79/16 16/79/16 14/78/16
f 6/82/15 22/54/15 26/83/15 16/82/15
f 22/54/7 6/82/7 81/84/7 82/55/7
f 19/59/15 20/59/15 13/53/15 10/53/15
f 20/85/9 21/86/9 15/27/9 13/28/9
f 21/87/15 17/88/15 5/89/15 15/89/15
f 102/90/6 97/91/6 170/92/6 167/93/6
f 43/94/15 46/94/15 20/59/15 19/59/15
f 47/95/15 44/29/15 17/88/15 21/87/15
f 46/96/9 47/97/9 21/86/9 20/85/9
f 31/5/11 29/8/11 9/19/11 7/98/11
f 102/90/6 167/93/6 168/36/6 106/35/6
f 6/79/16 2/78/16 80/99/16 81/100/16
f 97/91/17 90/101/17 169/102/17 170/92/17
f 1/28/2 5/27/2 79/103/2 78/104/2
f 23/10/18 4/105/18 76/106/18 77/11/18
f 31/5/11 7/98/11 61/56/11 65/39/11
f 100/107/5 98/71/5 163/74/5 162/108/5
f 4/105/16 60/33/16 75/34/16 76/106/16
f 52/109/16 72/110/16 108/111/16 87/112/16
f 102/90/19 106/35/19 87/113/19 77/114/19
f 37/26/14 50/68/14 49/67/14 39/115/14
f 28/116/20 186/117/20 185/24/20 33/23/20
f 63/118/8 59/119/8 73/120/8 85/121/8
f 71/122/12 58/70/12 41/123/12 68/124/12
f 56/125/12 57/126/12 42/127/12 24/77/12
f 24/77/12 42/127/12 7/98/12 9/19/12
f 68/124/12 41/123/12 12/57/12 61/56/12
f 40/128/14 34/129/14 12/57/14 41/123/14
f 40/128/14 41/123/14 58/70/14 55/69/14
f 19/59/12 38/58/12 48/130/12 43/94/12
f 67/75/12 39/115/12 49/67/12 69/131/12
f 17/88/7 44/29/7 104/32/7 83/132/7
f 53/133/9 54/134/9 47/97/9 46/96/9
f 54/135/15 51/30/15 44/29/15 47/95/15
f 56/125/15 53/125/15 46/94/15 43/94/15
f 59/119/2 3/136/2 74/137/2 73/120/2
f 24/77/15 25/77/15 53/125/15 56/125/15
f 26/83/15 22/54/15 51/30/15 54/135/15
f 25/81/9 26/80/9 54/134/9 53/133/9
f 18/138/16 63/118/16 85/121/16 84/139/16
f 43/94/12 48/130/12 57/126/12 56/125/12
f 69/131/12 49/67/12 58/70/12 71/122/12
f 45/140/9 70/141/9 72/142/9 52/143/9
f 48/130/12 69/131/12 71/122/12 57/126/12
f 3/136/18 18/138/18 84/139/18 74/137/18
f 38/58/12 67/75/12 69/131/12 48/130/12
f 42/127/12 68/124/12 61/56/12 7/98/12
f 57/126/12 71/122/12 68/124/12 42/127/12
f 5/89/7 17/88/7 83/132/7 79/144/7
f 35/4/1 179/3/1 178/40/1 65/39/1
f 23/145/9 64/146/9 60/56/9 4/147/9
f 11/48/12 39/115/12 67/75/12 62/15/12
f 72/110/8 70/63/8 107/66/8 108/111/8
f 81/148/21 91/149/21 101/150/21 75/151/21
f 98/71/22 100/107/22 73/152/22 74/50/22
f 96/46/23 84/51/23 105/153/23 103/38/23
f 30/1/24 35/4/24 12/57/24 34/129/24
f 99/154/25 90/101/25 97/91/25 76/155/25
f 97/91/26 102/90/26 77/114/26 76/155/26
f 108/156/9 86/157/9 82/158/9 88/159/9
f 88/160/9 82/161/9 81/162/9 75/163/9
f 94/164/22 79/165/22 73/152/22 100/107/22
f 94/164/22 95/61/22 78/60/22 79/165/22
f 92/17/21 91/149/21 81/148/21 80/18/21
f 36/47/27 28/116/27 33/23/27 11/48/27
f 101/150/21 99/154/21 76/155/21 75/151/21
f 103/38/28 105/153/28 87/113/28 106/35/28
f 85/166/9 83/167/9 104/168/9 107/169/9
f 107/170/9 104/171/9 86/172/9 108/173/9
f 84/51/9 85/166/9 107/169/9 105/153/9
f 87/113/9 108/156/9 88/159/9 77/114/9
f 79/174/9 83/175/9 85/176/9 73/177/9
f 45/64/18 52/109/18 87/112/18 105/65/18
f 37/26/14 39/115/14 11/48/14 33/23/14
f 89/72/29 98/71/29 74/50/29 93/49/29
s 1
f 109/178/30 110/178/2 112/179/31 111/179/32
f 111/179/32 112/179/31 114/180/15 113/180/33
f 113/180/33 114/180/15 116/181/34 115/181/35
f 115/181/35 116/181/34 118/182/16 117/182/36
f 117/182/36 118/182/16 120/183/37 119/183/38
f 119/183/38 120/183/37 122/184/39 121/184/40
f 118/182/9 116/181/9 125/185/9
f 121/184/40 122/184/39 124/186/41 123/186/42
f 123/186/42 124/186/41 110/178/2 109/178/30
f 109/178/30 111/179/32 113/180/33 115/181/35 117/182/36 119/183/38 121/184/40 123/186/42
f 124/186/9 122/184/9 125/185/9
f 114/180/9 112/179/9 125/185/9
f 120/183/9 118/182/9 125/185/9
f 110/178/9 124/186/9 125/185/9
f 112/179/9 110/178/9 125/185/9
f 116/181/9 114/180/9 125/185/9
f 122/184/9 120/183/9 125/185/9
f 126/178/30 127/178/2 129/179/31 128/179/32
f 128/179/32 129/179/31 131/180/15 130/180/33
f 130/180/33 131/180/15 133/181/34 132/181/35
f 132/181/35 133/181/34 135/182/16 134/182/36
f 134/182/36 135/182/16 137/183/37 136/183/38
f 136/183/38 137/183/37 139/184/39 138/184/40
f 135/182/9 133/181/9 142/185/9
f 138/184/40 139/184/39 141/186/41 140/186/42
f 140/186/42 141/186/41 127/178/2 126/178/30
f 126/178/30 128/179/32 130/180/33 132/181/35 134/182/36 136/183/38 138/184/40 140/186/42
f 141/186/9 139/184/9 142/185/9
f 131/180/9 129/179/9 142/185/9
f 137/183/9 135/182/9 142/185/9
f 127/178/9 141/186/9 142/185/9
f 129/179/9 127/178/9 142/185/9
f 133/181/9 131/180/9 142/185/9
f 139/184/9 137/183/9 142/185/9
f 143/178/30 144/178/2 146/179/31 145/179/32
f 145/179/32 146/179/31 148/180/15 147/180/33
f 147/180/33 148/180/15 150/181/34 149/181/35
f 149/181/35 150/181/34 152/182/16 151/182/36
f 151/182/36 152/182/16 154/183/37 153/183/38
f 153/183/38 154/183/37 156/184/39 155/184/40
f 152/182/9 150/181/9 159/185/9
f 155/184/40 156/184/39 158/186/41 157/186/42
f 157/186/42 158/186/41 144/178/2 143/178/30
f 143/178/30 145/179/32 147/180/33 149/181/35 151/182/36 153/183/38 155/184/40 157/186/42
f 158/186/9 156/184/9 159/185/9
f 148/180/9 146/179/9 159/185/9
f 154/183/9 152/182/9 159/185/9
f 144/178/9 158/186/9 159/185/9
f 146/179/9 144/178/9 159/185/9
f 150/181/9 148/180/9 159/185/9
f 156/184/9 154/183/9 159/185/9
s 0
f 160/62/43 192/76/43 13/53/43 1/53/43
f 165/187/5 160/62/5 95/61/5 94/164/5
f 162/108/5 163/74/5 189/188/5 191/22/5
f 164/189/44 161/73/44 89/72/44 93/49/44
f 163/74/5 161/73/5 186/117/5 189/188/5
f 162/108/5 165/187/5 94/164/5 100/107/5
f 166/45/6 164/189/6 93/49/6 96/46/6
f 167/93/6 170/92/6 187/190/6 188/191/6
f 168/36/6 167/93/6 188/191/6 183/192/6
f 166/45/6 171/37/6 182/193/6 184/25/6
f 170/92/45 169/102/45 181/2/45 187/190/45
f 171/37/6 168/36/6 183/192/6 182/193/6
f 175/194/1 173/195/1 101/150/1 91/149/1
f 174/196/1 169/102/1 90/101/1 99/154/1
f 173/195/1 174/196/1 99/154/1 101/150/1
f 172/20/1 175/194/1 91/149/1 92/17/1
f 172/20/46 2/19/46 177/19/46 176/7/46
f 176/7/47 177/19/47 9/19/47 29/8/47
f 180/6/1 178/40/1 173/195/1 175/194/1
f 179/3/1 181/2/1 169/102/1 174/196/1
f 178/40/1 179/3/1 174/196/1 173/195/1
f 176/7/1 180/6/1 175/194/1 172/20/1
f 187/190/48 181/2/48 30/1/48 34/129/48
f 184/25/6 185/24/6 164/189/6 166/45/6
f 188/191/6 187/190/6 34/129/6 40/128/6
f 182/193/6 183/192/6 55/69/6 50/68/6
f 183/192/6 188/191/6 40/128/6 55/69/6
f 185/24/49 186/117/49 161/73/49 164/189/49
f 184/25/6 182/193/6 50/68/6 37/26/6
f 190/21/5 192/76/5 160/62/5 165/187/5
f 189/188/5 186/117/5 28/116/5 36/47/5
f 191/22/5 190/21/5 165/187/5 162/108/5
f 191/22/5 189/188/5 36/47/5 66/14/5
f 13/53/50 192/76/50 27/52/50 10/53/50
