# Blender 4.2.3 LTS
# www.blender.org
mtllib OfficeCeiling3.mtl
o Ceiling
v 1.282286 4.000000 -1.282287
v 1.717714 4.000000 -1.282287
v 1.717714 4.000000 -1.717714
v 1.282286 4.000000 -1.717714
v 1.282286 4.000000 -0.282287
v 1.717714 4.000000 -0.282287
v 1.717714 4.000000 -0.717714
v 1.282286 4.000000 -0.717714
v 0.282286 4.000000 -0.282287
v 0.717714 4.000000 -0.282287
v 0.717714 4.000000 -0.717714
v 0.282286 4.000000 -0.717714
v 0.282286 4.000000 -1.282287
v 0.717714 4.000000 -1.282287
v 0.717714 4.000000 -1.717714
v 0.282286 4.000000 -1.717714
v 0.038958 3.991000 -0.961042
v 0.038958 3.991000 -0.038958
v 1.038958 3.991000 -0.038958
v 1.961042 3.991000 -0.038958
v 1.961042 3.991000 -1.038958
v 1.961042 3.991000 -1.961042
v 0.961042 3.991000 -1.961042
v 0.038958 3.991000 -1.961042
v 0.038958 3.991000 -1.038958
v 1.961042 3.991000 -0.961042
v 0.038958 3.991000 -1.000000
v 0.000000 3.991000 -1.000000
v 0.961042 3.991000 -0.038958
v 1.038958 3.991000 -1.961042
v 1.038958 3.991000 -1.000000
v 1.000000 3.991000 -1.000000
v 1.000000 3.991000 -0.961042
v 1.000000 3.991000 -1.961041
v 1.000000 3.991000 -2.000000
v 1.038958 3.991000 -1.038958
v 2.000000 3.991000 -1.961042
v 2.000000 3.991000 -2.000000
v 1.038958 3.991000 -2.000000
v 1.038958 3.991000 -0.961042
v 1.961042 3.991000 -0.000000
v 2.000000 3.991000 -0.000000
v 2.000000 3.991000 -0.961042
v 2.000000 3.991000 -1.000000
v 0.961042 3.991000 -0.961042
v 0.961042 3.991000 -0.000000
v 1.000000 3.991000 -0.000000
v 0.000000 3.991000 -0.038958
v 0.000000 3.991000 -0.000000
v 0.961042 3.991000 -1.038958
v 0.038958 3.991000 -2.000000
v 0.000000 3.991000 -2.000000
v 0.000000 3.991000 -1.038958
v 1.961042 3.991000 -1.000000
v 0.961042 3.991000 -1.000000
v 1.000000 3.991000 -1.038958
v 1.000000 3.991000 -0.038958
v 2.000000 3.991000 -0.038958
v 0.961042 3.991000 -2.000000
v 1.038958 3.991000 -0.000000
v 0.000000 3.991000 -0.961042
v 2.000000 3.991000 -1.038958
v 0.038958 3.991000 -0.000000
v 0.000000 3.991000 -1.961042
v 1.961042 3.991000 -2.000000
v 0.500000 4.000000 -1.500000
v 1.500000 4.000000 -1.500001
v 1.500000 4.000000 -0.500000
v 0.500000 4.000000 -0.500000
v 1.038958 4.000000 -1.038958
v 1.961042 4.000000 -1.038958
v 1.038958 4.000000 -1.961042
v 1.961042 4.000000 -1.961042
v 1.038958 4.000000 -0.038958
v 1.961042 4.000000 -0.038958
v 1.038958 4.000000 -0.961042
v 1.961042 4.000000 -0.961042
v 0.038958 4.000000 -0.038958
v 0.961042 4.000000 -0.038958
v 0.038958 4.000000 -0.961042
v 0.961042 4.000000 -0.961042
v 0.038958 4.000000 -1.038958
v 0.961042 4.000000 -1.038958
v 0.038958 4.000000 -1.961042
v 0.961042 4.000000 -1.961042
vn -0.0000 -1.0000 -0.0000
vn -1.0000 -0.0000 -0.0000
vn 1.0000 -0.0000 -0.0000
vn -0.0000 -0.0000 1.0000
vn -0.0000 -0.0000 -1.0000
vt 0.076782 0.803051
vt 0.076782 0.625566
vt 0.080311 0.714309
vt 0.076782 0.395440
vt 0.076782 0.217954
vt 0.080311 0.306696
vt 0.023597 0.431006
vt 0.043443 0.431006
vt 0.043443 0.444896
vt 0.023597 0.444896
vt 0.023030 0.429832
vt 0.042876 0.429832
vt 0.042876 0.415942
vt 0.023030 0.415942
vt 0.023325 0.431006
vt 0.043171 0.431006
vt 0.043148 0.415942
vt 0.023302 0.415942
vt 0.023325 0.444896
vt 0.043171 0.444896
vt 0.023597 0.415942
vt 0.043443 0.415942
vt 0.043443 0.429832
vt 0.023597 0.429832
vt 0.023030 0.444896
vt 0.042876 0.444896
vt 0.042876 0.431006
vt 0.023030 0.431006
vt 0.023325 0.429832
vt 0.043171 0.429832
vt 0.043171 0.415942
vt 0.023325 0.415942
vt 0.043148 0.429832
vt 0.023302 0.429832
vt 0.064773 0.430419
vt 0.064764 0.430419
vt 0.064764 0.429832
vt 0.064773 0.429832
vt 0.064548 0.445483
vt 0.064548 0.444896
vt 0.064557 0.444896
vt 0.064557 0.445483
vt 0.064764 0.445483
vt 0.064764 0.444896
vt 0.064773 0.444896
vt 0.064773 0.445483
vt 0.064557 0.431006
vt 0.064548 0.431006
vt 0.064548 0.430419
vt 0.064557 0.430419
vt 0.064539 0.444896
vt 0.064539 0.445483
vt 0.064323 0.444896
vt 0.064332 0.444896
vt 0.064332 0.445483
vt 0.064323 0.445483
vt 0.064539 0.431006
vt 0.064539 0.430419
vt 0.064323 0.430419
vt 0.064332 0.430419
vt 0.064332 0.431006
vt 0.064323 0.431006
vt 0.064539 0.429832
vt 0.064548 0.429832
vt 0.064548 0.415355
vt 0.064548 0.415942
vt 0.064539 0.415942
vt 0.064539 0.415355
vt 0.064773 0.415942
vt 0.064764 0.415942
vt 0.064764 0.415355
vt 0.064773 0.415355
vt 0.064557 0.429832
vt 0.064764 0.431006
vt 0.064557 0.415942
vt 0.064557 0.415355
vt 0.064332 0.429832
vt 0.064323 0.429832
vt 0.064773 0.431006
vt 0.064332 0.415942
vt 0.064332 0.415355
vt 0.064323 0.415942
vt 0.064323 0.415355
vt 0.023302 0.431006
vt 0.043148 0.431006
vt 0.043148 0.444896
vt 0.023302 0.444896
vt 0.076782 0.395440
vt 0.076782 0.395440
vt 0.076782 0.803051
vt 0.069667 0.494624
vt 0.069667 0.118771
vt 0.069667 0.902234
vt 0.069667 0.526383
s 0
usemtl Material
f 5/1/1 8/2/1 68/3/1
f 9/1/1 12/2/1 69/3/1
f 1/4/1 4/5/1 67/6/1
f 77/7/2 26/8/2 20/9/2 75/10/2
f 82/11/3 25/12/3 24/13/3 84/14/3
f 76/15/4 40/16/4 26/8/4 77/7/4
f 84/14/4 24/13/4 23/17/4 85/18/4
f 74/19/3 19/20/3 40/16/3 76/15/3
f 73/21/2 22/22/2 21/23/2 71/24/2
f 75/10/5 20/9/5 19/20/5 74/19/5
f 78/25/3 18/26/3 17/27/3 80/28/3
f 70/29/3 36/30/3 30/31/3 72/32/3
f 71/24/5 21/23/5 36/30/5 70/29/5
f 85/18/2 23/17/2 50/33/2 83/34/2
f 83/34/5 50/33/5 25/12/5 82/11/5
f 44/35/1 54/36/1 21/37/1 62/38/1
f 47/39/1 57/40/1 19/41/1 60/42/1
f 41/43/1 20/44/1 58/45/1 42/46/1
f 40/47/1 33/48/1 32/49/1 31/50/1
f 29/51/1 57/40/1 47/39/1 46/52/1
f 48/53/1 18/54/1 63/55/1 49/56/1
f 45/57/1 55/58/1 32/49/1 33/48/1
f 28/59/1 27/60/1 17/61/1 61/62/1
f 50/63/1 56/64/1 32/49/1 55/58/1
f 35/65/1 34/66/1 23/67/1 59/68/1
f 37/69/1 22/70/1 65/71/1 38/72/1
f 50/63/1 23/67/1 34/66/1 56/64/1
f 36/73/1 21/37/1 54/36/1 31/50/1
f 45/57/1 17/61/1 27/60/1 55/58/1
f 40/47/1 19/41/1 57/40/1 33/48/1
f 26/74/1 40/47/1 31/50/1 54/36/1
f 30/75/1 34/66/1 35/65/1 39/76/1
f 30/75/1 36/73/1 56/64/1 34/66/1
f 25/77/1 27/60/1 28/59/1 53/78/1
f 25/77/1 50/63/1 55/58/1 27/60/1
f 29/51/1 45/57/1 33/48/1 57/40/1
f 26/74/1 54/36/1 44/35/1 43/79/1
f 36/73/1 31/50/1 32/49/1 56/64/1
f 17/61/1 18/54/1 48/53/1 61/62/1
f 19/41/1 20/44/1 41/43/1 60/42/1
f 23/67/1 24/80/1 51/81/1 59/68/1
f 21/37/1 22/70/1 37/69/1 62/38/1
f 18/54/1 29/51/1 46/52/1 63/55/1
f 24/80/1 25/77/1 53/78/1 64/82/1
f 20/44/1 26/74/1 43/79/1 58/45/1
f 51/81/1 24/80/1 64/82/1 52/83/1
f 22/70/1 30/75/1 39/76/1 65/71/1
f 81/84/2 45/85/2 29/86/2 79/87/2
f 79/87/5 29/86/5 18/26/5 78/25/5
f 80/28/4 17/27/4 45/85/4 81/84/4
f 72/32/4 30/31/4 22/22/4 73/21/4
f 13/88/1 16/5/1 66/6/1
f 16/5/1 15/5/1 66/6/1
f 15/5/1 14/89/1 66/6/1
f 14/89/1 13/88/1 66/6/1
f 4/5/1 3/5/1 67/6/1
f 3/5/1 2/4/1 67/6/1
f 2/4/1 1/4/1 67/6/1
f 8/2/1 7/2/1 68/3/1
f 7/2/1 6/90/1 68/3/1
f 6/90/1 5/1/1 68/3/1
f 12/2/1 11/2/1 69/3/1
f 11/2/1 10/1/1 69/3/1
f 10/1/1 9/1/1 69/3/1
f 1/4/1 2/4/1 71/91/1 70/91/1
f 4/5/1 1/4/1 70/91/1 72/92/1
f 3/5/1 4/5/1 72/92/1 73/92/1
f 2/4/1 3/5/1 73/92/1 71/91/1
f 5/1/1 6/90/1 75/93/1 74/93/1
f 8/2/1 5/1/1 74/93/1 76/94/1
f 7/2/1 8/2/1 76/94/1 77/94/1
f 6/90/1 7/2/1 77/94/1 75/93/1
f 9/1/1 10/1/1 79/93/1 78/93/1
f 12/2/1 9/1/1 78/93/1 80/94/1
f 11/2/1 12/2/1 80/94/1 81/94/1
f 10/1/1 11/2/1 81/94/1 79/93/1
f 13/88/1 14/89/1 83/91/1 82/91/1
f 16/5/1 13/88/1 82/91/1 84/92/1
f 15/5/1 16/5/1 84/92/1 85/92/1
f 14/89/1 15/5/1 85/92/1 83/91/1
