# Blender 4.2.3 LTS
# www.blender.org
mtllib Elevator_Buttons.mtl
o Elevator_Buttons
v 0.165607 0.994417 -3.085264
v 0.165607 1.375962 -3.085264
v 0.165607 0.994417 -3.271662
v 0.165607 1.375962 -3.271662
v 0.232401 1.008124 -3.101583
v 0.232401 1.362255 -3.101583
v 0.232401 1.008124 -3.255343
v 0.232401 1.362255 -3.255343
v 0.224174 1.362255 -3.255343
v 0.224174 1.008124 -3.255343
v 0.224174 1.008124 -3.101583
v 0.224174 1.362255 -3.101583
v 0.227019 1.375962 -3.271662
v 0.232401 1.372906 -3.268024
v 0.232401 0.997473 -3.268024
v 0.227019 0.994417 -3.271662
v 0.232401 0.997473 -3.088902
v 0.227019 0.994417 -3.085264
v 0.227019 1.375962 -3.085264
v 0.232401 1.372906 -3.088902
v 0.212519 1.220021 -3.136661
v 0.212519 1.226640 -3.130042
v 0.212519 1.220908 -3.133351
v 0.212519 1.223330 -3.130928
v 0.212519 1.310245 -3.130042
v 0.212519 1.316864 -3.136661
v 0.212519 1.313554 -3.130928
v 0.212519 1.315977 -3.133351
v 0.212519 1.226640 -3.226885
v 0.212519 1.220021 -3.220265
v 0.212519 1.223330 -3.225998
v 0.212519 1.220908 -3.223575
v 0.212519 1.316864 -3.220265
v 0.212519 1.310245 -3.226885
v 0.212519 1.315977 -3.223575
v 0.212519 1.313554 -3.225998
v 0.233472 1.220021 -3.136661
v 0.235829 1.226640 -3.136661
v 0.233472 1.226640 -3.130042
v 0.233472 1.220905 -3.133356
v 0.235514 1.226640 -3.133356
v 0.235514 1.223335 -3.136661
v 0.235208 1.223475 -3.133495
v 0.233472 1.223335 -3.130926
v 0.233472 1.316864 -3.136661
v 0.233472 1.310245 -3.130042
v 0.235829 1.310245 -3.136661
v 0.233472 1.315979 -3.133356
v 0.233472 1.313550 -3.130926
v 0.235514 1.313550 -3.136661
v 0.235514 1.310245 -3.133356
v 0.235208 1.313410 -3.133495
v 0.233472 1.220021 -3.220265
v 0.233472 1.226640 -3.226885
v 0.235829 1.226640 -3.220265
v 0.233472 1.220905 -3.223571
v 0.233472 1.223335 -3.226000
v 0.235514 1.223335 -3.220265
v 0.235514 1.226640 -3.223571
v 0.235208 1.223475 -3.223431
v 0.233472 1.316864 -3.220265
v 0.235829 1.310245 -3.220265
v 0.233472 1.310245 -3.226885
v 0.233472 1.315979 -3.223571
v 0.235514 1.310245 -3.223571
v 0.235514 1.313550 -3.220265
v 0.235208 1.313410 -3.223431
v 0.233472 1.313550 -3.226000
v 0.232870 1.307491 -3.217512
v 0.232870 1.229394 -3.217512
v 0.232870 1.229394 -3.139415
v 0.232870 1.307491 -3.139415
v 0.232870 1.310245 -3.220265
v 0.232870 1.226640 -3.220265
v 0.232870 1.226640 -3.136661
v 0.232870 1.310245 -3.136661
v 0.212519 1.150359 -3.136661
v 0.212519 1.143740 -3.130042
v 0.212519 1.149472 -3.133351
v 0.212519 1.147049 -3.130928
v 0.212519 1.060135 -3.130042
v 0.212519 1.053516 -3.136661
v 0.212519 1.056825 -3.130928
v 0.212519 1.054403 -3.133351
v 0.212519 1.143740 -3.226885
v 0.212519 1.150359 -3.220265
v 0.212519 1.147049 -3.225998
v 0.212519 1.149472 -3.223575
v 0.212519 1.053516 -3.220265
v 0.212519 1.060135 -3.226885
v 0.212519 1.054403 -3.223575
v 0.212519 1.056825 -3.225998
v 0.233472 1.150359 -3.136661
v 0.235829 1.143740 -3.136661
v 0.233472 1.143740 -3.130042
v 0.233472 1.149475 -3.133356
v 0.235514 1.143740 -3.133356
v 0.235514 1.147045 -3.136661
v 0.235208 1.146905 -3.133495
v 0.233472 1.147045 -3.130926
v 0.233472 1.053516 -3.136661
v 0.233472 1.060135 -3.130042
v 0.235829 1.060135 -3.136661
v 0.233472 1.054400 -3.133356
v 0.233472 1.056830 -3.130926
v 0.235514 1.056830 -3.136661
v 0.235514 1.060135 -3.133356
v 0.235208 1.056970 -3.133495
v 0.233472 1.150359 -3.220265
v 0.233472 1.143740 -3.226885
v 0.235829 1.143740 -3.220265
v 0.233472 1.149475 -3.223571
v 0.233472 1.147045 -3.226000
v 0.235514 1.147045 -3.220265
v 0.235514 1.143740 -3.223571
v 0.235208 1.146905 -3.223431
v 0.233472 1.053516 -3.220265
v 0.235829 1.060135 -3.220265
v 0.233472 1.060135 -3.226885
v 0.233472 1.054400 -3.223571
v 0.235514 1.060135 -3.223571
v 0.235514 1.056830 -3.220265
v 0.235208 1.056970 -3.223431
v 0.233472 1.056830 -3.226000
v 0.232870 1.062889 -3.217512
v 0.232870 1.140986 -3.217512
v 0.232870 1.140986 -3.139415
v 0.232870 1.062889 -3.139415
v 0.232870 1.060135 -3.220265
v 0.232870 1.143740 -3.220265
v 0.232870 1.143740 -3.136661
v 0.232870 1.060135 -3.136661
v 0.228621 1.244127 -3.150087
v 0.228621 1.300879 -3.178463
v 0.228621 1.244127 -3.206839
v 0.237141 1.247608 -3.155719
v 0.235450 1.244127 -3.150087
v 0.237141 1.293095 -3.178463
v 0.235450 1.300879 -3.178463
v 0.237141 1.247608 -3.201207
v 0.235450 1.244127 -3.206839
v 0.228621 1.126252 -3.150087
v 0.228621 1.069500 -3.178463
v 0.228621 1.126252 -3.206839
v 0.237141 1.122771 -3.155719
v 0.235450 1.126252 -3.150087
v 0.237141 1.077284 -3.178463
v 0.235450 1.069500 -3.178463
v 0.237141 1.122771 -3.201207
v 0.235450 1.126252 -3.206839
vn 1.0000 -0.0000 -0.0000
vn -0.0000 -0.0000 -1.0000
vn -0.0000 -1.0000 -0.0000
vn -0.0000 -0.0000 1.0000
vn -0.0000 1.0000 -0.0000
vn 0.5600 -0.0000 -0.8285
vn 0.4938 -0.8696 -0.0000
vn 0.4938 0.8696 -0.0000
vn 0.5600 -0.0000 0.8285
vn 0.4670 0.8776 -0.1087
vn -0.0000 0.9915 -0.1305
vn -0.0000 0.9914 0.1305
vn 0.4670 0.8775 0.1087
vn 0.4670 -0.1086 0.8776
vn 0.4670 0.1086 0.8776
vn -0.0000 0.1304 0.9915
vn -0.0000 -0.1304 0.9915
vn -0.0000 -0.1305 -0.9914
vn -0.0000 0.1305 -0.9914
vn 0.4670 0.1087 -0.8775
vn 0.4670 -0.1087 -0.8775
vn 0.4302 -0.4329 0.7922
vn 0.9000 -0.3081 0.3082
vn 0.9449 -0.0565 0.3225
vn 0.9959 -0.0641 0.0641
vn 0.9449 -0.3225 0.0565
vn 0.4302 -0.7922 0.4329
vn 0.9449 0.3225 0.0565
vn 0.4302 0.7922 0.4329
vn 0.9002 0.3080 0.3080
vn 0.4302 0.4330 0.7921
vn 0.9449 0.0565 0.3225
vn 0.9449 -0.3225 -0.0565
vn 0.4670 -0.8775 -0.1086
vn 0.4302 -0.7921 -0.4330
vn 0.9001 -0.3081 -0.3082
vn 0.9959 0.0641 0.0641
vn 0.4302 -0.4330 -0.7921
vn 0.9449 -0.0566 -0.3225
vn 0.9449 0.3225 -0.0565
vn 0.9000 0.3082 -0.3082
vn 0.4302 0.7921 -0.4330
vn 0.9959 -0.0641 -0.0641
vn 0.4302 0.4330 -0.7921
vn 0.9449 0.0566 -0.3225
vn 0.9959 0.0641 -0.0641
vn -0.0000 -0.9915 -0.1304
vn -0.0000 -0.8661 -0.4999
vn -0.0000 -0.5000 -0.8660
vn -0.0000 0.8660 -0.5000
vn -0.0000 0.5000 -0.8660
vn 0.4670 -0.8775 0.1087
vn -0.0000 -0.9915 0.1304
vn -0.0000 -0.8661 0.4999
vn -0.0000 -0.4999 0.8661
vn -0.0000 0.8660 0.5000
vn -0.0000 0.5000 0.8661
vn 0.4670 -0.8775 0.1086
vn 0.4670 0.1086 0.8775
vn 0.9000 0.3081 0.3082
vn 0.4302 0.4329 0.7922
vn 0.9001 -0.3081 0.3082
vn 0.9001 0.3081 -0.3081
vn 0.4670 0.8775 -0.1086
vn 0.9001 -0.3081 -0.3081
vn -0.0000 0.9915 -0.1304
vn -0.0000 0.9915 0.1304
vn -0.0000 0.4999 0.8661
vn -0.0000 0.4472 0.8944
vn -0.0000 0.4472 -0.8944
vn 0.8995 -0.4370 -0.0000
vn 0.8995 0.1954 0.3908
vn 0.8995 0.1954 -0.3908
vn -0.0000 -0.4472 0.8944
vn -0.0000 -0.4472 -0.8944
vn 0.8995 0.4369 -0.0000
vn 0.8995 -0.1954 0.3908
vn 0.8995 -0.1954 -0.3908
vt 0.731097 0.244253
vt 0.731097 0.220320
vt 0.731135 0.218348
vt 0.731135 0.246225
vt 0.729835 0.244253
vt 0.729835 0.220320
vt 0.729797 0.246225
vt 0.729797 0.218348
vt 0.729786 0.217783
vt 0.731146 0.217783
vt 0.729786 0.246786
vt 0.731146 0.246786
vt 0.715139 0.220320
vt 0.716401 0.220320
vt 0.716401 0.244253
vt 0.715139 0.244253
vt 0.743132 0.218348
vt 0.741793 0.218348
vt 0.741783 0.217783
vt 0.743143 0.217783
vt 0.741783 0.246786
vt 0.741793 0.246225
vt 0.743143 0.246786
vt 0.743132 0.246225
vt 0.655368 0.238794
vt 0.655368 0.225775
vt 0.638860 0.225775
vt 0.638860 0.238794
vt 0.638538 0.239820
vt 0.638836 0.239820
vt 0.638538 0.224745
vt 0.638836 0.224745
vt 0.638527 0.239679
vt 0.638527 0.239283
vt 0.638538 0.239305
vt 0.638538 0.238794
vt 0.638527 0.238794
vt 0.638518 0.239305
vt 0.638848 0.238794
vt 0.638857 0.239305
vt 0.638848 0.239283
vt 0.638848 0.239679
vt 0.638836 0.239305
vt 0.638527 0.225775
vt 0.638515 0.225775
vt 0.638518 0.225267
vt 0.638527 0.225283
vt 0.638836 0.238794
vt 0.638527 0.224886
vt 0.638538 0.225267
vt 0.638848 0.225775
vt 0.638848 0.225283
vt 0.638857 0.225267
vt 0.638538 0.225775
vt 0.638848 0.224886
vt 0.638836 0.225267
vt 0.638836 0.225775
vt 0.638515 0.238794
vt 0.690549 0.226206
vt 0.690827 0.226206
vt 0.690827 0.238363
vt 0.690549 0.238363
vt 0.655666 0.225775
vt 0.655666 0.238794
vt 0.638827 0.226206
vt 0.638548 0.226206
vt 0.638548 0.238363
vt 0.638827 0.238363
vt 0.655073 0.238794
vt 0.655073 0.225775
vt 0.637921 0.225775
vt 0.637921 0.238794
vt 0.638243 0.239820
vt 0.637945 0.239820
vt 0.638243 0.224745
vt 0.637945 0.224745
vt 0.638243 0.239305
vt 0.638254 0.239283
vt 0.638255 0.239679
vt 0.638243 0.238794
vt 0.638255 0.238794
vt 0.638263 0.239305
vt 0.637933 0.238794
vt 0.637934 0.239283
vt 0.637924 0.239305
vt 0.637933 0.239679
vt 0.637945 0.239305
vt 0.638255 0.225775
vt 0.638254 0.225283
vt 0.638263 0.225267
vt 0.638266 0.225775
vt 0.637945 0.238794
vt 0.638255 0.224886
vt 0.638243 0.225267
vt 0.637924 0.225267
vt 0.637934 0.225283
vt 0.637933 0.225775
vt 0.638243 0.225775
vt 0.637945 0.225267
vt 0.637933 0.224886
vt 0.637945 0.225775
vt 0.638266 0.238794
vt 0.690234 0.226206
vt 0.690234 0.238363
vt 0.689955 0.238363
vt 0.689955 0.226206
vt 0.654775 0.225775
vt 0.654775 0.238794
vt 0.637955 0.226206
vt 0.638233 0.226206
vt 0.638233 0.238363
vt 0.637955 0.238363
vt 0.721079 0.236700
vt 0.721281 0.232286
vt 0.721079 0.227869
vt 0.721091 0.228746
vt 0.721253 0.232286
vt 0.721091 0.235826
vt 0.736974 0.236700
vt 0.736974 0.227869
vt 0.736987 0.228746
vt 0.736987 0.235826
vt 0.737177 0.232286
vt 0.737149 0.232286
vt 0.720658 0.236700
vt 0.720456 0.232286
vt 0.720658 0.227869
vt 0.720646 0.228746
vt 0.720646 0.235826
vt 0.720484 0.232286
vt 0.736554 0.236700
vt 0.736542 0.235826
vt 0.736542 0.228746
vt 0.736554 0.227869
vt 0.736352 0.232286
vt 0.736380 0.232286
s 0
usemtl Material
f 6/1/1 8/2/1 14/3/1 20/4/1
f 6/1/2 5/5/2 11/5/2 12/1/2
f 7/6/1 5/5/1 17/7/1 15/8/1
f 3/9/2 4/10/2 13/10/2 16/9/2
f 3/9/3 16/9/3 18/11/3 1/11/3
f 5/5/1 6/1/1 20/4/1 17/7/1
f 8/2/1 7/6/1 15/8/1 14/3/1
f 18/11/4 19/12/4 2/12/4 1/11/4
f 10/13/1 9/14/1 12/15/1 11/16/1
f 5/5/5 7/6/5 10/6/5 11/5/5
f 8/2/3 6/1/3 12/1/3 9/2/3
f 7/6/4 8/2/4 9/2/4 10/6/4
f 14/17/6 15/18/6 16/19/6 13/20/6
f 18/21/7 16/19/7 15/18/7 17/22/7
f 13/20/8 19/23/8 20/24/8 14/17/8
f 19/23/9 18/21/9 17/22/9 20/24/9
f 13/10/5 4/10/5 2/12/5 19/12/5
s 1
f 38/25/5 55/26/5 74/26/5 75/25/5
f 61/27/10 33/27/11 26/28/12 45/28/13
f 39/29/14 46/30/15 25/30/16 22/29/17
f 29/31/18 34/32/19 63/32/20 54/31/21
f 39/29/14 44/33/22 43/34/23 41/35/24
f 38/36/25 41/35/24 43/34/23 42/37/26
f 40/38/27 43/34/23 44/33/22
f 50/39/28 45/28/13 48/40/29 52/41/30
f 49/42/31 52/41/30 48/40/29
f 46/30/15 51/43/32 52/41/30 49/42/31
f 58/44/33 53/45/34 56/46/35 60/47/36
f 47/48/37 50/39/28 52/41/30 51/43/32
f 57/49/38 60/47/36 56/46/35
f 54/31/21 59/50/39 60/47/36 57/49/38
f 61/27/10 66/51/40 67/52/41 64/53/42
f 55/54/43 58/44/33 60/47/36 59/50/39
f 63/32/20 68/55/44 67/52/41 65/56/45
f 62/57/46 65/56/45 67/52/41 66/51/40
f 64/53/42 67/52/41 68/55/44
f 54/31/21 63/32/20 65/56/45 59/50/39
f 53/45/34 30/45/47 32/46/48 56/46/35
f 56/46/35 32/46/48 31/49/49 57/49/38
f 57/49/38 31/49/49 29/31/18 54/31/21
f 33/27/11 61/27/10 64/53/42 35/53/50
f 35/53/50 64/53/42 68/55/44 36/55/51
f 36/55/51 68/55/44 63/32/20 34/32/19
f 62/57/46 55/54/43 59/50/39 65/56/45
f 53/45/34 58/44/33 42/37/26 37/58/52
f 45/28/13 50/39/28 66/51/40 61/27/10
f 42/37/26 58/44/33 55/54/43 38/36/25
f 41/35/24 51/43/32 46/30/15 39/29/14
f 66/51/40 50/39/28 47/48/37 62/57/46
f 51/43/32 41/35/24 38/36/25 47/48/37
f 21/58/53 37/58/52 40/38/27 23/38/54
f 23/38/54 40/38/27 44/33/22 24/33/55
f 24/33/55 44/33/22 39/29/14 22/29/17
f 45/28/13 26/28/12 28/40/56 48/40/29
f 48/40/29 28/40/56 27/42/57 49/42/31
f 49/42/31 27/42/57 25/30/16 46/30/15
f 30/45/47 53/45/34 37/58/52 21/58/53
f 37/58/52 42/37/26 43/34/23 40/38/27
f 70/59/1 69/60/1 72/61/1 71/62/1
f 62/63/3 47/64/3 76/64/3 73/63/3
f 55/26/4 62/63/4 73/63/4 74/26/4
f 47/64/2 38/25/2 75/25/2 76/64/2
f 69/65/1 70/66/1 74/54/1 73/57/1
f 70/66/1 71/67/1 75/36/1 74/54/1
f 72/68/1 69/65/1 73/57/1 76/48/1
f 71/67/1 72/68/1 76/48/1 75/36/1
f 94/69/3 131/69/3 130/70/3 111/70/3
f 117/71/34 101/72/58 82/72/53 89/71/47
f 95/73/59 78/73/16 81/74/17 102/74/14
f 85/75/19 110/75/20 119/76/21 90/76/18
f 95/73/59 97/77/32 99/78/60 100/79/61
f 94/80/37 98/81/28 99/78/60 97/77/32
f 96/82/29 100/79/61 99/78/60
f 106/83/26 108/84/62 104/85/27 101/72/58
f 105/86/22 104/85/27 108/84/62
f 102/74/14 105/86/22 108/84/62 107/87/24
f 114/88/40 116/89/63 112/90/42 109/91/64
f 103/92/25 107/87/24 108/84/62 106/83/26
f 113/93/44 112/90/42 116/89/63
f 110/75/20 113/93/44 116/89/63 115/94/45
f 117/71/34 120/95/35 123/96/65 122/97/33
f 111/98/46 115/94/45 116/89/63 114/88/40
f 119/76/21 121/99/39 123/96/65 124/100/38
f 118/101/43 122/97/33 123/96/65 121/99/39
f 120/95/35 124/100/38 123/96/65
f 110/75/20 115/94/45 121/99/39 119/76/21
f 109/91/64 112/90/42 88/90/50 86/91/66
f 112/90/42 113/93/44 87/93/51 88/90/50
f 113/93/44 110/75/20 85/75/19 87/93/51
f 89/71/47 91/95/48 120/95/35 117/71/34
f 91/95/48 92/100/49 124/100/38 120/95/35
f 92/100/49 90/76/18 119/76/21 124/100/38
f 118/101/43 121/99/39 115/94/45 111/98/46
f 109/91/64 93/102/13 98/81/28 114/88/40
f 101/72/58 117/71/34 122/97/33 106/83/26
f 98/81/28 94/80/37 111/98/46 114/88/40
f 97/77/32 95/73/59 102/74/14 107/87/24
f 122/97/33 118/101/43 103/92/25 106/83/26
f 107/87/24 103/92/25 94/80/37 97/77/32
f 77/102/67 79/82/56 96/82/29 93/102/13
f 79/82/56 80/79/68 100/79/61 96/82/29
f 80/79/68 78/73/16 95/73/59 100/79/61
f 101/72/58 104/85/27 84/85/54 82/72/53
f 104/85/27 105/86/22 83/86/55 84/85/54
f 105/86/22 102/74/14 81/74/17 83/86/55
f 86/91/66 77/102/67 93/102/13 109/91/64
f 93/102/13 96/82/29 99/78/60 98/81/28
f 126/103/1 127/104/1 128/105/1 125/106/1
f 118/107/5 129/107/5 132/108/5 103/108/5
f 111/70/4 130/70/4 129/107/4 118/107/4
f 103/108/2 132/108/2 131/69/2 94/69/2
f 125/109/1 129/101/1 130/98/1 126/110/1
f 126/110/1 130/98/1 131/80/1 127/111/1
f 128/112/1 132/92/1 129/101/1 125/109/1
f 127/111/1 131/80/1 132/92/1 128/112/1
s 0
f 137/113/69 139/114/69 134/114/69 133/113/69
f 135/115/70 134/114/70 139/114/70 141/115/70
f 140/116/1 138/117/1 136/118/1
f 137/119/71 141/120/71 140/121/71 136/122/71
f 139/123/72 137/119/72 136/122/72 138/124/72
f 138/124/73 140/121/73 141/120/73 139/123/73
f 135/115/3 141/115/3 137/113/3 133/113/3
f 146/125/74 142/125/74 143/126/74 148/126/74
f 144/127/75 150/127/75 148/126/75 143/126/75
f 149/128/1 145/129/1 147/130/1
f 146/131/76 145/132/76 149/133/76 150/134/76
f 148/135/77 147/136/77 145/132/77 146/131/77
f 147/136/78 148/135/78 150/134/78 149/133/78
f 144/127/5 142/125/5 146/125/5 150/127/5
