# Blender 4.2.3 LTS
# www.blender.org
mtllib Office_Wall_Door.mtl
o Wall_Door
v 0.000000 4.000000 -0.000001
v 0.000000 0.226440 -0.000000
v 0.029948 0.000000 0.000000
v 0.029948 0.218878 -0.000000
v 0.022385 0.226440 -0.000000
v 0.000000 4.000000 -2.000001
v 0.000000 0.226440 -2.000000
v 0.029948 -0.000000 -2.000000
v 0.029948 0.218877 -2.000000
v 0.022385 0.226440 -2.000000
v 0.000000 3.031435 -0.000001
v 0.000000 3.031435 -2.000001
v 0.000000 4.000000 -1.593458
v 0.000000 4.000000 -1.000001
v 0.000000 4.000000 -0.406544
v 0.022385 0.226440 -1.593457
v 0.022385 0.226440 -0.406543
v 0.000000 0.226440 -0.406543
v 0.000000 0.226440 -1.593457
v 0.029948 -0.000000 -0.406543
v 0.029948 -0.000000 -1.593457
v 0.029948 0.218878 -0.406543
v 0.029948 0.218877 -1.593457
v 0.000000 3.031435 -0.406544
v 0.000000 3.031435 -1.000001
v 0.000000 3.031435 -1.593458
v 0.000000 2.113009 -0.000001
v 0.000000 1.628937 -0.000000
v 0.000000 0.927689 -0.000000
v 0.000000 0.927689 -2.000000
v 0.000000 1.628937 -2.000000
v 0.000000 2.113008 -2.000000
v 0.000000 0.927689 -0.406543
v 0.000000 1.628937 -0.406543
v 0.000000 2.113009 -0.406543
v 0.000000 2.113009 -1.000000
v 0.000000 0.927689 -1.593457
v 0.000000 1.628937 -1.593457
v 0.000000 2.113008 -1.593457
vn -0.0000 1.0000 -0.0000
vn 1.0000 -0.0000 -0.0000
vn 0.7071 0.7071 -0.0000
vn 0.7071 0.7072 -0.0000
vt 0.022764 0.572694
vt 0.022764 0.619103
vt 0.022739 0.437188
vt 0.022020 0.437188
vt 0.022020 0.390779
vt 0.022739 0.390779
vt 0.022764 0.390779
vt 0.022764 0.437188
vt 0.733955 0.437188
vt 0.731203 0.437188
vt 0.731203 0.390779
vt 0.733955 0.390779
vt 0.746016 0.437188
vt 0.742214 0.437188
vt 0.742214 0.390779
vt 0.746016 0.390779
vt 0.746016 0.619103
vt 0.742214 0.619103
vt 0.742214 0.572694
vt 0.746016 0.572694
vt 0.742214 0.504945
vt 0.746016 0.504945
vt 0.733955 0.619103
vt 0.731203 0.619103
vt 0.731203 0.572694
vt 0.733955 0.572694
vt 0.022739 0.619103
vt 0.022739 0.572694
vt 0.022020 0.619103
vt 0.022020 0.572694
vt 0.738609 0.504945
vt 0.738609 0.437188
vt 0.738609 0.572694
vt 0.738609 0.619103
vt 0.736708 0.619103
vt 0.736708 0.572694
vt 0.738609 0.390779
vt 0.736708 0.437188
vt 0.736708 0.390779
s 1
usemtl Material
f 18/1/1 2/2/1 5/2/1 17/1/1
f 23/3/2 21/4/2 8/5/2 9/6/2
f 23/3/3 9/6/3 10/7/3 16/8/3
f 37/9/2 19/10/2 7/11/2 30/12/2
f 13/13/2 26/14/2 12/15/2 6/16/2
f 1/17/2 11/18/2 24/19/2 15/20/2
f 15/20/2 24/19/2 25/21/2 14/22/2
f 14/22/2 25/21/2 26/14/2 13/13/2
f 29/23/2 2/24/2 18/25/2 33/26/2
f 4/27/4 22/28/4 17/1/4 5/2/4
f 4/27/2 3/29/2 20/30/2 22/28/2
f 7/7/1 19/8/1 16/8/1 10/7/1
f 25/21/2 36/31/2 39/32/2 26/14/2
f 24/19/2 35/33/2 36/31/2 25/21/2
f 11/18/2 27/34/2 35/33/2 24/19/2
f 27/34/2 28/35/2 34/36/2 35/33/2
f 28/35/2 29/23/2 33/26/2 34/36/2
f 26/14/2 39/32/2 32/37/2 12/15/2
f 39/32/2 38/38/2 31/39/2 32/37/2
f 38/38/2 37/9/2 30/12/2 31/39/2
