# Blender 4.2.3 LTS
# www.blender.org
mtllib WallElevator.mtl
o Wall_Elevator
v 0.000000 4.000000 -0.000000
v 0.000000 4.000000 -4.000000
v 0.000000 0.226440 -0.000000
v 0.000000 0.226440 -4.000000
v 0.029948 0.000000 0.000000
v 0.029947 -0.000000 -4.000000
v 0.029948 0.218878 -0.000000
v 0.022385 0.226440 -0.000000
v 0.022385 0.226440 -4.000000
v 0.029947 0.218878 -4.000000
v 0.000000 4.000000 -3.295388
v 0.000000 4.000000 -0.704612
v 0.000000 0.226440 -0.704612
v 0.000000 0.226440 -3.295388
v 0.029948 -0.000000 -0.704612
v 0.029947 -0.000000 -3.295388
v 0.029948 0.218877 -0.704612
v 0.029947 0.218877 -3.295388
v 0.022385 0.226440 -3.295388
v 0.022385 0.226440 -0.704612
v 0.000000 3.031435 -4.000000
v 0.000000 3.031435 -0.000000
v 0.000000 3.031435 -0.704612
v 0.000000 3.031435 -3.295388
v 0.000000 4.000000 -2.000000
v 0.000000 3.031435 -2.000000
v 0.000000 0.927689 -4.000000
v 0.000000 1.628937 -4.000000
v 0.000000 2.330186 -4.000000
v 0.000000 0.927689 -3.295388
v 0.000000 1.628937 -3.295388
v 0.000000 2.330186 -3.295388
v 0.000000 2.330186 -0.000000
v 0.000000 1.628937 -0.000000
v 0.000000 0.927689 -0.000000
v 0.000000 0.927689 -0.704612
v 0.000000 1.628937 -0.704612
v 0.000000 2.330186 -0.704612
vn 1.0000 -0.0000 -0.0000
vn -0.0000 1.0000 -0.0000
vn 0.7071 0.7071 -0.0000
vt 0.733956 0.472380
vt 0.731203 0.472380
vt 0.731203 0.391940
vt 0.733956 0.391940
vt 0.022764 0.538667
vt 0.022764 0.619103
vt 0.022739 0.472380
vt 0.022739 0.391940
vt 0.022764 0.391940
vt 0.022764 0.472380
vt 0.022020 0.472380
vt 0.022020 0.391940
vt 0.022739 0.619103
vt 0.022020 0.619103
vt 0.022020 0.538667
vt 0.022739 0.538667
vt 0.733956 0.619103
vt 0.731203 0.619103
vt 0.731203 0.538667
vt 0.733956 0.538667
vt 0.746016 0.390779
vt 0.742214 0.390779
vt 0.742214 0.472380
vt 0.746016 0.472380
vt 0.746016 0.619103
vt 0.742214 0.619103
vt 0.742214 0.538667
vt 0.746016 0.538667
vt 0.742214 0.391940
vt 0.746016 0.391940
vt 0.739461 0.472380
vt 0.739461 0.391940
vt 0.736708 0.472380
vt 0.736708 0.391940
vt 0.739461 0.619103
vt 0.739461 0.538667
vt 0.736708 0.619103
vt 0.736708 0.538667
s 0
usemtl Material
f 30/1/1 14/2/1 4/3/1 27/4/1
f 13/5/2 3/6/2 8/6/2 20/5/2
f 18/7/3 10/8/3 9/9/3 19/10/3
f 18/7/1 16/11/1 6/12/1 10/8/1
f 7/13/1 5/14/1 15/15/1 17/16/1
f 7/13/3 17/16/3 20/5/3 8/6/3
f 4/9/2 14/10/2 19/10/2 9/9/2
f 35/17/1 3/18/1 13/19/1 36/20/1
f 25/21/1 26/22/1 24/23/1 11/24/1
f 1/25/1 22/26/1 23/27/1 12/28/1
f 11/24/1 24/23/1 21/29/1 2/30/1
f 12/28/1 23/27/1 26/22/1 25/21/1
f 24/23/1 32/31/1 29/32/1 21/29/1
f 32/31/1 31/33/1 28/34/1 29/32/1
f 31/33/1 30/1/1 27/4/1 28/34/1
f 22/26/1 33/35/1 38/36/1 23/27/1
f 33/35/1 34/37/1 37/38/1 38/36/1
f 34/37/1 35/17/1 36/20/1 37/38/1
