# Blender 4.2.1 LTS
# www.blender.org
mtllib Cuadro.mtl
o Cuadro
v 0.707273 -0.390732 -0.021376
v 0.709634 -0.395454 -0.023737
v 0.704911 -0.393093 -0.021376
v 0.707273 0.390731 -0.021377
v 0.704911 0.393091 -0.021377
v 0.709634 0.395453 -0.023738
v 0.768847 -0.457029 0.000001
v 0.771209 -0.454668 0.000001
v 0.771209 0.454668 0.000000
v 0.768847 0.457028 0.000000
v -0.707273 -0.390732 -0.021377
v -0.704911 -0.393093 -0.021377
v -0.709634 -0.395454 -0.023738
v -0.707273 0.390731 -0.021378
v -0.709634 0.395453 -0.023739
v -0.704911 0.393091 -0.021378
v -0.771209 -0.454668 -0.000000
v -0.768847 -0.457029 -0.000000
v -0.768847 0.457028 -0.000001
v -0.771209 0.454668 -0.000001
v 0.768847 -0.457029 -0.021376
v 0.768847 -0.454668 -0.023737
v 0.771209 -0.454668 -0.021376
v 0.768847 0.454668 -0.023738
v 0.768847 0.457028 -0.021377
v 0.771209 0.454668 -0.021377
v -0.768847 0.457028 -0.021378
v -0.768847 0.454668 -0.023739
v -0.771209 0.454668 -0.021378
v -0.768847 -0.457029 -0.021377
v -0.771209 -0.454668 -0.021377
v -0.768847 -0.454668 -0.023738
v 0.707273 -0.390732 -0.002200
v 0.704911 -0.393093 -0.002200
v 0.704911 0.393091 -0.002201
v 0.707273 0.390731 -0.002201
v -0.707273 0.390731 -0.002202
v -0.704911 0.393091 -0.002202
v -0.704911 -0.393093 -0.002201
v -0.707273 -0.390732 -0.002201
v 0.707273 -0.393093 -0.002200
v 0.707273 0.393091 -0.002201
v -0.707273 0.393091 -0.002202
v -0.707273 -0.393093 -0.002201
v 0.353636 -0.393093 -0.002201
v 0.000000 -0.393093 -0.002201
v -0.353636 -0.393093 -0.002201
v 0.353636 0.393091 -0.002201
v 0.000000 0.393091 -0.002201
v -0.353636 0.393091 -0.002201
v 0.000000 0.056654 -0.002201
v -0.353636 0.280052 -0.002201
v 0.353636 0.048115 -0.002201
v 0.353636 -0.393093 -0.002201
v 0.174750 0.222906 -0.002201
vn -0.0000 1.0000 -0.0000
vn -0.0000 -0.0000 -1.0000
vn 1.0000 -0.0000 -0.0000
vn -1.0000 -0.0000 -0.0000
vn -0.0000 -1.0000 -0.0000
vn -0.3015 0.3015 -0.9045
vn -0.3014 -0.3015 -0.9046
vn 0.3015 0.3015 -0.9045
vn 0.3014 -0.3015 -0.9046
vn 0.5773 -0.5774 -0.5774
vn 0.5773 0.5774 -0.5773
vn -0.5773 0.5774 -0.5773
vn -0.5773 -0.5774 -0.5774
vn 0.7071 -0.7072 -0.0000
vn 0.7071 -0.0000 -0.7072
vn 0.7070 0.7072 -0.0000
vn -0.7071 -0.7072 -0.0000
vn -0.7070 0.7072 -0.0000
vn -0.7071 -0.0000 -0.7072
vn -0.0000 -0.7071 -0.7071
vn -0.0000 0.7071 -0.7071
vn -0.0000 -0.7070 -0.7073
vn -0.7070 -0.7072 -0.0000
vn 0.7070 -0.7072 -0.0000
vt 0.155241 0.339899
vt 0.161314 0.342391
vt 0.155392 0.667639
vt 0.160998 0.669939
vt 0.161226 0.692794
vt 0.155153 0.690302
vt 0.161235 0.692797
vt 0.161323 0.343301
vt 0.155402 0.665828
vt 0.155478 0.365480
vt 0.160979 0.669025
vt 0.155411 0.666739
vt 0.155143 0.690298
vt 0.155231 0.340802
vt 0.155487 0.364574
vt 0.161055 0.366860
vt 0.161225 0.693700
vt 0.155152 0.691209
vt 0.161074 0.365960
vt 0.161313 0.343297
vt 0.155469 0.363659
vt 0.155240 0.340805
vt 0.160989 0.668121
vt 0.161064 0.367772
vt 0.560945 0.228758
vt 0.555348 0.584839
vt 0.555348 -0.000000
vt 0.529117 0.813581
vt 0.529117 -0.000000
vt 0.536293 0.116979
vt 0.567105 0.019441
vt 0.568485 0.712479
vt 0.559966 0.056411
vt 0.544706 0.773798
vt 0.550347 0.407934
vt 0.550347 1.000000
vt 0.581662 0.804912
vt 0.581662 0.372047
vt 0.587433 0.618967
vt 0.525134 0.000000
vt 0.532310 0.456583
vt 0.525134 0.813582
vt 0.576679 0.366067
vt 0.576679 0.000000
vt 0.580137 0.176635
vt 0.574244 -0.017529
vt 0.547508 0.000000
vt 0.509449 0.000000
vt 0.512902 0.185120
vt 0.509449 0.365960
vt 0.546894 0.511248
vt 0.546894 -0.000000
vt 0.551905 0.249287
vt 0.560956 0.228422
vt 0.560836 0.820487
vt 0.589728 0.365960
vt 0.587434 0.731920
vt 0.587434 0.365960
vt 0.587434 0.000000
vt 0.586407 0.865916
vt 0.583677 0.357449
s 1
usemtl PaletaGeneral.001
f 19/1/1 10/2/1 25/2/1 27/1/1
f 13/3/2 2/4/2 22/5/2 32/6/2
f 23/7/3 26/8/3 9/8/3 8/7/3
f 11/9/3 14/10/3 37/10/3 40/9/3
f 3/11/1 12/12/1 39/12/1 34/11/1
f 17/13/4 20/14/4 29/14/4 31/13/4
f 16/15/5 5/16/5 35/16/5 38/15/5
f 7/17/5 18/18/5 30/18/5 21/17/5
f 2/4/2 6/19/2 24/20/2 22/5/2
f 6/19/2 15/21/2 28/22/2 24/20/2
f 15/21/2 13/3/2 32/6/2 28/22/2
f 1/23/6 2/4/6 3/11/6
f 4/24/7 5/16/7 6/19/7
f 11/9/8 12/12/8 13/3/8
f 14/10/9 15/21/9 16/15/9
f 21/17/10 22/5/10 23/7/10
f 24/20/11 25/2/11 26/8/11
f 27/1/12 28/22/12 29/14/12
f 30/18/13 31/13/13 32/6/13
f 7/17/14 21/17/14 23/7/14 8/7/14
f 22/5/15 24/20/15 26/8/15 23/7/15
f 25/2/16 10/2/16 9/8/16 26/8/16
f 30/18/17 18/18/17 17/13/17 31/13/17
f 19/1/18 27/1/18 29/14/18 20/14/18
f 28/22/19 32/6/19 31/13/19 29/14/19
f 21/17/20 30/18/20 32/6/20 22/5/20
f 27/1/21 25/2/21 24/20/21 28/22/21
f 1/23/19 4/24/19 6/19/19 2/4/19
f 14/10/15 11/9/15 13/3/15 15/21/15
f 2/4/21 13/3/21 12/12/21 3/11/21
f 15/21/22 6/19/22 5/16/22 16/15/22
f 11/9/16 40/9/16 39/12/16 12/12/16
f 33/23/18 1/23/18 3/11/18 34/11/18
f 35/16/23 5/16/23 4/24/23 36/24/23
f 37/10/24 14/10/24 16/15/24 38/15/24
f 4/24/4 1/23/4 33/23/4 36/24/4
f 45/25/2 53/26/2 41/27/2
f 44/28/2 43/29/2 52/30/2
f 47/31/2 52/32/2 46/33/2
f 46/34/2 51/35/2 54/36/2
f 51/37/2 52/38/2 49/39/2
f 41/40/2 53/41/2 42/42/2
f 53/43/2 51/44/2 55/45/2
f 52/32/2 47/31/2 44/46/2
f 46/34/2 52/47/2 51/35/2
f 48/48/2 55/49/2 49/50/2
f 42/51/2 53/52/2 48/53/2
f 54/54/2 51/55/2 53/26/2 45/25/2
f 52/56/2 43/57/2 50/58/2
f 49/59/2 52/56/2 50/58/2
f 49/39/2 55/60/2 51/37/2
f 55/45/2 48/61/2 53/43/2
